<svg width="169" height="66" viewBox="0 0 169 66" fill="none" xmlns="http://www.w3.org/2000/svg">
<g clip-path="url(#clip0_1858_5206)">
<path d="M0.415509 32.9248C0.415509 15.0254 14.9258 0.515119 32.8252 0.515119H135.872C153.771 0.515119 168.281 15.0254 168.281 32.9248C168.281 50.8242 153.771 65.3346 135.872 65.3346H32.8252C14.9258 65.3346 0.415509 50.8242 0.415509 32.9248Z" fill="white" fill-opacity="0.85" stroke="#5468FF" stroke-width="0.831019"/>
<path d="M41.1951 31.3707C41.1669 27.8006 43.9471 26.0655 44.0692 25.9857C42.4912 23.5525 40.0492 23.2134 39.1944 23.1835C37.1468 22.9541 35.1556 24.4899 34.113 24.4899C33.0516 24.4899 31.4361 23.2134 29.7079 23.2433C27.4818 23.2832 25.3872 24.6494 24.2507 26.7835C21.8932 31.1214 23.6496 37.5036 25.9132 41.0138C27.0497 42.7291 28.3647 44.6537 30.1023 44.5839C31.793 44.5141 32.4317 43.4371 34.4699 43.4371C36.4987 43.4371 37.0905 44.5839 38.8563 44.544C40.6785 44.5141 41.815 42.8188 42.9139 41.0836C44.2195 39.1191 44.7455 37.1745 44.7643 37.0748C44.7173 37.0549 41.2326 35.6388 41.1951 31.3707Z" fill="#5468FF"/>
<path d="M37.8604 20.8809C38.7714 19.6743 39.3914 18.0288 39.2223 16.3535C37.9073 16.4133 36.2542 17.3208 35.3056 18.5075C34.4696 19.5546 33.7182 21.2598 33.9061 22.8654C35.3901 22.985 36.9117 22.0676 37.8604 20.8809Z" fill="#5468FF"/>
<path d="M65.7286 44.3383H63.3617L62.0655 40.0104H57.557L56.3266 44.3383H54.0254L58.4869 29.6094H61.2483L65.7286 44.3383ZM61.6804 38.1954L60.5063 34.3561C60.3842 33.9573 60.1494 33.0398 59.8113 31.5839H59.7643C59.6234 32.2121 59.4074 33.1395 59.1068 34.3561L57.9515 38.1954H61.6804Z" fill="#5468FF"/>
<path d="M77.1974 38.901C77.1974 40.706 76.7371 42.132 75.8073 43.1791C74.9807 44.1165 73.9475 44.5752 72.7265 44.5752C71.4021 44.5752 70.4535 44.0766 69.8711 43.0694V48.6439H67.6451V37.2058C67.6451 36.0689 67.6169 34.9121 67.5605 33.7155H69.5142L69.6363 35.4008H69.6739C70.4159 34.1343 71.543 33.4961 73.0458 33.4961C74.2293 33.4961 75.2061 33.9947 75.9951 34.982C76.8029 35.9792 77.1974 37.2756 77.1974 38.901ZM74.9338 38.9808C74.9338 37.9437 74.7177 37.0961 74.2763 36.4279C73.7973 35.7299 73.1492 35.3808 72.3414 35.3808C71.7966 35.3808 71.2988 35.5803 70.848 35.9592C70.4065 36.3481 70.1059 36.8468 69.9745 37.475C69.9087 37.7642 69.8711 38.0035 69.8711 38.193V39.9681C69.8711 40.7359 70.0966 41.3941 70.538 41.9226C70.9795 42.4511 71.5618 42.7204 72.2756 42.7204C73.1116 42.7204 73.7597 42.3714 74.2293 41.6933C74.6989 41.0052 74.9338 40.1077 74.9338 38.9808Z" fill="#5468FF"/>
<path d="M88.6935 38.901C88.6935 40.706 88.2332 42.132 87.3034 43.1791C86.4768 44.1165 85.4436 44.5752 84.2226 44.5752C82.8982 44.5752 81.9496 44.0766 81.3672 43.0694V48.6439H79.1412V37.2058C79.1412 36.0689 79.113 34.9121 79.0566 33.7155H81.0103L81.1324 35.4008H81.17C81.912 34.1343 83.0391 33.4961 84.5419 33.4961C85.7254 33.4961 86.7022 33.9947 87.4912 34.982C88.299 35.9792 88.6935 37.2756 88.6935 38.901ZM86.4299 38.9808C86.4299 37.9437 86.2138 37.0961 85.7724 36.4279C85.2934 35.7299 84.6453 35.3808 83.8375 35.3808C83.2927 35.3808 82.7949 35.5803 82.3441 35.9592C81.9026 36.3481 81.6114 36.8468 81.4705 37.475C81.4048 37.7642 81.3672 38.0035 81.3672 38.193V39.9681C81.3672 40.7359 81.5927 41.3941 82.0341 41.9226C82.4756 42.4511 83.0579 42.7204 83.7717 42.7204C84.6077 42.7204 85.2652 42.3714 85.7254 41.6933C86.2044 41.0052 86.4299 40.1077 86.4299 38.9808Z" fill="#5468FF"/>
<path d="M101.561 40.2083C101.561 41.4648 101.148 42.482 100.331 43.2698C99.4289 44.1274 98.1703 44.5562 96.5548 44.5562C95.0614 44.5562 93.8685 44.2471 92.9668 43.6388L93.4834 41.6742C94.4602 42.2825 95.531 42.5917 96.6957 42.5917C97.5316 42.5917 98.1891 42.3922 98.6493 41.9933C99.119 41.5945 99.3538 41.056 99.3538 40.3878C99.3538 39.7895 99.1565 39.2909 98.7808 38.882C98.3957 38.4732 97.757 38.0942 96.8647 37.7452C94.4133 36.7779 93.2016 35.3718 93.2016 33.5269C93.2016 32.3203 93.6337 31.333 94.4884 30.5552C95.3431 29.7874 96.4796 29.3984 97.8979 29.3984C99.1565 29.3984 100.209 29.6278 101.044 30.0965L100.481 32.0112C99.6919 31.5624 98.809 31.333 97.8134 31.333C97.0338 31.333 96.4139 31.5425 95.9724 31.9414C95.6061 32.3103 95.4183 32.7491 95.4183 33.2776C95.4183 33.856 95.6343 34.3447 96.057 34.7136C96.4233 35.0627 97.0996 35.4416 98.0764 35.8505C99.2692 36.359 100.143 36.9574 100.706 37.6455C101.279 38.3335 101.561 39.1912 101.561 40.2083Z" fill="#5468FF"/>
<path d="M108.926 35.4919H106.475V40.6475C106.475 41.9539 106.907 42.6121 107.771 42.6121C108.165 42.6121 108.494 42.5722 108.757 42.5024L108.823 44.2974C108.382 44.4669 107.809 44.5567 107.095 44.5567C106.212 44.5567 105.536 44.2675 105.038 43.699C104.54 43.1306 104.296 42.1733 104.296 40.837V35.4819H102.84V33.7169H104.296V31.7723L106.475 31.0742V33.7169H108.926V35.4919Z" fill="#5468FF"/>
<path d="M119.953 38.9427C119.953 40.5781 119.511 41.9144 118.638 42.9615C117.717 44.0385 116.496 44.577 114.975 44.577C113.509 44.577 112.335 44.0584 111.462 43.0313C110.588 42.0041 110.156 40.6978 110.156 39.1222C110.156 37.4768 110.607 36.1305 111.499 35.0834C112.401 34.0363 113.613 33.5078 115.134 33.5078C116.6 33.5078 117.783 34.0264 118.675 35.0635C119.53 36.0607 119.953 37.3571 119.953 38.9427ZM117.652 38.9925C117.652 38.0153 117.454 37.1876 117.06 36.4895C116.59 35.6419 115.923 35.223 115.059 35.223C114.167 35.223 113.481 35.6419 113.021 36.4895C112.617 37.1876 112.429 38.0352 112.429 39.0424C112.429 40.0197 112.627 40.8573 113.021 41.5454C113.5 42.3931 114.176 42.8119 115.04 42.8119C115.886 42.8119 116.553 42.3831 117.041 41.5255C117.445 40.8075 117.652 39.9698 117.652 38.9925Z" fill="#5468FF"/>
<path d="M127.185 35.7897C126.969 35.7498 126.735 35.7299 126.481 35.7299C125.701 35.7299 125.091 36.039 124.668 36.6673C124.302 37.2157 124.114 37.9238 124.114 38.7614V44.3359H121.888V37.0562C121.888 35.8296 121.869 34.7127 121.822 33.7155H123.757L123.842 35.7498H123.907C124.142 35.0518 124.509 34.4833 125.016 34.0645C125.514 33.6856 126.049 33.4961 126.622 33.4961C126.829 33.4961 127.016 33.516 127.176 33.536L127.185 35.7897Z" fill="#5468FF"/>
<path d="M137.123 38.5227C137.123 38.9416 137.095 39.3006 137.039 39.5897H130.37C130.398 40.6368 130.718 41.4446 131.337 41.9931C131.901 42.4817 132.624 42.731 133.517 42.731C134.503 42.731 135.405 42.5615 136.212 42.2324L136.56 43.8678C135.611 44.3066 134.493 44.526 133.207 44.526C131.657 44.526 130.436 44.0374 129.553 43.0701C128.67 42.1027 128.229 40.7964 128.229 39.1709C128.229 37.5754 128.642 36.2391 129.468 35.172C130.332 34.0352 131.497 33.4668 132.962 33.4668C134.399 33.4668 135.498 34.0352 136.231 35.172C136.823 36.0895 137.123 37.1964 137.123 38.5227ZM135.001 37.9144C135.019 37.2164 134.869 36.608 134.569 36.0995C134.183 35.4413 133.592 35.1122 132.803 35.1122C132.079 35.1122 131.488 35.4313 131.037 36.0695C130.671 36.5781 130.445 37.1964 130.379 37.9044L135.001 37.9144Z" fill="#5468FF"/>
<path d="M60.6092 24.3414H59.4446L58.8059 22.2173H56.5892L55.9787 24.3414H54.8516L57.04 17.1016H58.3926L60.6092 24.3414ZM58.6086 21.3198L58.0357 19.4251C57.9793 19.2356 57.8666 18.7769 57.6881 18.0589H57.6694C57.5942 18.368 57.5003 18.8168 57.3406 19.4251L56.7771 21.3198H58.6086Z" fill="#5468FF"/>
<path d="M66.0937 19.1172L64.2339 24.3426H63.1725L61.3691 19.1172H62.5432L63.3792 21.8795C63.5201 22.3382 63.6422 22.777 63.7361 23.1958H63.7643C63.8488 22.8169 63.9709 22.3781 64.1212 21.8795L64.9477 19.1172H66.0937Z" fill="#5468FF"/>
<path d="M70.0585 24.3425L69.9739 23.7442H69.9458C69.6076 24.2229 69.1286 24.4622 68.5087 24.4622C67.6258 24.4622 67.0059 23.804 67.0059 22.9265C67.0059 21.6401 68.0578 20.9719 69.88 20.9719V20.8722C69.88 20.1841 69.5325 19.8451 68.8562 19.8451C68.3678 19.8451 67.9451 19.9747 67.5694 20.234L67.344 19.4761C67.7948 19.1769 68.3678 19.0273 69.0347 19.0273C70.3215 19.0273 70.9696 19.7453 70.9696 21.1913V23.116C70.9696 23.6445 70.9883 24.0533 71.0447 24.3625L70.0585 24.3425ZM69.9082 21.7398C68.6965 21.7398 68.086 22.0489 68.086 22.7968C68.086 23.3453 68.396 23.6146 68.8374 23.6146C69.3916 23.6146 69.9082 23.1658 69.9082 22.5475V21.7398Z" fill="#5468FF"/>
<path d="M73.402 18.2572C73.0357 18.2572 72.7539 17.9581 72.7539 17.5592C72.7539 17.1603 73.0451 16.8711 73.4208 16.8711C73.7965 16.8711 74.0971 17.1603 74.0877 17.5592C74.0877 17.978 73.8059 18.2572 73.402 18.2572ZM72.876 19.1148H73.9656V24.3303H72.876V19.1148Z" fill="#5468FF"/>
<path d="M75.9102 16.7227H76.9997V24.3315H75.9102V16.7227Z" fill="#5468FF"/>
<path d="M81.6386 24.3408L81.554 23.7425H81.5259C81.1877 24.2211 80.7087 24.4605 80.0888 24.4605C79.2059 24.4605 78.5859 23.8023 78.5859 22.9247C78.5859 21.6383 79.6379 20.9702 81.4601 20.9702V20.8705C81.4601 20.1824 81.1126 19.8433 80.4363 19.8433C79.9479 19.8433 79.5252 19.973 79.1495 20.2322L78.9241 19.4644C79.3749 19.1652 79.9479 19.0156 80.6148 19.0156C81.9016 19.0156 82.5497 19.7336 82.5497 21.1796V23.1042C82.5497 23.6328 82.5684 24.0416 82.6154 24.3508H81.6386V24.3408ZM81.4883 21.738C80.2766 21.738 79.6661 22.0472 79.6661 22.7951C79.6661 23.3436 79.9761 23.6128 80.4175 23.6128C80.9717 23.6128 81.4883 23.1641 81.4883 22.5458V21.738Z" fill="#5468FF"/>
<path d="M86.9841 24.4611C86.2891 24.4611 85.7725 24.152 85.4343 23.5337H85.4155L85.3498 24.3414H84.4199C84.4481 23.9226 84.4575 23.4539 84.4575 22.9354V16.7227H85.5564V19.8839H85.5752C85.904 19.3055 86.4206 19.0163 87.1438 19.0163C88.3273 19.0163 89.1538 20.0933 89.1538 21.6589C89.1538 23.2744 88.2333 24.4611 86.9841 24.4611ZM86.7587 19.9237C86.1294 19.9237 85.5564 20.5021 85.5564 21.3099V22.2273C85.5564 22.9453 86.073 23.5337 86.7399 23.5337C87.5571 23.5337 88.0455 22.8257 88.0455 21.6988C88.0455 20.6417 87.5383 19.9237 86.7587 19.9237Z" fill="#5468FF"/>
<path d="M90.7695 16.7227H91.8591V24.3315H90.7695V16.7227Z" fill="#5468FF"/>
<path d="M97.8046 22.0077H94.5266C94.5454 22.995 95.1653 23.5534 96.0764 23.5534C96.5648 23.5534 97.0062 23.4636 97.4007 23.3041L97.5698 24.1118C97.1096 24.3312 96.5648 24.431 95.9261 24.431C94.3857 24.431 93.4746 23.4038 93.4746 21.7983C93.4746 20.2027 94.4045 18.9961 95.804 18.9961C97.0532 18.9961 97.8516 19.9833 97.8516 21.4792C97.8516 21.6886 97.8422 21.8681 97.8046 22.0077ZM96.809 21.18C96.809 20.3723 96.4239 19.8038 95.7288 19.8038C95.0995 19.8038 94.6111 20.3822 94.536 21.18H96.809Z" fill="#5468FF"/>
<path d="M104.426 24.4605C102.988 24.4605 102.059 23.3236 102.059 21.7779C102.059 20.1624 103.007 19.0156 104.51 19.0156C105.928 19.0156 106.877 20.1026 106.877 21.6882C106.877 23.3137 105.9 24.4605 104.426 24.4605ZM104.472 19.8633C103.684 19.8633 103.176 20.6511 103.176 21.738C103.176 22.815 103.693 23.5929 104.463 23.5929C105.233 23.5929 105.75 22.7552 105.75 21.7081C105.74 20.6511 105.243 19.8633 104.472 19.8633Z" fill="#5468FF"/>
<path d="M112.747 24.341H111.658V21.3394C111.658 20.4119 111.319 19.9532 110.662 19.9532C110.014 19.9532 109.572 20.5416 109.572 21.2297V24.331H108.483V20.6114C108.483 20.1527 108.473 19.6541 108.445 19.1156H109.403L109.45 19.9233H109.479C109.77 19.3649 110.371 19.0059 111.038 19.0059C112.071 19.0059 112.747 19.8435 112.747 21.2097V24.341Z" fill="#5468FF"/>
<path d="M119.895 19.9943H118.693V22.5272C118.693 23.1754 118.909 23.4945 119.332 23.4945C119.52 23.4945 119.689 23.4746 119.82 23.4446L119.848 24.3222C119.632 24.412 119.351 24.4518 119.003 24.4518C118.139 24.4518 117.632 23.9433 117.632 22.6269V19.9943H116.918V19.1267H117.632V18.1693L118.703 17.8203V19.1167H119.905V19.9943" fill="#5468FF"/>
<path d="M125.682 24.3414H124.593V21.3597C124.593 20.4224 124.255 19.9537 123.597 19.9537C123.034 19.9537 122.508 20.3625 122.508 21.1902V24.3315H121.418V16.7227H122.508V19.8539H122.526C122.874 19.2855 123.362 19.0063 124.001 19.0063C125.044 19.0063 125.682 19.8639 125.682 21.2301V24.3414Z" fill="#5468FF"/>
<path d="M131.26 22.0077H127.982C128 22.995 128.62 23.5534 129.531 23.5534C130.02 23.5534 130.461 23.4636 130.856 23.3041L131.025 24.1118C130.565 24.3312 130.02 24.431 129.381 24.431C127.841 24.431 126.93 23.4038 126.93 21.7983C126.93 20.2027 127.86 18.9961 129.259 18.9961C130.508 18.9961 131.307 19.9833 131.307 21.4792C131.307 21.6886 131.297 21.8681 131.26 22.0077ZM130.264 21.18C130.264 20.3723 129.879 19.8038 129.184 19.8038C128.555 19.8038 128.057 20.3822 127.991 21.18H130.264Z" fill="#5468FF"/>
</g>
<defs>
<clipPath id="clip0_1858_5206">
<rect width="168.697" height="65.6505" fill="white" transform="translate(0 0.0996094)"/>
</clipPath>
</defs>
</svg>
