<svg  viewBox="0 0 309 544" fill="none" xmlns="http://www.w3.org/2000/svg">
<g filter="url(#filter0_d_1858_5282)">
<g clip-path="url(#clip0_1858_5282)">
<rect x="4" y="0.0273438" width="300.082" height="531.845" rx="25.9437" fill="#F3F5F9" fill-opacity="0.85" shape-rendering="crispEdges"/>
<path opacity="0.2" fill-rule="evenodd" clip-rule="evenodd" d="M161.446 505.404H267.628C268.766 505.404 269.686 506.324 269.686 507.462V507.462C269.686 508.6 268.766 509.52 267.628 509.52H161.446C160.309 509.52 159.389 508.6 159.389 507.462V507.462C159.389 506.324 160.309 505.404 161.446 505.404Z" fill="white"/>
<path d="M188.514 486.362H192.254V487.777H186.752V479.228H188.514V486.362ZM200.674 483.697C200.674 484.538 200.526 485.276 200.228 485.91C199.931 486.544 199.504 487.034 198.948 487.378C198.396 487.723 197.762 487.895 197.046 487.895C196.337 487.895 195.705 487.724 195.149 487.384C194.593 487.043 194.163 486.558 193.857 485.928C193.552 485.294 193.397 484.566 193.394 483.743V483.321C193.394 482.479 193.544 481.739 193.846 481.101C194.151 480.459 194.58 479.968 195.132 479.627C195.687 479.283 196.322 479.111 197.034 479.111C197.746 479.111 198.379 479.283 198.931 479.627C199.486 479.968 199.915 480.459 200.216 481.101C200.522 481.739 200.674 482.477 200.674 483.315V483.697ZM198.889 483.309C198.889 482.413 198.729 481.731 198.408 481.266C198.087 480.8 197.629 480.567 197.034 480.567C196.443 480.567 195.987 480.798 195.666 481.26C195.345 481.718 195.182 482.391 195.179 483.28V483.697C195.179 484.569 195.339 485.247 195.66 485.728C195.981 486.21 196.443 486.45 197.046 486.45C197.637 486.45 198.091 486.219 198.408 485.757C198.725 485.292 198.886 484.614 198.889 483.726V483.309ZM209.476 486.697C209.159 487.077 208.711 487.372 208.132 487.584C207.552 487.791 206.91 487.895 206.206 487.895C205.466 487.895 204.816 487.734 204.256 487.413C203.7 487.088 203.27 486.619 202.965 486.004C202.663 485.39 202.508 484.667 202.501 483.837V483.256C202.501 482.403 202.644 481.665 202.929 481.043C203.219 480.416 203.634 479.939 204.174 479.61C204.718 479.277 205.354 479.111 206.082 479.111C207.096 479.111 207.889 479.353 208.46 479.839C209.032 480.32 209.371 481.023 209.476 481.947H207.762C207.683 481.457 207.509 481.099 207.239 480.872C206.973 480.645 206.605 480.532 206.135 480.532C205.536 480.532 205.08 480.757 204.767 481.207C204.454 481.657 204.295 482.326 204.292 483.215V483.761C204.292 484.658 204.462 485.335 204.802 485.793C205.143 486.251 205.642 486.48 206.3 486.48C206.961 486.48 207.433 486.339 207.715 486.057V484.583H206.112V483.285H209.476V486.697ZM222.441 483.697C222.441 484.538 222.292 485.276 221.995 485.91C221.697 486.544 221.271 487.034 220.715 487.378C220.163 487.723 219.529 487.895 218.813 487.895C218.104 487.895 217.472 487.724 216.916 487.384C216.36 487.043 215.93 486.558 215.624 485.928C215.319 485.294 215.164 484.566 215.16 483.743V483.321C215.16 482.479 215.311 481.739 215.612 481.101C215.918 480.459 216.346 479.968 216.898 479.627C217.454 479.283 218.088 479.111 218.801 479.111C219.513 479.111 220.145 479.283 220.697 479.627C221.253 479.968 221.682 480.459 221.983 481.101C222.289 481.739 222.441 482.477 222.441 483.315V483.697ZM220.656 483.309C220.656 482.413 220.496 481.731 220.175 481.266C219.854 480.8 219.396 480.567 218.801 480.567C218.21 480.567 217.754 480.798 217.433 481.26C217.112 481.718 216.949 482.391 216.945 483.28V483.697C216.945 484.569 217.106 485.247 217.427 485.728C217.748 486.21 218.21 486.45 218.813 486.45C219.404 486.45 219.858 486.219 220.175 485.757C220.492 485.292 220.652 484.614 220.656 483.726V483.309ZM230.949 479.228V484.859C230.949 485.795 230.656 486.535 230.069 487.079C229.485 487.623 228.687 487.895 227.673 487.895C226.675 487.895 225.882 487.631 225.295 487.102C224.708 486.574 224.408 485.848 224.397 484.924V479.228H226.158V484.871C226.158 485.431 226.291 485.84 226.557 486.098C226.828 486.352 227.199 486.48 227.673 486.48C228.663 486.48 229.166 485.959 229.182 484.918V479.228H230.949ZM239.587 480.655H236.968V487.777H235.207V480.655H232.623V479.228H239.587V480.655Z" fill="white"/>
<path d="M4 531.873H304.082V446.419C223.827 371.182 82.5098 250.816 53.4321 0.0273438H4V531.873Z" fill="#FAFBFF" fill-opacity="0.3"/>
<g opacity="0.9" filter="url(#filter1_d_1858_5282)">
<path fill-rule="evenodd" clip-rule="evenodd" d="M40.1571 209.305H268.65C275.246 209.305 280.592 214.651 280.592 221.247V312.803C280.592 319.399 275.246 324.745 268.65 324.745H40.1571C33.5615 324.745 28.2148 319.399 28.2148 312.803V221.247C28.2148 214.651 33.5615 209.305 40.1571 209.305Z" fill="white"/>
<g clip-path="url(#clip1_1858_5282)">
<path fill-rule="evenodd" clip-rule="evenodd" d="M60.8552 264.241C72.7289 264.241 82.3544 254.615 82.3544 242.742C82.3544 230.868 72.7289 221.242 60.8552 221.242C48.9817 221.242 39.3562 230.868 39.3562 242.742C39.3562 254.615 48.9817 264.241 60.8552 264.241Z" fill="#AEB8FF"/>
<g filter="url(#filter2_d_1858_5282)">
<path fill-rule="evenodd" clip-rule="evenodd" d="M53.1619 227.841C46.9601 227.974 41.8839 232.995 41.688 239.195C41.5906 242.276 42.6806 245.1 44.5348 247.246C45.3697 248.212 45.608 249.558 45.1785 250.761L44.4064 252.923C44.1552 253.626 44.9697 254.227 45.5676 253.78L48.3059 251.732C49.1209 251.122 50.1555 250.896 51.1542 251.092C52.1937 251.297 53.2823 251.365 54.4017 251.272C60.2919 250.785 64.9372 245.914 65.1489 240.007C65.3915 233.242 59.906 227.697 53.1619 227.841Z" fill="#5468FF"/>
</g>
<g filter="url(#filter3_d_1858_5282)">
<path fill-rule="evenodd" clip-rule="evenodd" d="M77.5542 251.458C76.5609 252.656 76.2459 254.276 76.7687 255.742L77.14 256.782C76.6715 257.324 76.1757 257.844 75.6551 258.338L73.3489 256.616C72.3759 255.89 71.1456 255.602 69.9522 255.824C69.1826 255.968 68.3209 256.095 67.6953 256.095C60.6269 256.095 54.8975 250.366 54.8975 243.298C54.8965 236.236 60.633 230.5 67.6953 230.5C74.7627 230.5 80.4928 236.229 80.4928 243.298C80.4931 246.399 79.3889 249.243 77.5542 251.458Z" fill="#F3F5F9"/>
</g>
<path fill-rule="evenodd" clip-rule="evenodd" d="M51.7331 247.112C51.5275 248.058 50.5394 248.713 49.5931 248.508C48.5777 248.288 47.9961 247.291 48.2018 246.345C48.412 245.376 49.349 244.733 50.3647 244.954C51.3109 245.159 51.9434 246.142 51.7331 247.112ZM52.2462 242.631C52.091 243.347 51.241 243.477 50.687 243.356C49.9486 243.196 49.3907 242.761 49.5458 242.045C50.142 239.298 50.6756 235.282 51.2717 232.535C51.4671 231.635 52.3161 231.287 53.2622 231.493C54.1624 231.688 54.8141 232.361 54.6184 233.261C54.0223 236.008 52.8424 239.885 52.2462 242.631Z" fill="#F3F5F9"/>
<path fill-rule="evenodd" clip-rule="evenodd" d="M70.1549 243.763C68.9635 244.694 68.9419 245.344 68.9419 246.471C68.9419 246.882 68.7253 247.358 67.6638 247.358C66.7758 247.358 66.4724 247.034 66.4724 245.907C66.4724 244.044 67.2956 243.156 67.924 242.615C68.6385 242.008 69.8516 241.337 69.8516 240.167C69.8516 239.171 68.9852 238.694 67.902 238.694C65.6926 238.694 66.1691 240.362 64.9995 240.362C64.4148 240.362 63.6997 239.972 63.6997 239.127C63.6997 237.958 65.0428 236.225 67.9673 236.225C70.7398 236.225 72.5809 237.763 72.5809 239.799C72.5809 241.835 70.7398 243.308 70.1549 243.763ZM69.3536 250.521C69.3536 251.409 68.6169 252.189 67.6855 252.189C66.7541 252.189 66.0393 251.409 66.0393 250.521C66.0393 249.611 66.776 248.853 67.6855 248.853C68.5952 248.853 69.3536 249.611 69.3536 250.521Z" fill="#00D9CD"/>
</g>
<g filter="url(#filter4_d_1858_5282)">
<path fill-rule="evenodd" clip-rule="evenodd" d="M48.9133 276.977H261.484C265.441 276.977 268.649 280.185 268.649 284.142V305.638C268.649 309.595 265.441 312.803 261.484 312.803H48.9133C44.956 312.803 41.748 309.595 41.748 305.638V284.142C41.748 280.185 44.956 276.977 48.9133 276.977Z" fill="#B9C3FB"/>
</g>
<path d="M115.885 298.904C117.604 298.904 118.875 297.814 118.875 296.192C118.875 294.993 118.282 294.376 116.478 293.674C115.231 293.189 114.868 292.887 114.868 292.402C114.868 291.942 115.279 291.603 115.8 291.603C116.32 291.603 116.781 291.93 117.047 292.56L118.463 291.676C117.931 290.623 117.011 290.09 115.848 290.09C114.238 290.09 113.161 291.059 113.161 292.439C113.161 293.698 113.802 294.352 115.582 295.066C116.756 295.538 117.168 295.865 117.168 296.349C117.168 297.027 116.647 297.39 115.909 297.39C115.001 297.39 114.359 296.87 114.262 295.877L112.567 296.301C112.822 297.875 114.165 298.904 115.885 298.904ZM120.873 298.734H122.58V295.163H126.067V298.734H127.774V290.296H126.067V293.601H122.58V290.296H120.873V298.734ZM135.75 298.734H137.603L134.176 290.296H132.905L129.455 298.734H131.319L131.912 297.148H135.157L135.75 298.734ZM132.506 295.574L133.547 292.826L134.576 295.574H132.506ZM145.828 298.734L143.564 295.09C144.533 294.739 145.078 293.964 145.078 292.753C145.078 291.252 144.242 290.296 142.172 290.296H139.315V298.734H141.01V295.308H141.373H141.869L143.855 298.734H145.828ZM141.01 293.734V291.858H142.002C142.789 291.858 143.371 291.979 143.371 292.778C143.371 293.589 142.789 293.734 142.002 293.734H141.01ZM147.601 298.734H153.243V297.16H149.308V295.163H153.001V293.589H149.308V291.858H153.243V290.296H147.601V298.734ZM164.676 298.734H166.528L163.102 290.296H161.831L158.38 298.734H160.245L160.838 297.148H164.083L164.676 298.734ZM161.431 295.574L162.473 292.826L163.502 295.574H161.431ZM170.687 298.904C172.406 298.904 173.678 297.814 173.678 296.192C173.678 294.993 173.084 294.376 171.28 293.674C170.033 293.189 169.67 292.887 169.67 292.402C169.67 291.942 170.082 291.603 170.602 291.603C171.123 291.603 171.583 291.93 171.849 292.56L173.266 291.676C172.733 290.623 171.813 290.09 170.651 290.09C169.041 290.09 167.963 291.059 167.963 292.439C167.963 293.698 168.605 294.352 170.384 295.066C171.559 295.538 171.97 295.865 171.97 296.349C171.97 297.027 171.45 297.39 170.711 297.39C169.803 297.39 169.162 296.87 169.065 295.877L167.37 296.301C167.624 297.875 168.968 298.904 170.687 298.904ZM183.218 298.734L179.986 293.528L183.17 290.296H180.93L177.383 294.013V290.296H175.676V298.734H177.383V296.156L178.824 294.691L181.245 298.734H183.218ZM184.979 298.734H190.621V297.16H186.686V295.163H190.379V293.589H186.686V291.858H190.621V290.296H184.979V298.734ZM199.567 298.734L197.303 295.09C198.271 294.739 198.816 293.964 198.816 292.753C198.816 291.252 197.981 290.296 195.91 290.296H193.053V298.734H194.748V295.308H195.111H195.608L197.593 298.734H199.567ZM194.748 293.734V291.858H195.741C196.528 291.858 197.109 291.979 197.109 292.778C197.109 293.589 196.528 293.734 195.741 293.734H194.748Z" fill="#F3F5F9"/>
<path fill-rule="evenodd" clip-rule="evenodd" d="M251.491 307.232C257.694 307.232 262.722 302.204 262.722 296.001C262.722 289.798 257.694 284.769 251.491 284.769C245.288 284.769 240.26 289.798 240.26 296.001C240.26 302.204 245.288 307.232 251.491 307.232Z" fill="#ADB8FA"/>
<g clip-path="url(#clip2_1858_5282)">
<g clip-path="url(#clip3_1858_5282)">
<path d="M254.026 297.887C253.327 297.887 252.702 298.206 252.287 298.705L249.588 297.173C249.671 296.937 249.718 296.683 249.718 296.418C249.718 296.153 249.671 295.899 249.588 295.663L252.287 294.13C252.701 294.63 253.327 294.949 254.026 294.949C255.272 294.949 256.285 293.934 256.285 292.688C256.286 291.442 255.272 290.428 254.026 290.428C252.779 290.428 251.765 291.442 251.765 292.688C251.765 292.952 251.812 293.207 251.896 293.443L249.196 294.976C248.781 294.476 248.156 294.158 247.458 294.158C246.211 294.158 245.197 295.172 245.197 296.418C245.197 297.664 246.211 298.678 247.458 298.678C248.156 298.678 248.781 298.359 249.196 297.86L251.896 299.393C251.812 299.629 251.765 299.883 251.765 300.148C251.765 301.394 252.779 302.408 254.026 302.408C255.272 302.408 256.285 301.394 256.285 300.148C256.286 298.901 255.272 297.887 254.026 297.887Z" fill="white"/>
</g>
</g>
<g opacity="0.8">
<path d="M94.9374 239.195V230.588H97.8873C98.8608 230.588 99.6017 230.783 100.11 231.173C100.619 231.563 100.873 232.145 100.873 232.917C100.873 233.311 100.766 233.666 100.553 233.981C100.341 234.297 100.029 234.541 99.6194 234.714C100.084 234.84 100.443 235.079 100.695 235.43C100.952 235.776 101.08 236.194 101.08 236.683C101.08 237.491 100.82 238.112 100.299 238.545C99.783 238.979 99.0421 239.195 98.0765 239.195H94.9374ZM96.4331 235.311V238.001H98.0942C98.5632 238.001 98.9298 237.885 99.1938 237.652C99.4579 237.42 99.5899 237.097 99.5899 236.683C99.5899 235.788 99.1327 235.331 98.2184 235.311H96.4331ZM96.4331 234.212H97.8992C98.3642 234.212 98.7268 234.107 98.9869 233.898C99.251 233.686 99.383 233.386 99.383 233C99.383 232.574 99.2608 232.267 99.0165 232.078C98.7761 231.889 98.3997 231.794 97.8873 231.794H96.4331V234.212ZM106.258 239.195C106.195 239.073 106.14 238.874 106.093 238.598C105.636 239.075 105.076 239.314 104.414 239.314C103.771 239.314 103.247 239.13 102.841 238.764C102.435 238.397 102.232 237.944 102.232 237.404C102.232 236.722 102.485 236.2 102.989 235.837C103.497 235.471 104.223 235.288 105.165 235.288H106.045V234.868C106.045 234.537 105.953 234.273 105.768 234.076C105.582 233.875 105.301 233.774 104.922 233.774C104.595 233.774 104.327 233.857 104.118 234.023C103.909 234.184 103.805 234.391 103.805 234.643H102.368C102.368 234.293 102.485 233.965 102.717 233.662C102.95 233.355 103.265 233.114 103.663 232.941C104.065 232.767 104.512 232.681 105.005 232.681C105.754 232.681 106.351 232.87 106.796 233.248C107.242 233.623 107.47 234.151 107.482 234.833V237.717C107.482 238.293 107.563 238.752 107.724 239.095V239.195H106.258ZM104.68 238.161C104.964 238.161 105.23 238.092 105.478 237.954C105.73 237.816 105.919 237.631 106.045 237.398V236.192H105.271C104.739 236.192 104.339 236.285 104.071 236.47C103.803 236.655 103.669 236.917 103.669 237.256C103.669 237.532 103.76 237.753 103.941 237.918C104.126 238.08 104.372 238.161 104.68 238.161ZM112.335 234.111C112.146 234.08 111.951 234.064 111.75 234.064C111.092 234.064 110.649 234.316 110.42 234.821V239.195H108.983V232.799H110.355L110.39 233.514C110.737 232.959 111.218 232.681 111.833 232.681C112.038 232.681 112.207 232.708 112.341 232.763L112.335 234.111ZM120.895 236.978C120.895 236.6 120.761 236.308 120.493 236.104C120.229 235.899 119.751 235.692 119.057 235.483C118.363 235.274 117.812 235.041 117.402 234.785C116.617 234.293 116.225 233.65 116.225 232.858C116.225 232.164 116.507 231.593 117.071 231.144C117.638 230.694 118.373 230.47 119.276 230.47C119.875 230.47 120.409 230.58 120.878 230.801C121.347 231.021 121.715 231.337 121.983 231.747C122.251 232.153 122.385 232.604 122.385 233.1H120.895C120.895 232.651 120.754 232.3 120.47 232.048C120.19 231.792 119.788 231.664 119.264 231.664C118.775 231.664 118.395 231.768 118.123 231.977C117.855 232.186 117.721 232.478 117.721 232.852C117.721 233.167 117.867 233.431 118.158 233.644C118.45 233.853 118.931 234.058 119.601 234.259C120.271 234.456 120.809 234.683 121.215 234.939C121.621 235.191 121.918 235.483 122.107 235.814C122.297 236.141 122.391 236.525 122.391 236.967C122.391 237.684 122.115 238.255 121.563 238.681C121.016 239.103 120.271 239.314 119.329 239.314C118.706 239.314 118.133 239.199 117.609 238.971C117.088 238.738 116.682 238.419 116.391 238.013C116.103 237.607 115.959 237.134 115.959 236.594H117.455C117.455 237.083 117.616 237.461 117.94 237.729C118.263 237.997 118.726 238.131 119.329 238.131C119.849 238.131 120.239 238.027 120.499 237.818C120.763 237.605 120.895 237.325 120.895 236.978ZM125.365 231.244V232.799H126.494V233.863H125.365V237.434C125.365 237.678 125.412 237.855 125.507 237.966C125.605 238.072 125.778 238.125 126.027 238.125C126.192 238.125 126.36 238.106 126.529 238.066V239.178C126.202 239.268 125.887 239.314 125.583 239.314C124.48 239.314 123.928 238.705 123.928 237.487V233.863H122.876V232.799H123.928V231.244H125.365ZM131.418 239.195C131.355 239.073 131.3 238.874 131.253 238.598C130.795 239.075 130.236 239.314 129.574 239.314C128.931 239.314 128.407 239.13 128.001 238.764C127.595 238.397 127.392 237.944 127.392 237.404C127.392 236.722 127.645 236.2 128.149 235.837C128.657 235.471 129.383 235.288 130.325 235.288H131.205V234.868C131.205 234.537 131.113 234.273 130.928 234.076C130.742 233.875 130.461 233.774 130.082 233.774C129.755 233.774 129.487 233.857 129.278 234.023C129.069 234.184 128.965 234.391 128.965 234.643H127.528C127.528 234.293 127.645 233.965 127.877 233.662C128.11 233.355 128.425 233.114 128.823 232.941C129.225 232.767 129.672 232.681 130.165 232.681C130.914 232.681 131.511 232.87 131.956 233.248C132.401 233.623 132.63 234.151 132.642 234.833V237.717C132.642 238.293 132.723 238.752 132.884 239.095V239.195H131.418ZM129.84 238.161C130.124 238.161 130.39 238.092 130.638 237.954C130.89 237.816 131.079 237.631 131.205 237.398V236.192H130.431C129.899 236.192 129.499 236.285 129.231 236.47C128.963 236.655 128.829 236.917 128.829 237.256C128.829 237.532 128.92 237.753 129.101 237.918C129.286 238.08 129.532 238.161 129.84 238.161ZM134.652 239.195V233.863H133.676V232.799H134.652V232.214C134.652 231.504 134.849 230.956 135.243 230.57C135.637 230.184 136.189 229.991 136.898 229.991C137.151 229.991 137.419 230.026 137.702 230.097L137.667 231.221C137.509 231.189 137.326 231.173 137.117 231.173C136.431 231.173 136.088 231.526 136.088 232.231V232.799H137.389V233.863H136.088V239.195H134.652ZM138.944 239.195V233.863H137.968V232.799H138.944V232.214C138.944 231.504 139.141 230.956 139.535 230.57C139.929 230.184 140.481 229.991 141.19 229.991C141.442 229.991 141.71 230.026 141.994 230.097L141.959 231.221C141.801 231.189 141.618 231.173 141.409 231.173C140.723 231.173 140.38 231.526 140.38 232.231V232.799H141.681V233.863H140.38V239.195H138.944ZM147.273 239.195H145.837V232.799H147.273V239.195ZM145.748 231.138C145.748 230.917 145.817 230.734 145.955 230.588C146.097 230.442 146.298 230.369 146.558 230.369C146.818 230.369 147.019 230.442 147.161 230.588C147.303 230.734 147.374 230.917 147.374 231.138C147.374 231.354 147.303 231.536 147.161 231.682C147.019 231.823 146.818 231.894 146.558 231.894C146.298 231.894 146.097 231.823 145.955 231.682C145.817 231.536 145.748 231.354 145.748 231.138ZM150.176 232.799L150.217 233.538C150.69 232.966 151.311 232.681 152.079 232.681C153.411 232.681 154.089 233.443 154.113 234.968V239.195H152.676V235.051C152.676 234.645 152.588 234.346 152.41 234.153C152.237 233.956 151.951 233.857 151.553 233.857C150.974 233.857 150.542 234.119 150.259 234.643V239.195H148.822V232.799H150.176ZM160.675 230.588L163.158 237.185L165.635 230.588H167.568V239.195H166.078V236.358L166.226 232.562L163.684 239.195H162.614L160.078 232.568L160.226 236.358V239.195H158.736V230.588H160.675ZM173.024 239.195C172.961 239.073 172.906 238.874 172.859 238.598C172.402 239.075 171.842 239.314 171.18 239.314C170.538 239.314 170.013 239.13 169.607 238.764C169.201 238.397 168.999 237.944 168.999 237.404C168.999 236.722 169.251 236.2 169.755 235.837C170.264 235.471 170.989 235.288 171.931 235.288H172.812V234.868C172.812 234.537 172.719 234.273 172.534 234.076C172.348 233.875 172.067 233.774 171.688 233.774C171.361 233.774 171.093 233.857 170.884 234.023C170.675 234.184 170.571 234.391 170.571 234.643H169.134C169.134 234.293 169.251 233.965 169.483 233.662C169.716 233.355 170.031 233.114 170.429 232.941C170.831 232.767 171.278 232.681 171.771 232.681C172.52 232.681 173.117 232.87 173.562 233.248C174.008 233.623 174.236 234.151 174.248 234.833V237.717C174.248 238.293 174.329 238.752 174.49 239.095V239.195H173.024ZM171.446 238.161C171.73 238.161 171.996 238.092 172.244 237.954C172.496 237.816 172.685 237.631 172.812 237.398V236.192H172.037C171.505 236.192 171.105 236.285 170.837 236.47C170.569 236.655 170.435 236.917 170.435 237.256C170.435 237.532 170.526 237.753 170.707 237.918C170.892 238.08 171.139 238.161 171.446 238.161ZM177.086 232.799L177.127 233.538C177.6 232.966 178.221 232.681 178.989 232.681C180.321 232.681 180.999 233.443 181.023 234.968V239.195H179.586V235.051C179.586 234.645 179.498 234.346 179.32 234.153C179.147 233.956 178.861 233.857 178.463 233.857C177.884 233.857 177.452 234.119 177.168 234.643V239.195H175.732V232.799H177.086ZM183.908 233.496C184.377 232.953 184.97 232.681 185.687 232.681C187.051 232.681 187.742 233.459 187.762 235.016V239.195H186.326V235.069C186.326 234.628 186.229 234.316 186.036 234.135C185.847 233.95 185.567 233.857 185.196 233.857C184.621 233.857 184.191 234.113 183.908 234.626V239.195H182.471V230.115H183.908V233.496ZM193.041 239.195C192.978 239.073 192.923 238.874 192.876 238.598C192.418 239.075 191.859 239.314 191.197 239.314C190.554 239.314 190.03 239.13 189.624 238.764C189.218 238.397 189.015 237.944 189.015 237.404C189.015 236.722 189.268 236.2 189.772 235.837C190.28 235.471 191.006 235.288 191.948 235.288H192.828V234.868C192.828 234.537 192.736 234.273 192.551 234.076C192.365 233.875 192.083 233.774 191.705 233.774C191.378 233.774 191.11 233.857 190.901 234.023C190.692 234.184 190.588 234.391 190.588 234.643H189.151C189.151 234.293 189.268 233.965 189.5 233.662C189.733 233.355 190.048 233.114 190.446 232.941C190.848 232.767 191.295 232.681 191.788 232.681C192.537 232.681 193.134 232.87 193.579 233.248C194.024 233.623 194.253 234.151 194.265 234.833V237.717C194.265 238.293 194.346 238.752 194.507 239.095V239.195H193.041ZM191.463 238.161C191.747 238.161 192.013 238.092 192.261 237.954C192.513 237.816 192.702 237.631 192.828 237.398V236.192H192.054C191.522 236.192 191.122 236.285 190.854 236.47C190.586 236.655 190.452 236.917 190.452 237.256C190.452 237.532 190.543 237.753 190.724 237.918C190.909 238.08 191.155 238.161 191.463 238.161ZM197.57 231.244V232.799H198.699V233.863H197.57V237.434C197.57 237.678 197.617 237.855 197.711 237.966C197.81 238.072 197.983 238.125 198.232 238.125C198.397 238.125 198.565 238.106 198.734 238.066V239.178C198.407 239.268 198.092 239.314 197.788 239.314C196.685 239.314 196.133 238.705 196.133 237.487V233.863H195.081V232.799H196.133V231.244H197.57ZM201.601 231.244V232.799H202.73V233.863H201.601V237.434C201.601 237.678 201.649 237.855 201.743 237.966C201.842 238.072 202.015 238.125 202.263 238.125C202.429 238.125 202.596 238.106 202.766 238.066V239.178C202.439 239.268 202.123 239.314 201.82 239.314C200.716 239.314 200.165 238.705 200.165 237.487V233.863H199.112V232.799H200.165V231.244H201.601ZM206.65 239.314C205.739 239.314 205 239.028 204.433 238.456C203.869 237.881 203.588 237.116 203.588 236.163V235.985C203.588 235.347 203.71 234.777 203.954 234.277C204.202 233.772 204.549 233.38 204.995 233.1C205.44 232.821 205.936 232.681 206.484 232.681C207.355 232.681 208.027 232.959 208.5 233.514C208.977 234.07 209.215 234.856 209.215 235.873V236.452H205.036C205.079 236.98 205.255 237.398 205.562 237.706C205.873 238.013 206.264 238.167 206.733 238.167C207.391 238.167 207.927 237.901 208.341 237.369L209.115 238.108C208.859 238.49 208.516 238.787 208.086 239C207.661 239.209 207.182 239.314 206.65 239.314ZM206.478 233.833C206.084 233.833 205.765 233.971 205.521 234.247C205.28 234.523 205.127 234.907 205.06 235.4H207.797V235.294C207.765 234.813 207.637 234.45 207.412 234.206C207.188 233.958 206.876 233.833 206.478 233.833ZM211.669 232.799L211.71 233.538C212.183 232.966 212.804 232.681 213.572 232.681C214.904 232.681 215.582 233.443 215.606 234.968V239.195H214.169V235.051C214.169 234.645 214.081 234.346 213.903 234.153C213.73 233.956 213.444 233.857 213.046 233.857C212.467 233.857 212.035 234.119 211.752 234.643V239.195H210.315V232.799H211.669ZM217.279 241.134L216.505 240.673C216.733 240.315 216.889 240.001 216.972 239.733C217.058 239.469 217.104 239.199 217.107 238.923V237.806H218.402L218.396 238.841C218.392 239.258 218.286 239.676 218.077 240.094C217.872 240.516 217.606 240.862 217.279 241.134ZM229.717 239.195H228.221L224.385 233.089V239.195H222.889V230.588H224.385L228.233 236.718V230.588H229.717V239.195ZM234.127 234.667L236.108 230.588H237.763L234.878 236.027V239.195H233.376V236.027L230.486 230.588H232.147L234.127 234.667Z" fill="black"/>
<path d="M98.2184 252.713H96.1966V256.195H95.0557V247.588H97.9051C98.8746 247.588 99.6194 247.809 100.14 248.25C100.664 248.691 100.926 249.334 100.926 250.177C100.926 250.713 100.78 251.18 100.488 251.578C100.201 251.976 99.7988 252.274 99.2825 252.471L101.304 256.124V256.195H100.086L98.2184 252.713ZM96.1966 251.785H97.9405C98.5041 251.785 98.9514 251.639 99.2825 251.348C99.6175 251.056 99.785 250.666 99.785 250.177C99.785 249.645 99.6254 249.237 99.3061 248.954C98.9908 248.67 98.5337 248.526 97.9346 248.522H96.1966V251.785ZM105.005 256.314C104.138 256.314 103.432 256.03 102.889 255.462C102.345 254.891 102.073 254.128 102.073 253.174V252.973C102.073 252.339 102.193 251.773 102.433 251.277C102.678 250.776 103.017 250.386 103.45 250.106C103.888 249.823 104.361 249.681 104.869 249.681C105.701 249.681 106.347 249.955 106.808 250.502C107.269 251.05 107.5 251.834 107.5 252.855V253.31H103.166C103.182 253.941 103.365 254.451 103.716 254.842C104.071 255.228 104.52 255.421 105.064 255.421C105.45 255.421 105.777 255.342 106.045 255.184C106.313 255.027 106.548 254.818 106.749 254.558L107.417 255.078C106.881 255.902 106.077 256.314 105.005 256.314ZM104.869 250.579C104.428 250.579 104.057 250.741 103.758 251.064C103.458 251.383 103.273 251.833 103.202 252.412H106.406V252.329C106.374 251.773 106.225 251.344 105.957 251.04C105.689 250.733 105.326 250.579 104.869 250.579ZM111.336 255.421C111.726 255.421 112.067 255.303 112.359 255.066C112.651 254.83 112.812 254.534 112.844 254.179H113.878C113.859 254.546 113.733 254.895 113.5 255.226C113.267 255.557 112.956 255.821 112.566 256.018C112.18 256.215 111.77 256.314 111.336 256.314C110.465 256.314 109.772 256.024 109.255 255.445C108.743 254.861 108.487 254.065 108.487 253.056V252.873C108.487 252.25 108.601 251.697 108.83 251.212C109.058 250.727 109.385 250.351 109.811 250.083C110.241 249.815 110.747 249.681 111.33 249.681C112.048 249.681 112.643 249.895 113.116 250.325C113.593 250.755 113.847 251.312 113.878 251.998H112.844C112.812 251.584 112.655 251.245 112.371 250.981C112.091 250.713 111.744 250.579 111.33 250.579C110.775 250.579 110.343 250.78 110.036 251.182C109.732 251.58 109.581 252.158 109.581 252.914V253.121C109.581 253.858 109.732 254.426 110.036 254.824C110.339 255.222 110.773 255.421 111.336 255.421ZM118.2 250.78C118.034 250.753 117.855 250.739 117.662 250.739C116.945 250.739 116.458 251.044 116.202 251.655V256.195H115.108V249.799H116.172L116.19 250.538C116.548 249.966 117.057 249.681 117.715 249.681C117.928 249.681 118.089 249.708 118.2 249.763V250.78ZM123.16 255.563C122.734 256.063 122.109 256.314 121.286 256.314C120.604 256.314 120.084 256.116 119.725 255.722C119.37 255.324 119.191 254.737 119.187 253.961V249.799H120.281V253.931C120.281 254.901 120.675 255.385 121.463 255.385C122.298 255.385 122.854 255.074 123.13 254.451V249.799H124.224V256.195H123.183L123.16 255.563ZM127.079 256.195H125.985V249.799H127.079V256.195ZM125.897 248.102C125.897 247.925 125.95 247.775 126.056 247.653C126.167 247.531 126.328 247.47 126.541 247.47C126.754 247.47 126.915 247.531 127.026 247.653C127.136 247.775 127.191 247.925 127.191 248.102C127.191 248.28 127.136 248.427 127.026 248.546C126.915 248.664 126.754 248.723 126.541 248.723C126.328 248.723 126.167 248.664 126.056 248.546C125.95 248.427 125.897 248.28 125.897 248.102ZM130.319 248.25V249.799H131.513V250.644H130.319V254.611C130.319 254.867 130.372 255.06 130.478 255.19C130.585 255.316 130.766 255.38 131.022 255.38C131.148 255.38 131.322 255.356 131.542 255.309V256.195C131.255 256.274 130.975 256.314 130.703 256.314C130.214 256.314 129.846 256.166 129.597 255.87C129.349 255.575 129.225 255.155 129.225 254.611V250.644H128.06V249.799H129.225V248.25H130.319ZM133.824 249.799L133.854 250.508C134.323 249.957 134.955 249.681 135.751 249.681C136.646 249.681 137.255 250.024 137.578 250.709C137.791 250.402 138.067 250.154 138.406 249.964C138.749 249.775 139.153 249.681 139.618 249.681C141.021 249.681 141.734 250.424 141.758 251.909V256.195H140.664V251.974C140.664 251.517 140.56 251.176 140.351 250.952C140.142 250.723 139.791 250.609 139.298 250.609C138.892 250.609 138.556 250.731 138.288 250.975C138.02 251.216 137.864 251.541 137.821 251.951V256.195H136.721V252.004C136.721 251.074 136.266 250.609 135.355 250.609C134.638 250.609 134.147 250.914 133.883 251.525V256.195H132.79V249.799H133.824ZM146.067 256.314C145.2 256.314 144.495 256.03 143.951 255.462C143.407 254.891 143.135 254.128 143.135 253.174V252.973C143.135 252.339 143.255 251.773 143.496 251.277C143.74 250.776 144.079 250.386 144.512 250.106C144.95 249.823 145.423 249.681 145.931 249.681C146.763 249.681 147.409 249.955 147.87 250.502C148.331 251.05 148.562 251.834 148.562 252.855V253.31H144.229C144.244 253.941 144.428 254.451 144.779 254.842C145.133 255.228 145.582 255.421 146.126 255.421C146.513 255.421 146.84 255.342 147.108 255.184C147.376 255.027 147.61 254.818 147.811 254.558L148.479 255.078C147.943 255.902 147.139 256.314 146.067 256.314ZM145.931 250.579C145.49 250.579 145.119 250.741 144.82 251.064C144.52 251.383 144.335 251.833 144.264 252.412H147.468V252.329C147.437 251.773 147.287 251.344 147.019 251.04C146.751 250.733 146.388 250.579 145.931 250.579ZM150.868 249.799L150.903 250.603C151.392 249.988 152.03 249.681 152.818 249.681C154.17 249.681 154.852 250.443 154.864 251.968V256.195H153.77V251.963C153.766 251.501 153.66 251.161 153.451 250.94C153.246 250.719 152.925 250.609 152.487 250.609C152.133 250.609 151.821 250.703 151.553 250.893C151.285 251.082 151.076 251.33 150.927 251.637V256.195H149.833V249.799H150.868ZM157.997 248.25V249.799H159.191V250.644H157.997V254.611C157.997 254.867 158.05 255.06 158.157 255.19C158.263 255.316 158.444 255.38 158.7 255.38C158.827 255.38 159 255.356 159.221 255.309V256.195C158.933 256.274 158.653 256.314 158.381 256.314C157.893 256.314 157.524 256.166 157.276 255.87C157.027 255.575 156.903 255.155 156.903 254.611V250.644H155.739V249.799H156.903V248.25H157.997ZM168.401 253.949H164.795L163.985 256.195H162.815L166.102 247.588H167.095L170.388 256.195H169.223L168.401 253.949ZM165.138 253.015H168.064L166.598 248.989L165.138 253.015ZM171.115 252.944C171.115 251.947 171.345 251.155 171.807 250.567C172.268 249.976 172.879 249.681 173.639 249.681C174.42 249.681 175.028 249.957 175.466 250.508L175.519 249.799H176.518V256.042C176.518 256.869 176.272 257.521 175.779 257.998C175.29 258.475 174.632 258.714 173.805 258.714C173.344 258.714 172.892 258.615 172.451 258.418C172.01 258.221 171.673 257.951 171.44 257.608L172.008 256.952C172.477 257.531 173.05 257.821 173.728 257.821C174.26 257.821 174.674 257.671 174.969 257.372C175.269 257.072 175.419 256.651 175.419 256.107V255.557C174.981 256.061 174.384 256.314 173.627 256.314C172.879 256.314 172.272 256.012 171.807 255.409C171.345 254.806 171.115 253.984 171.115 252.944ZM172.214 253.068C172.214 253.789 172.362 254.357 172.658 254.771C172.953 255.18 173.367 255.385 173.899 255.385C174.589 255.385 175.095 255.072 175.419 254.445V251.525C175.084 250.914 174.581 250.609 173.911 250.609C173.379 250.609 172.963 250.816 172.664 251.23C172.364 251.643 172.214 252.256 172.214 253.068ZM180.828 256.314C179.961 256.314 179.255 256.03 178.711 255.462C178.167 254.891 177.896 254.128 177.896 253.174V252.973C177.896 252.339 178.016 251.773 178.256 251.277C178.501 250.776 178.839 250.386 179.273 250.106C179.71 249.823 180.183 249.681 180.692 249.681C181.523 249.681 182.17 249.955 182.631 250.502C183.092 251.05 183.322 251.834 183.322 252.855V253.31H178.989C179.005 253.941 179.188 254.451 179.539 254.842C179.894 255.228 180.343 255.421 180.887 255.421C181.273 255.421 181.6 255.342 181.868 255.184C182.136 255.027 182.371 254.818 182.572 254.558L183.24 255.078C182.704 255.902 181.9 256.314 180.828 256.314ZM180.692 250.579C180.25 250.579 179.88 250.741 179.58 251.064C179.281 251.383 179.096 251.833 179.025 252.412H182.229V252.329C182.197 251.773 182.047 251.344 181.779 251.04C181.512 250.733 181.149 250.579 180.692 250.579ZM185.628 249.799L185.663 250.603C186.152 249.988 186.791 249.681 187.579 249.681C188.931 249.681 189.612 250.443 189.624 251.968V256.195H188.531V251.963C188.527 251.501 188.42 251.161 188.211 250.94C188.006 250.719 187.685 250.609 187.248 250.609C186.893 250.609 186.582 250.703 186.314 250.893C186.046 251.082 185.837 251.33 185.687 251.637V256.195H184.593V249.799H185.628ZM193.839 255.421C194.229 255.421 194.57 255.303 194.862 255.066C195.154 254.83 195.315 254.534 195.347 254.179H196.381C196.362 254.546 196.235 254.895 196.003 255.226C195.77 255.557 195.459 255.821 195.069 256.018C194.683 256.215 194.273 256.314 193.839 256.314C192.968 256.314 192.275 256.024 191.758 255.445C191.246 254.861 190.99 254.065 190.99 253.056V252.873C190.99 252.25 191.104 251.697 191.333 251.212C191.561 250.727 191.888 250.351 192.314 250.083C192.744 249.815 193.25 249.681 193.833 249.681C194.551 249.681 195.146 249.895 195.619 250.325C196.096 250.755 196.35 251.312 196.381 251.998H195.347C195.315 251.584 195.158 251.245 194.874 250.981C194.594 250.713 194.247 250.579 193.833 250.579C193.278 250.579 192.846 250.78 192.539 251.182C192.235 251.58 192.084 252.158 192.084 252.914V253.121C192.084 253.858 192.235 254.426 192.539 254.824C192.842 255.222 193.276 255.421 193.839 255.421ZM199.704 254.593L201.193 249.799H202.364L199.792 257.183C199.394 258.247 198.762 258.779 197.895 258.779L197.688 258.761L197.28 258.684V257.797L197.575 257.821C197.946 257.821 198.234 257.746 198.439 257.596C198.647 257.447 198.819 257.173 198.953 256.775L199.195 256.124L196.913 249.799H198.107L199.704 254.593Z" fill="#606F81"/>
</g>
</g>
<g opacity="0.2" filter="url(#filter5_d_1858_5282)">
<path fill-rule="evenodd" clip-rule="evenodd" d="M42.7659 338.16H271.547C278.151 338.16 283.504 343.574 283.504 350.251V442.951C283.504 449.629 278.151 455.042 271.547 455.042H42.7659C36.162 455.042 30.8086 449.629 30.8086 442.951V350.251C30.8086 343.574 36.162 338.16 42.7659 338.16Z" fill="white" fill-opacity="0.6"/>
<path d="M31.707 345.645C32.9134 342.686 35.2471 340.318 38.167 339.087L38.8066 340.604C40.0238 340.09 41.3602 339.806 42.7659 339.806H46.1303V338.16H52.8592V339.806H59.588V338.16H66.3169V339.806H73.0458V338.16H79.7746V339.806H86.5035V338.16H93.2324V339.806H99.9612V338.16H106.69V339.806H113.419V338.16H120.148V339.806H126.877V338.16H133.606V339.806H140.334V338.16H147.063V339.806H153.792V338.16H160.521V339.806H167.25V338.16H173.979V339.806H180.708V338.16H187.436V339.806H194.165V338.16H200.894V339.806H207.623V338.16H214.352V339.806H221.081V338.16H227.81V339.806H234.539V338.16H241.267V339.806H247.996V338.16H254.725V339.806H261.454V338.16H268.183V339.806H271.547C272.953 339.806 274.289 340.09 275.507 340.604L276.146 339.087C279.066 340.318 281.4 342.687 282.606 345.645L281.082 346.267C281.581 347.492 281.858 348.837 281.858 350.251V353.562H283.504V360.183H281.858V366.805H283.504V373.426H281.858V380.048H283.504V386.669H281.858V393.291H283.504V399.912H281.858V406.533H283.504V413.155H281.858V419.776H283.504V426.398H281.858V433.019H283.504V439.64H281.858V442.951C281.858 444.366 281.581 445.71 281.082 446.936L282.606 447.558C281.4 450.516 279.066 452.884 276.146 454.116L275.507 452.599C274.289 453.112 272.953 453.396 271.547 453.396H268.183V455.042H261.454V453.396H254.725V455.042H247.996V453.396H241.267V455.042H234.539V453.396H227.81V455.042H221.081V453.396H214.352V455.042H207.623V453.396H200.894V455.042H194.165V453.396H187.437V455.042H180.708V453.396H173.979V455.042H167.25V453.396H160.521V455.042H153.792V453.396H147.063V455.042H140.334V453.396H133.606V455.042H126.877V453.396H120.148V455.042H113.419V453.396H106.69V455.042H99.9613V453.396H93.2324V455.042H86.5035V453.396H79.7747V455.042H73.0458V453.396H66.3169V455.042H59.5881V453.396H52.8592V455.042H46.1303V453.396H42.7659C41.3602 453.396 40.0238 453.112 38.8066 452.599L38.167 454.116C35.2471 452.884 32.9134 450.516 31.707 447.558L33.2313 446.936C32.7315 445.71 32.4548 444.366 32.4548 442.951V439.64H30.8086V433.019H32.4548V426.398H30.8086V419.776H32.4548V413.155H30.8086V406.533H32.4548V399.912H30.8086V393.291H32.4548V386.669H30.8086V380.048H32.4548V373.426H30.8086V366.805H32.4548V360.183H30.8086V353.562H32.4548V350.251C32.4548 348.837 32.7315 347.492 33.2313 346.267L31.707 345.645Z" stroke="#B3BEFA" stroke-width="3.29245" stroke-dasharray="6.58 6.58"/>
</g>
<g opacity="0.5">
<path fill-rule="evenodd" clip-rule="evenodd" d="M156.757 376.295C156.757 375.07 156.566 374.078 155.561 374.078C154.556 374.078 154.365 375.07 154.365 376.295V386.17H144.601C143.388 386.17 142.408 386.361 142.408 387.379C142.408 388.397 143.388 388.588 144.601 388.588H154.365V398.462C154.365 399.687 154.556 400.679 155.561 400.679C156.566 400.679 156.757 399.687 156.757 398.462V388.588H166.522C167.734 388.588 168.714 388.397 168.714 387.379C168.714 386.361 167.734 386.17 166.522 386.17H156.757V376.295Z" fill="#B3BEFA" fill-opacity="0.5"/>
</g>
</g>
</g>
<g filter="url(#filter6_b_1858_5282)">
<path d="M4 25.971C4 11.6427 15.6154 0.0273438 29.9437 0.0273438H278.138C292.467 0.0273438 304.082 11.6427 304.082 25.971V70.0753H4V25.971Z" fill="url(#paint0_linear_1858_5282)" fill-opacity="0.01"/>
</g>
<g clip-path="url(#clip4_1858_5282)" filter="url(#filter7_d_1858_5282)">
<rect x="31.7461" y="463.551" width="245.464" height="50.1578" rx="12.9718" fill="#5468FF"/>
<path fill-rule="evenodd" clip-rule="evenodd" d="M251.331 501.479C258.495 501.479 264.303 495.671 264.303 488.507C264.303 481.343 258.495 475.535 251.331 475.535C244.167 475.535 238.359 481.343 238.359 488.507C238.359 495.671 244.167 501.479 251.331 501.479Z" fill="#3D56F0"/>
<path fill-rule="evenodd" clip-rule="evenodd" d="M252.921 482.266C252.921 481.622 252.398 481.1 251.754 481.1C251.11 481.1 250.588 481.622 250.588 482.266V486.93H245.924C245.279 486.93 244.758 487.451 244.758 488.096C244.758 488.741 245.279 489.262 245.924 489.262H250.588V493.926C250.588 494.57 251.11 495.092 251.754 495.092C252.398 495.092 252.921 494.57 252.921 493.926V489.262H257.585C258.229 489.262 258.751 488.741 258.751 488.096C258.751 487.451 258.229 486.93 257.585 486.93H252.921V482.266Z" fill="white"/>
<path d="M105.713 494.192C107.775 494.192 109.325 493.182 110.017 491.314L108.398 490.705C107.983 491.923 107.042 492.545 105.713 492.545C103.859 492.545 102.766 491.314 102.766 489.142C102.766 486.983 103.845 485.765 105.713 485.765C107.028 485.765 107.969 486.36 108.398 487.564L109.989 486.942C109.283 485.101 107.747 484.119 105.713 484.119C102.863 484.119 101.037 486.07 101.037 489.155C101.037 492.241 102.863 494.192 105.713 494.192ZM119.653 493.984L117.052 489.778C118.2 489.391 118.837 488.505 118.837 487.121C118.837 485.392 117.854 484.34 115.557 484.34H112.402V493.984H114.118V489.986H114.755H115.336L117.647 493.984H119.653ZM114.118 488.394V485.931H115.377C116.498 485.931 117.107 486.208 117.107 487.149C117.107 488.09 116.498 488.394 115.377 488.394H114.118ZM121.875 493.984H128.295V492.393H123.604V489.82H127.963V488.228H123.604V485.931H128.295V484.34H121.875V493.984ZM137.148 493.984H139.03L135.183 484.34H133.883L130.022 493.984H131.904L132.637 491.992H136.415L137.148 493.984ZM133.232 490.401L134.533 486.886L135.834 490.401H133.232ZM142.161 493.984H143.904V485.931H146.921V484.34H139.144V485.931H142.161V493.984ZM149.116 493.984H155.536V492.393H150.845V489.82H155.204V488.228H150.845V485.931H155.536V484.34H149.116V493.984ZM168.618 493.984H170.5L166.654 484.34H165.353L161.493 493.984H163.374L164.108 491.992H167.885L168.618 493.984ZM164.703 490.401L166.003 486.886L167.304 490.401H164.703ZM175.354 494.164C177.332 494.164 178.702 492.974 178.702 491.176C178.702 489.806 178.024 489.072 175.963 488.284C174.51 487.716 174.039 487.357 174.039 486.72C174.039 486.125 174.565 485.669 175.257 485.669C175.907 485.669 176.475 486.056 176.807 486.775L178.246 485.89C177.637 484.728 176.613 484.133 175.312 484.133C173.513 484.133 172.31 485.198 172.31 486.762C172.31 488.159 173.029 488.892 175.049 489.681C176.475 490.248 176.973 490.664 176.973 491.328C176.973 492.144 176.35 492.628 175.381 492.628C174.261 492.628 173.5 491.978 173.375 490.83L171.659 491.259C171.936 493.016 173.43 494.164 175.354 494.164ZM189.593 493.984L185.913 487.993L189.496 484.34H187.227L182.896 488.879V484.34H181.167V493.984H182.896V491.051L184.737 489.183L187.587 493.984H189.593ZM191.774 493.984H198.194V492.393H193.504V489.82H197.862V488.228H193.504V485.931H198.194V484.34H191.774V493.984ZM208.334 493.984L205.733 489.778C206.881 489.391 207.518 488.505 207.518 487.121C207.518 485.392 206.536 484.34 204.239 484.34H201.084V493.984H202.8V489.986H203.436H204.017L206.328 493.984H208.334ZM202.8 488.394V485.931H204.059C205.18 485.931 205.788 486.208 205.788 487.149C205.788 488.09 205.18 488.394 204.059 488.394H202.8Z" fill="white"/>
</g>
<g opacity="0.85" filter="url(#filter8_d_1858_5282)">
<path fill-rule="evenodd" clip-rule="evenodd" d="M116.996 39.1094H191.076V64.6259H116.996V39.1094Z" fill="white"/>
</g>
<path d="M139.644 53.8559H137.107L136.625 55.3027H135.086L137.7 48.2805H139.041L141.67 55.3027H140.131L139.644 53.8559ZM137.498 52.6839H139.253L138.371 50.0554L137.498 52.6839ZM148.55 52.9636C148.496 53.7192 148.216 54.314 147.711 54.7481C147.21 55.1822 146.547 55.3992 145.724 55.3992C144.824 55.3992 144.115 55.097 143.597 54.4925C143.083 53.8848 142.825 53.052 142.825 51.9942V51.565C142.825 50.8898 142.944 50.2949 143.182 49.7805C143.42 49.266 143.76 48.8722 144.2 48.5989C144.644 48.3223 145.158 48.1841 145.743 48.1841C146.554 48.1841 147.206 48.4011 147.701 48.8352C148.197 49.2692 148.483 49.8785 148.56 50.6631H147.113C147.078 50.2097 146.951 49.8818 146.732 49.6792C146.517 49.4734 146.187 49.3705 145.743 49.3705C145.261 49.3705 144.899 49.5442 144.658 49.8914C144.42 50.2354 144.298 50.7708 144.292 51.4974V52.028C144.292 52.7868 144.406 53.3414 144.634 53.6919C144.866 54.0423 145.229 54.2176 145.724 54.2176C146.171 54.2176 146.504 54.1163 146.722 53.9137C146.944 53.708 147.071 53.3912 147.103 52.9636H148.55ZM155.46 49.4525H153.309V55.3027H151.862V49.4525H149.74V48.2805H155.46V49.4525ZM158.646 55.3027H157.199V48.2805H158.646V55.3027ZM163.405 53.5617L164.996 48.2805H166.607L164.162 55.3027H162.652L160.217 48.2805H161.823L163.405 53.5617ZM172.316 52.2595H169.538V54.1404H172.798V55.3027H168.091V48.2805H172.788V49.4525H169.538V51.1261H172.316V52.2595Z" fill="#344356"/>
<path opacity="0.85" fill-rule="evenodd" clip-rule="evenodd" d="M191.898 39.1093H254.59C260.425 39.1093 265.156 43.004 265.156 47.8081V55.927C265.156 60.7313 260.425 64.6258 254.59 64.6258H191.898V39.1093Z" fill="white"/>
<path opacity="0.85" fill-rule="evenodd" clip-rule="evenodd" d="M53.48 39.1094H116.171V64.6259H53.48C47.6446 64.6259 42.9141 60.7313 42.9141 55.9271V47.8082C42.9141 43.0041 47.6446 39.1094 53.48 39.1094Z" fill="white"/>
<path d="M74.8806 53.47H71.9386L71.2778 55.3027H70.3229L73.0044 48.2805H73.8147L76.5011 55.3027H75.5509L74.8806 53.47ZM72.2183 52.708H74.6056L73.4096 49.4236L72.2183 52.708ZM79.1954 54.5455H82.5232V55.3027H78.2645V48.2805H79.1954V54.5455ZM85.3284 54.5455H88.6562V55.3027H84.3976V48.2805H85.3284V54.5455Z" fill="#344356"/>
<path d="M205.981 55.834H205.055V48.8118H205.981V55.834ZM213.894 55.834H212.963L209.428 50.4227V55.834H208.497V48.8118H209.428L212.973 54.2472V48.8118H213.894V55.834ZM220.321 54.0013H217.379L216.718 55.834H215.763L218.445 48.8118H219.255L221.941 55.834H220.991L220.321 54.0013ZM217.659 53.2392H220.046L218.85 49.9548L217.659 53.2392ZM228.812 53.6058C228.726 54.3485 228.451 54.9225 227.988 55.3276C227.528 55.7295 226.915 55.9304 226.15 55.9304C225.321 55.9304 224.655 55.633 224.153 55.0382C223.655 54.4434 223.406 53.6476 223.406 52.6509V51.9756C223.406 51.3229 223.522 50.749 223.753 50.2539C223.988 49.7587 224.319 49.3793 224.747 49.1156C225.174 48.8488 225.669 48.7153 226.232 48.7153C226.978 48.7153 227.576 48.9243 228.026 49.3423C228.476 49.7571 228.738 50.3326 228.812 51.0689H227.882C227.801 50.5095 227.626 50.1043 227.356 49.8536C227.089 49.6028 226.714 49.4774 226.232 49.4774C225.641 49.4774 225.176 49.696 224.838 50.1333C224.504 50.5706 224.337 51.1927 224.337 51.9998V52.6798C224.337 53.4418 224.496 54.0479 224.814 54.498C225.133 54.9482 225.578 55.1732 226.15 55.1732C226.665 55.1732 227.058 55.0575 227.332 54.826C227.608 54.5913 227.792 54.1845 227.882 53.6058H228.812ZM235.606 49.5738H233.349V55.834H232.428V49.5738H230.176V48.8118H235.606V49.5738ZM238.46 55.834H237.534V48.8118H238.46V55.834ZM243.3 54.6041L245.306 48.8118H246.319L243.715 55.834H242.895L240.295 48.8118H241.303L243.3 54.6041ZM252.052 52.5882H249.009V55.0768H252.544V55.834H248.083V48.8118H252.496V49.5738H249.009V51.831H252.052V52.5882Z" fill="#344356"/>
<defs>
<filter id="filter0_d_1858_5282" x="0" y="0.0273438" width="308.082" height="539.846" filterUnits="userSpaceOnUse" color-interpolation-filters="sRGB">
<feFlood flood-opacity="0" result="BackgroundImageFix"/>
<feColorMatrix in="SourceAlpha" type="matrix" values="0 0 0 0 0 0 0 0 0 0 0 0 0 0 0 0 0 0 127 0" result="hardAlpha"/>
<feOffset dy="4"/>
<feGaussianBlur stdDeviation="2"/>
<feComposite in2="hardAlpha" operator="out"/>
<feColorMatrix type="matrix" values="0 0 0 0 0 0 0 0 0 0 0 0 0 0 0 0 0 0 0.25 0"/>
<feBlend mode="normal" in2="BackgroundImageFix" result="effect1_dropShadow_1858_5282"/>
<feBlend mode="normal" in="SourceGraphic" in2="effect1_dropShadow_1858_5282" result="shape"/>
</filter>
<filter id="filter1_d_1858_5282" x="15.4411" y="202.919" width="278.062" height="141.819" filterUnits="userSpaceOnUse" color-interpolation-filters="sRGB">
<feFlood flood-opacity="0" result="BackgroundImageFix"/>
<feColorMatrix in="SourceAlpha" type="matrix" values="0 0 0 0 0 0 0 0 0 0 0 0 0 0 0 0 0 0 127 0" result="hardAlpha"/>
<feOffset dy="6.38592"/>
<feGaussianBlur stdDeviation="6.38592"/>
<feComposite in2="hardAlpha" operator="out"/>
<feColorMatrix type="matrix" values="0 0 0 0 0 0 0 0 0 0.0633528 0 0 0 0 0.541667 0 0 0 0.05 0"/>
<feBlend mode="normal" in2="BackgroundImageFix" result="effect1_dropShadow_1858_5282"/>
<feBlend mode="normal" in="SourceGraphic" in2="effect1_dropShadow_1858_5282" result="shape"/>
</filter>
<filter id="filter2_d_1858_5282" x="31.332" y="223.061" width="44.1746" height="46.7954" filterUnits="userSpaceOnUse" color-interpolation-filters="sRGB">
<feFlood flood-opacity="0" result="BackgroundImageFix"/>
<feColorMatrix in="SourceAlpha" type="matrix" values="0 0 0 0 0 0 0 0 0 0 0 0 0 0 0 0 0 0 127 0" result="hardAlpha"/>
<feOffset dy="5.573"/>
<feGaussianBlur stdDeviation="5.17493"/>
<feColorMatrix type="matrix" values="0 0 0 0 0.239216 0 0 0 0 0.337255 0 0 0 0 0.941176 0 0 0 0.29 0"/>
<feBlend mode="normal" in2="BackgroundImageFix" result="effect1_dropShadow_1858_5282"/>
<feBlend mode="normal" in="SourceGraphic" in2="effect1_dropShadow_1858_5282" result="shape"/>
</filter>
<filter id="filter3_d_1858_5282" x="44.5476" y="225.723" width="46.2952" height="48.5376" filterUnits="userSpaceOnUse" color-interpolation-filters="sRGB">
<feFlood flood-opacity="0" result="BackgroundImageFix"/>
<feColorMatrix in="SourceAlpha" type="matrix" values="0 0 0 0 0 0 0 0 0 0 0 0 0 0 0 0 0 0 127 0" result="hardAlpha"/>
<feOffset dy="5.573"/>
<feGaussianBlur stdDeviation="5.17493"/>
<feColorMatrix type="matrix" values="0 0 0 0 0.239216 0 0 0 0 0.337255 0 0 0 0 0.941176 0 0 0 0.28 0"/>
<feBlend mode="normal" in2="BackgroundImageFix" result="effect1_dropShadow_1858_5282"/>
<feBlend mode="normal" in="SourceGraphic" in2="effect1_dropShadow_1858_5282" result="shape"/>
</filter>
<filter id="filter4_d_1858_5282" x="21.8445" y="265.034" width="266.708" height="75.6333" filterUnits="userSpaceOnUse" color-interpolation-filters="sRGB">
<feFlood flood-opacity="0" result="BackgroundImageFix"/>
<feColorMatrix in="SourceAlpha" type="matrix" values="0 0 0 0 0 0 0 0 0 0 0 0 0 0 0 0 0 0 127 0" result="hardAlpha"/>
<feOffset dy="7.96143"/>
<feGaussianBlur stdDeviation="9.95179"/>
<feColorMatrix type="matrix" values="0 0 0 0 0.329412 0 0 0 0 0.407843 0 0 0 0 1 0 0 0 0.3 0"/>
<feBlend mode="normal" in2="BackgroundImageFix" result="effect1_dropShadow_1858_5282"/>
<feBlend mode="normal" in="SourceGraphic" in2="effect1_dropShadow_1858_5282" result="shape"/>
</filter>
<filter id="filter5_d_1858_5282" x="15.1694" y="332.398" width="283.974" height="148.161" filterUnits="userSpaceOnUse" color-interpolation-filters="sRGB">
<feFlood flood-opacity="0" result="BackgroundImageFix"/>
<feColorMatrix in="SourceAlpha" type="matrix" values="0 0 0 0 0 0 0 0 0 0 0 0 0 0 0 0 0 0 127 0" result="hardAlpha"/>
<feOffset dy="9.87736"/>
<feGaussianBlur stdDeviation="7.81958"/>
<feColorMatrix type="matrix" values="0 0 0 0 0.235294 0 0 0 0 0.501961 0 0 0 0 0.819608 0 0 0 0.09 0"/>
<feBlend mode="normal" in2="BackgroundImageFix" result="effect1_dropShadow_1858_5282"/>
<feBlend mode="normal" in="SourceGraphic" in2="effect1_dropShadow_1858_5282" result="shape"/>
</filter>
<filter id="filter6_b_1858_5282" x="-21.9437" y="-25.9163" width="351.969" height="121.936" filterUnits="userSpaceOnUse" color-interpolation-filters="sRGB">
<feFlood flood-opacity="0" result="BackgroundImageFix"/>
<feGaussianBlur in="BackgroundImage" stdDeviation="12.9718"/>
<feComposite in2="SourceAlpha" operator="in" result="effect1_backgroundBlur_1858_5282"/>
<feBlend mode="normal" in="SourceGraphic" in2="effect1_backgroundBlur_1858_5282" result="shape"/>
</filter>
<filter id="filter7_d_1858_5282" x="10.0541" y="450.579" width="288.84" height="93.3977" filterUnits="userSpaceOnUse" color-interpolation-filters="sRGB">
<feFlood flood-opacity="0" result="BackgroundImageFix"/>
<feColorMatrix in="SourceAlpha" type="matrix" values="0 0 0 0 0 0 0 0 0 0 0 0 0 0 0 0 0 0 127 0" result="hardAlpha"/>
<feOffset dy="8.64789"/>
<feGaussianBlur stdDeviation="10.8099"/>
<feColorMatrix type="matrix" values="0 0 0 0 0.330297 0 0 0 0 0.409583 0 0 0 0 1 0 0 0 0.3 0"/>
<feBlend mode="normal" in2="BackgroundImageFix" result="effect1_dropShadow_1858_5282"/>
<feBlend mode="normal" in="SourceGraphic" in2="effect1_dropShadow_1858_5282" result="shape"/>
</filter>
<filter id="filter8_d_1858_5282" x="101.357" y="33.3476" width="105.359" height="56.7939" filterUnits="userSpaceOnUse" color-interpolation-filters="sRGB">
<feFlood flood-opacity="0" result="BackgroundImageFix"/>
<feColorMatrix in="SourceAlpha" type="matrix" values="0 0 0 0 0 0 0 0 0 0 0 0 0 0 0 0 0 0 127 0" result="hardAlpha"/>
<feOffset dy="9.87736"/>
<feGaussianBlur stdDeviation="7.81958"/>
<feColorMatrix type="matrix" values="0 0 0 0 0.235294 0 0 0 0 0.501961 0 0 0 0 0.819608 0 0 0 0.2 0"/>
<feBlend mode="normal" in2="BackgroundImageFix" result="effect1_dropShadow_1858_5282"/>
<feBlend mode="normal" in="SourceGraphic" in2="effect1_dropShadow_1858_5282" result="shape"/>
</filter>
<linearGradient id="paint0_linear_1858_5282" x1="154.041" y1="0.0273437" x2="154.041" y2="70.0753" gradientUnits="userSpaceOnUse">
<stop stop-color="#C4C4C4"/>
<stop offset="1" stop-color="#C4C4C4" stop-opacity="0"/>
</linearGradient>
<clipPath id="clip0_1858_5282">
<rect x="4" y="0.0273438" width="300.082" height="531.845" rx="25.9437" fill="white"/>
</clipPath>
<clipPath id="clip1_1858_5282">
<rect width="60.5069" height="53.3416" fill="white" transform="translate(30.6035 221.246)"/>
</clipPath>
<clipPath id="clip2_1858_5282">
<rect width="13.4775" height="14.975" fill="white" transform="translate(244.752 288.93)"/>
</clipPath>
<clipPath id="clip3_1858_5282">
<rect width="11.98" height="11.98" fill="white" transform="translate(244.752 290.428)"/>
</clipPath>
<clipPath id="clip4_1858_5282">
<rect width="245.6" height="50.1578" fill="white" transform="translate(31.6738 463.551)"/>
</clipPath>
</defs>
</svg>
