<svg width="109" height="213" viewBox="0 0 109 213" fill="none" xmlns="http://www.w3.org/2000/svg">
<g filter="url(#filter0_bd_1858_1809)">
<g clip-path="url(#clip0_1858_1809)">
<path d="M0 12.9901C0 7.32711 4.54795 2.73633 10.1581 2.73633H98.614C104.224 2.73633 108.772 7.32711 108.772 12.9901V190.482C108.772 196.146 104.224 200.736 98.614 200.736H10.1581C4.54795 200.736 0 196.146 0 190.482V12.9901Z" fill="url(#paint0_linear_1858_1809)"/>
<path d="M60.574 200.736L56.2371 207.001C56.1132 207.18 55.9748 207.35 55.817 207.5C54.6329 208.624 53.9832 208.623 52.8016 207.496C52.6433 207.345 52.5046 207.175 52.3806 206.995L48.073 200.736H60.574Z" fill="url(#paint1_linear_1858_1809)"/>
<path d="M108.647 184.465C32.6869 111.175 23.3871 72.149 12.27 2.88261C97.8839 2.88571 94.0404 2.88261 97.8842 2.88261C101.158 2.22685 104.414 3.86622 106.368 5.99671C108.158 7.9633 109.135 10.5854 108.647 13.6774L108.647 184.465Z" fill="#7081FF"/>
<g filter="url(#filter1_d_1858_1809)">
<g clip-path="url(#clip1_1858_1809)">
<path d="M0 205.689H110.43V173.028C80.8966 144.271 28.8916 100.249 18.191 4.39453H0V205.689Z" fill="white" fill-opacity="0.07"/>
<path d="M1.6582 199.057H107.446V155.614H1.6582V199.057Z" fill="url(#paint2_linear_1858_1809)"/>
</g>
</g>
</g>
</g>
<defs>
<filter id="filter0_bd_1858_1809" x="-8.29056" y="-7.54446" width="125.353" height="228.155" filterUnits="userSpaceOnUse" color-interpolation-filters="sRGB">
<feFlood flood-opacity="0" result="BackgroundImageFix"/>
<feGaussianBlur in="BackgroundImage" stdDeviation="4.14528"/>
<feComposite in2="SourceAlpha" operator="in" result="effect1_backgroundBlur_1858_1809"/>
<feColorMatrix in="SourceAlpha" type="matrix" values="0 0 0 0 0 0 0 0 0 0 0 0 0 0 0 0 0 0 127 0" result="hardAlpha"/>
<feMorphology radius="37.1417" operator="erode" in="SourceAlpha" result="effect2_dropShadow_1858_1809"/>
<feOffset dy="6.96407"/>
<feGaussianBlur stdDeviation="7.4615"/>
<feColorMatrix type="matrix" values="0 0 0 0 0 0 0 0 0 0 0 0 0 0 0 0 0 0 0.1 0"/>
<feBlend mode="normal" in2="effect1_backgroundBlur_1858_1809" result="effect2_dropShadow_1858_1809"/>
<feBlend mode="normal" in="SourceGraphic" in2="effect2_dropShadow_1858_1809" result="shape"/>
</filter>
<filter id="filter1_d_1858_1809" x="1.32658" y="3.06804" width="108.441" height="197.315" filterUnits="userSpaceOnUse" color-interpolation-filters="sRGB">
<feFlood flood-opacity="0" result="BackgroundImageFix"/>
<feColorMatrix in="SourceAlpha" type="matrix" values="0 0 0 0 0 0 0 0 0 0 0 0 0 0 0 0 0 0 127 0" result="hardAlpha"/>
<feOffset dx="0.994867"/>
<feGaussianBlur stdDeviation="0.663245"/>
<feComposite in2="hardAlpha" operator="out"/>
<feColorMatrix type="matrix" values="0 0 0 0 0.309769 0 0 0 0 0.250313 0 0 0 0 0.675 0 0 0 0.5 0"/>
<feBlend mode="normal" in2="BackgroundImageFix" result="effect1_dropShadow_1858_1809"/>
<feBlend mode="normal" in="SourceGraphic" in2="effect1_dropShadow_1858_1809" result="shape"/>
</filter>
<linearGradient id="paint0_linear_1858_1809" x1="272.091" y1="19.8463" x2="-285.348" y2="194.229" gradientUnits="userSpaceOnUse">
<stop stop-color="#5468FF"/>
<stop offset="1" stop-color="#F8F9FF"/>
</linearGradient>
<linearGradient id="paint1_linear_1858_1809" x1="272.091" y1="19.8463" x2="-285.348" y2="194.229" gradientUnits="userSpaceOnUse">
<stop stop-color="#5468FF"/>
<stop offset="1" stop-color="#F8F9FF"/>
</linearGradient>
<linearGradient id="paint2_linear_1858_1809" x1="56.2101" y1="259.743" x2="56.2101" y2="155.614" gradientUnits="userSpaceOnUse">
<stop/>
<stop offset="0.505208" stop-opacity="0.71"/>
<stop offset="1" stop-opacity="0"/>
</linearGradient>
<clipPath id="clip0_1858_1809">
<rect y="0.746094" width="108.772" height="211.575" rx="9.94867" fill="white"/>
</clipPath>
<clipPath id="clip1_1858_1809">
<rect x="1.6582" y="4.39453" width="105.787" height="194.662" rx="8.29056" fill="white"/>
</clipPath>
</defs>
</svg>
