<svg width="170" height="114" viewBox="0 0 170 114" fill="none" xmlns="http://www.w3.org/2000/svg">
<g clip-path="url(#clip0_1858_5239)">
<path d="M1.7202 56.9248C1.7202 39.0254 16.2305 24.5151 34.1299 24.5151H137.176C155.076 24.5151 169.586 39.0254 169.586 56.9248C169.586 74.8242 155.076 89.3346 137.176 89.3346H34.1299C16.2305 89.3346 1.7202 74.8242 1.7202 56.9248Z" fill="white" fill-opacity="0.85" stroke="#44BCB6" stroke-width="0.831019"/>
<path fill-rule="evenodd" clip-rule="evenodd" d="M20.5733 42.0303C20.2303 42.4016 20.0332 42.973 20.0332 43.7156V70.1294C20.0332 70.872 20.2303 71.4434 20.5861 71.8018L20.679 71.8809L35.3712 57.0807V56.7482L20.6662 41.9512L20.5733 42.0303Z" fill="url(#paint0_linear_1858_5239)"/>
<path fill-rule="evenodd" clip-rule="evenodd" d="M40.258 62.0345L35.3574 57.0962V56.7508L40.2596 51.8125L40.3654 51.8787L46.1634 55.1978C47.8237 56.1405 47.8237 57.6935 46.1634 58.6492L40.3654 61.9683C40.3638 61.9683 40.258 62.0345 40.258 62.0345Z" fill="url(#paint1_linear_1858_5239)"/>
<path fill-rule="evenodd" clip-rule="evenodd" d="M40.3657 61.9667L35.3594 56.9219L20.5742 71.8157C21.1143 72.4001 22.0229 72.4663 23.0389 71.8948L40.3657 61.9667Z" fill="url(#paint2_linear_1858_5239)"/>
<path fill-rule="evenodd" clip-rule="evenodd" d="M40.3657 51.8785L23.0389 41.9632C22.0245 41.3789 21.1143 41.458 20.5742 42.0423L35.3578 56.9217L40.3657 51.8785Z" fill="url(#paint3_linear_1858_5239)"/>
<path opacity="0.2" fill-rule="evenodd" clip-rule="evenodd" d="M40.2589 61.8594L23.0507 71.7084C22.0891 72.2654 21.2318 72.2266 20.6789 71.7214L20.5859 71.815L20.6789 71.8941C21.2318 72.3978 22.0891 72.4381 23.0507 71.8812L40.3774 61.9659L40.2589 61.8594Z" fill="#5468FF"/>
<path opacity="0.12" fill-rule="evenodd" clip-rule="evenodd" d="M46.1627 58.4749L40.2461 61.8601L40.3519 61.9667L46.1499 58.6476C46.98 58.1698 47.3887 57.5466 47.3887 56.9219C47.3358 57.4933 46.9143 58.0374 46.1627 58.4749Z" fill="#5468FF"/>
<path opacity="0.25" fill-rule="evenodd" clip-rule="evenodd" d="M23.038 42.1364L46.1628 55.3707C46.9144 55.7953 47.3359 56.3522 47.4016 56.9237C47.4016 56.3006 46.9929 55.6758 46.1628 55.198L23.038 41.9637C21.3777 41.008 20.0332 41.8038 20.0332 43.7152V43.8879C20.0332 41.9766 21.3777 41.1936 23.038 42.1364Z" fill="white"/>
<path fill-rule="evenodd" clip-rule="evenodd" d="M54.0462 61.0844C54.0462 56.8532 57.5766 53.4082 61.7769 53.4082C64.099 53.4082 65.7512 54.3268 66.998 55.523L65.5301 57.0017C64.639 56.159 63.4307 55.5052 61.7753 55.5052C58.708 55.5052 56.3106 57.9929 56.3106 61.0828C56.3106 64.1726 58.708 66.6635 61.7737 66.6635C63.7624 66.6635 64.8938 65.8596 65.6198 65.1267C66.2143 64.5277 66.6038 63.6673 66.7544 62.4872H61.7769V60.395H68.7832C68.857 60.7696 68.8954 61.2184 68.8954 61.7043C68.8954 63.275 68.4675 65.2235 67.0909 66.6102C65.7512 68.0147 64.0429 68.7638 61.7753 68.7638C57.5734 68.7638 54.043 65.322 54.043 61.0876L54.0462 61.0844ZM74.5588 58.876C71.8457 58.876 69.631 60.9552 69.631 63.8174C69.631 66.6651 71.8441 68.7589 74.5588 68.7589C77.2736 68.7589 79.4835 66.6619 79.4835 63.8158C79.4835 60.9536 77.2719 58.8743 74.5588 58.876ZM74.5588 66.8153C73.0733 66.8153 71.7896 65.5803 71.7896 63.819C71.7896 62.0401 73.0717 60.8228 74.5588 60.8228C76.0444 60.8228 77.3264 62.0384 77.3264 63.819C77.3264 65.5787 76.046 66.8153 74.5588 66.8153ZM85.3039 58.876C82.5908 58.876 80.3793 60.9552 80.3793 63.8174C80.3793 66.6651 82.5908 68.7589 85.3039 68.7589C88.0171 68.7589 90.2286 66.6619 90.2286 63.8158C90.2286 60.9536 88.0187 58.8743 85.3039 58.876ZM85.3039 66.8153C83.8184 66.8153 82.5347 65.5803 82.5347 63.819C82.5347 62.0401 83.8168 60.8228 85.3039 60.8228C86.7895 60.8228 88.0731 62.0384 88.0731 63.819C88.0731 65.5787 86.7895 66.8153 85.3039 66.8153ZM98.4913 59.1762V59.9802H98.4176C97.9352 59.3974 97.0058 58.8743 95.8359 58.8743C93.3824 58.8743 91.1308 61.0472 91.1308 63.8384C91.1308 66.607 93.3808 68.7621 95.8359 68.7621C97.0058 68.7621 97.9352 68.2391 98.4176 67.6402H98.4913V68.3505C98.4913 70.2409 97.4881 71.2531 95.8712 71.2531C94.5507 71.2531 93.7334 70.2974 93.3984 69.4951L91.5202 70.2812C92.0587 71.5905 93.4914 73.2016 95.8696 73.2016C98.3952 73.2016 100.533 71.7018 100.533 68.0518V59.1746L98.4913 59.1762ZM96.0202 66.8153C94.5346 66.8153 93.2862 65.5593 93.2862 63.8384C93.2862 62.0982 94.533 60.8245 96.0202 60.8245C97.4881 60.8245 98.6404 62.0966 98.6404 63.8384C98.642 65.5593 97.4897 66.8153 96.0202 66.8153ZM102.022 53.9329H104.179V68.4619H102.022V53.9329ZM110.091 66.8153C108.994 66.8153 108.212 66.3084 107.714 65.3188L114.275 62.5825L114.049 62.0207C113.642 60.9181 112.395 58.876 109.849 58.876C107.321 58.876 105.22 60.8793 105.22 63.819C105.22 66.5876 107.302 68.7605 110.091 68.7605C112.341 68.7605 113.642 67.377 114.18 66.5699L112.507 65.4479C111.948 66.2728 111.185 66.8169 110.091 66.8153ZM109.922 60.7857C110.776 60.7857 111.501 61.2167 111.743 61.8334L107.355 63.6689C107.301 61.7592 108.825 60.7857 109.922 60.7857Z" fill="#44BCB6"/>
<path fill-rule="evenodd" clip-rule="evenodd" d="M123.739 53.9336H118.582V68.4626H120.734V62.9593H123.741C126.127 62.9593 128.473 61.2191 128.473 58.4457C128.473 55.6771 126.128 53.9352 123.744 53.9352L123.739 53.9336ZM123.795 60.9366H120.734V55.9547H123.795C125.404 55.9547 126.321 57.2995 126.321 58.4457C126.321 59.5725 125.404 60.9366 123.795 60.9366ZM131.811 68.4626V53.9336H129.659V68.4626H131.811ZM141.479 68.4368V62.8673C141.479 60.2876 139.566 58.8492 137.096 58.8492C135.54 58.8492 133.926 59.5418 133.258 61.0738L135.168 61.8761C135.577 61.0738 136.337 60.8107 137.136 60.8107C138.249 60.8107 139.38 61.4838 139.398 62.6817V62.8318C139.008 62.6074 138.175 62.27 137.152 62.27C135.093 62.27 132.997 63.4097 132.997 65.5407C132.997 67.4859 134.686 68.737 136.579 68.737C138.027 68.737 138.824 68.0832 139.324 67.318H139.398V68.44H141.478L141.479 68.4368ZM136.84 66.8128C136.135 66.8128 135.151 66.4576 135.151 65.581C135.151 64.4591 136.377 64.0264 137.434 64.0264C138.382 64.0264 138.825 64.2314 139.402 64.5123C139.237 65.8167 138.143 66.7966 136.84 66.8128ZM149.048 59.1673L146.58 65.4648H146.506L143.946 59.1673H141.627L145.466 67.9718L143.276 72.8681H145.521L151.439 59.1673H149.048Z" fill="#44BCB6"/>
<path d="M60.6092 48.3414H59.4446L58.8059 46.2173H56.5892L55.9787 48.3414H54.8516L57.04 41.1016H58.3926L60.6092 48.3414ZM58.6086 45.3198L58.0357 43.4251C57.9793 43.2356 57.8666 42.7769 57.6881 42.0589H57.6694C57.5942 42.368 57.5003 42.8168 57.3406 43.4251L56.7771 45.3198H58.6086Z" fill="#44BCB6"/>
<path d="M66.0937 43.1172L64.2339 48.3426H63.1725L61.3691 43.1172H62.5432L63.3792 45.8795C63.5201 46.3382 63.6422 46.777 63.7361 47.1958H63.7643C63.8488 46.8169 63.9709 46.3781 64.1212 45.8795L64.9477 43.1172H66.0937Z" fill="#44BCB6"/>
<path d="M70.0585 48.3425L69.9739 47.7442H69.9458C69.6076 48.2229 69.1286 48.4622 68.5087 48.4622C67.6258 48.4622 67.0059 47.804 67.0059 46.9265C67.0059 45.6401 68.0578 44.9719 69.88 44.9719V44.8722C69.88 44.1841 69.5325 43.8451 68.8562 43.8451C68.3678 43.8451 67.9451 43.9747 67.5694 44.234L67.344 43.4761C67.7948 43.1769 68.3678 43.0273 69.0347 43.0273C70.3215 43.0273 70.9696 43.7453 70.9696 45.1913V47.116C70.9696 47.6445 70.9883 48.0533 71.0447 48.3625L70.0585 48.3425ZM69.9082 45.7398C68.6965 45.7398 68.086 46.0489 68.086 46.7968C68.086 47.3453 68.396 47.6146 68.8374 47.6146C69.3916 47.6146 69.9082 47.1658 69.9082 46.5475V45.7398Z" fill="#44BCB6"/>
<path d="M73.402 42.2572C73.0357 42.2572 72.7539 41.9581 72.7539 41.5592C72.7539 41.1603 73.0451 40.8711 73.4208 40.8711C73.7965 40.8711 74.0971 41.1603 74.0877 41.5592C74.0877 41.978 73.8059 42.2572 73.402 42.2572ZM72.876 43.1148H73.9656V48.3303H72.876V43.1148Z" fill="#44BCB6"/>
<path d="M75.9102 40.7227H76.9997V48.3315H75.9102V40.7227Z" fill="#44BCB6"/>
<path d="M81.6386 48.3408L81.554 47.7425H81.5259C81.1877 48.2211 80.7087 48.4605 80.0888 48.4605C79.2059 48.4605 78.5859 47.8023 78.5859 46.9247C78.5859 45.6383 79.6379 44.9702 81.4601 44.9702V44.8705C81.4601 44.1824 81.1126 43.8433 80.4363 43.8433C79.9479 43.8433 79.5252 43.973 79.1495 44.2322L78.9241 43.4644C79.3749 43.1652 79.9479 43.0156 80.6148 43.0156C81.9016 43.0156 82.5497 43.7336 82.5497 45.1796V47.1042C82.5497 47.6328 82.5684 48.0416 82.6154 48.3508H81.6386V48.3408ZM81.4883 45.738C80.2766 45.738 79.6661 46.0472 79.6661 46.7951C79.6661 47.3436 79.9761 47.6128 80.4175 47.6128C80.9717 47.6128 81.4883 47.1641 81.4883 46.5458V45.738Z" fill="#44BCB6"/>
<path d="M86.9841 48.4611C86.2891 48.4611 85.7725 48.152 85.4343 47.5337H85.4155L85.3498 48.3414H84.4199C84.4481 47.9226 84.4575 47.4539 84.4575 46.9354V40.7227H85.5564V43.8839H85.5752C85.904 43.3055 86.4206 43.0163 87.1438 43.0163C88.3273 43.0163 89.1538 44.0933 89.1538 45.6589C89.1538 47.2744 88.2333 48.4611 86.9841 48.4611ZM86.7587 43.9237C86.1294 43.9237 85.5564 44.5021 85.5564 45.3099V46.2273C85.5564 46.9453 86.073 47.5337 86.7399 47.5337C87.5571 47.5337 88.0455 46.8257 88.0455 45.6988C88.0455 44.6417 87.5383 43.9237 86.7587 43.9237Z" fill="#44BCB6"/>
<path d="M90.7695 40.7227H91.8591V48.3315H90.7695V40.7227Z" fill="#44BCB6"/>
<path d="M97.8046 46.0077H94.5266C94.5454 46.995 95.1653 47.5534 96.0764 47.5534C96.5648 47.5534 97.0062 47.4636 97.4007 47.3041L97.5698 48.1118C97.1096 48.3312 96.5648 48.431 95.9261 48.431C94.3857 48.431 93.4746 47.4038 93.4746 45.7983C93.4746 44.2027 94.4045 42.9961 95.804 42.9961C97.0532 42.9961 97.8516 43.9833 97.8516 45.4792C97.8516 45.6886 97.8422 45.8681 97.8046 46.0077ZM96.809 45.18C96.809 44.3723 96.4239 43.8038 95.7288 43.8038C95.0995 43.8038 94.6111 44.3822 94.536 45.18H96.809Z" fill="#44BCB6"/>
<path d="M104.426 48.4605C102.988 48.4605 102.059 47.3236 102.059 45.7779C102.059 44.1624 103.007 43.0156 104.51 43.0156C105.928 43.0156 106.877 44.1026 106.877 45.6882C106.877 47.3137 105.9 48.4605 104.426 48.4605ZM104.472 43.8633C103.684 43.8633 103.176 44.6511 103.176 45.738C103.176 46.815 103.693 47.5929 104.463 47.5929C105.233 47.5929 105.75 46.7552 105.75 45.7081C105.74 44.6511 105.243 43.8633 104.472 43.8633Z" fill="#44BCB6"/>
<path d="M112.747 48.341H111.658V45.3394C111.658 44.4119 111.319 43.9532 110.662 43.9532C110.014 43.9532 109.572 44.5416 109.572 45.2297V48.331H108.483V44.6114C108.483 44.1527 108.473 43.6541 108.445 43.1156H109.403L109.45 43.9233H109.479C109.77 43.3649 110.371 43.0059 111.038 43.0059C112.071 43.0059 112.747 43.8435 112.747 45.2097V48.341Z" fill="#44BCB6"/>
</g>
<defs>
<linearGradient id="paint0_linear_1858_5239" x1="34.0519" y1="43.4317" x2="10.4949" y2="49.6627" gradientUnits="userSpaceOnUse">
<stop stop-color="#00A0FF"/>
<stop offset="0.007" stop-color="#00A1FF"/>
<stop offset="0.26" stop-color="#00BEFF"/>
<stop offset="0.512" stop-color="#00D2FF"/>
<stop offset="0.76" stop-color="#00DFFF"/>
<stop offset="1" stop-color="#00E3FF"/>
</linearGradient>
<linearGradient id="paint1_linear_1858_5239" x1="48.3239" y1="56.9242" x2="19.6287" y2="56.9242" gradientUnits="userSpaceOnUse">
<stop stop-color="#FFE000"/>
<stop offset="0.409" stop-color="#FFBD00"/>
<stop offset="0.775" stop-color="#FFA500"/>
<stop offset="1" stop-color="#FF9C00"/>
</linearGradient>
<linearGradient id="paint2_linear_1858_5239" x1="37.6434" y1="59.6663" x2="18.5447" y2="91.5761" gradientUnits="userSpaceOnUse">
<stop stop-color="#FF3A44"/>
<stop offset="1" stop-color="#C31162"/>
</linearGradient>
<linearGradient id="paint3_linear_1858_5239" x1="16.8524" y1="33.2429" x2="25.373" y2="47.4945" gradientUnits="userSpaceOnUse">
<stop stop-color="#32A071"/>
<stop offset="0.069" stop-color="#2DA771"/>
<stop offset="0.476" stop-color="#15CF74"/>
<stop offset="0.801" stop-color="#06E775"/>
<stop offset="1" stop-color="#00F076"/>
</linearGradient>
<clipPath id="clip0_1858_5239">
<rect width="169.528" height="113.85" fill="white" transform="translate(0.472656)"/>
</clipPath>
</defs>
</svg>
