<svg width="292" height="151" viewBox="0 0 292 151" fill="none" xmlns="http://www.w3.org/2000/svg">
<g filter="url(#filter0_d_1858_5474)">
<path fill-rule="evenodd" clip-rule="evenodd" d="M28.2358 6H263.243C270.027 6 275.526 11.4992 275.526 18.2826V112.449C275.526 119.233 270.027 124.732 263.243 124.732H28.2358C21.4522 124.732 15.9531 119.233 15.9531 112.449V18.2826C15.9531 11.4992 21.4522 6 28.2358 6Z" fill="white"/>
</g>
<path fill-rule="evenodd" clip-rule="evenodd" d="M49.5266 62.5035C61.7388 62.5035 71.6387 52.6036 71.6387 40.3916C71.6387 28.1793 61.7388 18.2795 49.5266 18.2795C37.3147 18.2795 27.4147 28.1793 27.4147 40.3916C27.4147 52.6036 37.3147 62.5035 49.5266 62.5035Z" fill="#AEB8FF"/>
<g filter="url(#filter1_d_1858_5474)">
<path fill-rule="evenodd" clip-rule="evenodd" d="M41.6135 25.0663C35.2349 25.2026 30.0139 30.3672 29.8125 36.7441C29.7123 39.9123 30.8333 42.8171 32.7404 45.024C33.5991 46.0177 33.8442 47.4026 33.4024 48.6396L32.6084 50.863C32.35 51.5864 33.1877 52.2046 33.8026 51.7445L36.6191 49.6381C37.4572 49.0112 38.5214 48.778 39.5485 48.9804C40.6177 49.1911 41.7373 49.2607 42.8887 49.1655C48.9468 48.6641 53.7245 43.6541 53.9422 37.5791C54.1918 30.6211 48.5499 24.9176 41.6135 25.0663Z" fill="#5F6CFF"/>
</g>
<g filter="url(#filter2_d_1858_5474)">
<path fill-rule="evenodd" clip-rule="evenodd" d="M66.7001 49.3582C65.6785 50.591 65.3545 52.257 65.8922 53.7644L66.2741 54.834C65.7922 55.3924 65.2823 55.9267 64.7468 56.435L62.3749 54.6633C61.3741 53.9169 60.1087 53.6209 58.8814 53.8492C58.0899 53.9972 57.2036 54.128 56.5601 54.128C49.2902 54.128 43.3975 48.2355 43.3975 40.9656C43.3965 33.7028 49.2965 27.8031 56.5601 27.8031C63.829 27.8031 69.7225 33.6955 69.7225 40.9656C69.7227 44.155 68.5871 47.0803 66.7001 49.3582Z" fill="#F3F5F9"/>
</g>
<path fill-rule="evenodd" clip-rule="evenodd" d="M40.1407 44.8946C39.9292 45.8677 38.9128 46.542 37.9396 46.3308C36.8952 46.104 36.2971 45.0794 36.5086 44.1063C36.7248 43.1091 37.6885 42.4483 38.7332 42.6752C39.7064 42.8864 40.3569 43.8977 40.1407 44.8946ZM40.6684 40.2863C40.5087 41.0222 39.6345 41.1558 39.0647 41.032C38.3052 40.8672 37.7314 40.4195 37.891 39.6834C38.5042 36.8585 39.0529 32.7271 39.6661 29.9022C39.867 28.9765 40.7403 28.6191 41.7133 28.8303C42.6391 29.0311 43.3094 29.7235 43.1082 30.6492C42.495 33.4742 41.2815 37.4614 40.6684 40.2863Z" fill="#F3F5F9"/>
<path fill-rule="evenodd" clip-rule="evenodd" d="M59.0901 41.4465C57.8648 42.4043 57.8425 43.0727 57.8425 44.2314C57.8425 44.6547 57.6198 45.1446 56.528 45.1446C55.6147 45.1446 55.3027 44.8104 55.3027 43.652C55.3027 41.736 56.1494 40.8226 56.7956 40.2657C57.5306 39.6419 58.7782 38.9512 58.7782 37.7481C58.7782 36.7234 57.8871 36.2331 56.7731 36.2331C54.5006 36.2331 54.9907 37.9487 53.7877 37.9487C53.1864 37.9487 52.4509 37.5477 52.4509 36.6785C52.4509 35.4757 53.8323 33.6934 56.8402 33.6934C59.6918 33.6934 61.5853 35.2753 61.5853 37.3693C61.5853 39.4634 59.6918 40.9786 59.0901 41.4465ZM58.266 48.3976C58.266 49.3108 57.5083 50.1129 56.5503 50.1129C55.5924 50.1129 54.8572 49.3108 54.8572 48.3976C54.8572 47.4617 55.6149 46.6819 56.5503 46.6819C57.486 46.6819 58.266 47.4617 58.266 48.3976Z" fill="#00D9CD"/>
<path opacity="0.3" fill-rule="evenodd" clip-rule="evenodd" d="M271.665 58.8147C271.665 58.8144 271.665 58.8137 271.665 58.8133C271.665 58.6314 271.589 58.4675 271.468 58.3501L271.468 58.35L267.608 54.4899L267.606 54.4917C267.49 54.3807 267.334 54.3125 267.161 54.3125C266.806 54.3125 266.518 54.6005 266.518 54.9558C266.518 55.151 266.604 55.3258 266.742 55.4437L270.113 58.8146L266.698 62.2297L266.698 62.2299C266.587 62.3455 266.518 62.5029 266.518 62.6764C266.518 63.0316 266.806 63.3196 267.161 63.3196C267.334 63.3196 267.492 63.2512 267.608 63.1394L267.608 63.1396L271.468 59.2794L271.468 59.2792C271.589 59.1622 271.665 58.9979 271.665 58.8161C271.665 58.8158 271.665 58.8154 271.665 58.8147Z" fill="#344356"/>
<g filter="url(#filter3_d_1858_5474)">
<path fill-rule="evenodd" clip-rule="evenodd" d="M36.7739 75.5391H255.404C259.474 75.5391 262.774 78.8386 262.774 82.9087V105.017C262.774 109.087 259.474 112.387 255.404 112.387H36.7739C32.7037 112.387 29.4043 109.087 29.4043 105.017V82.9087C29.4043 78.8386 32.7037 75.5391 36.7739 75.5391Z" fill="#01EBDE"/>
</g>
<path d="M81.7016 89.0128V89.4976C81.7016 90.1657 81.374 90.4278 80.7321 90.4278H79.6053V91.8558H81.7016V98.1445H83.4703V89.0128H81.7016ZM92.7958 94.3058V89.0128H91.263L86.8478 94.9478V95.9959H91.0271V98.1445H92.7958V95.9959H94.2501V94.3058H92.7958ZM89.075 94.3058L91.0271 91.5545V94.3058H89.075ZM105.857 89.0128V94.9347L102.215 89.0128H100.329V98.1445H102.176V92.1834L105.805 98.1445H107.705V89.0128H105.857ZM110.622 98.1445H116.727V96.4413H112.469V94.2796H116.465V92.5764H112.469V90.7029H116.727V89.0128H110.622V98.1445ZM121.058 98.1445H122.84L124.727 92.4716L126.6 98.1445H128.395L131.173 89.0128H129.234L127.399 95.3015L125.513 89.55H123.941L122.067 95.3015L120.22 89.0128H118.294L121.058 98.1445ZM144.123 98.1445L141.673 94.201C142.721 93.8211 143.311 92.9826 143.311 91.6724C143.311 90.0478 142.407 89.0128 140.167 89.0128H137.075V98.1445H138.909V94.4368H139.302H139.839L141.988 98.1445H144.123ZM138.909 92.7336V90.7029H139.983C140.835 90.7029 141.464 90.8339 141.464 91.6986C141.464 92.5764 140.835 92.7336 139.983 92.7336H138.909ZM145.999 98.1445H152.104V96.4413H147.846V94.2796H151.842V92.5764H147.846V90.7029H152.104V89.0128H145.999V98.1445ZM157.392 98.328C159.252 98.328 160.628 97.1488 160.628 95.3932C160.628 94.0962 159.986 93.428 158.034 92.6681C156.684 92.1441 156.291 91.8165 156.291 91.2925C156.291 90.7946 156.737 90.4278 157.3 90.4278C157.863 90.4278 158.361 90.7815 158.65 91.4628L160.182 90.5064C159.606 89.3666 158.61 88.7901 157.353 88.7901C155.61 88.7901 154.444 89.8382 154.444 91.3318C154.444 92.6943 155.138 93.4018 157.064 94.1748C158.335 94.6857 158.781 95.0395 158.781 95.5635C158.781 96.2972 158.217 96.6903 157.418 96.6903C156.435 96.6903 155.741 96.1269 155.636 95.0526L153.802 95.5111C154.077 97.2143 155.531 98.328 157.392 98.328ZM162.747 98.1445H164.581V94.4106H165.839C167.896 94.4106 168.983 93.4673 168.983 91.6724C168.983 89.8906 167.922 89.0128 165.839 89.0128H162.747V98.1445ZM164.581 92.7205V90.7029H165.656C166.691 90.7029 167.136 90.9387 167.136 91.6986C167.136 92.4716 166.651 92.7205 165.656 92.7205H164.581ZM174.792 98.3673C177.412 98.3673 179.22 96.4544 179.22 93.5852C179.22 90.7029 177.438 88.7901 174.792 88.7901C172.171 88.7901 170.377 90.7029 170.377 93.5852C170.377 96.4413 172.171 98.3673 174.792 98.3673ZM174.792 96.5986C173.233 96.5986 172.224 95.4587 172.224 93.5852C172.224 91.6986 173.233 90.5588 174.792 90.5588C176.364 90.5588 177.36 91.7117 177.36 93.5852C177.36 95.4325 176.364 96.5986 174.792 96.5986ZM187.02 89.0128V94.9347L183.378 89.0128H181.491V98.1445H183.339V92.1834L186.968 98.1445H188.867V89.0128H187.02ZM194.483 98.328C196.344 98.328 197.719 97.1488 197.719 95.3932C197.719 94.0962 197.077 93.428 195.125 92.6681C193.776 92.1441 193.383 91.8165 193.383 91.2925C193.383 90.7946 193.828 90.4278 194.392 90.4278C194.955 90.4278 195.453 90.7815 195.741 91.4628L197.274 90.5064C196.698 89.3666 195.702 88.7901 194.444 88.7901C192.702 88.7901 191.536 89.8382 191.536 91.3318C191.536 92.6943 192.23 93.4018 194.156 94.1748C195.427 94.6857 195.872 95.0395 195.872 95.5635C195.872 96.2972 195.309 96.6903 194.51 96.6903C193.527 96.6903 192.833 96.1269 192.728 95.0526L190.894 95.5111C191.169 97.2143 192.623 98.328 194.483 98.328ZM199.839 98.1445H205.944V96.4413H201.686V94.2796H205.682V92.5764H201.686V90.7029H205.944V89.0128H199.839V98.1445ZM211.232 98.328C213.092 98.328 214.468 97.1488 214.468 95.3932C214.468 94.0962 213.826 93.428 211.873 92.6681C210.524 92.1441 210.131 91.8165 210.131 91.2925C210.131 90.7946 210.576 90.4278 211.14 90.4278C211.703 90.4278 212.201 90.7815 212.489 91.4628L214.022 90.5064C213.446 89.3666 212.45 88.7901 211.192 88.7901C209.45 88.7901 208.284 89.8382 208.284 91.3318C208.284 92.6943 208.978 93.4018 210.904 94.1748C212.175 94.6857 212.62 95.0395 212.62 95.5635C212.62 96.2972 212.057 96.6903 211.258 96.6903C210.275 96.6903 209.581 96.1269 209.476 95.0526L207.642 95.5111C207.917 97.2143 209.371 98.328 211.232 98.328Z" fill="white"/>
<g opacity="0.8">
<path d="M91.5053 34.3932C91.4186 35.3115 91.0796 36.0287 90.4885 36.545C89.8973 37.0574 89.111 37.3135 88.1297 37.3135C87.444 37.3135 86.839 37.152 86.3148 36.8288C85.7946 36.5017 85.3926 36.0386 85.1089 35.4396C84.8251 34.8405 84.6773 34.1449 84.6655 33.3527V32.5488C84.6655 31.7369 84.8093 31.0216 85.097 30.4028C85.3847 29.7841 85.7966 29.3072 86.3326 28.9722C86.8725 28.6372 87.4952 28.4697 88.2007 28.4697C89.1505 28.4697 89.915 28.7279 90.4944 29.2441C91.0737 29.7604 91.4107 30.4895 91.5053 31.4315H90.0155C89.9446 30.8127 89.7633 30.3674 89.4717 30.0954C89.184 29.8195 88.7603 29.6816 88.2007 29.6816C87.5504 29.6816 87.0499 29.92 86.6991 30.3969C86.3523 30.8699 86.1749 31.5655 86.167 32.4837V33.2463C86.167 34.1764 86.3326 34.8858 86.6636 35.3745C86.9986 35.8632 87.4873 36.1076 88.1297 36.1076C88.7169 36.1076 89.1583 35.9755 89.4539 35.7115C89.7495 35.4474 89.9367 35.008 90.0155 34.3932H91.5053ZM94.2364 37.1953H92.7999V28.115H94.2364V37.1953ZM98.6229 37.3135C97.7125 37.3135 96.9735 37.0278 96.406 36.4564C95.8424 35.881 95.5607 35.1164 95.5607 34.1626V33.9853C95.5607 33.3468 95.6828 32.7773 95.9272 32.2768C96.1755 31.7724 96.5223 31.3802 96.9676 31.1004C97.413 30.8206 97.9095 30.6807 98.4574 30.6807C99.3283 30.6807 100 30.9585 100.473 31.5142C100.95 32.0699 101.189 32.8562 101.189 33.873V34.4523H97.009C97.0524 34.9804 97.2277 35.3982 97.5351 35.7056C97.8465 36.013 98.2367 36.1667 98.7056 36.1667C99.3638 36.1667 99.8998 35.9007 100.314 35.3686L101.088 36.1076C100.832 36.4899 100.489 36.7874 100.059 37.0002C99.6338 37.2091 99.1549 37.3135 98.6229 37.3135ZM98.4514 31.8334C98.0573 31.8334 97.7381 31.9714 97.4938 32.2473C97.2534 32.5231 97.0996 32.9074 97.0327 33.4H99.7697V33.2936C99.7382 32.8128 99.6101 32.4502 99.3855 32.2059C99.1608 31.9576 98.8495 31.8334 98.4514 31.8334ZM106.131 37.1953C106.068 37.0731 106.012 36.8741 105.965 36.5982C105.508 37.0751 104.948 37.3135 104.286 37.3135C103.644 37.3135 103.12 37.1303 102.714 36.7638C102.308 36.3972 102.105 35.944 102.105 35.4041C102.105 34.7223 102.357 34.2001 102.862 33.8375C103.37 33.471 104.095 33.2877 105.037 33.2877H105.918V32.868C105.918 32.5369 105.825 32.2729 105.64 32.0758C105.455 31.8748 105.173 31.7743 104.795 31.7743C104.468 31.7743 104.2 31.8571 103.991 32.0226C103.782 32.1842 103.677 32.3911 103.677 32.6433H102.241C102.241 32.2926 102.357 31.9655 102.59 31.662C102.822 31.3546 103.137 31.1142 103.535 30.9408C103.937 30.7674 104.385 30.6807 104.877 30.6807C105.626 30.6807 106.223 30.8699 106.669 31.2482C107.114 31.6226 107.343 32.1507 107.354 32.8325V35.7174C107.354 36.2928 107.435 36.7519 107.597 37.0948V37.1953H106.131ZM104.552 36.1608C104.836 36.1608 105.102 36.0918 105.35 35.9539C105.603 35.8159 105.792 35.6307 105.918 35.3982V34.1922H105.143C104.611 34.1922 104.211 34.2848 103.943 34.47C103.675 34.6553 103.541 34.9174 103.541 35.2563C103.541 35.5322 103.632 35.7529 103.813 35.9184C103.999 36.08 104.245 36.1608 104.552 36.1608ZM110.192 30.7989L110.233 31.5379C110.706 30.9664 111.327 30.6807 112.096 30.6807C113.428 30.6807 114.105 31.4433 114.129 32.9685V37.1953H112.693V33.0512C112.693 32.6453 112.604 32.3458 112.427 32.1527C112.253 31.9556 111.967 31.8571 111.569 31.8571C110.99 31.8571 110.558 32.1192 110.275 32.6433V37.1953H108.838V30.7989H110.192ZM118.415 37.3135C117.505 37.3135 116.766 37.0278 116.198 36.4564C115.635 35.881 115.353 35.1164 115.353 34.1626V33.9853C115.353 33.3468 115.475 32.7773 115.719 32.2768C115.968 31.7724 116.314 31.3802 116.76 31.1004C117.205 30.8206 117.702 30.6807 118.25 30.6807C119.121 30.6807 119.792 30.9585 120.265 31.5142C120.742 32.0699 120.981 32.8562 120.981 33.873V34.4523H116.801C116.845 34.9804 117.02 35.3982 117.327 35.7056C117.639 36.013 118.029 36.1667 118.498 36.1667C119.156 36.1667 119.692 35.9007 120.106 35.3686L120.88 36.1076C120.624 36.4899 120.281 36.7874 119.852 37.0002C119.426 37.2091 118.947 37.3135 118.415 37.3135ZM118.244 31.8334C117.85 31.8334 117.53 31.9714 117.286 32.2473C117.046 32.5231 116.892 32.9074 116.825 33.4H119.562V33.2936C119.53 32.8128 119.402 32.4502 119.178 32.2059C118.953 31.9576 118.642 31.8334 118.244 31.8334ZM125.45 32.1113C125.261 32.0798 125.066 32.064 124.865 32.064C124.207 32.064 123.763 32.3162 123.535 32.8207V37.1953H122.098V30.7989H123.47L123.505 31.5142C123.852 30.9585 124.333 30.6807 124.947 30.6807C125.152 30.6807 125.322 30.7083 125.456 30.7634L125.45 32.1113ZM133.035 28.588H134.524V34.6237C134.524 35.4474 134.266 36.1017 133.75 36.5864C133.238 37.0712 132.56 37.3135 131.716 37.3135C130.818 37.3135 130.124 37.0869 129.635 36.6337C129.147 36.1805 128.902 35.5499 128.902 34.742H130.392C130.392 35.1991 130.504 35.544 130.729 35.7765C130.958 36.0051 131.287 36.1194 131.716 36.1194C132.118 36.1194 132.437 35.9874 132.674 35.7233C132.914 35.4553 133.035 35.0868 133.035 34.6178V28.588ZM135.831 33.938C135.831 33.3114 135.955 32.7478 136.203 32.2473C136.452 31.7428 136.8 31.3566 137.25 31.0886C137.699 30.8166 138.215 30.6807 138.798 30.6807C139.662 30.6807 140.361 30.9585 140.897 31.5142C141.437 32.0699 141.729 32.8069 141.772 33.7252L141.778 34.0621C141.778 34.6927 141.656 35.2563 141.411 35.7529C141.171 36.2494 140.824 36.6337 140.371 36.9056C139.922 37.1776 139.401 37.3135 138.81 37.3135C137.908 37.3135 137.185 37.014 136.641 36.415C136.101 35.812 135.831 35.01 135.831 34.0089V33.938ZM137.267 34.0621C137.267 34.7203 137.403 35.2366 137.675 35.611C137.947 35.9815 138.325 36.1667 138.81 36.1667C139.295 36.1667 139.671 35.9775 139.939 35.5992C140.211 35.2208 140.347 34.6671 140.347 33.938C140.347 33.2917 140.207 32.7793 139.928 32.401C139.652 32.0226 139.275 31.8334 138.798 31.8334C138.329 31.8334 137.957 32.0207 137.681 32.3951C137.405 32.7655 137.267 33.3212 137.267 34.0621ZM148.606 34.0621C148.606 35.0553 148.383 35.8455 147.938 36.4327C147.496 37.0199 146.888 37.3135 146.111 37.3135C145.362 37.3135 144.779 37.0436 144.361 36.5036L144.29 37.1953H142.99V28.115H144.426V31.4137C144.84 30.925 145.398 30.6807 146.099 30.6807C146.88 30.6807 147.492 30.9703 147.938 31.5497C148.383 32.129 148.606 32.9389 148.606 33.9794V34.0621ZM147.169 33.938C147.169 33.2444 147.047 32.7241 146.803 32.3773C146.558 32.0305 146.204 31.8571 145.739 31.8571C145.116 31.8571 144.679 32.129 144.426 32.6729V35.3095C144.682 35.8652 145.124 36.143 145.751 36.143C146.2 36.143 146.547 35.9755 146.791 35.6405C147.035 35.3056 147.161 34.7991 147.169 34.1213V33.938ZM154.358 37.1953H152.921V30.7989H154.358V37.1953ZM152.833 29.1377C152.833 28.917 152.902 28.7338 153.04 28.588C153.181 28.4421 153.382 28.3692 153.643 28.3692C153.903 28.3692 154.104 28.4421 154.246 28.588C154.387 28.7338 154.458 28.917 154.458 29.1377C154.458 29.3545 154.387 29.5358 154.246 29.6816C154.104 29.8235 153.903 29.8944 153.643 29.8944C153.382 29.8944 153.181 29.8235 153.04 29.6816C152.902 29.5358 152.833 29.3545 152.833 29.1377ZM157.26 30.7989L157.302 31.5379C157.775 30.9664 158.396 30.6807 159.164 30.6807C160.496 30.6807 161.174 31.4433 161.198 32.9685V37.1953H159.761V33.0512C159.761 32.6453 159.672 32.3458 159.495 32.1527C159.322 31.9556 159.036 31.8571 158.638 31.8571C158.059 31.8571 157.627 32.1192 157.343 32.6433V37.1953H155.907V30.7989H157.26ZM165.821 37.1953V28.588H168.77C169.744 28.588 170.485 28.783 170.993 29.1732C171.502 29.5634 171.756 30.1447 171.756 30.9171C171.756 31.3113 171.649 31.666 171.437 31.9812C171.224 32.2965 170.912 32.5409 170.503 32.7143C170.968 32.8404 171.326 33.0788 171.579 33.4296C171.835 33.7764 171.963 34.1942 171.963 34.6829C171.963 35.4908 171.703 36.1115 171.182 36.545C170.666 36.9786 169.925 37.1953 168.96 37.1953H165.821ZM167.316 33.3114V36.0012H168.977C169.446 36.0012 169.813 35.8849 170.077 35.6524C170.341 35.4198 170.473 35.0967 170.473 34.6829C170.473 33.7882 170.016 33.3311 169.102 33.3114H167.316ZM167.316 32.2118H168.782C169.247 32.2118 169.61 32.1074 169.87 31.8985C170.134 31.6857 170.266 31.3861 170.266 30.9999C170.266 30.5743 170.144 30.2669 169.9 30.0777C169.659 29.8885 169.283 29.7939 168.77 29.7939H167.316V32.2118ZM176.668 32.1113C176.479 32.0798 176.284 32.064 176.083 32.064C175.425 32.064 174.982 32.3162 174.753 32.8207V37.1953H173.317V30.7989H174.688L174.724 31.5142C175.07 30.9585 175.551 30.6807 176.166 30.6807C176.371 30.6807 176.54 30.7083 176.674 30.7634L176.668 32.1113ZM179.104 37.1953H177.668V30.7989H179.104V37.1953ZM177.579 29.1377C177.579 28.917 177.648 28.7338 177.786 28.588C177.928 28.4421 178.129 28.3692 178.389 28.3692C178.649 28.3692 178.85 28.4421 178.992 28.588C179.134 28.7338 179.205 28.917 179.205 29.1377C179.205 29.3545 179.134 29.5358 178.992 29.6816C178.85 29.8235 178.649 29.8944 178.389 29.8944C178.129 29.8944 177.928 29.8235 177.786 29.6816C177.648 29.5358 177.579 29.3545 177.579 29.1377ZM180.422 33.9498C180.422 32.9567 180.655 32.1645 181.12 31.5733C181.589 30.9782 182.21 30.6807 182.982 30.6807C183.711 30.6807 184.285 30.9349 184.702 31.4433L184.767 30.7989H186.062V37.0002C186.062 37.8397 185.8 38.5018 185.276 38.9865C184.756 39.4713 184.052 39.7137 183.165 39.7137C182.696 39.7137 182.237 39.6151 181.788 39.4181C181.343 39.225 181.004 38.9708 180.771 38.6555L181.451 37.7924C181.892 38.3166 182.436 38.5786 183.083 38.5786C183.559 38.5786 183.936 38.4486 184.212 38.1885C184.488 37.9323 184.626 37.554 184.626 37.0534V36.6219C184.212 37.083 183.66 37.3135 182.97 37.3135C182.221 37.3135 181.609 37.016 181.132 36.4209C180.659 35.8258 180.422 35.0021 180.422 33.9498ZM181.853 34.074C181.853 34.7164 181.983 35.2228 182.243 35.5933C182.507 35.9598 182.872 36.143 183.337 36.143C183.916 36.143 184.346 35.8948 184.626 35.3982V32.5842C184.354 32.0995 183.928 31.8571 183.349 31.8571C182.876 31.8571 182.507 32.0443 182.243 32.4187C181.983 32.7931 181.853 33.3449 181.853 34.074ZM188.959 31.4965C189.428 30.9526 190.021 30.6807 190.738 30.6807C192.102 30.6807 192.793 31.459 192.813 33.0158V37.1953H191.377V33.069C191.377 32.6276 191.28 32.3162 191.087 32.1349C190.898 31.9497 190.618 31.8571 190.247 31.8571C189.672 31.8571 189.243 32.1133 188.959 32.6256V37.1953H187.522V28.115H188.959V31.4965ZM196.07 29.2441V30.7989H197.2V31.863H196.07V35.4336C196.07 35.678 196.118 35.8553 196.212 35.9657C196.311 36.0721 196.484 36.1253 196.733 36.1253C196.898 36.1253 197.066 36.1056 197.235 36.0662V37.1776C196.908 37.2682 196.593 37.3135 196.289 37.3135C195.186 37.3135 194.634 36.7046 194.634 35.4868V31.863H193.582V30.7989H194.634V29.2441H196.07ZM197.856 33.938C197.856 33.3114 197.98 32.7478 198.228 32.2473C198.476 31.7428 198.825 31.3566 199.275 31.0886C199.724 30.8166 200.24 30.6807 200.823 30.6807C201.687 30.6807 202.386 30.9585 202.922 31.5142C203.462 32.0699 203.754 32.8069 203.797 33.7252L203.803 34.0621C203.803 34.6927 203.681 35.2563 203.436 35.7529C203.196 36.2494 202.849 36.6337 202.396 36.9056C201.947 37.1776 201.426 37.3135 200.835 37.3135C199.933 37.3135 199.21 37.014 198.666 36.415C198.126 35.812 197.856 35.01 197.856 34.0089V33.938ZM199.292 34.0621C199.292 34.7203 199.428 35.2366 199.7 35.611C199.972 35.9815 200.35 36.1667 200.835 36.1667C201.32 36.1667 201.696 35.9775 201.964 35.5992C202.236 35.2208 202.372 34.6671 202.372 33.938C202.372 33.2917 202.232 32.7793 201.953 32.401C201.677 32.0226 201.3 31.8334 200.823 31.8334C200.354 31.8334 199.982 32.0207 199.706 32.3951C199.43 32.7655 199.292 33.3212 199.292 34.0621ZM206.351 30.7989L206.392 31.5379C206.865 30.9664 207.486 30.6807 208.254 30.6807C209.586 30.6807 210.264 31.4433 210.288 32.9685V37.1953H208.851V33.0512C208.851 32.6453 208.763 32.3458 208.585 32.1527C208.412 31.9556 208.126 31.8571 207.728 31.8571C207.149 31.8571 206.717 32.1192 206.434 32.6433V37.1953H204.997V30.7989H206.351Z" fill="black"/>
<path d="M91.3929 51.4641C91.2865 52.3745 90.9496 53.078 90.382 53.5746C89.8185 54.0672 89.0677 54.3135 88.1297 54.3135C87.1129 54.3135 86.2971 53.949 85.6823 53.2199C85.0714 52.4908 84.766 51.5154 84.766 50.2936V49.466C84.766 48.666 84.9079 47.9625 85.1916 47.3555C85.4793 46.7486 85.8853 46.2836 86.4094 45.9604C86.9336 45.6333 87.5405 45.4697 88.2302 45.4697C89.1445 45.4697 89.8776 45.7259 90.4293 46.2382C90.9811 46.7466 91.3023 47.4521 91.3929 48.3546H90.252C90.1535 47.6689 89.9387 47.1723 89.6076 46.8649C89.2805 46.5575 88.8214 46.4038 88.2302 46.4038C87.505 46.4038 86.9356 46.6718 86.5217 47.2077C86.1119 47.7437 85.9069 48.5063 85.9069 49.4956V50.3291C85.9069 51.2631 86.102 52.006 86.4922 52.5578C86.8824 53.1095 87.4282 53.3854 88.1297 53.3854C88.7603 53.3854 89.2431 53.2435 89.5781 52.9598C89.917 52.6721 90.1416 52.1735 90.252 51.4641H91.3929ZM92.4866 50.938C92.4866 50.3114 92.6088 49.7478 92.8531 49.2473C93.1014 48.7467 93.4443 48.3605 93.8817 48.0886C94.3231 47.8166 94.8256 47.6807 95.3892 47.6807C96.2602 47.6807 96.9637 47.9822 97.4997 48.5852C98.0396 49.1881 98.3096 49.9902 98.3096 50.9912V51.0681C98.3096 51.6907 98.1894 52.2504 97.949 52.747C97.7125 53.2396 97.3716 53.6239 96.9262 53.8997C96.4848 54.1756 95.9764 54.3135 95.401 54.3135C94.534 54.3135 93.8305 54.0121 93.2906 53.4091C92.7546 52.8061 92.4866 52.008 92.4866 51.0148V50.938ZM93.5862 51.0681C93.5862 51.7774 93.7497 52.3469 94.0768 52.7765C94.4079 53.2061 94.8493 53.4209 95.401 53.4209C95.9567 53.4209 96.3981 53.2041 96.7252 52.7706C97.0524 52.3331 97.2159 51.7223 97.2159 50.938C97.2159 50.2365 97.0484 49.669 96.7134 49.2354C96.3824 48.798 95.941 48.5792 95.3892 48.5792C94.8493 48.5792 94.4138 48.794 94.0827 49.2236C93.7517 49.6532 93.5862 50.268 93.5862 51.0681ZM100.219 54.1953V48.6443H99.2081V47.7989H100.219V47.1427C100.219 46.457 100.402 45.9269 100.769 45.5525C101.135 45.1781 101.654 44.9909 102.324 44.9909C102.576 44.9909 102.826 45.0244 103.074 45.0914L103.015 45.9781C102.83 45.9427 102.633 45.9249 102.424 45.9249C102.069 45.9249 101.795 46.0294 101.602 46.2382C101.409 46.4432 101.313 46.7388 101.313 47.125V47.7989H102.678V48.6443H101.313V54.1953H100.219ZM104.428 54.1953V48.6443H103.417V47.7989H104.428V47.1427C104.428 46.457 104.611 45.9269 104.978 45.5525C105.344 45.1781 105.863 44.9909 106.533 44.9909C106.785 44.9909 107.035 45.0244 107.283 45.0914L107.224 45.9781C107.039 45.9427 106.842 45.9249 106.633 45.9249C106.278 45.9249 106.005 46.0294 105.811 46.2382C105.618 46.4432 105.522 46.7388 105.522 47.125V47.7989H106.887V48.6443H105.522V54.1953H104.428ZM110.612 54.3135C109.745 54.3135 109.039 54.0298 108.495 53.4623C107.951 52.8908 107.68 52.1282 107.68 51.1745V50.9735C107.68 50.3389 107.8 49.7734 108.04 49.2768C108.284 48.7763 108.623 48.3861 109.057 48.1063C109.494 47.8226 109.967 47.6807 110.476 47.6807C111.307 47.6807 111.954 47.9546 112.415 48.5024C112.876 49.0502 113.106 49.8345 113.106 50.8552V51.3104H108.773C108.789 51.941 108.972 52.4514 109.323 52.8415C109.678 53.2278 110.127 53.4209 110.671 53.4209C111.057 53.4209 111.384 53.3421 111.652 53.1844C111.92 53.0268 112.155 52.8179 112.356 52.5578L113.024 53.078C112.488 53.9017 111.684 54.3135 110.612 54.3135ZM110.476 48.5792C110.034 48.5792 109.664 48.7408 109.364 49.064C109.065 49.3832 108.88 49.8325 108.809 50.4119H112.013V50.3291C111.981 49.7734 111.831 49.3438 111.563 49.0404C111.295 48.733 110.933 48.5792 110.476 48.5792ZM117.032 54.3135C116.165 54.3135 115.459 54.0298 114.915 53.4623C114.372 52.8908 114.1 52.1282 114.1 51.1745V50.9735C114.1 50.3389 114.22 49.7734 114.46 49.2768C114.705 48.7763 115.043 48.3861 115.477 48.1063C115.914 47.8226 116.387 47.6807 116.896 47.6807C117.727 47.6807 118.374 47.9546 118.835 48.5024C119.296 49.0502 119.526 49.8345 119.526 50.8552V51.3104H115.193C115.209 51.941 115.392 52.4514 115.743 52.8415C116.098 53.2278 116.547 53.4209 117.091 53.4209C117.477 53.4209 117.804 53.3421 118.072 53.1844C118.34 53.0268 118.575 52.8179 118.776 52.5578L119.444 53.078C118.908 53.9017 118.104 54.3135 117.032 54.3135ZM116.896 48.5792C116.454 48.5792 116.084 48.7408 115.784 49.064C115.485 49.3832 115.3 49.8325 115.229 50.4119H118.433V50.3291C118.401 49.7734 118.252 49.3438 117.984 49.0404C117.716 48.733 117.353 48.5792 116.896 48.5792ZM126.508 50.3587C125.535 50.0788 124.825 49.736 124.38 49.33C123.939 48.9202 123.718 48.4157 123.718 47.8166C123.718 47.1388 123.988 46.5791 124.528 46.1377C125.072 45.6924 125.777 45.4697 126.644 45.4697C127.235 45.4697 127.761 45.584 128.222 45.8126C128.688 46.0412 129.046 46.3565 129.298 46.7585C129.555 47.1605 129.683 47.5999 129.683 48.0768H128.542C128.542 47.5565 128.376 47.1486 128.045 46.853C127.714 46.5535 127.247 46.4038 126.644 46.4038C126.084 46.4038 125.647 46.5279 125.332 46.7762C125.02 47.0205 124.865 47.3614 124.865 47.7989C124.865 48.1497 125.012 48.4472 125.308 48.6916C125.608 48.932 126.114 49.1527 126.827 49.3537C127.545 49.5547 128.104 49.7773 128.506 50.0217C128.912 50.2621 129.212 50.5439 129.405 50.8671C129.602 51.1902 129.7 51.5705 129.7 52.008C129.7 52.7056 129.428 53.2652 128.885 53.6869C128.341 54.1047 127.614 54.3135 126.703 54.3135C126.112 54.3135 125.56 54.2012 125.048 53.9766C124.536 53.748 124.14 53.4367 123.86 53.0425C123.584 52.6484 123.446 52.2011 123.446 51.7006H124.587C124.587 52.2208 124.778 52.6327 125.16 52.9361C125.546 53.2357 126.061 53.3854 126.703 53.3854C127.302 53.3854 127.761 53.2632 128.081 53.0189C128.4 52.7745 128.559 52.4415 128.559 52.0198C128.559 51.5981 128.412 51.273 128.116 51.0444C127.821 50.8119 127.285 50.5833 126.508 50.3587ZM132.083 48.5733C132.568 47.9782 133.198 47.6807 133.975 47.6807C135.326 47.6807 136.008 48.4433 136.02 49.9685V54.1953H134.926V49.9626C134.922 49.5015 134.816 49.1606 134.607 48.9399C134.402 48.7192 134.081 48.6088 133.643 48.6088C133.289 48.6088 132.977 48.7034 132.709 48.8926C132.441 49.0817 132.233 49.33 132.083 49.6374V54.1953H130.989V45.115H132.083V48.5733ZM137.368 50.938C137.368 50.3114 137.49 49.7478 137.734 49.2473C137.983 48.7467 138.325 48.3605 138.763 48.0886C139.204 47.8166 139.707 47.6807 140.27 47.6807C141.141 47.6807 141.845 47.9822 142.381 48.5852C142.921 49.1881 143.191 49.9902 143.191 50.9912V51.0681C143.191 51.6907 143.071 52.2504 142.83 52.747C142.594 53.2396 142.253 53.6239 141.807 53.8997C141.366 54.1756 140.858 54.3135 140.282 54.3135C139.415 54.3135 138.712 54.0121 138.172 53.4091C137.636 52.8061 137.368 52.008 137.368 51.0148V50.938ZM138.467 51.0681C138.467 51.7774 138.631 52.3469 138.958 52.7765C139.289 53.2061 139.73 53.4209 140.282 53.4209C140.838 53.4209 141.279 53.2041 141.606 52.7706C141.934 52.3331 142.097 51.7223 142.097 50.938C142.097 50.2365 141.93 49.669 141.595 49.2354C141.264 48.798 140.822 48.5792 140.27 48.5792C139.73 48.5792 139.295 48.794 138.964 49.2236C138.633 49.6532 138.467 50.268 138.467 51.0681ZM149.966 51.0681C149.966 52.0415 149.743 52.8258 149.298 53.4209C148.852 54.016 148.249 54.3135 147.489 54.3135C146.712 54.3135 146.101 54.0672 145.656 53.5746V56.6546H144.562V47.7989H145.561L145.615 48.5083C146.06 47.9566 146.679 47.6807 147.471 47.6807C148.239 47.6807 148.846 47.9703 149.292 48.5497C149.741 49.129 149.966 49.935 149.966 50.9676V51.0681ZM148.872 50.9439C148.872 50.2227 148.718 49.6532 148.411 49.2354C148.103 48.8177 147.682 48.6088 147.146 48.6088C146.484 48.6088 145.987 48.9024 145.656 49.4896V52.546C145.983 53.1292 146.484 53.4209 147.157 53.4209C147.682 53.4209 148.097 53.214 148.405 52.8002C148.716 52.3824 148.872 51.7637 148.872 50.9439Z" fill="#606F81"/>
</g>
<path fill-rule="evenodd" clip-rule="evenodd" d="M245.254 106.424C252.29 106.424 257.995 100.72 257.995 93.6838C257.995 86.6472 252.29 80.9434 245.254 80.9434C238.218 80.9434 232.514 86.6472 232.514 93.6838C232.514 100.72 238.218 106.424 245.254 106.424Z" fill="#00D9CD"/>
<path d="M250.357 92.65C251.131 93.1232 251.131 94.2474 250.357 94.7206L243.068 99.1768C242.259 99.6711 241.221 99.0892 241.221 98.1416V89.229C241.221 88.2814 242.259 87.6995 243.068 88.1938L250.357 92.65Z" fill="white"/>
<defs>
<filter id="filter0_d_1858_5474" x="0.395154" y="0.268117" width="290.688" height="149.848" filterUnits="userSpaceOnUse" color-interpolation-filters="sRGB">
<feFlood flood-opacity="0" result="BackgroundImageFix"/>
<feColorMatrix in="SourceAlpha" type="matrix" values="0 0 0 0 0 0 0 0 0 0 0 0 0 0 0 0 0 0 127 0" result="hardAlpha"/>
<feOffset dy="9.82609"/>
<feGaussianBlur stdDeviation="7.77899"/>
<feColorMatrix type="matrix" values="0 0 0 0 0.235294 0 0 0 0 0.501961 0 0 0 0 0.819608 0 0 0 0.09 0"/>
<feBlend mode="normal" in2="BackgroundImageFix" result="effect1_dropShadow_1858_5474"/>
<feBlend mode="normal" in="SourceGraphic" in2="effect1_dropShadow_1858_5474" result="shape"/>
</filter>
<filter id="filter1_d_1858_5474" x="19.1615" y="20.1495" width="45.4337" height="48.1297" filterUnits="userSpaceOnUse" color-interpolation-filters="sRGB">
<feFlood flood-opacity="0" result="BackgroundImageFix"/>
<feColorMatrix in="SourceAlpha" type="matrix" values="0 0 0 0 0 0 0 0 0 0 0 0 0 0 0 0 0 0 127 0" result="hardAlpha"/>
<feOffset dy="5.73188"/>
<feGaussianBlur stdDeviation="5.32246"/>
<feColorMatrix type="matrix" values="0 0 0 0 0.239216 0 0 0 0 0.337255 0 0 0 0 0.941176 0 0 0 0.29 0"/>
<feBlend mode="normal" in2="BackgroundImageFix" result="effect1_dropShadow_1858_5474"/>
<feBlend mode="normal" in="SourceGraphic" in2="effect1_dropShadow_1858_5474" result="shape"/>
</filter>
<filter id="filter2_d_1858_5474" x="32.7525" y="22.8897" width="47.6148" height="49.9227" filterUnits="userSpaceOnUse" color-interpolation-filters="sRGB">
<feFlood flood-opacity="0" result="BackgroundImageFix"/>
<feColorMatrix in="SourceAlpha" type="matrix" values="0 0 0 0 0 0 0 0 0 0 0 0 0 0 0 0 0 0 127 0" result="hardAlpha"/>
<feOffset dy="5.73188"/>
<feGaussianBlur stdDeviation="5.32246"/>
<feColorMatrix type="matrix" values="0 0 0 0 0.239216 0 0 0 0 0.337255 0 0 0 0 0.941176 0 0 0 0.28 0"/>
<feBlend mode="normal" in2="BackgroundImageFix" result="effect1_dropShadow_1858_5474"/>
<feBlend mode="normal" in="SourceGraphic" in2="effect1_dropShadow_1858_5474" result="shape"/>
</filter>
<filter id="filter3_d_1858_5474" x="8.93328" y="63.2565" width="274.312" height="77.7897" filterUnits="userSpaceOnUse" color-interpolation-filters="sRGB">
<feFlood flood-opacity="0" result="BackgroundImageFix"/>
<feColorMatrix in="SourceAlpha" type="matrix" values="0 0 0 0 0 0 0 0 0 0 0 0 0 0 0 0 0 0 127 0" result="hardAlpha"/>
<feOffset dy="8.18841"/>
<feGaussianBlur stdDeviation="10.2355"/>
<feColorMatrix type="matrix" values="0 0 0 0 0.329412 0 0 0 0 0.407843 0 0 0 0 1 0 0 0 0.3 0"/>
<feBlend mode="normal" in2="BackgroundImageFix" result="effect1_dropShadow_1858_5474"/>
<feBlend mode="normal" in="SourceGraphic" in2="effect1_dropShadow_1858_5474" result="shape"/>
</filter>
</defs>
</svg>
