<svg viewBox="0 0 67 34" fill="none" xmlns="http://www.w3.org/2000/svg">
<g filter="url(#filter0_d_1858_841)">
<path d="M18.4219 16.0443H14.1403L13.3263 18.4863H10.7296L15.1415 6.63451H17.4044L21.8407 18.4863H19.2441L18.4219 16.0443ZM14.7996 14.0663H17.7626L16.273 9.63003L14.7996 14.0663ZM27.5631 16.0525C27.5631 15.7649 27.4193 15.5397 27.1317 15.3769C26.8495 15.2086 26.3937 15.0594 25.7642 14.9292C23.6695 14.4896 22.6222 13.5996 22.6222 12.2592C22.6222 11.4778 22.9451 10.8266 23.5908 10.3056C24.242 9.77926 25.0913 9.51607 26.1386 9.51607C27.2565 9.51607 28.1492 9.77926 28.8167 10.3056C29.4896 10.832 29.8261 11.5158 29.8261 12.3569H27.4736C27.4736 12.0205 27.3651 11.7437 27.148 11.5266C26.9309 11.3041 26.5918 11.1929 26.1305 11.1929C25.7344 11.1929 25.4277 11.2824 25.2107 11.4615C24.9936 11.6406 24.8851 11.8685 24.8851 12.1453C24.8851 12.4058 25.0072 12.6174 25.2514 12.7802C25.501 12.9376 25.9189 13.076 26.5049 13.1953C27.091 13.3093 27.5848 13.4395 27.9864 13.5861C29.2291 14.0419 29.8505 14.8315 29.8505 15.9548C29.8505 16.7579 29.5059 17.4091 28.8167 17.9084C28.1275 18.4022 27.2375 18.6491 26.1468 18.6491C25.4088 18.6491 24.7521 18.5189 24.1769 18.2584C23.6071 17.9925 23.1594 17.6316 22.8338 17.1758C22.5082 16.7145 22.3454 16.218 22.3454 15.6862H24.5758C24.5975 16.104 24.7521 16.4242 25.0397 16.6467C25.3274 16.8692 25.7126 16.9804 26.1956 16.9804C26.646 16.9804 26.9852 16.8963 27.2131 16.7281C27.4465 16.5544 27.5631 16.3292 27.5631 16.0525ZM34.5717 14.9536L33.7251 15.8001V18.4863H31.3726V5.98331H33.7251V12.9104L34.1809 12.3244L36.4357 9.67887H39.2603L36.0776 13.35L39.5371 18.4863H36.8346L34.5717 14.9536Z" fill="white"/>
<path d="M44.2664 18.6491C43.0128 18.6491 41.9953 18.2557 41.2139 17.4688C40.4379 16.6765 40.0499 15.6238 40.0499 14.3105V14.0663C40.0499 13.1872 40.2181 12.403 40.5545 11.7139C40.8964 11.0192 41.374 10.4793 41.9872 10.094C42.6004 9.70871 43.2842 9.51607 44.0385 9.51607C45.2378 9.51607 46.163 9.89865 46.8142 10.6638C47.4708 11.429 47.7991 12.5116 47.7991 13.9117V14.7094H42.0442C42.1039 15.4365 42.3453 16.0118 42.7686 16.4351C43.1973 16.8583 43.7346 17.07 44.3803 17.07C45.2866 17.07 46.0246 16.7037 46.5944 15.9711L47.6608 16.9886C47.308 17.515 46.8359 17.9247 46.2444 18.2177C45.6583 18.5053 44.999 18.6491 44.2664 18.6491ZM44.0303 11.1034C43.4877 11.1034 43.0481 11.2933 42.7116 11.6732C42.3806 12.053 42.169 12.5821 42.0767 13.2605H45.8455V13.1139C45.8021 12.4519 45.6258 11.9526 45.3164 11.6162C45.0071 11.2743 44.5784 11.1034 44.0303 11.1034ZM53.953 11.4859C53.6925 11.4425 53.4239 11.4208 53.1471 11.4208C52.2409 11.4208 51.6304 11.7681 51.3156 12.4627V18.4863H49.3376V9.67887H51.2261L51.2749 10.6638C51.7525 9.89865 52.4145 9.51607 53.2611 9.51607C53.5432 9.51607 53.7766 9.55405 53.9611 9.63003L53.953 11.4859ZM55.0193 16.4025C55.3883 16.4025 55.6732 16.5083 55.874 16.72C56.0748 16.9262 56.1752 17.1866 56.1752 17.5014C56.1752 17.8107 56.0748 18.0685 55.874 18.2747C55.6732 18.4755 55.3883 18.5759 55.0193 18.5759C54.6666 18.5759 54.3871 18.4755 54.1809 18.2747C53.9747 18.0739 53.8716 17.8161 53.8716 17.5014C53.8716 17.1866 53.972 16.9262 54.1727 16.72C54.3735 16.5083 54.6557 16.4025 55.0193 16.4025Z" fill="#5468FF"/>
</g>
<defs>
<filter id="filter0_d_1858_841" x="0.72708" y="0.981216" width="65.4506" height="32.6708" filterUnits="userSpaceOnUse" color-interpolation-filters="sRGB">
<feFlood flood-opacity="0" result="BackgroundImageFix"/>
<feColorMatrix in="SourceAlpha" type="matrix" values="0 0 0 0 0 0 0 0 0 0 0 0 0 0 0 0 0 0 127 0" result="hardAlpha"/>
<feOffset dy="5.00121"/>
<feGaussianBlur stdDeviation="5.00121"/>
<feComposite in2="hardAlpha" operator="out"/>
<feColorMatrix type="matrix" values="0 0 0 0 0 0 0 0 0 0.0633528 0 0 0 0 0.541667 0 0 0 0.05 0"/>
<feBlend mode="normal" in2="BackgroundImageFix" result="effect1_dropShadow_1858_841"/>
<feBlend mode="normal" in="SourceGraphic" in2="effect1_dropShadow_1858_841" result="shape"/>
</filter>
</defs>
</svg>
