<svg viewBox="0 0 109 121" fill="none" xmlns="http://www.w3.org/2000/svg">
<g filter="url(#filter0_d_2_9)">
<g filter="url(#filter1_d_2_9)">
<path d="M67.4647 54.2267V54.2268C66.0743 56.4475 65.9865 59.107 67.246 61.2675L68.3075 63.0871L68.6756 63.7182L68.2757 64.3296C67.4886 65.5329 66.6387 66.6989 65.7305 67.8238L65.1433 68.551L64.3003 68.1471L59.1736 65.6911L67.4647 54.2267ZM67.4647 54.2267C70.5768 49.2553 71.967 43.2876 70.9559 37.1907L67.4647 54.2267ZM53.0614 65.3834C51.5657 65.9088 49.8066 66.4612 48.4517 66.6858C33.7979 69.1151 19.9413 59.9494 17.6337 46.0306L53.0614 65.3834ZM53.0614 65.3834C55.0806 64.6761 57.2964 64.7941 59.1727 65.6906L53.0614 65.3834ZM40.1378 16.5353C25.4965 18.9625 15.3263 32.1249 17.6337 46.0304L70.9558 37.1906C68.6483 23.2716 54.79 14.1062 40.1378 16.5353Z" stroke="white" stroke-width="2.36364"/>
<path fill-rule="evenodd" clip-rule="evenodd" d="M66.463 53.5996C64.8555 56.1671 64.7296 59.2975 66.2249 61.8627L67.2867 63.6826C66.5214 64.8525 65.6948 65.9866 64.811 67.0813L59.6833 64.6248C57.5197 63.5907 54.9796 63.4593 52.6707 64.268C51.1819 64.791 49.5049 65.3133 48.2584 65.5199C34.1768 67.8543 20.9888 59.0427 18.7996 45.8371C16.6105 32.6451 26.2619 20.0335 40.3311 17.7012C54.4111 15.367 67.6007 24.1783 69.79 37.3839C70.7508 43.1776 69.4326 48.8558 66.463 53.5996Z" fill="#01EBDE"/>
</g>
<path fill-rule="evenodd" clip-rule="evenodd" d="M66.3997 53.2178C64.7922 55.7852 64.6664 58.9156 66.1617 61.4808L67.2234 63.3008C66.4582 64.4706 65.6316 65.6047 64.7477 66.6994L59.62 64.2429C57.4565 63.2088 54.9163 63.0774 52.6074 63.8861C51.1187 64.4092 49.4417 64.9314 48.1952 65.138C43.7527 56.78 43.7527 56.78 42.7268 54.5542C45.2148 51.1469 48.0298 53.6751 42.6927 46.7733C49.3079 36.0929 47.9456 38.7147 48.4413 27.252C64.658 34.7462 54.2677 29.88 69.7267 37.0021C70.4221 41.1948 69.9238 45.3271 68.4699 49.0886C67.9148 50.5248 67.2203 51.9069 66.3997 53.2178Z" fill="#00D9CD"/>
<path fill-rule="evenodd" clip-rule="evenodd" d="M49.0508 40.7404C46.9202 42.9206 47.0813 44.1688 47.4378 46.3192C47.5681 47.1051 47.2782 48.0876 45.117 48.4458C43.3092 48.7455 42.5893 48.2276 42.2328 46.0772C41.6432 42.5206 43.0379 40.5472 44.145 39.3014C45.4083 37.9023 47.6653 36.2109 47.2951 33.9779C46.9798 32.0756 45.0652 31.458 42.86 31.8236C38.3621 32.5692 39.8601 35.5927 37.4788 35.9874C36.2882 36.1848 34.7095 35.6818 34.4421 34.0687C34.0719 31.836 36.2576 28.0741 42.2112 27.0871C47.8556 26.1514 52.0907 28.4663 52.7351 32.3534C53.3795 36.2407 50.0974 39.6746 49.0508 40.7404ZM49.5569 53.9137C49.838 55.609 48.5854 57.3466 46.689 57.661C44.7934 57.9752 43.0912 56.7275 42.8101 55.0322C42.5222 53.2951 43.7816 51.5991 45.6331 51.2922C47.4855 50.9851 49.2689 52.1766 49.5569 53.9137Z" fill="white"/>
</g>
<defs>
<filter id="filter0_d_2_9" x="-28.929" y="-15.0357" width="146.393" height="145.056" filterUnits="userSpaceOnUse" color-interpolation-filters="sRGB">
<feFlood flood-opacity="0" result="BackgroundImageFix"/>
<feColorMatrix in="SourceAlpha" type="matrix" values="0 0 0 0 0 0 0 0 0 0 0 0 0 0 0 0 0 0 127 0" result="hardAlpha"/>
<feOffset dy="15"/>
<feGaussianBlur stdDeviation="22.5"/>
<feColorMatrix type="matrix" values="0 0 0 0 0 0 0 0 0 0 0 0 0 0 0 0 0 0 0.08 0"/>
<feBlend mode="normal" in2="BackgroundImageFix" result="effect1_dropShadow_2_9"/>
<feBlend mode="normal" in="SourceGraphic" in2="effect1_dropShadow_2_9" result="shape"/>
</filter>
<filter id="filter1_d_2_9" x="0.465644" y="14.9643" width="87.6034" height="104.662" filterUnits="userSpaceOnUse" color-interpolation-filters="sRGB">
<feFlood flood-opacity="0" result="BackgroundImageFix"/>
<feColorMatrix in="SourceAlpha" type="matrix" values="0 0 0 0 0 0 0 0 0 0 0 0 0 0 0 0 0 0 127 0" result="hardAlpha"/>
<feOffset dy="34"/>
<feGaussianBlur stdDeviation="7.80267"/>
<feColorMatrix type="matrix" values="0 0 0 0 0.235294 0 0 0 0 0.501961 0 0 0 0 0.819608 0 0 0 0.09 0"/>
<feBlend mode="normal" in2="BackgroundImageFix" result="effect1_dropShadow_2_9"/>
<feBlend mode="normal" in="SourceGraphic" in2="effect1_dropShadow_2_9" result="shape"/>
</filter>
</defs>
</svg>
