<svg width="338" height="618" viewBox="0 0 338 618" fill="none" xmlns="http://www.w3.org/2000/svg">
<path d="M0 30.0031C0 13.4329 13.4315 0 30 0H308C324.569 0 338 13.4329 338 30.0031V565.059C338 581.63 324.569 595.062 308 595.062H169H30C13.4315 595.062 0 581.63 0 565.059V30.0031Z" fill="url(#paint0_linear_1858_2095)" fill-opacity="0.9"/>
<path d="M188.196 595.062L175.119 613.956C174.745 614.496 174.328 615.008 173.852 615.46C170.281 618.851 168.322 618.846 164.759 615.449C164.282 614.994 163.863 614.479 163.489 613.936L150.5 595.062H188.196Z" fill="url(#paint1_linear_1858_2095)" fill-opacity="0.9"/>
<defs>
<linearGradient id="paint0_linear_1858_2095" x1="-31" y1="550.558" x2="224.106" y2="-45.5184" gradientUnits="userSpaceOnUse">
<stop stop-color="#9BA7FF"/>
<stop offset="1" stop-color="#5468FF"/>
</linearGradient>
<linearGradient id="paint1_linear_1858_2095" x1="-31" y1="550.558" x2="224.106" y2="-45.5184" gradientUnits="userSpaceOnUse">
<stop stop-color="#9BA7FF"/>
<stop offset="1" stop-color="#5468FF"/>
</linearGradient>
</defs>
</svg>
