<svg width="12" height="20" viewBox="0 0 12 20" fill="none" xmlns="http://www.w3.org/2000/svg">
<path fill-rule="evenodd" clip-rule="evenodd" d="M11.3524 0.591C10.9589 0.19692 10.4919 0 9.95304 0H1.99065C1.45177 0 0.9851 0.19692 0.59096 0.591C0.197132 0.98486 -0.000244141 1.45124 -0.000244141 1.99058V17.9153C-0.000244141 18.4544 0.197132 18.9208 0.59096 19.3148C0.9851 19.7089 1.45177 19.9058 1.99065 19.9058H9.95304C10.4919 19.9058 10.9589 19.7087 11.3524 19.3148C11.7463 18.9208 11.9436 18.4544 11.9436 17.9153V1.99058C11.9436 1.45124 11.7466 0.98508 11.3524 0.591ZM10.4512 15.427C10.4512 15.5619 10.4017 15.679 10.3031 15.7773C10.2043 15.8755 10.0877 15.9245 9.95335 15.9245H1.99065C1.8557 15.9245 1.73912 15.8753 1.64089 15.7773C1.54236 15.679 1.49308 15.5619 1.49308 15.427V4.47902C1.49308 4.34418 1.54236 4.22744 1.64089 4.12918C1.73942 4.03072 1.8557 3.98116 1.99065 3.98116H9.95304C10.0877 3.98116 10.2043 4.03072 10.3031 4.12918C10.4017 4.22744 10.4506 4.34418 10.4506 4.47902V15.427H10.4512Z" fill="white"/>
</svg>
