<svg width="170" height="66" viewBox="0 0 170 66" fill="none" xmlns="http://www.w3.org/2000/svg">
<path d="M33.6573 0.515119H136.704C154.603 0.515119 169.113 15.0254 169.113 32.9248C169.113 50.8242 154.603 65.3346 136.704 65.3346H33.6573C15.7579 65.3346 1.24754 50.8242 1.24754 32.9248C1.24754 15.0254 15.7579 0.515119 33.6573 0.515119Z" fill="white" fill-opacity="0.85" stroke="#44BCB6" stroke-width="0.831019"/>
<path fill-rule="evenodd" clip-rule="evenodd" d="M20.1006 18.0303C19.7577 18.4016 19.5605 18.973 19.5605 19.7156V46.1294C19.5605 46.872 19.7577 47.4434 20.1134 47.8018L20.2064 47.8809L34.8986 33.0807V32.7482L20.1936 17.9512L20.1006 18.0303V18.0303Z" fill="url(#paint0_linear_39_522)"/>
<path fill-rule="evenodd" clip-rule="evenodd" d="M39.7854 38.0335L34.8848 33.0952V32.7498L39.787 27.8115L39.8927 27.8777L45.6908 31.1968C47.351 32.1396 47.351 33.6925 45.6908 34.6482L39.8927 37.9673C39.8911 37.9673 39.7854 38.0335 39.7854 38.0335V38.0335Z" fill="url(#paint1_linear_39_522)"/>
<path fill-rule="evenodd" clip-rule="evenodd" d="M39.8931 37.9676L34.8867 32.9229L20.1016 47.8167C20.6416 48.4011 21.5503 48.4673 22.5663 47.8958L39.8931 37.9676Z" fill="url(#paint2_linear_39_522)"/>
<path fill-rule="evenodd" clip-rule="evenodd" d="M39.8931 27.8795L22.5663 17.9642C21.5519 17.3798 20.6416 17.4589 20.1016 18.0433L34.8851 32.9226L39.8931 27.8795Z" fill="url(#paint3_linear_39_522)"/>
<path opacity="0.2" fill-rule="evenodd" clip-rule="evenodd" d="M39.7862 37.8604L22.578 47.7094C21.6165 48.2664 20.7591 48.2276 20.2062 47.7223L20.1133 47.816L20.2062 47.8951C20.7591 48.3987 21.6165 48.4391 22.578 47.8821L39.9048 37.9669L39.7862 37.8604V37.8604Z" fill="#5468FF"/>
<path opacity="0.12" fill-rule="evenodd" clip-rule="evenodd" d="M45.6901 34.4758L39.7734 37.8611L39.8792 37.9676L45.6772 34.6486C46.5074 34.1707 46.916 33.5476 46.916 32.9229C46.8631 33.4943 46.4417 34.0384 45.6901 34.4758V34.4758Z" fill="#5468FF"/>
<path opacity="0.25" fill-rule="evenodd" clip-rule="evenodd" d="M22.5653 18.1364L45.6901 31.3707C46.4417 31.7953 46.8632 32.3522 46.9289 32.9237C46.9289 32.3006 46.5203 31.6758 45.6901 31.198L22.5653 17.9637C20.9051 17.008 19.5605 17.8038 19.5605 19.7152V19.8879C19.5605 17.9766 20.9051 17.1936 22.5653 18.1364Z" fill="white"/>
<path fill-rule="evenodd" clip-rule="evenodd" d="M53.5735 37.0844C53.5735 32.8532 57.1039 29.4082 61.3042 29.4082C63.6263 29.4082 65.2786 30.3268 66.5253 31.523L65.0574 33.0017C64.1664 32.159 62.9581 31.5052 61.3026 31.5052C58.2353 31.5052 55.8379 33.9929 55.8379 37.0828C55.8379 40.1726 58.2353 42.6635 61.301 42.6635C63.2898 42.6635 64.4212 41.8596 65.1471 41.1267C65.7417 40.5277 66.1311 39.6673 66.2817 38.4872H61.3042V36.395H68.3106C68.3843 36.7696 68.4228 37.2184 68.4228 37.7043C68.4228 39.275 67.9949 41.2235 66.6183 42.6102C65.2786 44.0147 63.5702 44.7638 61.3026 44.7638C57.1007 44.7638 53.5703 41.322 53.5703 37.0876L53.5735 37.0844ZM74.0862 34.876C71.3731 34.876 69.1583 36.9552 69.1583 39.8174C69.1583 42.6651 71.3715 44.7589 74.0862 44.7589C76.8009 44.7589 79.0108 42.6619 79.0108 39.8158C79.0108 36.9536 76.7993 34.8743 74.0862 34.876V34.876ZM74.0862 42.8153C72.6006 42.8153 71.317 41.5803 71.317 39.819C71.317 38.0401 72.599 36.8228 74.0862 36.8228C75.5717 36.8228 76.8538 38.0384 76.8538 39.819C76.8538 41.5787 75.5733 42.8153 74.0862 42.8153ZM84.8313 34.876C82.1182 34.876 79.9066 36.9552 79.9066 39.8174C79.9066 42.6651 82.1182 44.7589 84.8313 44.7589C87.5444 44.7589 89.7559 42.6619 89.7559 39.8158C89.7559 36.9536 87.546 34.8743 84.8313 34.876V34.876ZM84.8313 42.8153C83.3457 42.8153 82.0621 41.5803 82.0621 39.819C82.0621 38.0401 83.3441 36.8228 84.8313 36.8228C86.3168 36.8228 87.6005 38.0384 87.6005 39.819C87.6005 41.5787 86.3168 42.8153 84.8313 42.8153ZM98.0187 35.1762V35.9802H97.945C97.4626 35.3974 96.5331 34.8743 95.3633 34.8743C92.9097 34.8743 90.6582 37.0472 90.6582 39.8384C90.6582 42.607 92.9081 44.7621 95.3633 44.7621C96.5331 44.7621 97.4626 44.2391 97.945 43.6402H98.0187V44.3505C98.0187 46.2409 97.0155 47.2531 95.3985 47.2531C94.078 47.2531 93.2607 46.2974 92.9258 45.4951L91.0476 46.2812C91.586 47.5905 93.0187 49.2016 95.3969 49.2016C97.9225 49.2016 100.06 47.7018 100.06 44.0518V35.1746L98.0187 35.1762ZM95.5475 42.8153C94.062 42.8153 92.8136 41.5593 92.8136 39.8384C92.8136 38.0982 94.0604 36.8245 95.5475 36.8245C97.0155 36.8245 98.1677 38.0966 98.1677 39.8384C98.1693 41.5593 97.0171 42.8153 95.5475 42.8153ZM101.549 29.9329H103.706V44.4619H101.549V29.9329ZM109.618 42.8153C108.522 42.8153 107.74 42.3084 107.241 41.3188L113.802 38.5825L113.576 38.0207C113.169 36.9181 111.922 34.876 109.376 34.876C106.849 34.876 104.748 36.8793 104.748 39.819C104.748 42.5876 106.83 44.7605 109.618 44.7605C111.868 44.7605 113.169 43.377 113.708 42.5699L112.035 41.4479C111.475 42.2728 110.712 42.8169 109.618 42.8153V42.8153ZM109.45 36.7857C110.304 36.7857 111.028 37.2167 111.27 37.8334L106.882 39.6689C106.828 37.7592 108.352 36.7857 109.45 36.7857V36.7857Z" fill="#44BCB6"/>
<path fill-rule="evenodd" clip-rule="evenodd" d="M123.266 29.9336H118.109V44.4626H120.262V38.9593H123.268C125.654 38.9593 128 37.2191 128 34.4457C128 31.6771 125.656 29.9352 123.271 29.9352L123.266 29.9336ZM123.322 36.9366H120.262V31.9547H123.322C124.931 31.9547 125.848 33.2995 125.848 34.4457C125.848 35.5725 124.931 36.9366 123.322 36.9366V36.9366ZM131.338 44.4626V29.9336H129.186V44.4626H131.338ZM141.007 44.4368V38.8673C141.007 36.2876 139.093 34.8492 136.624 34.8492C135.068 34.8492 133.454 35.5418 132.786 37.0738L134.696 37.8761C135.104 37.0738 135.864 36.8107 136.664 36.8107C137.776 36.8107 138.907 37.4838 138.925 38.6817V38.8318C138.535 38.6074 137.702 38.27 136.68 38.27C134.62 38.27 132.524 39.4097 132.524 41.5407C132.524 43.4859 134.213 44.737 136.106 44.737C137.555 44.737 138.351 44.0832 138.851 43.318H138.925V44.44H141.005L141.007 44.4368ZM136.367 42.8128C135.662 42.8128 134.678 42.4576 134.678 41.581C134.678 40.4591 135.904 40.0264 136.962 40.0264C137.909 40.0264 138.353 40.2314 138.93 40.5123C138.765 41.8167 137.67 42.7966 136.367 42.8128V42.8128ZM148.575 35.1673L146.108 41.4648H146.034L143.473 35.1673H141.154L144.994 43.9718L142.803 48.8681H145.048L150.966 35.1673H148.575Z" fill="#44BCB6"/>
<path d="M60.1366 24.3415H58.9719L58.3332 22.2174H56.1165L55.506 24.3415H54.3789L56.5674 17.1016H57.9199L60.1366 24.3415ZM58.136 21.3199L57.563 19.4252C57.5067 19.2357 57.3939 18.777 57.2155 18.059H57.1967C57.1216 18.3681 57.0276 18.8169 56.868 19.4252L56.3044 21.3199H58.136Z" fill="#44BCB6"/>
<path d="M65.621 19.1162L63.7612 24.3417H62.6999L60.8965 19.1162H62.0706L62.9065 21.8785C63.0474 22.3372 63.1695 22.776 63.2634 23.1948H63.2916C63.3761 22.8159 63.4983 22.3771 63.6485 21.8785L64.4751 19.1162H65.621" fill="#44BCB6"/>
<path d="M69.5858 24.3416L69.5013 23.7432H69.4731C69.135 24.2219 68.6559 24.4612 68.036 24.4612C67.1531 24.4612 66.5332 23.8031 66.5332 22.9255C66.5332 21.6391 67.5852 20.971 69.4074 20.971V20.8712C69.4074 20.1831 69.0598 19.8441 68.3836 19.8441C67.8951 19.8441 67.4725 19.9737 67.0968 20.233L66.8713 19.4751C67.3222 19.176 67.8951 19.0264 68.562 19.0264C69.8488 19.0264 70.4969 19.7444 70.4969 21.1903V23.115C70.4969 23.6435 70.5157 24.0524 70.572 24.3615L69.5858 24.3416V24.3416ZM69.4355 21.7388C68.2239 21.7388 67.6134 22.048 67.6134 22.7959C67.6134 23.3443 67.9233 23.6136 68.3648 23.6136C68.9189 23.6136 69.4355 23.1648 69.4355 22.5466V21.7388Z" fill="#44BCB6"/>
<path d="M72.9293 18.2582C72.563 18.2582 72.2812 17.959 72.2812 17.5602C72.2812 17.1613 72.5724 16.8721 72.9481 16.8721C73.3238 16.8721 73.6244 17.1613 73.615 17.5602C73.615 17.979 73.3332 18.2582 72.9293 18.2582V18.2582ZM72.4034 19.1158H73.4929V24.3313H72.4034V19.1158V19.1158Z" fill="#44BCB6"/>
<path d="M75.4375 16.7227H76.5271V24.3315H75.4375V16.7227Z" fill="#44BCB6"/>
<path d="M81.1659 24.3408L81.0814 23.7425H81.0532C80.7151 24.2211 80.236 24.4605 79.6161 24.4605C78.7332 24.4605 78.1133 23.8023 78.1133 22.9247C78.1133 21.6383 79.1653 20.9702 80.9874 20.9702V20.8705C80.9874 20.1824 80.6399 19.8433 79.9636 19.8433C79.4752 19.8433 79.0526 19.973 78.6768 20.2322L78.4514 19.4644C78.9023 19.1652 79.4752 19.0156 80.1421 19.0156C81.4289 19.0156 82.077 19.7336 82.077 21.1796V23.1042C82.077 23.6328 82.0958 24.0416 82.1427 24.3508H81.1659V24.3408V24.3408ZM81.0156 21.738C79.804 21.738 79.1934 22.0472 79.1934 22.7951C79.1934 23.3436 79.5034 23.6128 79.9449 23.6128C80.499 23.6128 81.0156 23.1641 81.0156 22.5458V21.738Z" fill="#44BCB6"/>
<path d="M86.5114 24.4611C85.8164 24.4611 85.2998 24.152 84.9617 23.5337H84.9429L84.8771 24.3414H83.9473C83.9754 23.9226 83.9848 23.4539 83.9848 22.9354V16.7227H85.0838V19.8839H85.1026C85.4313 19.3055 85.9479 19.0163 86.6711 19.0163C87.8546 19.0163 88.6811 20.0933 88.6811 21.6589C88.6811 23.2744 87.7607 24.4611 86.5114 24.4611V24.4611ZM86.286 19.9237C85.6567 19.9237 85.0838 20.5021 85.0838 21.3099V22.2273C85.0838 22.9453 85.6004 23.5337 86.2672 23.5337C87.0844 23.5337 87.5728 22.8257 87.5728 21.6988C87.5728 20.6417 87.0656 19.9237 86.286 19.9237V19.9237Z" fill="#44BCB6"/>
<path d="M90.2969 16.7227H91.3864V24.3315H90.2969V16.7227Z" fill="#44BCB6"/>
<path d="M97.332 22.0087H94.0539C94.0727 22.9959 94.6926 23.5544 95.6037 23.5544C96.0921 23.5544 96.5336 23.4646 96.9281 23.3051L97.0971 24.1128C96.6369 24.3322 96.0921 24.4319 95.4534 24.4319C93.913 24.4319 93.002 23.4048 93.002 21.7993C93.002 20.2037 93.9318 18.9971 95.3313 18.9971C96.5805 18.9971 97.3789 19.9843 97.3789 21.4802C97.3789 21.6896 97.3695 21.8691 97.332 22.0087V22.0087ZM96.3363 21.181C96.3363 20.3732 95.9512 19.8048 95.2562 19.8048C94.6269 19.8048 94.1385 20.3832 94.0633 21.181H96.3363Z" fill="#44BCB6"/>
<path d="M103.953 24.4605C102.516 24.4605 101.586 23.3236 101.586 21.7779C101.586 20.1624 102.535 19.0156 104.037 19.0156C105.456 19.0156 106.404 20.1026 106.404 21.6882C106.404 23.3137 105.428 24.4605 103.953 24.4605ZM104 19.8633C103.211 19.8633 102.704 20.6511 102.704 21.738C102.704 22.815 103.22 23.5929 103.99 23.5929C104.761 23.5929 105.277 22.7552 105.277 21.7081C105.268 20.6511 104.77 19.8633 104 19.8633V19.8633Z" fill="#44BCB6"/>
<path d="M112.274 24.341H111.185V21.3394C111.185 20.4119 110.847 19.9532 110.189 19.9532C109.541 19.9532 109.1 20.5416 109.1 21.2297V24.331H108.01V20.6114C108.01 20.1527 108.001 19.6541 107.973 19.1156H108.931L108.978 19.9233H109.006C109.297 19.3649 109.898 19.0059 110.565 19.0059C111.598 19.0059 112.274 19.8435 112.274 21.2097V24.341Z" fill="#44BCB6"/>
<defs>
<linearGradient id="paint0_linear_39_522" x1="33.5793" y1="19.4317" x2="10.0222" y2="25.6627" gradientUnits="userSpaceOnUse">
<stop stop-color="#00A0FF"/>
<stop offset="0.007" stop-color="#00A1FF"/>
<stop offset="0.26" stop-color="#00BEFF"/>
<stop offset="0.512" stop-color="#00D2FF"/>
<stop offset="0.76" stop-color="#00DFFF"/>
<stop offset="1" stop-color="#00E3FF"/>
</linearGradient>
<linearGradient id="paint1_linear_39_522" x1="47.8512" y1="32.9232" x2="19.1561" y2="32.9232" gradientUnits="userSpaceOnUse">
<stop stop-color="#FFE000"/>
<stop offset="0.409" stop-color="#FFBD00"/>
<stop offset="0.775" stop-color="#FFA500"/>
<stop offset="1" stop-color="#FF9C00"/>
</linearGradient>
<linearGradient id="paint2_linear_39_522" x1="37.1708" y1="35.6673" x2="18.072" y2="67.5771" gradientUnits="userSpaceOnUse">
<stop stop-color="#FF3A44"/>
<stop offset="1" stop-color="#C31162"/>
</linearGradient>
<linearGradient id="paint3_linear_39_522" x1="16.3798" y1="9.24392" x2="24.9004" y2="23.4955" gradientUnits="userSpaceOnUse">
<stop stop-color="#32A071"/>
<stop offset="0.069" stop-color="#2DA771"/>
<stop offset="0.476" stop-color="#15CF74"/>
<stop offset="0.801" stop-color="#06E775"/>
<stop offset="1" stop-color="#00F076"/>
</linearGradient>
</defs>
</svg>
