<svg width="88" height="106" viewBox="0 0 88 106" fill="none" xmlns="http://www.w3.org/2000/svg">
<g filter="url(#filter0_d_2_15)">
<path d="M67.1576 40.0813V40.0814C65.7672 42.3021 65.6794 44.9616 66.9389 47.1221L68.0005 48.9417L68.3685 49.5728L67.9687 50.1842C67.1816 51.3875 66.3316 52.5535 65.4234 53.6784L64.8363 54.4056L63.9932 54.0017L58.8665 51.5457L67.1576 40.0813ZM67.1576 40.0813C70.2697 35.1099 71.6599 29.1422 70.6488 23.0453L67.1576 40.0813ZM52.7543 51.238C51.2586 51.7634 49.4995 52.3158 48.1446 52.5404C33.4908 54.9697 19.6342 45.804 17.3266 31.8852L52.7543 51.238ZM52.7543 51.238C54.7735 50.5307 56.9893 50.6487 58.8656 51.5452L52.7543 51.238ZM39.8307 2.38993C25.1894 4.81713 15.0192 17.9795 17.3266 31.885L70.6488 23.0452C68.3413 9.12624 54.4829 -0.0391675 39.8307 2.38993Z" stroke="white" stroke-width="2.36364"/>
<path fill-rule="evenodd" clip-rule="evenodd" d="M66.1559 39.4542C64.5484 42.0217 64.4225 45.1521 65.9178 47.7173L66.9796 49.5372C66.2143 50.7071 65.3877 51.8412 64.5039 52.9359L59.3762 50.4794C57.2126 49.4453 54.6725 49.3139 52.3636 50.1226C50.8748 50.6456 49.1978 51.1679 47.9513 51.3745C33.8697 53.7089 20.6817 44.8973 18.4925 31.6917C16.3034 18.4997 25.9548 5.88813 40.024 3.55583C54.104 1.22163 67.2936 10.0329 69.4829 23.2385C70.4437 29.0322 69.1255 34.7104 66.1559 39.4542Z" fill="#01EBDE"/>
</g>
<path fill-rule="evenodd" clip-rule="evenodd" d="M66.0926 39.0724C64.4851 41.6398 64.3593 44.7702 65.8546 47.3354L66.9163 49.1554C66.1511 50.3252 65.3245 51.4593 64.4406 52.554L59.3129 50.0975C57.1494 49.0634 54.6092 48.932 52.3003 49.7407C50.8116 50.2638 49.1346 50.786 47.8881 50.9926C43.4456 42.6346 43.4456 42.6346 42.4197 40.4088C44.9077 37.0015 47.7227 39.5297 42.3856 32.6279C49.0008 21.9475 47.6385 24.5693 48.1342 13.1066C64.3509 20.6008 53.9606 15.7346 69.4196 22.8567C70.115 27.0494 69.6167 31.1817 68.1628 34.9432C67.6077 36.3794 66.9132 37.7615 66.0926 39.0724Z" fill="#00D9CD"/>
<path fill-rule="evenodd" clip-rule="evenodd" d="M48.7437 26.595C46.6131 28.7752 46.7742 30.0234 47.1307 32.1738C47.261 32.9597 46.9711 33.9422 44.8099 34.3004C43.0021 34.6001 42.2822 34.0822 41.9257 31.9318C41.3361 28.3752 42.7308 26.4018 43.8379 25.156C45.1012 23.7569 47.3582 22.0655 46.988 19.8325C46.6727 17.9302 44.7581 17.3126 42.5529 17.6782C38.055 18.4238 39.553 21.4473 37.1717 21.842C35.9811 22.0394 34.4024 21.5364 34.135 19.9233C33.7648 17.6906 35.9505 13.9287 41.9041 12.9417C47.5485 12.006 51.7836 14.3209 52.428 18.208C53.0724 22.0953 49.7903 25.5292 48.7437 26.595ZM49.2498 39.7683C49.5309 41.4636 48.2783 43.2012 46.3819 43.5156C44.4863 43.8298 42.7841 42.5821 42.503 40.8868C42.2151 39.1497 43.4745 37.4537 45.326 37.1468C47.1784 36.8397 48.9618 38.0312 49.2498 39.7683Z" fill="white"/>
<defs>
<filter id="filter0_d_2_15" x="0.158576" y="0.81897" width="87.6034" height="104.662" filterUnits="userSpaceOnUse" color-interpolation-filters="sRGB">
<feFlood flood-opacity="0" result="BackgroundImageFix"/>
<feColorMatrix in="SourceAlpha" type="matrix" values="0 0 0 0 0 0 0 0 0 0 0 0 0 0 0 0 0 0 127 0" result="hardAlpha"/>
<feOffset dy="34"/>
<feGaussianBlur stdDeviation="7.80267"/>
<feComposite in2="hardAlpha" operator="out"/>
<feColorMatrix type="matrix" values="0 0 0 0 0.235294 0 0 0 0 0.501961 0 0 0 0 0.819608 0 0 0 0.09 0"/>
<feBlend mode="normal" in2="BackgroundImageFix" result="effect1_dropShadow_2_15"/>
<feBlend mode="normal" in="SourceGraphic" in2="effect1_dropShadow_2_15" result="shape"/>
</filter>
</defs>
</svg>
