<svg width="394" height="179" viewBox="0 0 394 179" fill="none" xmlns="http://www.w3.org/2000/svg">
<g filter="url(#filter0_bd_1858_5454)" >
<path fill-rule="evenodd" clip-rule="evenodd" d="M70.4822 44.2148H323.567C332.177 44.2148 339.156 51.2557 339.156 59.9407V97.7287C339.156 106.414 332.177 113.455 323.567 113.455H70.4822C61.8721 113.455 54.8926 106.414 54.8926 97.7287V59.9407C54.8926 51.2557 61.8721 44.2148 70.4822 44.2148Z" fill="white" fill-opacity="0.97"/>
<path d="M310.235 99.637C312.284 99.637 313.986 98.5071 313.986 96.4734C313.986 95.0573 313.143 94.1233 311.968 93.8522C312.781 93.5207 313.429 92.6922 313.429 91.5774C313.429 89.8299 311.922 88.8356 310.235 88.8356C308.427 88.8356 306.996 89.9655 306.996 91.8335L308.262 91.9239C308.277 90.7488 309.09 90.0709 310.28 90.0709C311.305 90.0709 312.133 90.5982 312.133 91.7431C312.133 92.888 311.244 93.4454 309.738 93.4454V94.4999C311.018 94.4999 312.691 94.6807 312.691 96.3378C312.691 97.6936 311.621 98.4017 310.265 98.4017C308.804 98.4017 307.765 97.6032 307.765 96.2173L306.484 96.2926C306.484 98.477 308.141 99.637 310.235 99.637ZM319.021 99.637C321.567 99.637 322.366 97.0459 322.366 94.2589C322.366 91.4719 321.537 88.8356 318.916 88.8356C316.039 88.8356 315.572 91.8335 315.572 94.2438C315.572 96.6542 316.069 99.637 319.021 99.637ZM318.991 98.4017C317.153 98.4017 316.897 96.2926 316.897 94.2438C316.897 92.1498 317.153 90.0709 318.916 90.0709C320.648 90.0709 320.965 92.0293 320.965 94.2438C320.965 96.383 320.663 98.4017 318.991 98.4017ZM326.308 99.6025C327.522 99.6025 328.658 98.9569 328.658 97.6011C328.658 95.2123 325.094 96.0387 325.094 94.7087C325.094 94.2438 325.533 93.9468 326.23 93.9468C326.979 93.9468 327.431 94.3213 327.715 94.8378L328.593 94.36C328.141 93.4691 327.302 93.0042 326.256 93.0042C325.004 93.0042 324.022 93.6757 324.022 94.8249C324.022 97.1233 327.56 96.1807 327.56 97.6657C327.56 98.2209 327.095 98.647 326.269 98.647C325.326 98.647 324.797 98.0789 324.59 97.4849L323.674 97.8981C324.009 98.8924 325.029 99.6025 326.308 99.6025Z" fill="#7685FE"/>
<path d="M124.457 74.3672H125.542V63.7164H124.457V74.3672ZM132.217 66.7114C131.132 66.7114 130.215 67.1699 129.726 67.9339V66.8337H128.672V74.3672H129.726V70.9901C129.726 68.866 130.551 67.6436 131.972 67.6436C133.103 67.6436 133.623 68.3923 133.623 70.0121V74.3672H134.677V69.7523C134.677 67.7505 133.837 66.7114 132.217 66.7114ZM140.4 73.3586C140.063 73.4656 139.773 73.5267 139.513 73.5267C138.917 73.5267 138.581 73.1906 138.581 72.4571V67.72H140.4V66.8337H138.581V64.0831L137.527 64.8777V66.8337H136.274V67.72H137.527V72.5946C137.527 73.924 138.26 74.4894 139.269 74.4894C139.62 74.4894 140.018 74.413 140.415 74.2908L140.4 73.3586ZM145.552 66.7114C144.788 66.7114 143.871 66.9712 143.321 67.9645V66.8337H142.266V74.3672H143.321V70.1649C143.321 68.5299 144.177 67.6588 145.338 67.6588C145.659 67.6588 145.98 67.7353 146.331 67.8881L146.851 67.0323C146.438 66.8031 146.01 66.7114 145.552 66.7114ZM150.677 74.4894C152.832 74.4894 154.299 72.8085 154.299 70.5928C154.299 68.3618 152.817 66.7114 150.677 66.7114C148.523 66.7114 147.071 68.3618 147.071 70.5928C147.071 72.8238 148.523 74.4894 150.677 74.4894ZM150.677 73.5573C149.073 73.5573 148.126 72.3043 148.126 70.5928C148.126 68.8966 149.058 67.6436 150.677 67.6436C152.282 67.6436 153.245 68.8813 153.245 70.5928C153.245 72.2737 152.297 73.5573 150.677 73.5573ZM161.67 63.7164V67.8422C161.104 67.1087 160.248 66.6961 159.179 66.6961C157.085 66.6961 155.832 68.2395 155.832 70.5928C155.832 72.8391 156.978 74.4894 159.179 74.4894C160.279 74.4894 161.119 74.0616 161.67 73.3586V74.3672H162.724V63.7164H161.67ZM159.332 73.5573C157.727 73.5573 156.887 72.3043 156.887 70.5928C156.887 68.8049 157.804 67.6283 159.332 67.6283C160.844 67.6283 161.761 68.8049 161.761 70.5928C161.761 72.3043 160.921 73.5573 159.332 73.5573ZM170.194 66.8337V70.3025C170.194 72.2584 169.446 73.5573 167.948 73.5573C166.512 73.5573 166.298 72.4112 166.298 71.1887V66.8337H165.243V71.4485C165.243 73.3128 165.992 74.4894 167.704 74.4894C168.697 74.4894 169.659 74.0921 170.194 73.2822V74.3672H171.249V66.8337H170.194ZM176.744 74.4894C178.104 74.4894 179.204 73.7712 179.708 72.3959L178.73 72.0292C178.44 72.9919 177.691 73.5573 176.744 73.5573C175.124 73.5573 174.406 72.1667 174.406 70.6234C174.406 69.08 175.124 67.6436 176.728 67.6436C177.676 67.6436 178.425 68.2242 178.776 69.1869L179.785 68.7896C179.189 67.3838 178.073 66.7114 176.728 66.7114C174.452 66.7114 173.336 68.6368 173.336 70.6234C173.336 72.7168 174.558 74.4894 176.744 74.4894ZM187.653 70.226C187.653 68.5146 186.69 66.7114 184.383 66.7114C182.198 66.7114 181.037 68.5146 181.037 70.6386C181.037 72.778 182.213 74.4894 184.505 74.4894C185.667 74.4894 186.538 74.1533 187.424 73.2211L186.69 72.5793C186.003 73.3128 185.346 73.5267 184.521 73.5267C183.038 73.5267 182.121 72.5335 182.091 70.8831H187.607C187.638 70.6998 187.653 70.44 187.653 70.226ZM184.383 67.5977C185.774 67.5977 186.553 68.5299 186.629 69.7523C186.629 69.8899 186.645 69.9663 186.645 69.9968H182.091C182.183 68.6674 183.023 67.5977 184.383 67.5977ZM194.784 77.4845H195.915L200.041 66.8337H198.88L196.603 73.0377L194.005 66.8337H192.844L196.037 74.2755L194.784 77.4845ZM204.4 74.4894C206.554 74.4894 208.021 72.8085 208.021 70.5928C208.021 68.3618 206.539 66.7114 204.4 66.7114C202.245 66.7114 200.793 68.3618 200.793 70.5928C200.793 72.8238 202.245 74.4894 204.4 74.4894ZM204.4 73.5573C202.795 73.5573 201.848 72.3043 201.848 70.5928C201.848 68.8966 202.78 67.6436 204.4 67.6436C206.004 67.6436 206.967 68.8813 206.967 70.5928C206.967 72.2737 206.019 73.5573 204.4 73.5573ZM214.843 66.8337V70.3025C214.843 72.2584 214.095 73.5573 212.597 73.5573C211.161 73.5573 210.947 72.4112 210.947 71.1887V66.8337H209.892V71.4485C209.892 73.3128 210.641 74.4894 212.353 74.4894C213.346 74.4894 214.309 74.0921 214.843 73.2822V74.3672H215.898V66.8337H214.843ZM221.972 66.7114C221.208 66.7114 220.291 66.9712 219.741 67.9645V66.8337H218.686V74.3672H219.741V70.1649C219.741 68.5299 220.596 67.6588 221.758 67.6588C222.079 67.6588 222.399 67.7353 222.751 67.8881L223.27 67.0323C222.858 66.8031 222.43 66.7114 221.972 66.7114ZM226.649 74.4894C228.1 74.4894 229.353 73.7254 229.353 72.1973C229.353 69.3398 224.998 70.4705 224.998 68.6827C224.998 68.0256 225.594 67.6436 226.526 67.6436C227.459 67.6436 228.054 68.0714 228.421 68.7438L229.262 68.2854C228.742 67.2157 227.764 66.7114 226.557 66.7114C225.044 66.7114 223.974 67.5213 223.974 68.8355C223.974 71.5096 228.314 70.2566 228.314 72.2584C228.314 73.053 227.657 73.5573 226.633 73.5573C225.457 73.5573 224.723 72.9002 224.448 72.1209L223.562 72.5182C223.959 73.7254 225.166 74.4894 226.649 74.4894ZM237.421 70.226C237.421 68.5146 236.458 66.7114 234.151 66.7114C231.965 66.7114 230.804 68.5146 230.804 70.6386C230.804 72.778 231.981 74.4894 234.273 74.4894C235.434 74.4894 236.305 74.1533 237.192 73.2211L236.458 72.5793C235.77 73.3128 235.113 73.5267 234.288 73.5267C232.806 73.5267 231.889 72.5335 231.858 70.8831H237.375C237.405 70.6998 237.421 70.44 237.421 70.226ZM234.151 67.5977C235.541 67.5977 236.321 68.5299 236.397 69.7523C236.397 69.8899 236.412 69.9663 236.412 69.9968H231.858C231.95 68.6674 232.791 67.5977 234.151 67.5977ZM240.924 74.4894C241.26 74.4894 241.642 74.3977 241.963 74.2908L241.947 73.3892C241.718 73.4656 241.458 73.5267 241.229 73.5267C240.725 73.5267 240.542 73.1906 240.542 72.671V63.7164H239.487V72.7321C239.487 73.9088 240.053 74.4894 240.924 74.4894ZM244.125 74.3672H245.18V67.72H247.35V66.8337H245.18V65.5959C245.18 64.893 245.547 64.4804 246.142 64.4804C246.402 64.4804 246.693 64.5721 247.014 64.7249L247.38 63.8844C246.907 63.6858 246.448 63.5941 246.036 63.5941C245.073 63.5941 244.141 64.0678 244.141 65.6723V66.8337H242.536V67.72H244.125V74.3672ZM253.081 65.275H254.304V63.7164H253.081V65.275ZM253.173 74.3672H254.227V66.8337H253.173V74.3672ZM260.553 66.7114C259.468 66.7114 258.551 67.1699 258.062 67.9339V66.8337H257.008V74.3672H258.062V70.9901C258.062 68.866 258.888 67.6436 260.309 67.6436C261.439 67.6436 261.959 68.3923 261.959 70.0121V74.3672H263.013V69.7523C263.013 67.7505 262.173 66.7114 260.553 66.7114ZM273.495 67.5366C272.838 67.4144 272.165 67.5213 271.615 67.72L274.075 63.7164H272.884L269.675 69.0647C269.338 69.6148 269.124 70.3025 269.124 70.9595C269.124 72.9002 270.76 74.4894 272.746 74.4894C274.748 74.4894 276.368 72.8849 276.368 70.9443C276.368 69.2328 275.099 67.8269 273.495 67.5366ZM272.746 73.4809C271.325 73.4809 270.194 72.3348 270.194 70.9443C270.194 69.5537 271.34 68.4229 272.746 68.4229C274.152 68.4229 275.298 69.5537 275.298 70.9443C275.298 72.3348 274.152 73.4809 272.746 73.4809ZM281.477 74.52C283.907 74.52 284.763 71.9834 284.763 69.0647C284.763 66.146 283.892 63.5635 281.37 63.5635C278.604 63.5635 278.07 66.5128 278.07 69.0494C278.07 71.5861 278.635 74.52 281.477 74.52ZM281.447 73.5115C279.506 73.5115 279.155 71.2957 279.155 69.0494C279.155 66.7573 279.506 64.5721 281.37 64.5721C283.158 64.5721 283.632 66.5892 283.632 69.0494C283.632 71.4638 283.174 73.5115 281.447 73.5115ZM126.382 94.4894C127.834 94.4894 129.087 93.7254 129.087 92.1973C129.087 89.3398 124.732 90.4705 124.732 88.6827C124.732 88.0256 125.328 87.6436 126.26 87.6436C127.192 87.6436 127.788 88.0714 128.155 88.7438L128.995 88.2854C128.476 87.2157 127.498 86.7114 126.291 86.7114C124.778 86.7114 123.708 87.5213 123.708 88.8355C123.708 91.5096 128.048 90.2566 128.048 92.2584C128.048 93.053 127.391 93.5573 126.367 93.5573C125.19 93.5573 124.457 92.9002 124.182 92.1209L123.296 92.5182C123.693 93.7254 124.9 94.4894 126.382 94.4894ZM137.154 90.226C137.154 88.5146 136.192 86.7114 133.884 86.7114C131.699 86.7114 130.538 88.5146 130.538 90.6386C130.538 92.778 131.714 94.4894 134.007 94.4894C135.168 94.4894 136.039 94.1533 136.925 93.2211L136.192 92.5793C135.504 93.3128 134.847 93.5267 134.022 93.5267C132.54 93.5267 131.623 92.5335 131.592 90.8831H137.109C137.139 90.6998 137.154 90.44 137.154 90.226ZM133.884 87.5977C135.275 87.5977 136.054 88.5299 136.131 89.7523C136.131 89.8899 136.146 89.9663 136.146 89.9968H131.592C131.684 88.6674 132.524 87.5977 133.884 87.5977ZM142.063 94.4894C143.423 94.4894 144.523 93.7712 145.028 92.3959L144.05 92.0292C143.759 92.9919 143.01 93.5573 142.063 93.5573C140.443 93.5573 139.725 92.1667 139.725 90.6234C139.725 89.08 140.443 87.6436 142.048 87.6436C142.995 87.6436 143.744 88.2242 144.095 89.1869L145.104 88.7896C144.508 87.3838 143.392 86.7114 142.048 86.7114C139.771 86.7114 138.655 88.6368 138.655 90.6234C138.655 92.7168 139.878 94.4894 142.063 94.4894ZM149.916 94.4894C152.071 94.4894 153.538 92.8085 153.538 90.5928C153.538 88.3618 152.056 86.7114 149.916 86.7114C147.762 86.7114 146.31 88.3618 146.31 90.5928C146.31 92.8238 147.762 94.4894 149.916 94.4894ZM149.916 93.5573C148.312 93.5573 147.364 92.3043 147.364 90.5928C147.364 88.8966 148.297 87.6436 149.916 87.6436C151.521 87.6436 152.484 88.8813 152.484 90.5928C152.484 92.2737 151.536 93.5573 149.916 93.5573ZM159.212 86.7114C158.127 86.7114 157.211 87.1699 156.722 87.9339V86.8337H155.667V94.3672H156.722V90.9901C156.722 88.866 157.547 87.6436 158.968 87.6436C160.099 87.6436 160.618 88.3923 160.618 90.0121V94.3672H161.673V89.7523C161.673 87.7505 160.832 86.7114 159.212 86.7114ZM169.519 83.7164V87.8422C168.954 87.1087 168.098 86.6961 167.028 86.6961C164.935 86.6961 163.682 88.2395 163.682 90.5928C163.682 92.8391 164.828 94.4894 167.028 94.4894C168.128 94.4894 168.969 94.0616 169.519 93.3586V94.3672H170.573V83.7164H169.519ZM167.181 93.5573C165.576 93.5573 164.736 92.3043 164.736 90.5928C164.736 88.8049 165.653 87.6283 167.181 87.6283C168.694 87.6283 169.611 88.8049 169.611 90.5928C169.611 92.3043 168.77 93.5573 167.181 93.5573ZM175.628 94.4894C177.079 94.4894 178.332 93.7254 178.332 92.1973C178.332 89.3398 173.977 90.4705 173.977 88.6827C173.977 88.0256 174.573 87.6436 175.505 87.6436C176.437 87.6436 177.033 88.0714 177.4 88.7438L178.241 88.2854C177.721 87.2157 176.743 86.7114 175.536 86.7114C174.023 86.7114 172.953 87.5213 172.953 88.8355C172.953 91.5096 177.293 90.2566 177.293 92.2584C177.293 93.053 176.636 93.5573 175.612 93.5573C174.436 93.5573 173.702 92.9002 173.427 92.1209L172.541 92.5182C172.938 93.7254 174.145 94.4894 175.628 94.4894ZM187.596 94.4894C189.751 94.4894 191.218 92.8085 191.218 90.5928C191.218 88.3618 189.736 86.7114 187.596 86.7114C185.442 86.7114 183.99 88.3618 183.99 90.5928C183.99 92.8238 185.442 94.4894 187.596 94.4894ZM187.596 93.5573C185.992 93.5573 185.045 92.3043 185.045 90.5928C185.045 88.8966 185.977 87.6436 187.596 87.6436C189.201 87.6436 190.164 88.8813 190.164 90.5928C190.164 92.2737 189.216 93.5573 187.596 93.5573ZM196.633 86.7114C195.869 86.7114 194.952 86.9712 194.402 87.9645V86.8337H193.347V94.3672H194.402V90.1649C194.402 88.5299 195.257 87.6588 196.419 87.6588C196.74 87.6588 197.061 87.7353 197.412 87.8881L197.932 87.0323C197.519 86.8031 197.091 86.7114 196.633 86.7114ZM205.049 94.4894C205.385 94.4894 205.767 94.3977 206.088 94.2908L206.073 93.3892C205.844 93.4656 205.584 93.5267 205.355 93.5267C204.85 93.5267 204.667 93.1906 204.667 92.671V83.7164H203.613V92.7321C203.613 93.9088 204.178 94.4894 205.049 94.4894ZM213.798 90.226C213.798 88.5146 212.835 86.7114 210.528 86.7114C208.343 86.7114 207.181 88.5146 207.181 90.6386C207.181 92.778 208.358 94.4894 210.65 94.4894C211.811 94.4894 212.682 94.1533 213.569 93.2211L212.835 92.5793C212.148 93.3128 211.491 93.5267 210.665 93.5267C209.183 93.5267 208.266 92.5335 208.236 90.8831H213.752C213.783 90.6998 213.798 90.44 213.798 90.226ZM210.528 87.5977C211.918 87.5977 212.698 88.5299 212.774 89.7523C212.774 89.8899 212.789 89.9663 212.789 89.9968H208.236C208.327 88.6674 209.168 87.5977 210.528 87.5977ZM218.202 94.4894C219.654 94.4894 220.907 93.7254 220.907 92.1973C220.907 89.3398 216.552 90.4705 216.552 88.6827C216.552 88.0256 217.148 87.6436 218.08 87.6436C219.012 87.6436 219.608 88.0714 219.975 88.7438L220.815 88.2854C220.296 87.2157 219.318 86.7114 218.111 86.7114C216.598 86.7114 215.528 87.5213 215.528 88.8355C215.528 91.5096 219.868 90.2566 219.868 92.2584C219.868 93.053 219.211 93.5573 218.187 93.5573C217.01 93.5573 216.277 92.9002 216.002 92.1209L215.116 92.5182C215.513 93.7254 216.72 94.4894 218.202 94.4894ZM225.321 94.4894C226.772 94.4894 228.025 93.7254 228.025 92.1973C228.025 89.3398 223.67 90.4705 223.67 88.6827C223.67 88.0256 224.266 87.6436 225.198 87.6436C226.13 87.6436 226.726 88.0714 227.093 88.7438L227.934 88.2854C227.414 87.2157 226.436 86.7114 225.229 86.7114C223.716 86.7114 222.646 87.5213 222.646 88.8355C222.646 91.5096 226.986 90.2566 226.986 92.2584C226.986 93.053 226.329 93.5573 225.305 93.5573C224.129 93.5573 223.395 92.9002 223.12 92.1209L222.234 92.5182C222.631 93.7254 223.838 94.4894 225.321 94.4894Z" fill="#626262"/>
<path d="M103.681 78.5614C103.681 87.2263 96.6575 94.2503 87.9936 94.2503C79.3286 94.2503 72.3047 87.2263 72.3047 78.5614C72.3047 69.8975 79.3286 62.873 87.9936 62.873C96.6575 62.873 103.681 69.8974 103.681 78.5614Z" stroke="#ADB8FA" stroke-width="4.18359"/>
<g clip-path="url(#clip0_1858_5454)">
<path fill-rule="evenodd" clip-rule="evenodd" d="M316.345 56.6736C322.169 56.6736 326.891 61.3951 326.891 67.2197C326.891 73.0442 322.169 77.7658 316.345 77.7658C310.52 77.7658 305.798 73.0442 305.798 67.2197C305.798 61.3951 310.52 56.6736 316.345 56.6736Z" fill="black" fill-opacity="0.01" stroke="#7686FF" stroke-width="2.09179"/>
<path fill-rule="evenodd" clip-rule="evenodd" d="M316.346 67.2148H315.387V60.5036H316.346V67.2148Z" fill="black" fill-opacity="0.01" stroke="#7686FF" stroke-width="1.0459"/>
<path fill-rule="evenodd" clip-rule="evenodd" d="M321.353 69.6642L320.924 70.5216L315.172 67.6456L315.6 66.7879L321.353 69.6642Z" fill="black" fill-opacity="0.01" stroke="#7686FF" stroke-width="1.0459"/>
</g>
</g>
<defs>
<filter id="filter0_bd_1858_5454" x="0.391563" y="0.399189" width="393.266" height="178.945" filterUnits="userSpaceOnUse" color-interpolation-filters="sRGB">
<feFlood flood-opacity="0" result="BackgroundImageFix"/>
<feGaussianBlur in="BackgroundImage" stdDeviation="11.3544"/>
<feComposite in2="SourceAlpha" operator="in" result="effect1_backgroundBlur_1858_5454"/>
<feColorMatrix in="SourceAlpha" type="matrix" values="0 0 0 0 0 0 0 0 0 0 0 0 0 0 0 0 0 0 127 0" result="hardAlpha"/>
<feOffset dy="10.9002"/>
<feGaussianBlur stdDeviation="27.2505"/>
<feColorMatrix type="matrix" values="0 0 0 0 0.329412 0 0 0 0 0.407843 0 0 0 0 1 0 0 0 0.3 0"/>
<feBlend mode="normal" in2="effect1_backgroundBlur_1858_5454" result="effect2_dropShadow_1858_5454"/>
<feBlend mode="normal" in="SourceGraphic" in2="effect2_dropShadow_1858_5454" result="shape"/>
</filter>
<clipPath id="clip0_1858_5454">
<rect width="42.0226" height="35.6556" fill="white" transform="translate(293.67 49.3125)"/>
</clipPath>
</defs>
</svg>
