<svg width="375" height="80" viewBox="0 0 375 180" fill="none" xmlns="http://www.w3.org/2000/svg">
<g filter="url(#filter0_bd_1858_5463)">
<path fill-rule="evenodd" clip-rule="evenodd" d="M72.9452 47.1953H302.03C309.823 47.1953 316.141 53.5684 316.141 61.4299V95.6344C316.141 103.496 309.823 109.869 302.03 109.869H72.9452C65.1517 109.869 58.834 103.496 58.834 95.6344V61.4299C58.834 53.5684 65.1517 47.1953 72.9452 47.1953Z" fill="white" fill-opacity="0.9"/>
<path d="M289.961 97.8785C291.815 97.8785 293.356 96.8558 293.356 95.015C293.356 93.7332 292.592 92.8878 291.529 92.6423C292.265 92.3423 292.851 91.5923 292.851 90.5833C292.851 89.0015 291.488 88.1015 289.961 88.1015C288.324 88.1015 287.029 89.1242 287.029 90.8151L288.174 90.8969C288.188 89.8333 288.924 89.2197 290.002 89.2197C290.929 89.2197 291.679 89.6969 291.679 90.7333C291.679 91.7696 290.874 92.2741 289.511 92.2741V93.2287C290.67 93.2287 292.183 93.3923 292.183 94.8923C292.183 96.1195 291.215 96.7604 289.988 96.7604C288.665 96.7604 287.724 96.0377 287.724 94.7832L286.565 94.8513C286.565 96.8286 288.065 97.8785 289.961 97.8785ZM297.914 97.8785C300.218 97.8785 300.941 95.5331 300.941 93.0105C300.941 90.4878 300.191 88.1015 297.818 88.1015C295.214 88.1015 294.791 90.8151 294.791 92.9968C294.791 95.1786 295.241 97.8785 297.914 97.8785ZM297.886 96.7604C296.223 96.7604 295.991 94.8513 295.991 92.9968C295.991 91.1014 296.223 89.2197 297.818 89.2197C299.386 89.2197 299.673 90.9923 299.673 92.9968C299.673 94.9332 299.4 96.7604 297.886 96.7604ZM304.509 97.8474C305.608 97.8474 306.636 97.263 306.636 96.0357C306.636 93.8734 303.41 94.6215 303.41 93.4176C303.41 92.9968 303.808 92.728 304.439 92.728C305.117 92.728 305.526 93.067 305.783 93.5345L306.578 93.102C306.169 92.2956 305.409 91.8748 304.462 91.8748C303.329 91.8748 302.44 92.4826 302.44 93.5228C302.44 95.6033 305.643 94.75 305.643 96.0942C305.643 96.5968 305.222 96.9825 304.474 96.9825C303.621 96.9825 303.142 96.4682 302.955 95.9305L302.125 96.3046C302.429 97.2045 303.352 97.8474 304.509 97.8474Z" fill="#7685FE"/>
<path d="M123.915 74.5801H124.911V65.8522H128.258V64.9393H120.582V65.8522H123.915V74.5801ZM134.1 70.8316C134.1 69.2825 133.229 67.6503 131.14 67.6503C129.162 67.6503 128.111 69.2825 128.111 71.2051C128.111 73.1416 129.176 74.6907 131.251 74.6907C132.302 74.6907 133.09 74.3864 133.893 73.5427L133.229 72.9618C132.606 73.6257 132.011 73.8193 131.265 73.8193C129.923 73.8193 129.093 72.9203 129.065 71.4264H134.059C134.086 71.2604 134.1 71.0253 134.1 70.8316ZM131.14 68.4526C132.399 68.4526 133.104 69.2963 133.173 70.4029C133.173 70.5273 133.187 70.5965 133.187 70.6242H129.065C129.148 69.4208 129.909 68.4526 131.14 68.4526ZM137.271 74.6907C137.575 74.6907 137.921 74.6077 138.211 74.5109L138.197 73.6948C137.99 73.764 137.755 73.8193 137.547 73.8193C137.091 73.8193 136.925 73.515 136.925 73.0447V64.9393H135.971V73.1001C135.971 74.1651 136.482 74.6907 137.271 74.6907ZM140.999 74.6907C141.303 74.6907 141.649 74.6077 141.939 74.5109L141.926 73.6948C141.718 73.764 141.483 73.8193 141.275 73.8193C140.819 73.8193 140.653 73.515 140.653 73.0447V64.9393H139.699V73.1001C139.699 74.1651 140.21 74.6907 140.999 74.6907ZM154.305 67.6503C153.267 67.6503 152.506 68.0929 152.064 68.9643C151.718 68.0653 151.013 67.6503 150.058 67.6503C149.298 67.6503 148.606 67.9131 148.177 68.5909V67.761H147.25L147.264 74.5801H148.219V71.3019C148.219 69.7528 148.592 68.4941 149.92 68.4941C151.109 68.4941 151.455 69.5038 151.455 70.638V74.5801H152.41V71.3019C152.41 69.7666 152.783 68.4941 154.166 68.4941C155.66 68.4941 155.66 70.0017 155.66 70.5827V74.5801H156.615V70.3199C156.615 68.7292 155.937 67.6503 154.305 67.6503ZM164.398 70.8316C164.398 69.2825 163.526 67.6503 161.438 67.6503C159.46 67.6503 158.409 69.2825 158.409 71.2051C158.409 73.1416 159.474 74.6907 161.548 74.6907C162.6 74.6907 163.388 74.3864 164.19 73.5427L163.526 72.9618C162.904 73.6257 162.309 73.8193 161.562 73.8193C160.221 73.8193 159.391 72.9203 159.363 71.4264H164.356C164.384 71.2604 164.398 71.0253 164.398 70.8316ZM161.438 68.4526C162.696 68.4526 163.402 69.2963 163.471 70.4029C163.471 70.5273 163.485 70.5965 163.485 70.6242H159.363C159.446 69.4208 160.207 68.4526 161.438 68.4526ZM171.24 74.5801H172.125L173.965 69.075L175.777 74.5801H176.676L178.668 67.761H177.658L176.178 73.1416L174.394 67.761H173.522L171.724 73.1416L170.258 67.761H169.234L171.24 74.5801ZM183.54 67.6503C182.558 67.6503 181.728 68.0653 181.285 68.7569V64.9393H180.331V74.5801H181.285V71.4402C181.285 69.5591 182.018 68.4941 183.319 68.4941C184.342 68.4941 184.813 69.158 184.813 70.638V74.5801H185.767V70.4029C185.767 68.5909 185.006 67.6503 183.54 67.6503ZM190.49 67.6503C189.328 67.6503 188.443 68.0929 187.71 69.0473L188.402 69.6283C188.955 68.8675 189.619 68.4941 190.476 68.4941C191.624 68.4941 192.247 69.1442 192.247 70.3337V70.6518H190.85C189.508 70.6518 188.775 70.7763 188.249 71.0806C187.751 71.3849 187.475 71.9105 187.475 72.6021C187.475 73.9161 188.346 74.6907 189.826 74.6907C190.905 74.6907 191.735 74.2896 192.274 73.5289L192.33 74.5801H193.201V70.3337C193.201 68.6324 192.205 67.6503 190.49 67.6503ZM190.103 73.9023C189.079 73.9023 188.429 73.4182 188.429 72.6575C188.429 72.2702 188.554 71.9659 188.803 71.7722C189.135 71.5094 189.674 71.4264 190.933 71.4264H192.247V71.5232C192.247 72.9756 191.417 73.9023 190.103 73.9023ZM198.349 73.6672C198.045 73.764 197.782 73.8193 197.547 73.8193C197.007 73.8193 196.703 73.515 196.703 72.8511V68.5632H198.349V67.761H196.703V65.2712L195.748 65.9905V67.761H194.614V68.5632H195.748V72.9756C195.748 74.179 196.412 74.6907 197.325 74.6907C197.643 74.6907 198.003 74.6216 198.363 74.5109L198.349 73.6672ZM210.996 67.6503C209.959 67.6503 209.198 68.0929 208.756 68.9643C208.41 68.0653 207.704 67.6503 206.75 67.6503C205.989 67.6503 205.298 67.9131 204.869 68.5909V67.761H203.942L203.956 74.5801H204.91V71.3019C204.91 69.7528 205.284 68.4941 206.612 68.4941C207.801 68.4941 208.147 69.5038 208.147 70.638V74.5801H209.101V71.3019C209.101 69.7666 209.475 68.4941 210.858 68.4941C212.352 68.4941 212.352 70.0017 212.352 70.5827V74.5801H213.306V70.3199C213.306 68.7292 212.628 67.6503 210.996 67.6503ZM218.019 67.6503C216.857 67.6503 215.972 68.0929 215.239 69.0473L215.93 69.6283C216.483 68.8675 217.147 68.4941 218.005 68.4941C219.153 68.4941 219.775 69.1442 219.775 70.3337V70.6518H218.378C217.037 70.6518 216.304 70.7763 215.778 71.0806C215.28 71.3849 215.003 71.9105 215.003 72.6021C215.003 73.9161 215.875 74.6907 217.355 74.6907C218.434 74.6907 219.264 74.2896 219.803 73.5289L219.858 74.5801H220.73V70.3337C220.73 68.6324 219.734 67.6503 218.019 67.6503ZM217.631 73.9023C216.608 73.9023 215.958 73.4182 215.958 72.6575C215.958 72.2702 216.082 71.9659 216.331 71.7722C216.663 71.5094 217.203 71.4264 218.461 71.4264H219.775V71.5232C219.775 72.9756 218.946 73.9023 217.631 73.9023ZM223.056 74.5801H224.01V72.5745L225.573 70.9146L227.952 74.5801H229.086L226.223 70.3199L228.699 67.761H227.413L224.01 71.3711V64.9393H223.056V74.5801ZM235.678 70.8316C235.678 69.2825 234.806 67.6503 232.718 67.6503C230.74 67.6503 229.689 69.2825 229.689 71.2051C229.689 73.1416 230.754 74.6907 232.828 74.6907C233.88 74.6907 234.668 74.3864 235.47 73.5427L234.806 72.9618C234.184 73.6257 233.589 73.8193 232.842 73.8193C231.501 73.8193 230.671 72.9203 230.643 71.4264H235.636C235.664 71.2604 235.678 71.0253 235.678 70.8316ZM232.718 68.4526C233.976 68.4526 234.682 69.2963 234.751 70.4029C234.751 70.5273 234.765 70.5965 234.765 70.6242H230.643C230.726 69.4208 231.487 68.4526 232.718 68.4526ZM239.664 74.6907C240.978 74.6907 242.113 73.9991 242.113 72.616C242.113 70.0294 238.171 71.053 238.171 69.4346C238.171 68.8399 238.71 68.4941 239.554 68.4941C240.398 68.4941 240.937 68.8814 241.269 69.49L242.03 69.075C241.559 68.1068 240.674 67.6503 239.581 67.6503C238.212 67.6503 237.244 68.3834 237.244 69.5729C237.244 71.9935 241.172 70.8593 241.172 72.6713C241.172 73.3905 240.577 73.847 239.651 73.847C238.586 73.847 237.922 73.2522 237.673 72.5468L236.87 72.9064C237.23 73.9991 238.323 74.6907 239.664 74.6907ZM248.576 77.4018H249.599L253.334 67.761H252.283L250.222 73.3767L247.87 67.761H246.819L249.71 74.4971L248.576 77.4018ZM257.279 74.6907C259.229 74.6907 260.557 73.1692 260.557 71.1636C260.557 69.1442 259.216 67.6503 257.279 67.6503C255.329 67.6503 254.015 69.1442 254.015 71.1636C254.015 73.1831 255.329 74.6907 257.279 74.6907ZM257.279 73.847C255.827 73.847 254.969 72.7128 254.969 71.1636C254.969 69.6283 255.813 68.4941 257.279 68.4941C258.732 68.4941 259.603 69.6144 259.603 71.1636C259.603 72.6851 258.745 73.847 257.279 73.847ZM266.733 67.761V70.9008C266.733 72.6713 266.055 73.847 264.699 73.847C263.399 73.847 263.205 72.8096 263.205 71.7031V67.761H262.251V71.9382C262.251 73.6257 262.929 74.6907 264.478 74.6907C265.377 74.6907 266.248 74.3311 266.733 73.598V74.5801H267.687V67.761H266.733ZM124.579 85.6365C123.611 85.6365 122.836 86.0099 122.324 86.6739V85.761H121.37V95.4018H122.324V91.6672C122.822 92.3034 123.583 92.6907 124.579 92.6907C126.571 92.6907 127.608 91.1969 127.608 89.1636C127.608 87.0335 126.474 85.6365 124.579 85.6365ZM124.441 91.847C123.002 91.847 122.241 90.7128 122.241 89.1636C122.241 87.5453 123.071 86.4802 124.441 86.4802C125.824 86.4802 126.654 87.5453 126.654 89.1636C126.654 90.7128 125.893 91.847 124.441 91.847ZM135.019 88.8316C135.019 87.2825 134.147 85.6503 132.059 85.6503C130.081 85.6503 129.029 87.2825 129.029 89.2051C129.029 91.1416 130.094 92.6907 132.169 92.6907C133.22 92.6907 134.009 92.3864 134.811 91.5427L134.147 90.9618C133.525 91.6257 132.93 91.8193 132.183 91.8193C130.841 91.8193 130.011 90.9203 129.984 89.4264H134.977C135.005 89.2604 135.019 89.0253 135.019 88.8316ZM132.059 86.4526C133.317 86.4526 134.023 87.2963 134.092 88.4029C134.092 88.5273 134.106 88.5965 134.106 88.6242H129.984C130.067 87.4208 130.828 86.4526 132.059 86.4526ZM139.918 85.6503C139.227 85.6503 138.397 85.8855 137.899 86.7845V85.761H136.944V92.5801H137.899V88.7763C137.899 87.2963 138.673 86.5079 139.725 86.5079C140.015 86.5079 140.306 86.5771 140.624 86.7154L141.094 85.9408C140.72 85.7333 140.333 85.6503 139.918 85.6503ZM143.276 92.5801H144.23V86.5632H146.194V85.761H144.23V84.6406C144.23 84.0043 144.562 83.6309 145.101 83.6309C145.337 83.6309 145.599 83.7139 145.89 83.8522L146.222 83.0914C145.793 82.9116 145.378 82.8286 145.005 82.8286C144.133 82.8286 143.29 83.2574 143.29 84.7098V85.761H141.837V86.5632H143.276V92.5801ZM152.849 88.8316C152.849 87.2825 151.977 85.6503 149.889 85.6503C147.911 85.6503 146.86 87.2825 146.86 89.2051C146.86 91.1416 147.925 92.6907 149.999 92.6907C151.051 92.6907 151.839 92.3864 152.641 91.5427L151.977 90.9618C151.355 91.6257 150.76 91.8193 150.013 91.8193C148.672 91.8193 147.842 90.9203 147.814 89.4264H152.807C152.835 89.2604 152.849 89.0253 152.849 88.8316ZM149.889 86.4526C151.147 86.4526 151.853 87.2963 151.922 88.4029C151.922 88.5273 151.936 88.5965 151.936 88.6242H147.814C147.897 87.4208 148.658 86.4526 149.889 86.4526ZM157.292 92.6907C158.523 92.6907 159.519 92.0406 159.975 90.7958L159.09 90.4638C158.827 91.3352 158.149 91.847 157.292 91.847C155.826 91.847 155.176 90.5883 155.176 89.1913C155.176 87.7943 155.826 86.4941 157.278 86.4941C158.136 86.4941 158.813 87.0197 159.132 87.8911L160.044 87.5315C159.505 86.2589 158.495 85.6503 157.278 85.6503C155.217 85.6503 154.207 87.3931 154.207 89.1913C154.207 91.0862 155.314 92.6907 157.292 92.6907ZM164.62 91.6672C164.316 91.764 164.053 91.8193 163.818 91.8193C163.278 91.8193 162.974 91.515 162.974 90.8511V86.5632H164.62V85.761H162.974V83.2712L162.02 83.9905V85.761H160.886V86.5632H162.02V90.9756C162.02 92.179 162.684 92.6907 163.597 92.6907C163.915 92.6907 164.274 92.6216 164.634 92.5109L164.62 91.6672ZM170.642 92.5801H171.597V86.5632H173.561V85.761H171.597V84.6406C171.597 84.0043 171.929 83.6309 172.468 83.6309C172.703 83.6309 172.966 83.7139 173.256 83.8522L173.588 83.0914C173.16 82.9116 172.745 82.8286 172.371 82.8286C171.5 82.8286 170.656 83.2574 170.656 84.7098V85.761H169.204V86.5632H170.642V92.5801ZM177.449 92.6907C179.399 92.6907 180.727 91.1692 180.727 89.1636C180.727 87.1442 179.385 85.6503 177.449 85.6503C175.499 85.6503 174.185 87.1442 174.185 89.1636C174.185 91.1831 175.499 92.6907 177.449 92.6907ZM177.449 91.847C175.997 91.847 175.139 90.7128 175.139 89.1636C175.139 87.6283 175.983 86.4941 177.449 86.4941C178.901 86.4941 179.773 87.6144 179.773 89.1636C179.773 90.6851 178.915 91.847 177.449 91.847ZM185.628 85.6503C184.937 85.6503 184.107 85.8855 183.609 86.7845V85.761H182.654V92.5801H183.609V88.7763C183.609 87.2963 184.383 86.5079 185.435 86.5079C185.725 86.5079 186.015 86.5771 186.334 86.7154L186.804 85.9408C186.43 85.7333 186.043 85.6503 185.628 85.6503ZM194.823 91.6672C194.519 91.764 194.256 91.8193 194.021 91.8193C193.482 91.8193 193.177 91.515 193.177 90.8511V86.5632H194.823V85.761H193.177V83.2712L192.223 83.9905V85.761H191.089V86.5632H192.223V90.9756C192.223 92.179 192.887 92.6907 193.8 92.6907C194.118 92.6907 194.478 92.6216 194.837 92.5109L194.823 91.6672ZM199.857 85.6503C198.875 85.6503 198.045 86.0653 197.603 86.7569V82.9393H196.648V92.5801H197.603V89.4402C197.603 87.5591 198.336 86.4941 199.636 86.4941C200.659 86.4941 201.13 87.158 201.13 88.638V92.5801H202.084V88.4029C202.084 86.5909 201.323 85.6503 199.857 85.6503ZM204.359 84.3501H205.466V82.9393H204.359V84.3501ZM204.442 92.5801H205.397V85.761H204.442V92.5801ZM209.975 92.6907C211.289 92.6907 212.423 91.9991 212.423 90.616C212.423 88.0294 208.481 89.053 208.481 87.4346C208.481 86.8399 209.02 86.4941 209.864 86.4941C210.708 86.4941 211.247 86.8814 211.579 87.49L212.34 87.075C211.87 86.1068 210.984 85.6503 209.892 85.6503C208.522 85.6503 207.554 86.3834 207.554 87.5729C207.554 89.9935 211.482 88.8593 211.482 90.6713C211.482 91.3905 210.887 91.847 209.961 91.847C208.896 91.847 208.232 91.2522 207.983 90.5468L207.181 90.9064C207.54 91.9991 208.633 92.6907 209.975 92.6907ZM221.113 85.6503C220.421 85.6503 219.591 85.8855 219.093 86.7845V85.761H218.139V92.5801H219.093V88.7763C219.093 87.2963 219.868 86.5079 220.919 86.5079C221.21 86.5079 221.5 86.5771 221.818 86.7154L222.289 85.9408C221.915 85.7333 221.528 85.6503 221.113 85.6503ZM225.752 92.6907C227.703 92.6907 229.03 91.1692 229.03 89.1636C229.03 87.1442 227.689 85.6503 225.752 85.6503C223.802 85.6503 222.488 87.1442 222.488 89.1636C222.488 91.1831 223.802 92.6907 225.752 92.6907ZM225.752 91.847C224.3 91.847 223.442 90.7128 223.442 89.1636C223.442 87.6283 224.286 86.4941 225.752 86.4941C227.205 86.4941 228.076 87.6144 228.076 89.1636C228.076 90.6851 227.218 91.847 225.752 91.847ZM232.203 92.6907C232.507 92.6907 232.853 92.6077 233.143 92.5109L233.129 91.6948C232.922 91.764 232.687 91.8193 232.479 91.8193C232.023 91.8193 231.857 91.515 231.857 91.0447V82.9393H230.902V91.1001C230.902 92.1651 231.414 92.6907 232.203 92.6907ZM240.122 88.8316C240.122 87.2825 239.25 85.6503 237.162 85.6503C235.184 85.6503 234.133 87.2825 234.133 89.2051C234.133 91.1416 235.198 92.6907 237.272 92.6907C238.324 92.6907 239.112 92.3864 239.914 91.5427L239.25 90.9618C238.628 91.6257 238.033 91.8193 237.286 91.8193C235.945 91.8193 235.115 90.9203 235.087 89.4264H240.08C240.108 89.2604 240.122 89.0253 240.122 88.8316ZM237.162 86.4526C238.42 86.4526 239.126 87.2963 239.195 88.4029C239.195 88.5273 239.209 88.5965 239.209 88.6242H235.087C235.17 87.4208 235.931 86.4526 237.162 86.4526Z" fill="#626262"/>
<path d="M102.996 78.2855C102.996 86.1287 96.638 92.4865 88.7957 92.4865C80.9524 92.4865 74.5946 86.1286 74.5946 78.2855C74.5946 70.4432 80.9524 64.0848 88.7957 64.0848C96.638 64.0848 102.996 70.4431 102.996 78.2855Z" stroke="#ADB8FA" stroke-width="3.78685"/>
<g clip-path="url(#clip0_1858_5463)">
<path fill-rule="evenodd" clip-rule="evenodd" d="M295.494 58.472C300.767 58.472 305.041 62.7458 305.041 68.018C305.041 73.2902 300.767 77.564 295.494 77.564C290.222 77.564 285.948 73.2902 285.948 68.018C285.948 62.7458 290.222 58.472 295.494 58.472Z" fill="black" fill-opacity="0.01" stroke="#7686FF" stroke-width="1.89343"/>
<path fill-rule="evenodd" clip-rule="evenodd" d="M295.494 68.0144H294.626V61.9396H295.494V68.0144Z" fill="black" fill-opacity="0.01" stroke="#7686FF" stroke-width="0.946713"/>
<path fill-rule="evenodd" clip-rule="evenodd" d="M300.027 70.231L299.639 71.0072L294.432 68.4039L294.82 67.6275L300.027 70.231Z" fill="black" fill-opacity="0.01" stroke="#7686FF" stroke-width="0.946713"/>
</g>
</g>
<defs>
<filter id="filter0_bd_1858_5463" x="0.393787" y="0.247843" width="374.187" height="179.75" filterUnits="userSpaceOnUse" color-interpolation-filters="sRGB">
<feFlood flood-opacity="0" result="BackgroundImageFix"/>
<feGaussianBlur in="BackgroundImage" stdDeviation="12.175"/>
<feComposite in2="SourceAlpha" operator="in" result="effect1_backgroundBlur_1858_5463"/>
<feColorMatrix in="SourceAlpha" type="matrix" values="0 0 0 0 0 0 0 0 0 0 0 0 0 0 0 0 0 0 127 0" result="hardAlpha"/>
<feOffset dy="11.688"/>
<feGaussianBlur stdDeviation="29.2201"/>
<feComposite in2="hardAlpha" operator="out"/>
<feColorMatrix type="matrix" values="0 0 0 0 0.329412 0 0 0 0 0.407843 0 0 0 0 1 0 0 0 0.2 0"/>
<feBlend mode="normal" in2="effect1_backgroundBlur_1858_5463" result="effect2_dropShadow_1858_5463"/>
<feBlend mode="normal" in="SourceGraphic" in2="effect2_dropShadow_1858_5463" result="shape"/>
</filter>
<clipPath id="clip0_1858_5463">
<rect width="38.0376" height="32.2743" fill="white" transform="translate(274.969 51.8066)"/>
</clipPath>
</defs>
</svg>
