<svg width="88" height="111" viewBox="0 0 88 111" fill="none" xmlns="http://www.w3.org/2000/svg">
<g filter="url(#filter0_d_4_22)">
<path d="M62.275 46.4778L62.2749 46.4779C60.2788 48.175 59.3919 50.6838 59.94 53.1238L60.4024 55.179L60.5628 55.8918L59.9969 56.3538C58.8831 57.2633 57.7208 58.1181 56.5152 58.9161L55.7358 59.4321L55.0542 58.7925L50.9087 54.9028L62.275 46.4778ZM62.275 46.4778C66.7432 42.6785 69.8709 37.4093 70.7483 31.2917L62.275 46.4778ZM45.1747 52.7634C43.5902 52.8126 41.7464 52.8079 40.387 52.6129C25.6838 50.503 15.2425 37.5804 17.2464 23.6146L45.1747 52.7634ZM45.1747 52.7634C47.3133 52.6991 49.39 53.4808 50.9079 54.902L45.1747 52.7634ZM47.6076 2.29331C32.917 0.185214 19.2465 9.66141 17.2464 23.6144L70.7483 31.2916C72.7523 17.3258 62.3092 4.40291 47.6076 2.29331Z" stroke="white" stroke-width="2.36364"/>
<path fill-rule="evenodd" clip-rule="evenodd" d="M61.5095 45.5775C59.2017 47.5395 58.1363 50.4857 58.787 53.3828L59.2495 55.4384C58.1667 56.3225 57.0362 57.154 55.8629 57.9307L51.7166 54.0402C49.9664 52.401 47.5846 51.5086 45.1393 51.5822C43.5621 51.6311 41.8057 51.6225 40.555 51.443C26.4259 49.4156 16.515 37.0325 18.4163 23.7823C20.3137 10.5452 33.3232 1.43742 47.4399 3.46312C61.5673 5.49032 71.4799 17.8737 69.5785 31.1238C68.7448 36.9371 65.7732 41.952 61.5095 45.5775Z" fill="#7E8DFF"/>
</g>
<path fill-rule="evenodd" clip-rule="evenodd" d="M61.5644 45.1953C59.2566 47.1574 58.1912 50.1036 58.8419 53.0006L59.3044 55.0562C58.2216 55.9403 57.0911 56.7718 55.9178 57.5485L51.7715 53.658C50.0213 52.0188 47.6394 51.1264 45.1942 51.2C43.6169 51.2489 41.8606 51.2403 40.6099 51.0608C38.8991 41.7515 38.8991 41.7515 38.5934 39.3197C41.9942 36.8229 43.9142 40.0833 40.9108 31.8918C50.4428 23.7082 48.3522 25.7961 52.2866 15.0184C65.4827 27.0603 57.0473 19.2833 69.6334 30.7417C69.0301 34.9486 67.3071 38.7375 64.785 41.8842C63.822 43.0857 62.7425 44.1935 61.5644 45.1953Z" fill="#6174FE"/>
<path fill-rule="evenodd" clip-rule="evenodd" d="M48.7947 28.0602C46.1052 29.4951 45.8818 30.7336 45.5722 32.8913C45.4591 33.6799 44.8859 34.5289 42.7175 34.2177C40.9036 33.9574 40.3737 33.2463 40.6833 31.0886C41.1954 27.52 43.121 26.06 44.5526 25.2067C46.1796 24.2545 48.842 23.3237 49.1635 21.0832C49.4374 19.1745 47.7988 18.0075 45.5861 17.69C41.0731 17.0424 41.5879 20.3771 39.1987 20.0342C38.004 19.8628 36.651 18.9064 36.8832 17.2879C37.2047 15.0477 40.4244 12.1216 46.3981 12.9787C52.0615 13.7914 55.3997 17.2774 54.84 21.1775C54.2803 25.0779 50.1144 27.3602 48.7947 28.0602ZM45.3 40.771C45.0559 42.472 43.337 43.7501 41.4342 43.4771C39.5322 43.2041 38.2863 41.5006 38.5304 39.7996C38.7805 38.0566 40.4934 36.8202 42.3511 37.0868C44.2097 37.3535 45.5501 39.028 45.3 40.771Z" fill="white"/>
<defs>
<filter id="filter0_d_4_22" x="0.211982" y="0.81881" width="87.5708" height="109.72" filterUnits="userSpaceOnUse" color-interpolation-filters="sRGB">
<feFlood flood-opacity="0" result="BackgroundImageFix"/>
<feColorMatrix in="SourceAlpha" type="matrix" values="0 0 0 0 0 0 0 0 0 0 0 0 0 0 0 0 0 0 127 0" result="hardAlpha"/>
<feOffset dy="34"/>
<feGaussianBlur stdDeviation="7.80267"/>
<feColorMatrix type="matrix" values="0 0 0 0 0.235294 0 0 0 0 0.501961 0 0 0 0 0.819608 0 0 0 0.09 0"/>
<feBlend mode="normal" in2="BackgroundImageFix" result="effect1_dropShadow_4_22"/>
<feBlend mode="normal" in="SourceGraphic" in2="effect1_dropShadow_4_22" result="shape"/>
</filter>
</defs>
</svg>
