<svg viewBox="0 0 338 495" fill="none" xmlns="http://www.w3.org/2000/svg">
<g filter="url(#filter0_b_1858_2582)">
<path d="M0 30C0 13.4314 13.4315 0 30 0H308C324.569 0 338 13.4315 338 30V442C338 458.569 324.569 472 308 472H169H30C13.4315 472 0 458.569 0 442V30Z" fill="url(#paint0_linear_1858_2582)" fill-opacity="0.95"/>
<path d="M188.196 472L175.119 490.892C174.745 491.431 174.328 491.943 173.852 492.395C170.281 495.786 168.322 495.781 164.759 492.385C164.282 491.93 163.863 491.415 163.489 490.872L150.5 472H188.196Z" fill="url(#paint1_linear_1858_2582)" fill-opacity="0.95"/>
<g clip-path="url(#clip0_1858_2582)">
<path d="M75.584 427H79.202C83.45 427 85.754 424.822 85.754 420.826C85.754 416.758 83.378 414.454 79.22 414.454H75.584V427ZM77.834 424.93V416.524H79.184C82.154 416.524 83.486 417.838 83.486 420.736C83.486 423.688 82.154 424.93 78.986 424.93H77.834ZM95.318 422.446C95.318 419.98 93.986 417.946 91.232 417.946C88.28 417.946 87.02 420.286 87.02 422.608C87.02 424.984 88.316 427.18 91.376 427.18C92.87 427.18 94.04 426.658 95.012 425.578L93.518 424.264C92.906 424.966 92.186 425.218 91.394 425.218C89.99 425.218 89.27 424.444 89.18 423.274H95.264C95.3 422.986 95.318 422.716 95.318 422.446ZM89.162 421.564C89.288 420.682 89.9 419.746 91.214 419.746C92.348 419.746 93.212 420.43 93.248 421.564H89.162ZM100.53 417.946C98.91 417.946 97.596 418.576 96.534 419.854L98.1 421.168C98.748 420.304 99.594 419.836 100.494 419.836C101.52 419.836 102.168 420.43 102.168 421.402V421.654H99.954C98.946 421.654 98.19 421.78 97.596 422.05C96.732 422.446 96.264 423.238 96.264 424.282C96.264 425.974 97.596 427.18 99.468 427.18C100.638 427.18 101.646 426.676 102.168 425.848L102.348 427H104.328V421.402C104.328 419.26 102.87 417.946 100.53 417.946ZM99.81 425.344C98.946 425.344 98.424 424.948 98.424 424.318C98.424 423.994 98.55 423.742 98.784 423.58C99.072 423.364 99.504 423.274 100.242 423.274H102.168C102.168 424.426 101.106 425.344 99.81 425.344ZM110.095 427.18C111.859 427.18 113.227 426.208 113.821 424.552L111.859 423.796C111.625 424.714 110.941 425.29 110.077 425.29C108.565 425.29 108.007 423.994 108.007 422.59C108.007 421.186 108.583 419.836 110.077 419.836C110.959 419.836 111.625 420.43 111.859 421.366L113.911 420.556C113.227 418.792 111.841 417.946 110.077 417.946C107.179 417.946 105.793 420.25 105.793 422.59C105.793 424.93 107.197 427.18 110.095 427.18ZM120.195 419.836V418.126H117.981V414.814L115.821 416.416V418.126H114.381V419.836H115.821V424.516C115.821 426.406 117.081 427.18 118.575 427.18C119.115 427.18 119.655 427.09 120.195 426.91V425.182C119.799 425.308 119.421 425.38 119.115 425.38C118.413 425.38 117.981 425.056 117.981 424.354V419.836H120.195ZM122.034 416.452H124.302V414.454H122.034V416.452ZM122.088 427H124.248V418.126H122.088V427ZM129.032 427H130.814L134.432 418.126H132.092L129.914 424.192L127.772 418.126H125.414L129.032 427ZM139.009 417.946C137.389 417.946 136.075 418.576 135.013 419.854L136.579 421.168C137.227 420.304 138.073 419.836 138.973 419.836C139.999 419.836 140.647 420.43 140.647 421.402V421.654H138.433C137.425 421.654 136.669 421.78 136.075 422.05C135.211 422.446 134.743 423.238 134.743 424.282C134.743 425.974 136.075 427.18 137.947 427.18C139.117 427.18 140.125 426.676 140.647 425.848L140.827 427H142.807V421.402C142.807 419.26 141.349 417.946 139.009 417.946ZM138.289 425.344C137.425 425.344 136.903 424.948 136.903 424.318C136.903 423.994 137.029 423.742 137.263 423.58C137.551 423.364 137.983 423.274 138.721 423.274H140.647C140.647 424.426 139.585 425.344 138.289 425.344ZM149.762 419.836V418.126H147.548V414.814L145.388 416.416V418.126H143.948V419.836H145.388V424.516C145.388 426.406 146.648 427.18 148.142 427.18C148.682 427.18 149.222 427.09 149.762 426.91V425.182C149.366 425.308 148.988 425.38 148.682 425.38C147.98 425.38 147.548 425.056 147.548 424.354V419.836H149.762ZM159.127 422.446C159.127 419.98 157.795 417.946 155.041 417.946C152.089 417.946 150.829 420.286 150.829 422.608C150.829 424.984 152.125 427.18 155.185 427.18C156.679 427.18 157.849 426.658 158.821 425.578L157.327 424.264C156.715 424.966 155.995 425.218 155.203 425.218C153.799 425.218 153.079 424.444 152.989 423.274H159.073C159.109 422.986 159.127 422.716 159.127 422.446ZM152.971 421.564C153.097 420.682 153.709 419.746 155.023 419.746C156.157 419.746 157.021 420.43 157.057 421.564H152.971ZM173.36 427H175.808L170.804 414.454H169.112L164.09 427H166.538L167.492 424.408H172.406L173.36 427ZM168.266 422.338L169.958 417.766L171.65 422.338H168.266ZM179.933 427.18C181.607 427.18 183.389 426.28 183.389 424.21C183.389 420.97 178.745 421.762 178.745 420.412C178.745 419.998 179.177 419.656 179.879 419.656C180.851 419.656 181.337 420.232 181.643 420.79L183.317 419.872C182.651 418.666 181.481 417.946 179.951 417.946C178.241 417.946 176.693 418.828 176.693 420.538C176.693 423.832 181.265 422.842 181.265 424.336C181.265 424.804 180.833 425.38 179.825 425.38C178.637 425.38 178.169 424.57 177.935 423.922L176.207 424.696C176.639 426.046 178.061 427.18 179.933 427.18ZM185.229 427H187.389V424.408L188.757 422.896L191.349 427H193.923L190.233 421.564L193.545 418.126H190.647L187.389 421.726V414.454H185.229V427ZM202.228 422.446C202.228 419.98 200.896 417.946 198.142 417.946C195.19 417.946 193.93 420.286 193.93 422.608C193.93 424.984 195.226 427.18 198.286 427.18C199.78 427.18 200.95 426.658 201.922 425.578L200.428 424.264C199.816 424.966 199.096 425.218 198.304 425.218C196.9 425.218 196.18 424.444 196.09 423.274H202.174C202.21 422.986 202.228 422.716 202.228 422.446ZM196.072 421.564C196.198 420.682 196.81 419.746 198.124 419.746C199.258 419.746 200.122 420.43 200.158 421.564H196.072ZM208.556 417.946C207.548 417.946 206.558 418.54 206.18 419.638V418.126H204.002V427H206.162V422.536C206.162 420.862 206.81 420.052 208.124 420.052C208.556 420.052 208.898 420.16 209.204 420.358L210.248 418.45C209.672 418.09 209.15 417.946 208.556 417.946Z" fill="white"/>
<path d="M76.3 442H77.164V434.428H80.068V433.636H73.408V434.428H76.3V442ZM82.5893 435.988C81.5813 435.988 80.8133 436.372 80.1773 437.2L80.7773 437.704C81.2573 437.044 81.8333 436.72 82.5773 436.72C83.5733 436.72 84.1133 437.284 84.1133 438.316V438.592H82.9013C81.7373 438.592 81.1013 438.7 80.6453 438.964C80.2133 439.228 79.9733 439.684 79.9733 440.284C79.9733 441.424 80.7293 442.096 82.0133 442.096C82.9493 442.096 83.6693 441.748 84.1373 441.088L84.1853 442H84.9413V438.316C84.9413 436.84 84.0773 435.988 82.5893 435.988ZM82.2533 441.412C81.3653 441.412 80.8013 440.992 80.8013 440.332C80.8013 439.996 80.9093 439.732 81.1253 439.564C81.4133 439.336 81.8813 439.264 82.9733 439.264H84.1133V439.348C84.1133 440.608 83.3933 441.412 82.2533 441.412ZM86.9592 442H87.7872V440.26L89.1432 438.82L91.2072 442H92.1912L89.7072 438.304L91.8552 436.084H90.7392L87.7872 439.216V433.636H86.9592V442ZM97.9096 438.748C97.9096 437.404 97.1536 435.988 95.3416 435.988C93.6256 435.988 92.7136 437.404 92.7136 439.072C92.7136 440.752 93.6376 442.096 95.4376 442.096C96.3496 442.096 97.0336 441.832 97.7296 441.1L97.1536 440.596C96.6136 441.172 96.0976 441.34 95.4496 441.34C94.2856 441.34 93.5656 440.56 93.5416 439.264H97.8736C97.8976 439.12 97.9096 438.916 97.9096 438.748ZM95.3416 436.684C96.4336 436.684 97.0456 437.416 97.1056 438.376C97.1056 438.484 97.1176 438.544 97.1176 438.568H93.5416C93.6136 437.524 94.2736 436.684 95.3416 436.684ZM105.31 441.208C105.046 441.292 104.818 441.34 104.614 441.34C104.146 441.34 103.882 441.076 103.882 440.5V436.78H105.31V436.084H103.882V433.924L103.054 434.548V436.084H102.07V436.78H103.054V440.608C103.054 441.652 103.63 442.096 104.422 442.096C104.698 442.096 105.01 442.036 105.322 441.94L105.31 441.208ZM109.677 435.988C108.825 435.988 108.105 436.348 107.721 436.948V433.636H106.893V442H107.721V439.276C107.721 437.644 108.357 436.72 109.485 436.72C110.373 436.72 110.781 437.296 110.781 438.58V442H111.609V438.376C111.609 436.804 110.949 435.988 109.677 435.988ZM113.583 434.86H114.543V433.636H113.583V434.86ZM113.655 442H114.483V436.084H113.655V442ZM118.454 442.096C119.594 442.096 120.578 441.496 120.578 440.296C120.578 438.052 117.158 438.94 117.158 437.536C117.158 437.02 117.626 436.72 118.358 436.72C119.09 436.72 119.558 437.056 119.846 437.584L120.506 437.224C120.098 436.384 119.33 435.988 118.382 435.988C117.194 435.988 116.354 436.624 116.354 437.656C116.354 439.756 119.762 438.772 119.762 440.344C119.762 440.968 119.246 441.364 118.442 441.364C117.518 441.364 116.942 440.848 116.726 440.236L116.03 440.548C116.342 441.496 117.29 442.096 118.454 442.096ZM130.889 442H131.837L128.705 433.636H127.997L124.877 442H125.813L126.617 439.756H130.097L130.889 442ZM126.869 439.024L128.357 434.848L129.833 439.024H126.869ZM135.153 442.096C136.293 442.096 137.277 441.496 137.277 440.296C137.277 438.052 133.857 438.94 133.857 437.536C133.857 437.02 134.325 436.72 135.057 436.72C135.789 436.72 136.257 437.056 136.545 437.584L137.205 437.224C136.797 436.384 136.029 435.988 135.081 435.988C133.893 435.988 133.053 436.624 133.053 437.656C133.053 439.756 136.461 438.772 136.461 440.344C136.461 440.968 135.945 441.364 135.141 441.364C134.217 441.364 133.641 440.848 133.425 440.236L132.729 440.548C133.041 441.496 133.989 442.096 135.153 442.096ZM138.955 442H139.783V440.26L141.139 438.82L143.203 442H144.187L141.703 438.304L143.851 436.084H142.735L139.783 439.216V433.636H138.955V442ZM149.906 438.748C149.906 437.404 149.15 435.988 147.338 435.988C145.622 435.988 144.71 437.404 144.71 439.072C144.71 440.752 145.634 442.096 147.434 442.096C148.346 442.096 149.03 441.832 149.726 441.1L149.15 440.596C148.61 441.172 148.094 441.34 147.446 441.34C146.282 441.34 145.562 440.56 145.538 439.264H149.87C149.894 439.12 149.906 438.916 149.906 438.748ZM147.338 436.684C148.43 436.684 149.042 437.416 149.102 438.376C149.102 438.484 149.114 438.544 149.114 438.568H145.538C145.61 437.524 146.27 436.684 147.338 436.684ZM154.156 435.988C153.556 435.988 152.836 436.192 152.404 436.972V436.084H151.576V442H152.404V438.7C152.404 437.416 153.076 436.732 153.988 436.732C154.24 436.732 154.492 436.792 154.768 436.912L155.176 436.24C154.852 436.06 154.516 435.988 154.156 435.988ZM162.002 442.096C163.694 442.096 164.846 440.776 164.846 439.036C164.846 437.284 163.682 435.988 162.002 435.988C160.31 435.988 159.17 437.284 159.17 439.036C159.17 440.788 160.31 442.096 162.002 442.096ZM162.002 441.364C160.742 441.364 159.998 440.38 159.998 439.036C159.998 437.704 160.73 436.72 162.002 436.72C163.262 436.72 164.018 437.692 164.018 439.036C164.018 440.356 163.274 441.364 162.002 441.364ZM174.054 442.096C174.318 442.096 174.63 442.024 174.93 441.94L174.918 441.232C174.702 441.304 174.486 441.34 174.354 441.34C174.006 441.34 173.802 441.136 173.802 440.656V434.128C173.238 433.744 172.662 433.54 171.918 433.54C171.354 433.54 170.85 433.696 170.478 433.996C170.022 433.684 169.434 433.54 168.906 433.54C167.658 433.54 166.65 434.32 166.65 435.544V436.084H165.63V436.78H166.65V442H167.478V436.78H169.818V442H170.634V436.78H171.978V436.084H170.634V435.616C170.634 434.644 171.102 434.224 171.954 434.224C172.314 434.224 172.686 434.32 172.974 434.488V440.872C172.974 441.724 173.394 442.096 174.054 442.096ZM167.478 436.084V435.556C167.478 434.764 168.006 434.224 168.942 434.224C169.362 434.224 169.77 434.332 170.07 434.524C169.914 434.788 169.818 435.148 169.818 435.604V436.084H167.478ZM176.208 434.86H177.168V433.636H176.208V434.86ZM176.28 442H177.108V436.084H176.28V442ZM182.075 435.988C181.223 435.988 180.503 436.348 180.119 436.948V436.084H179.291V442H180.119V439.348C180.119 437.68 180.767 436.72 181.883 436.72C182.771 436.72 183.179 437.308 183.179 438.58V442H184.007V438.376C184.007 436.804 183.347 435.988 182.075 435.988ZM190.769 438.748C190.769 437.404 190.013 435.988 188.201 435.988C186.485 435.988 185.573 437.404 185.573 439.072C185.573 440.752 186.497 442.096 188.297 442.096C189.209 442.096 189.893 441.832 190.589 441.1L190.013 440.596C189.473 441.172 188.957 441.34 188.309 441.34C187.145 441.34 186.425 440.56 186.401 439.264H190.733C190.757 439.12 190.769 438.916 190.769 438.748ZM188.201 436.684C189.293 436.684 189.905 437.416 189.965 438.376C189.965 438.484 189.977 438.544 189.977 438.568H186.401C186.473 437.524 187.133 436.684 188.201 436.684Z" fill="white"/>
</g>
<rect x="24" y="425.441" width="35.9091" height="8" rx="4" fill="#00D9CD"/>
<g filter="url(#filter1_d_1858_2582)">
<ellipse cx="49.4354" cy="429.941" rx="10.4735" ry="10.5" fill="#00D9CD"/>
<path d="M56.9089 429.941C56.9089 434.091 53.5558 437.441 49.4354 437.441C45.3151 437.441 41.9619 434.091 41.9619 429.941C41.9619 425.792 45.3151 422.441 49.4354 422.441C53.5558 422.441 56.9089 425.792 56.9089 429.941Z" stroke="white" stroke-width="6"/>
</g>
<path fill-rule="evenodd" clip-rule="evenodd" d="M42.0002 319.441C50.2844 319.441 57.0001 312.726 57.0001 304.441C57.0001 296.157 50.2844 289.441 42.0002 289.441C33.7159 289.441 27.0001 296.157 27.0001 304.441C27.0001 312.726 33.7159 319.441 42.0002 319.441Z" fill="#ADB8FA"/>
<path d="M39.494 302.115C41.0335 302.115 42.2687 300.873 42.2687 299.333C42.2687 297.794 41.0335 296.559 39.494 296.559C37.9545 296.559 36.7063 297.8 36.7063 299.34C36.7063 300.879 37.948 302.115 39.494 302.115ZM39.5764 303.971C37.3843 303.971 33 305.054 33 307.214V309.533H39.5764V307.449C39.5764 306.663 39.8872 305.282 41.8068 304.23C40.9887 304.065 40.1973 303.971 39.5764 303.971Z" fill="white"/>
<path d="M46.672 304.898C48.4456 304.898 52.0002 305.753 52.0002 307.445V309.529H41.3438V307.445C41.3438 305.753 44.8983 304.898 46.672 304.898ZM46.9068 298.41C48.1868 298.41 49.219 299.449 49.219 300.729C49.219 302.008 48.1861 303.047 46.9068 303.047C45.6268 303.047 44.5882 302.008 44.5882 300.729C44.5882 299.449 45.6268 298.41 46.9068 298.41Z" fill="white"/>
<g clip-path="url(#clip1_1858_2582)">
<path d="M80.804 303.27C83.486 303.27 85.502 301.956 86.402 299.526L84.296 298.734C83.756 300.318 82.532 301.128 80.804 301.128C78.392 301.128 76.97 299.526 76.97 296.7C76.97 293.892 78.374 292.308 80.804 292.308C82.514 292.308 83.738 293.082 84.296 294.648L86.366 293.838C85.448 291.444 83.45 290.166 80.804 290.166C77.096 290.166 74.72 292.704 74.72 296.718C74.72 300.732 77.096 303.27 80.804 303.27ZM91.412 303.18C94.148 303.18 95.858 301.056 95.858 298.554C95.858 296.034 94.148 293.946 91.412 293.946C88.658 293.946 86.966 296.034 86.966 298.554C86.966 301.056 88.658 303.18 91.412 303.18ZM91.412 301.29C89.774 301.29 89.126 299.994 89.126 298.554C89.126 297.096 89.774 295.836 91.412 295.836C93.05 295.836 93.698 297.096 93.698 298.554C93.698 299.994 93.05 301.29 91.412 301.29ZM99.5822 303.18C99.9962 303.18 100.482 303.09 100.968 302.91V301.182C100.716 301.254 100.482 301.29 100.284 301.29C99.8882 301.29 99.6542 301.128 99.6542 300.732V290.454H97.4942V300.876C97.4942 302.46 98.3762 303.18 99.5822 303.18ZM104.592 303.18C105.006 303.18 105.492 303.09 105.978 302.91V301.182C105.726 301.254 105.492 301.29 105.294 301.29C104.898 301.29 104.664 301.128 104.664 300.732V290.454H102.504V300.876C102.504 302.46 103.386 303.18 104.592 303.18ZM110.989 293.946C109.369 293.946 108.055 294.576 106.993 295.854L108.559 297.168C109.207 296.304 110.053 295.836 110.953 295.836C111.979 295.836 112.627 296.43 112.627 297.402V297.654H110.413C109.405 297.654 108.649 297.78 108.055 298.05C107.191 298.446 106.723 299.238 106.723 300.282C106.723 301.974 108.055 303.18 109.927 303.18C111.097 303.18 112.105 302.676 112.627 301.848L112.807 303H114.787V297.402C114.787 295.26 113.329 293.946 110.989 293.946ZM110.269 301.344C109.405 301.344 108.883 300.948 108.883 300.318C108.883 299.994 109.009 299.742 109.243 299.58C109.531 299.364 109.963 299.274 110.701 299.274H112.627C112.627 300.426 111.565 301.344 110.269 301.344ZM121.795 293.946C120.787 293.946 119.797 294.36 119.239 295.026V290.454H117.079V303H119.239V302.118C119.851 302.874 120.841 303.18 121.795 303.18C124.207 303.18 125.539 301.218 125.539 298.554C125.539 295.656 123.973 293.946 121.795 293.946ZM121.273 301.182C119.707 301.182 119.041 300.048 119.041 298.572C119.041 297.096 119.707 295.908 121.255 295.908C122.695 295.908 123.379 296.916 123.379 298.572C123.379 300.21 122.713 301.182 121.273 301.182ZM131.033 303.18C133.769 303.18 135.479 301.056 135.479 298.554C135.479 296.034 133.769 293.946 131.033 293.946C128.279 293.946 126.587 296.034 126.587 298.554C126.587 301.056 128.279 303.18 131.033 303.18ZM131.033 301.29C129.395 301.29 128.747 299.994 128.747 298.554C128.747 297.096 129.395 295.836 131.033 295.836C132.671 295.836 133.319 297.096 133.319 298.554C133.319 299.994 132.671 301.29 131.033 301.29ZM141.759 293.946C140.751 293.946 139.761 294.54 139.383 295.638V294.126H137.205V303H139.365V298.536C139.365 296.862 140.013 296.052 141.327 296.052C141.759 296.052 142.101 296.16 142.407 296.358L143.451 294.45C142.875 294.09 142.353 293.946 141.759 293.946ZM148.044 293.946C146.424 293.946 145.11 294.576 144.048 295.854L145.614 297.168C146.262 296.304 147.108 295.836 148.008 295.836C149.034 295.836 149.682 296.43 149.682 297.402V297.654H147.468C146.46 297.654 145.704 297.78 145.11 298.05C144.246 298.446 143.778 299.238 143.778 300.282C143.778 301.974 145.11 303.18 146.982 303.18C148.152 303.18 149.16 302.676 149.682 301.848L149.862 303H151.842V297.402C151.842 295.26 150.384 293.946 148.044 293.946ZM147.324 301.344C146.46 301.344 145.938 300.948 145.938 300.318C145.938 299.994 146.064 299.742 146.298 299.58C146.586 299.364 147.018 299.274 147.756 299.274H149.682C149.682 300.426 148.62 301.344 147.324 301.344ZM158.797 295.836V294.126H156.583V290.814L154.423 292.416V294.126H152.983V295.836H154.423V300.516C154.423 302.406 155.683 303.18 157.177 303.18C157.717 303.18 158.257 303.09 158.797 302.91V301.182C158.401 301.308 158.023 301.38 157.717 301.38C157.015 301.38 156.583 301.056 156.583 300.354V295.836H158.797ZM168.162 298.446C168.162 295.98 166.83 293.946 164.076 293.946C161.124 293.946 159.864 296.286 159.864 298.608C159.864 300.984 161.16 303.18 164.22 303.18C165.714 303.18 166.884 302.658 167.856 301.578L166.362 300.264C165.75 300.966 165.03 301.218 164.238 301.218C162.834 301.218 162.114 300.444 162.024 299.274H168.108C168.144 298.986 168.162 298.716 168.162 298.446ZM162.006 297.564C162.132 296.682 162.744 295.746 164.058 295.746C165.192 295.746 166.056 296.43 166.092 297.564H162.006Z" fill="white"/>
<path d="M76.528 318.12C78.256 318.12 79.228 317.22 79.228 315.816C79.228 314.652 78.7 313.98 76.84 313.272C75.52 312.768 74.944 312.36 74.944 311.592C74.944 310.884 75.568 310.284 76.444 310.284C77.164 310.284 77.776 310.668 78.136 311.316L78.856 310.872C78.352 309.984 77.524 309.516 76.468 309.516C75.052 309.516 74.092 310.356 74.092 311.628C74.092 312.72 74.68 313.32 76.372 313.956C77.848 314.52 78.364 314.988 78.364 315.888C78.364 316.716 77.752 317.352 76.54 317.352C75.412 317.352 74.596 316.668 74.44 315.588L73.588 315.792C73.816 317.196 74.98 318.12 76.528 318.12ZM83.708 311.988C82.856 311.988 82.136 312.348 81.752 312.948V309.636H80.924V318H81.752V315.276C81.752 313.644 82.388 312.72 83.516 312.72C84.404 312.72 84.812 313.296 84.812 314.58V318H85.64V314.376C85.64 312.804 84.98 311.988 83.708 311.988ZM89.7378 311.988C88.7298 311.988 87.9618 312.372 87.3258 313.2L87.9258 313.704C88.4058 313.044 88.9818 312.72 89.7258 312.72C90.7218 312.72 91.2618 313.284 91.2618 314.316V314.592H90.0498C88.8858 314.592 88.2498 314.7 87.7938 314.964C87.3618 315.228 87.1218 315.684 87.1218 316.284C87.1218 317.424 87.8778 318.096 89.1618 318.096C90.0978 318.096 90.8178 317.748 91.2858 317.088L91.3338 318H92.0898V314.316C92.0898 312.84 91.2258 311.988 89.7378 311.988ZM89.4018 317.412C88.5138 317.412 87.9498 316.992 87.9498 316.332C87.9498 315.996 88.0578 315.732 88.2738 315.564C88.5618 315.336 89.0298 315.264 90.1217 315.264H91.2618V315.348C91.2618 316.608 90.5418 317.412 89.4018 317.412ZM96.6876 311.988C96.0876 311.988 95.3676 312.192 94.9356 312.972V312.084H94.1076V318H94.9356V314.7C94.9356 313.416 95.6076 312.732 96.5196 312.732C96.7716 312.732 97.0236 312.792 97.2996 312.912L97.7076 312.24C97.3836 312.06 97.0476 311.988 96.6876 311.988ZM103.113 314.748C103.113 313.404 102.357 311.988 100.545 311.988C98.8287 311.988 97.9167 313.404 97.9167 315.072C97.9167 316.752 98.8407 318.096 100.641 318.096C101.553 318.096 102.237 317.832 102.933 317.1L102.357 316.596C101.817 317.172 101.301 317.34 100.653 317.34C99.4887 317.34 98.7687 316.56 98.7447 315.264H103.077C103.101 315.12 103.113 314.916 103.113 314.748ZM100.545 312.684C101.637 312.684 102.249 313.416 102.309 314.376C102.309 314.484 102.321 314.544 102.321 314.568H98.7447C98.8167 313.524 99.4767 312.684 100.545 312.684ZM113.417 318H114.365L111.233 309.636H110.525L107.405 318H108.341L109.145 315.756H112.625L113.417 318ZM109.397 315.024L110.885 310.848L112.361 315.024H109.397ZM119.892 309.636V312.876C119.448 312.3 118.776 311.976 117.936 311.976C116.292 311.976 115.308 313.188 115.308 315.036C115.308 316.8 116.208 318.096 117.936 318.096C118.8 318.096 119.46 317.76 119.892 317.208V318H120.72V309.636H119.892ZM118.056 317.364C116.796 317.364 116.136 316.38 116.136 315.036C116.136 313.632 116.856 312.708 118.056 312.708C119.244 312.708 119.964 313.632 119.964 315.036C119.964 316.38 119.304 317.364 118.056 317.364ZM129.009 311.988C128.109 311.988 127.449 312.372 127.065 313.128C126.765 312.348 126.153 311.988 125.325 311.988C124.665 311.988 124.065 312.216 123.693 312.804V312.084H122.889L122.901 318H123.729V315.156C123.729 313.812 124.053 312.72 125.205 312.72C126.237 312.72 126.537 313.596 126.537 314.58V318H127.365V315.156C127.365 313.824 127.689 312.72 128.889 312.72C130.185 312.72 130.185 314.028 130.185 314.532V318H131.013V314.304C131.013 312.924 130.425 311.988 129.009 311.988ZM132.977 310.86H133.937V309.636H132.977V310.86ZM133.049 318H133.877V312.084H133.049V318ZM138.845 311.988C137.993 311.988 137.273 312.348 136.889 312.948V312.084H136.061V318H136.889V315.348C136.889 313.68 137.537 312.72 138.653 312.72C139.541 312.72 139.949 313.308 139.949 314.58V318H140.777V314.376C140.777 312.804 140.117 311.988 138.845 311.988ZM151.456 318H152.404L149.272 309.636H148.564L145.444 318H146.38L147.184 315.756H150.664L151.456 318ZM147.436 315.024L148.924 310.848L150.4 315.024H147.436ZM155.999 318.096C157.067 318.096 157.931 317.532 158.327 316.452L157.559 316.164C157.331 316.92 156.743 317.364 155.999 317.364C154.727 317.364 154.163 316.272 154.163 315.06C154.163 313.848 154.727 312.72 155.987 312.72C156.731 312.72 157.319 313.176 157.595 313.932L158.387 313.62C157.919 312.516 157.043 311.988 155.987 311.988C154.199 311.988 153.323 313.5 153.323 315.06C153.323 316.704 154.283 318.096 155.999 318.096ZM162.034 318.096C163.102 318.096 163.966 317.532 164.362 316.452L163.594 316.164C163.366 316.92 162.778 317.364 162.034 317.364C160.762 317.364 160.198 316.272 160.198 315.06C160.198 313.848 160.762 312.72 162.022 312.72C162.766 312.72 163.354 313.176 163.63 313.932L164.422 313.62C163.954 312.516 163.078 311.988 162.022 311.988C160.234 311.988 159.358 313.5 159.358 315.06C159.358 316.704 160.318 318.096 162.034 318.096ZM170.601 314.748C170.601 313.404 169.845 311.988 168.033 311.988C166.317 311.988 165.405 313.404 165.405 315.072C165.405 316.752 166.329 318.096 168.129 318.096C169.041 318.096 169.725 317.832 170.421 317.1L169.845 316.596C169.305 317.172 168.789 317.34 168.141 317.34C166.977 317.34 166.257 316.56 166.233 315.264H170.565C170.589 315.12 170.601 314.916 170.601 314.748ZM168.033 312.684C169.125 312.684 169.737 313.416 169.797 314.376C169.797 314.484 169.809 314.544 169.809 314.568H166.233C166.305 313.524 166.965 312.684 168.033 312.684ZM174.06 318.096C175.2 318.096 176.184 317.496 176.184 316.296C176.184 314.052 172.764 314.94 172.764 313.536C172.764 313.02 173.232 312.72 173.964 312.72C174.696 312.72 175.164 313.056 175.452 313.584L176.112 313.224C175.704 312.384 174.936 311.988 173.988 311.988C172.8 311.988 171.96 312.624 171.96 313.656C171.96 315.756 175.368 314.772 175.368 316.344C175.368 316.968 174.852 317.364 174.048 317.364C173.124 317.364 172.548 316.848 172.332 316.236L171.636 316.548C171.948 317.496 172.896 318.096 174.06 318.096ZM179.65 318.096C180.79 318.096 181.774 317.496 181.774 316.296C181.774 314.052 178.354 314.94 178.354 313.536C178.354 313.02 178.822 312.72 179.554 312.72C180.286 312.72 180.754 313.056 181.042 313.584L181.702 313.224C181.294 312.384 180.526 311.988 179.578 311.988C178.39 311.988 177.55 312.624 177.55 313.656C177.55 315.756 180.958 314.772 180.958 316.344C180.958 316.968 180.442 317.364 179.638 317.364C178.714 317.364 178.138 316.848 177.922 316.236L177.226 316.548C177.538 317.496 178.486 318.096 179.65 318.096ZM189.181 317.208C188.917 317.292 188.689 317.34 188.485 317.34C188.017 317.34 187.753 317.076 187.753 316.5V312.78H189.181V312.084H187.753V309.924L186.925 310.548V312.084H185.941V312.78H186.925V316.608C186.925 317.652 187.501 318.096 188.293 318.096C188.569 318.096 188.881 318.036 189.193 317.94L189.181 317.208ZM193.021 318.096C194.713 318.096 195.865 316.776 195.865 315.036C195.865 313.284 194.701 311.988 193.021 311.988C191.329 311.988 190.189 313.284 190.189 315.036C190.189 316.788 191.329 318.096 193.021 318.096ZM193.021 317.364C191.761 317.364 191.017 316.38 191.017 315.036C191.017 313.704 191.749 312.72 193.021 312.72C194.281 312.72 195.037 313.692 195.037 315.036C195.037 316.356 194.293 317.364 193.021 317.364ZM203.267 317.208C203.003 317.292 202.775 317.34 202.571 317.34C202.103 317.34 201.839 317.076 201.839 316.5V312.78H203.267V312.084H201.839V309.924L201.011 310.548V312.084H200.027V312.78H201.011V316.608C201.011 317.652 201.587 318.096 202.379 318.096C202.655 318.096 202.967 318.036 203.279 317.94L203.267 317.208ZM207.634 311.988C206.782 311.988 206.062 312.348 205.678 312.948V309.636H204.85V318H205.678V315.276C205.678 313.644 206.314 312.72 207.442 312.72C208.33 312.72 208.738 313.296 208.738 314.58V318H209.566V314.376C209.566 312.804 208.906 311.988 207.634 311.988ZM211.54 310.86H212.5V309.636H211.54V310.86ZM211.612 318H212.44V312.084H211.612V318ZM216.411 318.096C217.551 318.096 218.535 317.496 218.535 316.296C218.535 314.052 215.115 314.94 215.115 313.536C215.115 313.02 215.583 312.72 216.315 312.72C217.047 312.72 217.515 313.056 217.803 313.584L218.463 313.224C218.055 312.384 217.287 311.988 216.339 311.988C215.151 311.988 214.311 312.624 214.311 313.656C214.311 315.756 217.719 314.772 217.719 316.344C217.719 316.968 217.203 317.364 216.399 317.364C215.475 317.364 214.899 316.848 214.683 316.236L213.987 316.548C214.299 317.496 215.247 318.096 216.411 318.096ZM228.846 318H229.794L226.662 309.636H225.954L222.834 318H223.77L224.574 315.756H228.054L228.846 318ZM224.826 315.024L226.314 310.848L227.79 315.024H224.826ZM233.11 318.096C234.25 318.096 235.234 317.496 235.234 316.296C235.234 314.052 231.814 314.94 231.814 313.536C231.814 313.02 232.282 312.72 233.014 312.72C233.746 312.72 234.214 313.056 234.502 313.584L235.162 313.224C234.754 312.384 233.986 311.988 233.038 311.988C231.85 311.988 231.01 312.624 231.01 313.656C231.01 315.756 234.418 314.772 234.418 316.344C234.418 316.968 233.902 317.364 233.098 317.364C232.174 317.364 231.598 316.848 231.382 316.236L230.686 316.548C230.998 317.496 231.946 318.096 233.11 318.096ZM236.912 318H237.74V316.26L239.096 314.82L241.16 318H242.144L239.66 314.304L241.808 312.084H240.692L237.74 315.216V309.636H236.912V318ZM247.863 314.748C247.863 313.404 247.107 311.988 245.295 311.988C243.579 311.988 242.667 313.404 242.667 315.072C242.667 316.752 243.591 318.096 245.391 318.096C246.303 318.096 246.987 317.832 247.683 317.1L247.107 316.596C246.567 317.172 246.051 317.34 245.403 317.34C244.239 317.34 243.519 316.56 243.495 315.264H247.827C247.851 315.12 247.863 314.916 247.863 314.748ZM245.295 312.684C246.387 312.684 246.999 313.416 247.059 314.376C247.059 314.484 247.071 314.544 247.071 314.568H243.495C243.567 313.524 244.227 312.684 245.295 312.684ZM252.113 311.988C251.513 311.988 250.793 312.192 250.361 312.972V312.084H249.533V318H250.361V314.7C250.361 313.416 251.033 312.732 251.945 312.732C252.197 312.732 252.449 312.792 252.725 312.912L253.133 312.24C252.809 312.06 252.473 311.988 252.113 311.988Z" fill="white"/>
</g>
<path fill-rule="evenodd" clip-rule="evenodd" d="M296.283 31.9297L296.99 31.2227L309.718 43.9504L309.011 44.6575L296.283 31.9297Z" fill="white" stroke="white"/>
<path fill-rule="evenodd" clip-rule="evenodd" d="M296.99 44.6563L296.283 43.9492L309.011 31.2214L309.718 31.9285L296.99 44.6563Z" fill="white" stroke="white"/>
<path fill-rule="evenodd" clip-rule="evenodd" d="M42.0002 163.441C50.2844 163.441 57.0001 156.726 57.0001 148.441C57.0001 140.157 50.2844 133.441 42.0002 133.441C33.7159 133.441 27.0001 140.157 27.0001 148.441C27.0001 156.726 33.7159 163.441 42.0002 163.441Z" fill="#ADB8FA"/>
<path d="M45.3865 150.962C44.4535 150.962 43.6183 151.388 43.0641 152.055L39.4592 150.008C39.5713 149.693 39.6329 149.354 39.6329 149C39.6329 148.647 39.5713 148.308 39.4592 147.992L43.0638 145.945C43.618 146.612 44.4533 147.038 45.3864 147.038C47.0506 147.038 48.4046 145.683 48.4046 144.019C48.4047 142.354 47.0507 141 45.3865 141C43.722 141 42.3679 142.354 42.3679 144.018C42.3679 144.372 42.4294 144.711 42.5416 145.027L38.9367 147.074C38.3826 146.407 37.5475 145.982 36.6147 145.982C34.95 145.982 33.5957 147.336 33.5957 149C33.5957 150.665 34.95 152.019 36.6147 152.019C37.5475 152.019 38.3825 151.593 38.9367 150.926L42.5416 152.973C42.4294 153.289 42.3678 153.628 42.3678 153.981C42.3678 155.646 43.722 157 45.3864 157C47.0507 157 48.4047 155.646 48.4047 153.981C48.4047 152.317 47.0507 150.962 45.3865 150.962Z" fill="white"/>
<g clip-path="url(#clip2_1858_2582)">
<path d="M75.584 147H77.816V141.798H79.688C82.46 141.798 83.954 140.502 83.954 138.072C83.954 135.678 82.496 134.454 79.688 134.454H75.584V147ZM77.816 139.728V136.524H79.454C81.056 136.524 81.704 136.974 81.704 138.108C81.704 139.242 81.038 139.728 79.454 139.728H77.816ZM90.86 138.126V141.492C90.86 143.076 90.86 145.29 88.844 145.29C87.206 145.29 87.206 143.742 87.206 143.13V138.126H85.046V143.67C85.046 145.56 85.982 147.18 88.214 147.18C89.258 147.18 90.23 146.82 90.86 145.974V147H93.02V138.126H90.86ZM100.279 137.946C99.2712 137.946 98.2812 138.36 97.7232 139.026V134.454H95.5632V147H97.7232V146.118C98.3352 146.874 99.3252 147.18 100.279 147.18C102.691 147.18 104.023 145.218 104.023 142.554C104.023 139.656 102.457 137.946 100.279 137.946ZM99.7572 145.182C98.1912 145.182 97.5252 144.048 97.5252 142.572C97.5252 141.096 98.1912 139.908 99.7392 139.908C101.179 139.908 101.863 140.916 101.863 142.572C101.863 144.21 101.197 145.182 99.7572 145.182ZM107.862 147.18C108.276 147.18 108.762 147.09 109.248 146.91V145.182C108.996 145.254 108.762 145.29 108.564 145.29C108.168 145.29 107.934 145.128 107.934 144.732V134.454H105.774V144.876C105.774 146.46 106.656 147.18 107.862 147.18ZM110.819 136.452H113.087V134.454H110.819V136.452ZM110.873 147H113.033V138.126H110.873V147ZM118.339 147.18C120.013 147.18 121.795 146.28 121.795 144.21C121.795 140.97 117.151 141.762 117.151 140.412C117.151 139.998 117.583 139.656 118.285 139.656C119.257 139.656 119.743 140.232 120.049 140.79L121.723 139.872C121.057 138.666 119.887 137.946 118.357 137.946C116.647 137.946 115.099 138.828 115.099 140.538C115.099 143.832 119.671 142.842 119.671 144.336C119.671 144.804 119.239 145.38 118.231 145.38C117.043 145.38 116.575 144.57 116.341 143.922L114.613 144.696C115.045 146.046 116.467 147.18 118.339 147.18ZM128.477 137.946C127.307 137.946 126.389 138.36 125.795 139.134V134.454H123.635V147H125.795V143.454C125.795 140.898 126.389 139.836 127.811 139.836C128.927 139.836 129.449 140.466 129.449 141.816V147H131.609V141.276C131.609 139.152 130.475 137.946 128.477 137.946ZM148.086 146.316L146.214 144.21C146.754 143.274 147.096 142.194 147.15 141.042L145.044 140.826C145.044 141.42 144.936 142.014 144.738 142.554L142.974 140.574C144.198 139.746 145.224 138.756 145.224 137.244C145.224 135.588 143.712 134.31 141.894 134.31C140.184 134.31 138.42 135.426 138.42 137.262C138.42 138.594 139.374 139.656 139.914 140.214C138.42 141.078 136.998 142.158 136.998 144.066C136.998 146.082 138.816 147.198 141.12 147.198C142.578 147.198 143.892 146.658 144.9 145.776L146.556 147.666L148.086 146.316ZM140.508 137.298C140.508 136.452 141.174 136.002 141.912 136.002C142.776 136.002 143.226 136.596 143.226 137.28C143.226 138.09 142.506 138.684 141.57 139.26C141.174 138.792 140.508 137.946 140.508 137.298ZM141.066 145.362C139.896 145.362 139.104 144.948 139.104 144.102C139.104 143.058 140.094 142.338 141.264 141.618L143.64 144.318C142.974 144.966 142.092 145.362 141.066 145.362ZM157.372 147.234C159.946 147.234 161.728 145.686 161.728 143.346C161.728 141.564 160.846 140.61 158.164 139.584C156.274 138.846 155.662 138.378 155.662 137.55C155.662 136.776 156.346 136.182 157.246 136.182C158.092 136.182 158.83 136.686 159.262 137.622L161.134 136.47C160.342 134.958 159.01 134.184 157.318 134.184C154.978 134.184 153.412 135.57 153.412 137.604C153.412 139.422 154.348 140.376 156.976 141.402C158.83 142.14 159.478 142.68 159.478 143.544C159.478 144.606 158.668 145.236 157.408 145.236C155.95 145.236 154.96 144.39 154.798 142.896L152.566 143.454C152.926 145.74 154.87 147.234 157.372 147.234ZM168.257 137.946C167.087 137.946 166.169 138.36 165.575 139.134V134.454H163.415V147H165.575V143.454C165.575 140.898 166.169 139.836 167.591 139.836C168.707 139.836 169.229 140.466 169.229 141.816V147H171.389V141.276C171.389 139.152 170.255 137.946 168.257 137.946ZM177.153 137.946C175.533 137.946 174.219 138.576 173.157 139.854L174.723 141.168C175.371 140.304 176.217 139.836 177.117 139.836C178.143 139.836 178.791 140.43 178.791 141.402V141.654H176.577C175.569 141.654 174.813 141.78 174.219 142.05C173.355 142.446 172.887 143.238 172.887 144.282C172.887 145.974 174.219 147.18 176.091 147.18C177.261 147.18 178.269 146.676 178.791 145.848L178.971 147H180.951V141.402C180.951 139.26 179.493 137.946 177.153 137.946ZM176.433 145.344C175.569 145.344 175.047 144.948 175.047 144.318C175.047 143.994 175.173 143.742 175.407 143.58C175.695 143.364 176.127 143.274 176.865 143.274H178.791C178.791 144.426 177.729 145.344 176.433 145.344ZM187.779 137.946C186.771 137.946 185.781 138.54 185.403 139.638V138.126H183.225V147H185.385V142.536C185.385 140.862 186.033 140.052 187.347 140.052C187.779 140.052 188.121 140.16 188.427 140.358L189.471 138.45C188.895 138.09 188.373 137.946 187.779 137.946ZM197.675 142.446C197.675 139.98 196.343 137.946 193.589 137.946C190.637 137.946 189.377 140.286 189.377 142.608C189.377 144.984 190.673 147.18 193.733 147.18C195.227 147.18 196.397 146.658 197.369 145.578L195.875 144.264C195.263 144.966 194.543 145.218 193.751 145.218C192.347 145.218 191.627 144.444 191.537 143.274H197.621C197.657 142.986 197.675 142.716 197.675 142.446ZM191.519 141.564C191.645 140.682 192.257 139.746 193.571 139.746C194.705 139.746 195.569 140.43 195.605 141.564H191.519Z" fill="white"/>
<path d="M74.4754 162.441H75.3274V154.077H74.4754V162.441ZM80.5694 156.429C79.7174 156.429 78.9974 156.789 78.6134 157.389V156.525H77.7854V162.441H78.6134V159.789C78.6134 158.121 79.2614 157.161 80.3774 157.161C81.2654 157.161 81.6734 157.749 81.6734 159.021V162.441H82.5014V158.817C82.5014 157.245 81.8414 156.429 80.5694 156.429ZM86.1071 162.441H86.8151L89.2391 156.525H88.3271L86.4551 161.385L84.5951 156.525H83.6951L86.1071 162.441ZM90.4985 155.301H91.4585V154.077H90.4985V155.301ZM90.5705 162.441H91.3985V156.525H90.5705V162.441ZM96.0302 161.649C95.7662 161.733 95.5382 161.781 95.3342 161.781C94.8662 161.781 94.6022 161.517 94.6022 160.941V157.221H96.0302V156.525H94.6022V154.365L93.7742 154.989V156.525H92.7902V157.221H93.7742V161.049C93.7742 162.093 94.3502 162.537 95.1422 162.537C95.4182 162.537 95.7302 162.477 96.0422 162.381L96.0302 161.649ZM102.271 159.189C102.271 157.845 101.515 156.429 99.7029 156.429C97.9869 156.429 97.0749 157.845 97.0749 159.513C97.0749 161.193 97.9989 162.537 99.7989 162.537C100.711 162.537 101.395 162.273 102.091 161.541L101.515 161.037C100.975 161.613 100.459 161.781 99.8109 161.781C98.6469 161.781 97.9269 161.001 97.9029 159.705H102.235C102.259 159.561 102.271 159.357 102.271 159.189ZM99.7029 157.125C100.795 157.125 101.407 157.857 101.467 158.817C101.467 158.925 101.479 158.985 101.479 159.009H97.9029C97.9749 157.965 98.6349 157.125 99.7029 157.125ZM110.007 156.417C109.167 156.417 108.495 156.741 108.051 157.317V156.525H107.223V164.889H108.051V161.649C108.483 162.201 109.143 162.537 110.007 162.537C111.735 162.537 112.635 161.241 112.635 159.477C112.635 157.629 111.651 156.417 110.007 156.417ZM109.887 161.805C108.639 161.805 107.979 160.821 107.979 159.477C107.979 158.073 108.699 157.149 109.887 157.149C111.087 157.149 111.807 158.073 111.807 159.477C111.807 160.821 111.147 161.805 109.887 161.805ZM119.064 159.189C119.064 157.845 118.308 156.429 116.496 156.429C114.78 156.429 113.868 157.845 113.868 159.513C113.868 161.193 114.792 162.537 116.592 162.537C117.504 162.537 118.188 162.273 118.884 161.541L118.308 161.037C117.768 161.613 117.252 161.781 116.604 161.781C115.44 161.781 114.72 161.001 114.696 159.705H119.028C119.052 159.561 119.064 159.357 119.064 159.189ZM116.496 157.125C117.588 157.125 118.2 157.857 118.26 158.817C118.26 158.925 118.272 158.985 118.272 159.009H114.696C114.768 157.965 115.428 157.125 116.496 157.125ZM123.051 162.537C124.743 162.537 125.895 161.217 125.895 159.477C125.895 157.725 124.731 156.429 123.051 156.429C121.359 156.429 120.219 157.725 120.219 159.477C120.219 161.229 121.359 162.537 123.051 162.537ZM123.051 161.805C121.791 161.805 121.047 160.821 121.047 159.477C121.047 158.145 121.779 157.161 123.051 157.161C124.311 157.161 125.067 158.133 125.067 159.477C125.067 160.797 124.323 161.805 123.051 161.805ZM130.351 156.417C129.511 156.417 128.839 156.741 128.395 157.317V156.525H127.567V164.889H128.395V161.649C128.827 162.201 129.487 162.537 130.351 162.537C132.079 162.537 132.979 161.241 132.979 159.477C132.979 157.629 131.995 156.417 130.351 156.417ZM130.231 161.805C128.983 161.805 128.323 160.821 128.323 159.477C128.323 158.073 129.043 157.149 130.231 157.149C131.431 157.149 132.151 158.073 132.151 159.477C132.151 160.821 131.491 161.805 130.231 161.805ZM135.772 162.537C136.036 162.537 136.336 162.465 136.588 162.381L136.576 161.673C136.396 161.733 136.192 161.781 136.012 161.781C135.616 161.781 135.472 161.517 135.472 161.109V154.077H134.644V161.157C134.644 162.081 135.088 162.537 135.772 162.537ZM142.642 159.189C142.642 157.845 141.886 156.429 140.074 156.429C138.358 156.429 137.446 157.845 137.446 159.513C137.446 161.193 138.37 162.537 140.17 162.537C141.082 162.537 141.766 162.273 142.462 161.541L141.886 161.037C141.346 161.613 140.83 161.781 140.182 161.781C139.018 161.781 138.298 161.001 138.274 159.705H142.606C142.63 159.561 142.642 159.357 142.642 159.189ZM140.074 157.125C141.166 157.125 141.778 157.857 141.838 158.817C141.838 158.925 141.85 158.985 141.85 159.009H138.274C138.346 157.965 139.006 157.125 140.074 157.125ZM150.042 161.649C149.778 161.733 149.55 161.781 149.346 161.781C148.878 161.781 148.614 161.517 148.614 160.941V157.221H150.042V156.525H148.614V154.365L147.786 154.989V156.525H146.802V157.221H147.786V161.049C147.786 162.093 148.362 162.537 149.154 162.537C149.43 162.537 149.742 162.477 150.054 162.381L150.042 161.649ZM153.883 162.537C155.575 162.537 156.727 161.217 156.727 159.477C156.727 157.725 155.563 156.429 153.883 156.429C152.191 156.429 151.051 157.725 151.051 159.477C151.051 161.229 152.191 162.537 153.883 162.537ZM153.883 161.805C152.623 161.805 151.879 160.821 151.879 159.477C151.879 158.145 152.611 157.161 153.883 157.161C155.143 157.161 155.899 158.133 155.899 159.477C155.899 160.797 155.155 161.805 153.883 161.805ZM163.732 156.429C162.724 156.429 161.956 156.813 161.32 157.641L161.92 158.145C162.4 157.485 162.976 157.161 163.72 157.161C164.716 157.161 165.256 157.725 165.256 158.757V159.033H164.044C162.88 159.033 162.244 159.141 161.788 159.405C161.356 159.669 161.116 160.125 161.116 160.725C161.116 161.865 161.872 162.537 163.156 162.537C164.092 162.537 164.812 162.189 165.28 161.529L165.328 162.441H166.084V158.757C166.084 157.281 165.22 156.429 163.732 156.429ZM163.396 161.853C162.508 161.853 161.944 161.433 161.944 160.773C161.944 160.437 162.052 160.173 162.268 160.005C162.556 159.777 163.024 159.705 164.116 159.705H165.256V159.789C165.256 161.049 164.536 161.853 163.396 161.853ZM170.886 156.429C170.034 156.429 169.314 156.789 168.93 157.389V156.525H168.102V162.441H168.93V159.789C168.93 158.121 169.578 157.161 170.694 157.161C171.582 157.161 171.99 157.749 171.99 159.021V162.441H172.818V158.817C172.818 157.245 172.158 156.429 170.886 156.429ZM176.651 162.537C177.791 162.537 178.775 161.937 178.775 160.737C178.775 158.493 175.355 159.381 175.355 157.977C175.355 157.461 175.823 157.161 176.555 157.161C177.287 157.161 177.755 157.497 178.043 158.025L178.703 157.665C178.295 156.825 177.527 156.429 176.579 156.429C175.391 156.429 174.551 157.065 174.551 158.097C174.551 160.197 177.959 159.213 177.959 160.785C177.959 161.409 177.443 161.805 176.639 161.805C175.715 161.805 175.139 161.289 174.923 160.677L174.227 160.989C174.539 161.937 175.487 162.537 176.651 162.537ZM181.379 162.441H182.147L183.743 157.665L185.315 162.441H186.095L187.823 156.525H186.947L185.663 161.193L184.115 156.525H183.359L181.799 161.193L180.527 156.525H179.639L181.379 162.441ZM193.865 159.189C193.865 157.845 193.109 156.429 191.297 156.429C189.581 156.429 188.669 157.845 188.669 159.513C188.669 161.193 189.593 162.537 191.393 162.537C192.305 162.537 192.989 162.273 193.685 161.541L193.109 161.037C192.569 161.613 192.053 161.781 191.405 161.781C190.241 161.781 189.521 161.001 189.497 159.705H193.829C193.853 159.561 193.865 159.357 193.865 159.189ZM191.297 157.125C192.389 157.125 193.001 157.857 193.061 158.817C193.061 158.925 193.073 158.985 193.073 159.009H189.497C189.569 157.965 190.229 157.125 191.297 157.125ZM198.115 156.429C197.515 156.429 196.795 156.633 196.363 157.413V156.525H195.535V162.441H196.363V159.141C196.363 157.857 197.035 157.173 197.947 157.173C198.199 157.173 198.451 157.233 198.727 157.353L199.135 156.681C198.811 156.501 198.475 156.429 198.115 156.429Z" fill="white"/>
</g>
<path fill-rule="evenodd" clip-rule="evenodd" d="M42.0002 215.441C50.2844 215.441 57.0001 208.726 57.0001 200.441C57.0001 192.157 50.2844 185.441 42.0002 185.441C33.7159 185.441 27.0001 192.157 27.0001 200.441C27.0001 208.726 33.7159 215.441 42.0002 215.441Z" fill="#ADB8FA"/>
<path fill-rule="evenodd" clip-rule="evenodd" d="M42.67 192.07C38.0766 192.07 34.3401 195.804 34.3401 200.393C34.3401 201.845 34.7201 203.272 35.4404 204.527L34.072 208.627C34.0394 208.726 34.0632 208.834 34.1339 208.909C34.1882 208.967 34.2632 208.999 34.3401 208.999C34.3641 208.999 34.3879 208.995 34.412 208.989L38.8923 207.811C40.0561 208.404 41.3599 208.716 42.67 208.716C47.2635 208.716 51 204.983 51 200.393C51 195.804 47.2635 192.07 42.67 192.07ZM38.8579 201.663C38.2351 201.663 37.7286 201.157 37.7286 200.534C37.7286 199.912 38.2351 199.406 38.8579 199.406C39.4809 199.406 39.9875 199.912 39.9875 200.534C39.9875 201.157 39.4809 201.663 38.8579 201.663ZM42.5288 201.663C41.9061 201.663 41.3992 201.157 41.3992 200.534C41.3992 199.912 41.9061 199.406 42.5288 199.406C43.1516 199.406 43.6584 199.912 43.6584 200.534C43.6584 201.157 43.1516 201.663 42.5288 201.663ZM46.2001 201.663C45.5771 201.663 45.0705 201.157 45.0705 200.534C45.0705 199.912 45.5771 199.406 46.2001 199.406C46.8232 199.406 47.3294 199.912 47.3294 200.534C47.3294 201.157 46.8232 201.663 46.2001 201.663Z" fill="white"/>
<g clip-path="url(#clip3_1858_2582)">
<path d="M80.7845 199.235C83.4665 199.235 85.4825 197.921 86.3825 195.491L84.2765 194.699C83.7365 196.283 82.5125 197.093 80.7845 197.093C78.3725 197.093 76.9505 195.491 76.9505 192.665C76.9505 189.857 78.3545 188.273 80.7845 188.273C82.4945 188.273 83.7185 189.047 84.2765 190.613L86.3465 189.803C85.4285 187.409 83.4305 186.131 80.7845 186.131C77.0765 186.131 74.7005 188.669 74.7005 192.683C74.7005 196.697 77.0765 199.235 80.7845 199.235ZM91.3925 199.145C94.1285 199.145 95.8385 197.021 95.8385 194.519C95.8385 191.999 94.1285 189.911 91.3925 189.911C88.6385 189.911 86.9465 191.999 86.9465 194.519C86.9465 197.021 88.6385 199.145 91.3925 199.145ZM91.3925 197.255C89.7545 197.255 89.1065 195.959 89.1065 194.519C89.1065 193.061 89.7545 191.801 91.3925 191.801C93.0305 191.801 93.6785 193.061 93.6785 194.519C93.6785 195.959 93.0305 197.255 91.3925 197.255ZM102.407 189.911C101.327 189.911 100.355 190.271 99.7247 191.117V190.091H97.5647V198.965H99.7247V195.419C99.7247 193.835 99.7247 191.801 101.741 191.801C103.379 191.801 103.379 193.169 103.379 193.781V198.965H105.539V193.241C105.539 191.135 104.405 189.911 102.407 189.911ZM112.599 191.801V190.091H110.385V186.779L108.225 188.381V190.091H106.785V191.801H108.225V196.481C108.225 198.371 109.485 199.145 110.979 199.145C111.519 199.145 112.059 199.055 112.599 198.875V197.147C112.203 197.273 111.825 197.345 111.519 197.345C110.817 197.345 110.385 197.021 110.385 196.319V191.801H112.599ZM117.983 189.911C116.363 189.911 115.049 190.541 113.987 191.819L115.553 193.133C116.201 192.269 117.047 191.801 117.947 191.801C118.973 191.801 119.621 192.395 119.621 193.367V193.619H117.407C116.399 193.619 115.643 193.745 115.049 194.015C114.185 194.411 113.717 195.203 113.717 196.247C113.717 197.939 115.049 199.145 116.921 199.145C118.091 199.145 119.099 198.641 119.621 197.813L119.801 198.965H121.781V193.367C121.781 191.225 120.323 189.911 117.983 189.911ZM117.263 197.309C116.399 197.309 115.877 196.913 115.877 196.283C115.877 195.959 116.003 195.707 116.237 195.545C116.525 195.329 116.957 195.239 117.695 195.239H119.621C119.621 196.391 118.559 197.309 117.263 197.309ZM127.548 199.145C129.312 199.145 130.68 198.173 131.274 196.517L129.312 195.761C129.078 196.679 128.394 197.255 127.53 197.255C126.018 197.255 125.46 195.959 125.46 194.555C125.46 193.151 126.036 191.801 127.53 191.801C128.412 191.801 129.078 192.395 129.312 193.331L131.364 192.521C130.68 190.757 129.294 189.911 127.53 189.911C124.632 189.911 123.246 192.215 123.246 194.555C123.246 196.895 124.65 199.145 127.548 199.145ZM137.648 191.801V190.091H135.434V186.779L133.274 188.381V190.091H131.834V191.801H133.274V196.481C133.274 198.371 134.534 199.145 136.028 199.145C136.568 199.145 137.108 199.055 137.648 198.875V197.147C137.252 197.273 136.874 197.345 136.568 197.345C135.866 197.345 135.434 197.021 135.434 196.319V191.801H137.648Z" fill="white"/>
<path d="M80.1874 214.441L77.9074 210.625C79.0354 210.325 79.6234 209.569 79.6234 208.393C79.6234 206.881 78.6634 206.077 76.8634 206.077H74.4754V214.441H75.3274V210.733H76.4914H77.0554L79.1914 214.441H80.1874ZM75.3274 209.941V206.869H76.7794C78.0994 206.869 78.7594 207.385 78.7594 208.405C78.7594 209.425 78.0994 209.941 76.7794 209.941H75.3274ZM86.2748 211.189C86.2748 209.845 85.5188 208.429 83.7068 208.429C81.9908 208.429 81.0788 209.845 81.0788 211.513C81.0788 213.193 82.0028 214.537 83.8028 214.537C84.7148 214.537 85.3988 214.273 86.0948 213.541L85.5188 213.037C84.9788 213.613 84.4628 213.781 83.8148 213.781C82.6508 213.781 81.9308 213.001 81.9068 211.705H86.2388C86.2628 211.561 86.2748 211.357 86.2748 211.189ZM83.7068 209.125C84.7988 209.125 85.4108 209.857 85.4708 210.817C85.4708 210.925 85.4828 210.985 85.4828 211.009H81.9068C81.9788 209.965 82.6388 209.125 83.7068 209.125ZM89.7335 214.537C90.8735 214.537 91.8575 213.937 91.8575 212.737C91.8575 210.493 88.4375 211.381 88.4375 209.977C88.4375 209.461 88.9055 209.161 89.6375 209.161C90.3695 209.161 90.8375 209.497 91.1255 210.025L91.7855 209.665C91.3775 208.825 90.6095 208.429 89.6615 208.429C88.4735 208.429 87.6335 209.065 87.6335 210.097C87.6335 212.197 91.0415 211.213 91.0415 212.785C91.0415 213.409 90.5255 213.805 89.7215 213.805C88.7975 213.805 88.2215 213.289 88.0055 212.677L87.3095 212.989C87.6215 213.937 88.5695 214.537 89.7335 214.537ZM96.3194 208.417C95.4794 208.417 94.8074 208.741 94.3634 209.317V208.525H93.5354V216.889H94.3634V213.649C94.7954 214.201 95.4554 214.537 96.3194 214.537C98.0474 214.537 98.9474 213.241 98.9474 211.477C98.9474 209.629 97.9634 208.417 96.3194 208.417ZM96.1994 213.805C94.9514 213.805 94.2914 212.821 94.2914 211.477C94.2914 210.073 95.0114 209.149 96.1994 209.149C97.3994 209.149 98.1194 210.073 98.1194 211.477C98.1194 212.821 97.4594 213.805 96.1994 213.805ZM102.976 214.537C104.668 214.537 105.82 213.217 105.82 211.477C105.82 209.725 104.656 208.429 102.976 208.429C101.284 208.429 100.144 209.725 100.144 211.477C100.144 213.229 101.284 214.537 102.976 214.537ZM102.976 213.805C101.716 213.805 100.972 212.821 100.972 211.477C100.972 210.145 101.704 209.161 102.976 209.161C104.236 209.161 104.992 210.133 104.992 211.477C104.992 212.797 104.248 213.805 102.976 213.805ZM110.276 208.429C109.424 208.429 108.704 208.789 108.32 209.389V208.525H107.492V214.441H108.32V211.789C108.32 210.121 108.968 209.161 110.084 209.161C110.972 209.161 111.38 209.749 111.38 211.021V214.441H112.208V210.817C112.208 209.245 111.548 208.429 110.276 208.429ZM118.37 206.077V209.317C117.926 208.741 117.254 208.417 116.414 208.417C114.77 208.417 113.786 209.629 113.786 211.477C113.786 213.241 114.686 214.537 116.414 214.537C117.278 214.537 117.938 214.201 118.37 213.649V214.441H119.198V206.077H118.37ZM116.534 213.805C115.274 213.805 114.614 212.821 114.614 211.477C114.614 210.073 115.334 209.149 116.534 209.149C117.722 209.149 118.442 210.073 118.442 211.477C118.442 212.821 117.782 213.805 116.534 213.805ZM127.108 213.649C126.844 213.733 126.616 213.781 126.412 213.781C125.944 213.781 125.68 213.517 125.68 212.941V209.221H127.108V208.525H125.68V206.365L124.852 206.989V208.525H123.868V209.221H124.852V213.049C124.852 214.093 125.428 214.537 126.22 214.537C126.496 214.537 126.808 214.477 127.12 214.381L127.108 213.649ZM130.949 214.537C132.641 214.537 133.793 213.217 133.793 211.477C133.793 209.725 132.629 208.429 130.949 208.429C129.257 208.429 128.117 209.725 128.117 211.477C128.117 213.229 129.257 214.537 130.949 214.537ZM130.949 213.805C129.689 213.805 128.945 212.821 128.945 211.477C128.945 210.145 129.677 209.161 130.949 209.161C132.209 209.161 132.965 210.133 132.965 211.477C132.965 212.797 132.221 213.805 130.949 213.805ZM139.394 216.889H140.282L143.522 208.525H142.61L140.822 213.397L138.782 208.525H137.87L140.378 214.369L139.394 216.889ZM146.945 214.537C148.637 214.537 149.789 213.217 149.789 211.477C149.789 209.725 148.625 208.429 146.945 208.429C145.253 208.429 144.113 209.725 144.113 211.477C144.113 213.229 145.253 214.537 146.945 214.537ZM146.945 213.805C145.685 213.805 144.941 212.821 144.941 211.477C144.941 210.145 145.673 209.161 146.945 209.161C148.205 209.161 148.961 210.133 148.961 211.477C148.961 212.797 148.217 213.805 146.945 213.805ZM155.147 208.525V211.249C155.147 212.785 154.559 213.805 153.383 213.805C152.255 213.805 152.087 212.905 152.087 211.945V208.525H151.259V212.149C151.259 213.613 151.847 214.537 153.191 214.537C153.971 214.537 154.727 214.225 155.147 213.589V214.441H155.975V208.525H155.147ZM160.744 208.429C160.144 208.429 159.424 208.633 158.992 209.413V208.525H158.164V214.441H158.992V211.141C158.992 209.857 159.664 209.173 160.576 209.173C160.828 209.173 161.08 209.233 161.356 209.353L161.764 208.681C161.44 208.501 161.104 208.429 160.744 208.429ZM168.326 208.429C167.318 208.429 166.55 208.813 165.914 209.641L166.514 210.145C166.994 209.485 167.57 209.161 168.314 209.161C169.31 209.161 169.85 209.725 169.85 210.757V211.033H168.638C167.474 211.033 166.838 211.141 166.382 211.405C165.95 211.669 165.71 212.125 165.71 212.725C165.71 213.865 166.466 214.537 167.75 214.537C168.686 214.537 169.406 214.189 169.874 213.529L169.922 214.441H170.678V210.757C170.678 209.281 169.814 208.429 168.326 208.429ZM167.99 213.853C167.102 213.853 166.538 213.433 166.538 212.773C166.538 212.437 166.646 212.173 166.862 212.005C167.15 211.777 167.618 211.705 168.71 211.705H169.85V211.789C169.85 213.049 169.13 213.853 167.99 213.853ZM175.48 208.429C174.628 208.429 173.908 208.789 173.524 209.389V208.525H172.696V214.441H173.524V211.789C173.524 210.121 174.172 209.161 175.288 209.161C176.176 209.161 176.584 209.749 176.584 211.021V214.441H177.412V210.817C177.412 209.245 176.752 208.429 175.48 208.429ZM181.245 214.537C182.385 214.537 183.369 213.937 183.369 212.737C183.369 210.493 179.949 211.381 179.949 209.977C179.949 209.461 180.417 209.161 181.149 209.161C181.881 209.161 182.349 209.497 182.637 210.025L183.297 209.665C182.889 208.825 182.121 208.429 181.173 208.429C179.985 208.429 179.145 209.065 179.145 210.097C179.145 212.197 182.553 211.213 182.553 212.785C182.553 213.409 182.037 213.805 181.233 213.805C180.309 213.805 179.733 213.289 179.517 212.677L178.821 212.989C179.133 213.937 180.081 214.537 181.245 214.537ZM185.972 214.441H186.74L188.336 209.665L189.908 214.441H190.688L192.416 208.525H191.54L190.256 213.193L188.708 208.525H187.952L186.392 213.193L185.12 208.525H184.232L185.972 214.441ZM198.458 211.189C198.458 209.845 197.702 208.429 195.89 208.429C194.174 208.429 193.262 209.845 193.262 211.513C193.262 213.193 194.186 214.537 195.986 214.537C196.898 214.537 197.582 214.273 198.278 213.541L197.702 213.037C197.162 213.613 196.646 213.781 195.998 213.781C194.834 213.781 194.114 213.001 194.09 211.705H198.422C198.446 211.561 198.458 211.357 198.458 211.189ZM195.89 209.125C196.982 209.125 197.594 209.857 197.654 210.817C197.654 210.925 197.666 210.985 197.666 211.009H194.09C194.162 209.965 194.822 209.125 195.89 209.125ZM202.709 208.429C202.109 208.429 201.389 208.633 200.957 209.413V208.525H200.129V214.441H200.957V211.141C200.957 209.857 201.629 209.173 202.541 209.173C202.793 209.173 203.045 209.233 203.321 209.353L203.729 208.681C203.405 208.501 203.069 208.429 202.709 208.429ZM206.382 214.537C207.522 214.537 208.506 213.937 208.506 212.737C208.506 210.493 205.086 211.381 205.086 209.977C205.086 209.461 205.554 209.161 206.286 209.161C207.018 209.161 207.486 209.497 207.774 210.025L208.434 209.665C208.026 208.825 207.258 208.429 206.31 208.429C205.122 208.429 204.282 209.065 204.282 210.097C204.282 212.197 207.69 211.213 207.69 212.785C207.69 213.409 207.174 213.805 206.37 213.805C205.446 213.805 204.87 213.289 204.654 212.677L203.958 212.989C204.27 213.937 205.218 214.537 206.382 214.537Z" fill="white"/>
</g>
<path fill-rule="evenodd" clip-rule="evenodd" d="M42.0002 267.441C50.2844 267.441 57.0001 260.726 57.0001 252.441C57.0001 244.157 50.2844 237.441 42.0002 237.441C33.7159 237.441 27.0001 244.157 27.0001 252.441C27.0001 260.726 33.7159 267.441 42.0002 267.441Z" fill="#ADB8FA"/>
<path fill-rule="evenodd" clip-rule="evenodd" d="M47.7836 254.303L48.957 255.476C49.1532 255.673 49.2636 255.939 49.2636 256.216V257.352H35.6602V256.216C35.6602 255.939 35.7705 255.673 35.9667 255.476L37.1401 254.303C37.5325 253.911 37.753 253.379 37.753 252.824V250.028C37.753 247.784 39.3254 245.911 41.4274 245.439C41.4262 245.428 41.4247 245.417 41.4232 245.406C41.4193 245.378 41.4154 245.349 41.4154 245.32C41.4154 244.743 41.885 244.273 42.4619 244.273C43.0387 244.273 43.5083 244.743 43.5083 245.32C43.5083 245.349 43.5043 245.378 43.5004 245.407C43.4989 245.418 43.4973 245.43 43.496 245.441C45.6315 245.933 47.1707 247.929 47.1707 250.189V252.824C47.1707 253.379 47.3912 253.911 47.7836 254.303ZM42.462 261.014C41.3062 261.014 40.3691 260.077 40.3691 258.922V258.399H44.5548V258.922C44.5548 260.077 43.6177 261.014 42.462 261.014Z" fill="white"/>
<g clip-path="url(#clip4_1858_2582)">
<path d="M83.18 238.454V247.094L77.906 238.454H75.584V251H77.834V242.324L83.09 251H85.43V238.454H83.18ZM91.8691 251.18C94.6051 251.18 96.3151 249.056 96.3151 246.554C96.3151 244.034 94.6051 241.946 91.8691 241.946C89.1151 241.946 87.4231 244.034 87.4231 246.554C87.4231 249.056 89.1151 251.18 91.8691 251.18ZM91.8691 249.29C90.2311 249.29 89.5831 247.994 89.5831 246.554C89.5831 245.096 90.2311 243.836 91.8691 243.836C93.5071 243.836 94.1551 245.096 94.1551 246.554C94.1551 247.994 93.5071 249.29 91.8691 249.29ZM102.74 243.836V242.126H100.526V238.814L98.3661 240.416V242.126H96.9261V243.836H98.3661V248.516C98.3661 250.406 99.6261 251.18 101.12 251.18C101.66 251.18 102.2 251.09 102.74 250.91V249.182C102.344 249.308 101.966 249.38 101.66 249.38C100.958 249.38 100.526 249.056 100.526 248.354V243.836H102.74ZM104.579 240.452H106.847V238.454H104.579V240.452ZM104.633 251H106.793V242.126H104.633V251ZM116.743 242.126H111.757V241.532C111.757 240.632 112.279 240.02 113.449 240.02C114.385 240.02 115.123 240.272 115.771 240.722L116.779 239.192C115.825 238.598 114.835 238.274 113.341 238.274C111.343 238.274 109.597 239.462 109.597 241.496V242.126H108.139V243.836H109.597V251H111.757V243.836H114.583V251H116.743V242.126ZM122.768 251.18C124.532 251.18 125.9 250.208 126.494 248.552L124.532 247.796C124.298 248.714 123.614 249.29 122.75 249.29C121.238 249.29 120.68 247.994 120.68 246.59C120.68 245.186 121.256 243.836 122.75 243.836C123.632 243.836 124.298 244.43 124.532 245.366L126.584 244.556C125.9 242.792 124.514 241.946 122.75 241.946C119.852 241.946 118.466 244.25 118.466 246.59C118.466 248.93 119.87 251.18 122.768 251.18ZM131.538 241.946C129.918 241.946 128.604 242.576 127.542 243.854L129.108 245.168C129.756 244.304 130.602 243.836 131.502 243.836C132.528 243.836 133.176 244.43 133.176 245.402V245.654H130.962C129.954 245.654 129.198 245.78 128.604 246.05C127.74 246.446 127.272 247.238 127.272 248.282C127.272 249.974 128.604 251.18 130.476 251.18C131.646 251.18 132.654 250.676 133.176 249.848L133.356 251H135.336V245.402C135.336 243.26 133.878 241.946 131.538 241.946ZM130.818 249.344C129.954 249.344 129.432 248.948 129.432 248.318C129.432 247.994 129.558 247.742 129.792 247.58C130.08 247.364 130.512 247.274 131.25 247.274H133.176C133.176 248.426 132.114 249.344 130.818 249.344ZM142.291 243.836V242.126H140.077V238.814L137.917 240.416V242.126H136.477V243.836H137.917V248.516C137.917 250.406 139.177 251.18 140.671 251.18C141.211 251.18 141.751 251.09 142.291 250.91V249.182C141.895 249.308 141.517 249.38 141.211 249.38C140.509 249.38 140.077 249.056 140.077 248.354V243.836H142.291ZM144.13 240.452H146.398V238.454H144.13V240.452ZM144.184 251H146.344V242.126H144.184V251ZM152.514 251.18C155.25 251.18 156.96 249.056 156.96 246.554C156.96 244.034 155.25 241.946 152.514 241.946C149.76 241.946 148.068 244.034 148.068 246.554C148.068 249.056 149.76 251.18 152.514 251.18ZM152.514 249.29C150.876 249.29 150.228 247.994 150.228 246.554C150.228 245.096 150.876 243.836 152.514 243.836C154.152 243.836 154.8 245.096 154.8 246.554C154.8 247.994 154.152 249.29 152.514 249.29ZM163.528 241.946C162.448 241.946 161.476 242.306 160.846 243.152V242.126H158.686V251H160.846V247.454C160.846 245.87 160.846 243.836 162.862 243.836C164.5 243.836 164.5 245.204 164.5 245.816V251H166.66V245.276C166.66 243.17 165.526 241.946 163.528 241.946ZM171.777 251.18C173.451 251.18 175.233 250.28 175.233 248.21C175.233 244.97 170.589 245.762 170.589 244.412C170.589 243.998 171.021 243.656 171.723 243.656C172.695 243.656 173.181 244.232 173.487 244.79L175.161 243.872C174.495 242.666 173.325 241.946 171.795 241.946C170.085 241.946 168.537 242.828 168.537 244.538C168.537 247.832 173.109 246.842 173.109 248.336C173.109 248.804 172.677 249.38 171.669 249.38C170.481 249.38 170.013 248.57 169.779 247.922L168.051 248.696C168.483 250.046 169.905 251.18 171.777 251.18Z" fill="white"/>
<path d="M76.6354 266.561C78.3634 266.561 79.3354 265.661 79.3354 264.257C79.3354 263.093 78.8074 262.421 76.9474 261.713C75.6274 261.209 75.0514 260.801 75.0514 260.033C75.0514 259.325 75.6754 258.725 76.5514 258.725C77.2714 258.725 77.8834 259.109 78.2434 259.757L78.9634 259.313C78.4594 258.425 77.6314 257.957 76.5754 257.957C75.1594 257.957 74.1994 258.797 74.1994 260.069C74.1994 261.161 74.7874 261.761 76.4794 262.397C77.9554 262.961 78.4714 263.429 78.4714 264.329C78.4714 265.157 77.8594 265.793 76.6474 265.793C75.5194 265.793 74.7034 265.109 74.5474 264.029L73.6954 264.233C73.9234 265.637 75.0874 266.561 76.6354 266.561ZM83.4209 265.649C83.1569 265.733 82.9289 265.781 82.7249 265.781C82.2569 265.781 81.9929 265.517 81.9929 264.941V261.221H83.4209V260.525H81.9929V258.365L81.1649 258.989V260.525H80.1809V261.221H81.1649V265.049C81.1649 266.093 81.7409 266.537 82.5329 266.537C82.8089 266.537 83.1209 266.477 83.4329 266.381L83.4209 265.649ZM87.0561 260.429C86.0481 260.429 85.2801 260.813 84.6441 261.641L85.2441 262.145C85.7241 261.485 86.3001 261.161 87.0441 261.161C88.0401 261.161 88.5801 261.725 88.5801 262.757V263.033H87.3681C86.2041 263.033 85.5681 263.141 85.1121 263.405C84.6801 263.669 84.4401 264.125 84.4401 264.725C84.4401 265.865 85.1961 266.537 86.4801 266.537C87.4161 266.537 88.1361 266.189 88.6041 265.529L88.6521 266.441H89.4081V262.757C89.4081 261.281 88.5441 260.429 87.0561 260.429ZM86.7201 265.853C85.8321 265.853 85.2681 265.433 85.2681 264.773C85.2681 264.437 85.3761 264.173 85.5921 264.005C85.8801 263.777 86.3481 263.705 87.4401 263.705H88.5801V263.789C88.5801 265.049 87.8601 265.853 86.7201 265.853ZM91.9568 268.889H92.8448L96.0848 260.525H95.1728L93.3848 265.397L91.3448 260.525H90.4328L92.9408 266.369L91.9568 268.889ZM104.451 260.525V263.249C104.451 264.785 103.863 265.805 102.687 265.805C101.559 265.805 101.391 264.905 101.391 263.945V260.525H100.563V264.149C100.563 265.613 101.151 266.537 102.495 266.537C103.275 266.537 104.031 266.225 104.451 265.589V266.441H105.279V260.525H104.451ZM110.253 260.417C109.413 260.417 108.741 260.741 108.297 261.317V260.525H107.469V268.889H108.297V265.649C108.729 266.201 109.389 266.537 110.253 266.537C111.981 266.537 112.881 265.241 112.881 263.477C112.881 261.629 111.897 260.417 110.253 260.417ZM110.133 265.805C108.885 265.805 108.225 264.821 108.225 263.477C108.225 262.073 108.945 261.149 110.133 261.149C111.333 261.149 112.053 262.073 112.053 263.477C112.053 264.821 111.393 265.805 110.133 265.805ZM118.71 258.077V261.317C118.266 260.741 117.594 260.417 116.754 260.417C115.11 260.417 114.126 261.629 114.126 263.477C114.126 265.241 115.026 266.537 116.754 266.537C117.618 266.537 118.278 266.201 118.71 265.649V266.441H119.538V258.077H118.71ZM116.874 265.805C115.614 265.805 114.954 264.821 114.954 263.477C114.954 262.073 115.674 261.149 116.874 261.149C118.062 261.149 118.782 262.073 118.782 263.477C118.782 264.821 118.122 265.805 116.874 265.805ZM123.771 260.429C122.763 260.429 121.995 260.813 121.359 261.641L121.959 262.145C122.439 261.485 123.015 261.161 123.759 261.161C124.755 261.161 125.295 261.725 125.295 262.757V263.033H124.083C122.919 263.033 122.283 263.141 121.827 263.405C121.395 263.669 121.155 264.125 121.155 264.725C121.155 265.865 121.911 266.537 123.195 266.537C124.131 266.537 124.851 266.189 125.319 265.529L125.367 266.441H126.123V262.757C126.123 261.281 125.259 260.429 123.771 260.429ZM123.435 265.853C122.547 265.853 121.983 265.433 121.983 264.773C121.983 264.437 122.091 264.173 122.307 264.005C122.595 263.777 123.063 263.705 124.155 263.705H125.295V263.789C125.295 265.049 124.575 265.853 123.435 265.853ZM130.589 265.649C130.325 265.733 130.097 265.781 129.893 265.781C129.425 265.781 129.161 265.517 129.161 264.941V261.221H130.589V260.525H129.161V258.365L128.333 258.989V260.525H127.349V261.221H128.333V265.049C128.333 266.093 128.909 266.537 129.701 266.537C129.977 266.537 130.289 266.477 130.601 266.381L130.589 265.649ZM136.829 263.189C136.829 261.845 136.073 260.429 134.261 260.429C132.545 260.429 131.633 261.845 131.633 263.513C131.633 265.193 132.557 266.537 134.357 266.537C135.269 266.537 135.953 266.273 136.649 265.541L136.073 265.037C135.533 265.613 135.017 265.781 134.369 265.781C133.205 265.781 132.485 265.001 132.461 263.705H136.793C136.817 263.561 136.829 263.357 136.829 263.189ZM134.261 261.125C135.353 261.125 135.965 261.857 136.025 262.817C136.025 262.925 136.037 262.985 136.037 263.009H132.461C132.533 261.965 133.193 261.125 134.261 261.125ZM142.616 258.077V261.317C142.172 260.741 141.5 260.417 140.66 260.417C139.016 260.417 138.032 261.629 138.032 263.477C138.032 265.241 138.932 266.537 140.66 266.537C141.524 266.537 142.184 266.201 142.616 265.649V266.441H143.444V258.077H142.616ZM140.78 265.805C139.52 265.805 138.86 264.821 138.86 263.477C138.86 262.073 139.58 261.149 140.78 261.149C141.968 261.149 142.688 262.073 142.688 263.477C142.688 264.821 142.028 265.805 140.78 265.805ZM149.89 266.441H150.658L152.254 261.665L153.826 266.441H154.606L156.334 260.525H155.458L154.174 265.193L152.626 260.525H151.87L150.31 265.193L149.038 260.525H148.15L149.89 266.441ZM157.706 259.301H158.666V258.077H157.706V259.301ZM157.778 266.441H158.606V260.525H157.778V266.441ZM163.237 265.649C162.973 265.733 162.745 265.781 162.541 265.781C162.073 265.781 161.809 265.517 161.809 264.941V261.221H163.237V260.525H161.809V258.365L160.981 258.989V260.525H159.997V261.221H160.981V265.049C160.981 266.093 161.557 266.537 162.349 266.537C162.625 266.537 162.937 266.477 163.249 266.381L163.237 265.649ZM167.605 260.429C166.753 260.429 166.033 260.789 165.649 261.389V258.077H164.821V266.441H165.649V263.717C165.649 262.085 166.285 261.161 167.413 261.161C168.301 261.161 168.709 261.737 168.709 263.021V266.441H169.537V262.817C169.537 261.245 168.877 260.429 167.605 260.429ZM177.311 265.649C177.047 265.733 176.819 265.781 176.615 265.781C176.147 265.781 175.883 265.517 175.883 264.941V261.221H177.311V260.525H175.883V258.365L175.055 258.989V260.525H174.071V261.221H175.055V265.049C175.055 266.093 175.631 266.537 176.423 266.537C176.699 266.537 177.011 266.477 177.323 266.381L177.311 265.649ZM181.679 260.429C180.827 260.429 180.107 260.789 179.723 261.389V258.077H178.895V266.441H179.723V263.717C179.723 262.085 180.359 261.161 181.487 261.161C182.375 261.161 182.783 261.737 182.783 263.021V266.441H183.611V262.817C183.611 261.245 182.951 260.429 181.679 260.429ZM185.584 259.301H186.544V258.077H185.584V259.301ZM185.656 266.441H186.484V260.525H185.656V266.441ZM190.456 266.537C191.596 266.537 192.58 265.937 192.58 264.737C192.58 262.493 189.16 263.381 189.16 261.977C189.16 261.461 189.628 261.161 190.36 261.161C191.092 261.161 191.56 261.497 191.848 262.025L192.508 261.665C192.1 260.825 191.332 260.429 190.384 260.429C189.196 260.429 188.356 261.065 188.356 262.097C188.356 264.197 191.764 263.213 191.764 264.785C191.764 265.409 191.248 265.805 190.444 265.805C189.52 265.805 188.944 265.289 188.728 264.677L188.032 264.989C188.344 265.937 189.292 266.537 190.456 266.537ZM202.891 266.441H203.839L200.707 258.077H199.999L196.879 266.441H197.815L198.619 264.197H202.099L202.891 266.441ZM198.871 263.465L200.359 259.289L201.835 263.465H198.871ZM207.155 266.537C208.295 266.537 209.279 265.937 209.279 264.737C209.279 262.493 205.859 263.381 205.859 261.977C205.859 261.461 206.327 261.161 207.059 261.161C207.791 261.161 208.259 261.497 208.547 262.025L209.207 261.665C208.799 260.825 208.031 260.429 207.083 260.429C205.895 260.429 205.055 261.065 205.055 262.097C205.055 264.197 208.463 263.213 208.463 264.785C208.463 265.409 207.947 265.805 207.143 265.805C206.219 265.805 205.643 265.289 205.427 264.677L204.731 264.989C205.043 265.937 205.991 266.537 207.155 266.537ZM210.957 266.441H211.785V264.701L213.141 263.261L215.205 266.441H216.189L213.705 262.745L215.853 260.525H214.737L211.785 263.657V258.077H210.957V266.441ZM221.908 263.189C221.908 261.845 221.152 260.429 219.34 260.429C217.624 260.429 216.712 261.845 216.712 263.513C216.712 265.193 217.636 266.537 219.436 266.537C220.348 266.537 221.032 266.273 221.728 265.541L221.152 265.037C220.612 265.613 220.096 265.781 219.448 265.781C218.284 265.781 217.564 265.001 217.54 263.705H221.872C221.896 263.561 221.908 263.357 221.908 263.189ZM219.34 261.125C220.432 261.125 221.044 261.857 221.104 262.817C221.104 262.925 221.116 262.985 221.116 263.009H217.54C217.612 261.965 218.272 261.125 219.34 261.125ZM226.158 260.429C225.558 260.429 224.838 260.633 224.406 261.413V260.525H223.578V266.441H224.406V263.141C224.406 261.857 225.078 261.173 225.99 261.173C226.242 261.173 226.494 261.233 226.77 261.353L227.178 260.681C226.854 260.501 226.518 260.429 226.158 260.429Z" fill="white"/>
</g>
<path fill-rule="evenodd" clip-rule="evenodd" d="M42.0002 111.441C50.2844 111.441 57.0001 104.726 57.0001 96.4415C57.0001 88.157 50.2844 81.4413 42.0002 81.4413C33.7159 81.4413 27.0001 88.157 27.0001 96.4415C27.0001 104.726 33.7159 111.441 42.0002 111.441Z" fill="#ADB8FA"/>
<g clip-path="url(#clip5_1858_2582)">
<path d="M39.0483 102.981L34 104L35.0186 98.951L39.0483 102.981ZM40.0499 101.98L48.003 94.0288L43.9726 89.997L36.0202 97.9494L40.0499 101.98ZM46.9689 87L44.9742 88.9954L49.0053 93.0265L51 91.0297L46.9689 87V87Z" fill="white"/>
</g>
<g clip-path="url(#clip6_1858_2582)">
<path d="M75.5645 94.9648H83.9165V92.8948H77.8145V89.5468H83.4845V87.4768H77.8145V84.4888H83.9165V82.4188H75.5645V94.9648ZM91.8428 82.4188V86.9908C91.2848 86.3248 90.2948 85.9108 89.2868 85.9108C87.1088 85.9108 85.5428 87.6208 85.5428 90.5188C85.5428 93.1828 86.8748 95.1448 89.2868 95.1448C90.2408 95.1448 91.2308 94.8388 91.8428 94.0828V94.9648H94.0028V82.4188H91.8428ZM89.8088 93.1468C88.3688 93.1468 87.7028 92.1748 87.7028 90.5368C87.7028 88.8808 88.3868 87.8728 89.8268 87.8728C91.3748 87.8728 92.0408 89.0608 92.0408 90.5368C92.0408 92.0128 91.3748 93.1468 89.8088 93.1468ZM96.4912 84.4168H98.7592V82.4188H96.4912V84.4168ZM96.5452 94.9648H98.7052V86.0908H96.5452V94.9648ZM105.955 87.8008V86.0908H103.741V82.7788L101.581 84.3808V86.0908H100.141V87.8008H101.581V92.4808C101.581 94.3708 102.841 95.1448 104.335 95.1448C104.875 95.1448 105.415 95.0548 105.955 94.8748V93.1468C105.559 93.2728 105.181 93.3448 104.875 93.3448C104.173 93.3448 103.741 93.0208 103.741 92.3188V87.8008H105.955Z" fill="white"/>
<path d="M74.4754 110.441H79.9594V109.649H75.3274V106.577H79.4914V105.785H75.3274V102.869H79.9594V102.077H74.4754V110.441ZM85.8975 102.077V105.317C85.4535 104.741 84.7815 104.417 83.9415 104.417C82.2975 104.417 81.3135 105.629 81.3135 107.477C81.3135 109.241 82.2135 110.537 83.9415 110.537C84.8055 110.537 85.4655 110.201 85.8975 109.649V110.441H86.7255V102.077H85.8975ZM84.0615 109.805C82.8015 109.805 82.1415 108.821 82.1415 107.477C82.1415 106.073 82.8615 105.149 84.0615 105.149C85.2495 105.149 85.9695 106.073 85.9695 107.477C85.9695 108.821 85.3095 109.805 84.0615 109.805ZM88.8345 103.301H89.7945V102.077H88.8345V103.301ZM88.9065 110.441H89.7345V104.525H88.9065V110.441ZM94.3662 109.649C94.1022 109.733 93.8742 109.781 93.6702 109.781C93.2022 109.781 92.9382 109.517 92.9382 108.941V105.221H94.3662V104.525H92.9382V102.365L92.1102 102.989V104.525H91.1262V105.221H92.1102V109.049C92.1102 110.093 92.6862 110.537 93.4782 110.537C93.7542 110.537 94.0662 110.477 94.3782 110.381L94.3662 109.649ZM101.679 109.649C101.415 109.733 101.187 109.781 100.983 109.781C100.515 109.781 100.251 109.517 100.251 108.941V105.221H101.679V104.525H100.251V102.365L99.4227 102.989V104.525H98.4387V105.221H99.4227V109.049C99.4227 110.093 99.9987 110.537 100.791 110.537C101.067 110.537 101.379 110.477 101.691 110.381L101.679 109.649ZM106.046 104.429C105.194 104.429 104.474 104.789 104.09 105.389V102.077H103.262V110.441H104.09V107.717C104.09 106.085 104.726 105.161 105.854 105.161C106.742 105.161 107.15 105.737 107.15 107.021V110.441H107.978V106.817C107.978 105.245 107.318 104.429 106.046 104.429ZM109.952 103.301H110.912V102.077H109.952V103.301ZM110.024 110.441H110.852V104.525H110.024V110.441ZM114.823 110.537C115.963 110.537 116.947 109.937 116.947 108.737C116.947 106.493 113.527 107.381 113.527 105.977C113.527 105.461 113.995 105.161 114.727 105.161C115.459 105.161 115.927 105.497 116.215 106.025L116.875 105.665C116.467 104.825 115.699 104.429 114.751 104.429C113.563 104.429 112.723 105.065 112.723 106.097C112.723 108.197 116.131 107.213 116.131 108.785C116.131 109.409 115.615 109.805 114.811 109.805C113.887 109.805 113.311 109.289 113.095 108.677L112.399 108.989C112.711 109.937 113.659 110.537 114.823 110.537ZM127.258 110.441H128.206L125.074 102.077H124.366L121.246 110.441H122.182L122.986 108.197H126.466L127.258 110.441ZM123.238 107.465L124.726 103.289L126.202 107.465H123.238ZM131.523 110.537C132.663 110.537 133.647 109.937 133.647 108.737C133.647 106.493 130.227 107.381 130.227 105.977C130.227 105.461 130.695 105.161 131.427 105.161C132.159 105.161 132.627 105.497 132.915 106.025L133.575 105.665C133.167 104.825 132.399 104.429 131.451 104.429C130.263 104.429 129.423 105.065 129.423 106.097C129.423 108.197 132.831 107.213 132.831 108.785C132.831 109.409 132.315 109.805 131.511 109.805C130.587 109.805 130.011 109.289 129.795 108.677L129.099 108.989C129.411 109.937 130.359 110.537 131.523 110.537ZM135.324 110.441H136.152V108.701L137.508 107.261L139.572 110.441H140.556L138.072 106.745L140.22 104.525H139.104L136.152 107.657V102.077H135.324V110.441ZM146.275 107.189C146.275 105.845 145.519 104.429 143.707 104.429C141.991 104.429 141.079 105.845 141.079 107.513C141.079 109.193 142.003 110.537 143.803 110.537C144.715 110.537 145.399 110.273 146.095 109.541L145.519 109.037C144.979 109.613 144.463 109.781 143.815 109.781C142.651 109.781 141.931 109.001 141.907 107.705H146.239C146.263 107.561 146.275 107.357 146.275 107.189ZM143.707 105.125C144.799 105.125 145.411 105.857 145.471 106.817C145.471 106.925 145.483 106.985 145.483 107.009H141.907C141.979 105.965 142.639 105.125 143.707 105.125ZM150.526 104.429C149.926 104.429 149.206 104.633 148.774 105.413V104.525H147.946V110.441H148.774V107.141C148.774 105.857 149.446 105.173 150.358 105.173C150.61 105.173 150.862 105.233 151.138 105.353L151.546 104.681C151.222 104.501 150.886 104.429 150.526 104.429Z" fill="white"/>
</g>
</g>
<defs>
<filter id="filter0_b_1858_2582" x="-15" y="-15" width="368" height="524.934" filterUnits="userSpaceOnUse" color-interpolation-filters="sRGB">
<feFlood flood-opacity="0" result="BackgroundImageFix"/>
<feGaussianBlur in="BackgroundImage" stdDeviation="7.5"/>
<feComposite in2="SourceAlpha" operator="in" result="effect1_backgroundBlur_1858_2582"/>
<feBlend mode="normal" in="SourceGraphic" in2="effect1_backgroundBlur_1858_2582" result="shape"/>
</filter>
<filter id="filter1_d_1858_2582" x="26.9619" y="410.441" width="44.9473" height="45" filterUnits="userSpaceOnUse" color-interpolation-filters="sRGB">
<feFlood flood-opacity="0" result="BackgroundImageFix"/>
<feColorMatrix in="SourceAlpha" type="matrix" values="0 0 0 0 0 0 0 0 0 0 0 0 0 0 0 0 0 0 127 0" result="hardAlpha"/>
<feOffset dy="3"/>
<feGaussianBlur stdDeviation="6"/>
<feColorMatrix type="matrix" values="0 0 0 0 0.236882 0 0 0 0 0.50135 0 0 0 0 0.817921 0 0 0 0.240412 0"/>
<feBlend mode="normal" in2="BackgroundImageFix" result="effect1_dropShadow_1858_2582"/>
<feBlend mode="normal" in="SourceGraphic" in2="effect1_dropShadow_1858_2582" result="shape"/>
</filter>
<linearGradient id="paint0_linear_1858_2582" x1="320.5" y1="13" x2="107.7" y2="503.249" gradientUnits="userSpaceOnUse">
<stop stop-color="#7B8BFF"/>
<stop offset="1" stop-color="#5468FF"/>
</linearGradient>
<linearGradient id="paint1_linear_1858_2582" x1="320.5" y1="13" x2="107.7" y2="503.249" gradientUnits="userSpaceOnUse">
<stop stop-color="#7B8BFF"/>
<stop offset="1" stop-color="#5468FF"/>
</linearGradient>
<clipPath id="clip0_1858_2582">
<rect width="190.248" height="37" fill="white" transform="translate(69.752 409)"/>
</clipPath>
<clipPath id="clip1_1858_2582">
<rect width="190.248" height="37" fill="white" transform="translate(69.752 285)"/>
</clipPath>
<clipPath id="clip2_1858_2582">
<rect width="178" height="37" fill="white" transform="translate(67 129)"/>
</clipPath>
<clipPath id="clip3_1858_2582">
<rect width="178" height="37" fill="white" transform="translate(67 181)"/>
</clipPath>
<clipPath id="clip4_1858_2582">
<rect width="178" height="37" fill="white" transform="translate(67 233)"/>
</clipPath>
<clipPath id="clip5_1858_2582">
<rect width="17" height="17" fill="white" transform="translate(34 87)"/>
</clipPath>
<clipPath id="clip6_1858_2582">
<rect width="178" height="37" fill="white" transform="translate(67 77)"/>
</clipPath>
</defs>
</svg>
