<svg width="338" height="499" viewBox="0 0 338 499" fill="none" xmlns="http://www.w3.org/2000/svg">
<g filter="url(#filter0_bd_1858_2372)">
<path d="M0 31C0 14.4314 13.4315 1 30 1H308C324.569 1 338 14.4315 338 31V443C338 459.569 324.569 473 308 473H30C13.4315 473 0 459.569 0 443V31Z" fill="url(#paint0_linear_1858_2372)" fill-opacity="0.85"/>
<path d="M196.907 473L177.356 494.894C176.899 495.406 176.404 495.887 175.828 496.261C171.793 498.874 166.591 498.87 162.562 496.251C161.986 495.877 161.491 495.394 161.035 494.881L141.573 473H196.907Z" fill="url(#paint1_linear_1858_2372)" fill-opacity="0.85"/>
<path d="M338 414.015C248 377.516 51.9998 210.018 41 1.01562C293 1.00984 292.195 1.01511 304 1.01511C309.554 1.01501 310.723 0.864684 313.5 1.51445C316.5 2.01445 319.392 3.2106 322 4.51445C324 5.51445 327 7.51445 329.5 10.0144C331.279 12.0471 333.5 14.5144 335 18.0144C335.5 18.5144 337 22.5144 337.589 25.7285C337.836 27.5603 338 28.5144 338 32.5152C338 32.5152 338 217.619 338 414.015Z" fill="#5468FF" fill-opacity="0.5"/>
<g clip-path="url(#clip0_1858_2372)">
<path fill-rule="evenodd" clip-rule="evenodd" d="M43.3489 113.139C52.9304 113.139 60.6976 105.372 60.6976 95.7902C60.6976 86.2085 52.9304 78.4412 43.3489 78.4412C33.7675 78.4412 26.0001 86.2085 26.0001 95.7902C26.0001 105.372 33.7675 113.139 43.3489 113.139Z" fill="#ADB8FA"/>
<path d="M49.6432 93.4726L45.6882 89.3562L37.3144 96.8573L40.9845 100.832L45.3162 97.2037L49.6432 93.4726Z" fill="white"/>
<path d="M53 90.3653L49.137 86.4414L47.0106 88.3462L50.8058 92.0306L53 90.3653Z" fill="white"/>
<path d="M34 103.441L39.6919 101.741L36.4796 98.032L34 103.441Z" fill="white"/>
</g>
<g clip-path="url(#clip1_1858_2372)">
<path d="M75.5875 95.9648H84.061V93.8647H77.8702V90.468H83.6227V88.3679H77.8702V85.3365H84.061V83.2364H75.5875V95.9648ZM92.1026 83.2364V87.8749C91.5365 87.1992 90.5321 86.7791 89.5094 86.7791C87.2998 86.7791 85.711 88.514 85.711 91.4542C85.711 94.1569 87.0624 96.1475 89.5094 96.1475C90.4773 96.1475 91.4817 95.837 92.1026 95.07V95.9648H94.294V83.2364H92.1026ZM90.039 94.1204C88.5781 94.1204 87.9024 93.1343 87.9024 91.4724C87.9024 89.7923 88.5963 88.7697 90.0573 88.7697C91.6278 88.7697 92.3035 89.975 92.3035 91.4724C92.3035 92.9699 91.6278 94.1204 90.039 94.1204ZM96.8186 85.2634H99.1196V83.2364H96.8186V85.2634ZM96.8734 95.9648H99.0648V86.9618H96.8734V95.9648ZM106.42 88.6966V86.9618H104.174V83.6016L101.982 85.2269V86.9618H100.521V88.6966H101.982V93.4447C101.982 95.3622 103.261 96.1475 104.776 96.1475C105.324 96.1475 105.872 96.0562 106.42 95.8735V94.1204C106.018 94.2482 105.635 94.3213 105.324 94.3213C104.612 94.3213 104.174 93.9926 104.174 93.2804V88.6966H106.42Z" fill="white"/>
<path d="M74.5652 111.441H80.4072V110.598H75.4728V107.325H79.9086V106.481H75.4728V103.375H80.4072V102.531H74.5652V111.441ZM86.7328 102.531V105.983C86.2598 105.369 85.5439 105.024 84.6491 105.024C82.8978 105.024 81.8496 106.315 81.8496 108.284C81.8496 110.163 82.8083 111.544 84.6491 111.544C85.5695 111.544 86.2726 111.186 86.7328 110.598V111.441H87.6148V102.531H86.7328ZM84.7769 110.764C83.4347 110.764 82.7316 109.716 82.7316 108.284C82.7316 106.788 83.4986 105.804 84.7769 105.804C86.0425 105.804 86.8095 106.788 86.8095 108.284C86.8095 109.716 86.1064 110.764 84.7769 110.764ZM89.8615 103.835H90.8842V102.531H89.8615V103.835ZM89.9382 111.441H90.8202V105.139H89.9382V111.441ZM95.7543 110.598C95.4731 110.687 95.2302 110.738 95.0129 110.738C94.5143 110.738 94.2331 110.457 94.2331 109.843V105.881H95.7543V105.139H94.2331V102.838L93.351 103.503V105.139H92.3028V105.881H93.351V109.959C93.351 111.071 93.9646 111.544 94.8083 111.544C95.1023 111.544 95.4347 111.48 95.7671 111.377L95.7543 110.598ZM101.627 114.049H102.573L106.024 105.139H105.053L103.148 110.329L100.975 105.139H100.003L102.675 111.365L101.627 114.049ZM109.67 111.544C111.473 111.544 112.7 110.138 112.7 108.284C112.7 106.418 111.46 105.037 109.67 105.037C107.868 105.037 106.653 106.418 106.653 108.284C106.653 110.15 107.868 111.544 109.67 111.544ZM109.67 110.764C108.328 110.764 107.535 109.716 107.535 108.284C107.535 106.865 108.315 105.817 109.67 105.817C111.013 105.817 111.818 106.852 111.818 108.284C111.818 109.69 111.025 110.764 109.67 110.764ZM118.407 105.139V108.041C118.407 109.677 117.781 110.764 116.528 110.764C115.326 110.764 115.147 109.805 115.147 108.782V105.139H114.265V109C114.265 110.559 114.892 111.544 116.323 111.544C117.154 111.544 117.96 111.211 118.407 110.534V111.441H119.289V105.139H118.407ZM124.37 105.037C123.731 105.037 122.964 105.254 122.504 106.085V105.139H121.622V111.441H122.504V107.926C122.504 106.558 123.22 105.83 124.191 105.83C124.46 105.83 124.728 105.893 125.022 106.021L125.457 105.305C125.112 105.114 124.754 105.037 124.37 105.037ZM135.962 111.441H136.972L133.635 102.531H132.881L129.557 111.441H130.554L131.411 109.051H135.118L135.962 111.441ZM131.679 108.271L133.265 103.823L134.837 108.271H131.679ZM140.504 111.544C141.719 111.544 142.767 110.905 142.767 109.626C142.767 107.236 139.124 108.182 139.124 106.686C139.124 106.136 139.622 105.817 140.402 105.817C141.182 105.817 141.68 106.175 141.987 106.737L142.69 106.354C142.256 105.459 141.437 105.037 140.428 105.037C139.162 105.037 138.267 105.714 138.267 106.814C138.267 109.051 141.898 108.003 141.898 109.677C141.898 110.342 141.348 110.764 140.491 110.764C139.507 110.764 138.894 110.214 138.663 109.562L137.922 109.895C138.254 110.905 139.264 111.544 140.504 111.544ZM144.554 111.441H145.436V109.588L146.881 108.054L149.08 111.441H150.128L147.482 107.504L149.77 105.139H148.581L145.436 108.476V102.531H144.554V111.441ZM156.219 107.977C156.219 106.545 155.414 105.037 153.484 105.037C151.656 105.037 150.684 106.545 150.684 108.322C150.684 110.112 151.669 111.544 153.586 111.544C154.558 111.544 155.286 111.262 156.028 110.483L155.414 109.946C154.839 110.559 154.289 110.738 153.599 110.738C152.359 110.738 151.592 109.907 151.566 108.527H156.181C156.207 108.373 156.219 108.156 156.219 107.977ZM153.484 105.778C154.647 105.778 155.299 106.558 155.363 107.581C155.363 107.696 155.376 107.76 155.376 107.785H151.566C151.643 106.673 152.346 105.778 153.484 105.778ZM160.748 105.037C160.108 105.037 159.341 105.254 158.881 106.085V105.139H157.999V111.441H158.881V107.926C158.881 106.558 159.597 105.83 160.569 105.83C160.837 105.83 161.105 105.893 161.4 106.021L161.834 105.305C161.489 105.114 161.131 105.037 160.748 105.037Z" fill="white"/>
</g>
<g clip-path="url(#clip2_1858_2372)">
<path fill-rule="evenodd" clip-rule="evenodd" d="M43.3489 163.139C52.9304 163.139 60.6976 155.372 60.6976 145.79C60.6976 136.209 52.9304 128.441 43.3489 128.441C33.7675 128.441 26.0001 136.209 26.0001 145.79C26.0001 155.372 33.7675 163.139 43.3489 163.139Z" fill="#ADB8FA"/>
<path d="M51.7297 152.595C51.7297 154.519 50.1059 156.096 48.0807 156.096C46.0554 156.096 44.4316 154.519 44.4316 152.595C44.4316 150.672 46.0554 149.095 48.0807 149.095C50.1059 149.095 51.7297 150.672 51.7297 152.595Z" fill="white" stroke="white" stroke-width="0.541016"/>
<path d="M51.7297 139.763C51.7297 141.687 50.1059 143.264 48.0807 143.264C46.0554 143.264 44.4316 141.687 44.4316 139.763C44.4316 137.84 46.0554 136.263 48.0807 136.263C50.1059 136.263 51.7297 137.84 51.7297 139.763Z" fill="white" stroke="white" stroke-width="0.541016"/>
<path d="M35.8385 146.146L48.099 152.58" stroke="white" stroke-width="1.83846"/>
<path d="M35.8386 146.142L48.7737 139.642" stroke="white" stroke-width="1.83846"/>
<path d="M39.5061 146.162C39.5061 148.085 37.8823 149.662 35.857 149.662C33.8318 149.662 32.208 148.085 32.208 146.162C32.208 144.238 33.8318 142.661 35.857 142.661C37.8823 142.661 39.5061 144.238 39.5061 146.162Z" fill="white" stroke="white" stroke-width="0.541016"/>
</g>
<g clip-path="url(#clip3_1858_2372)">
<path d="M75.607 145.441H77.8715V140.164H79.7707C82.5831 140.164 84.0988 138.849 84.0988 136.384C84.0988 133.955 82.6196 132.713 79.7707 132.713H75.607V145.441ZM77.8715 138.064V134.813H79.5333C81.1586 134.813 81.8161 135.27 81.8161 136.42C81.8161 137.571 81.1404 138.064 79.5333 138.064H77.8715ZM91.1052 136.438V139.853C91.1052 141.46 91.1052 143.707 89.0599 143.707C87.398 143.707 87.398 142.136 87.398 141.515V136.438H85.2066V142.063C85.2066 143.98 86.1562 145.624 88.4207 145.624C89.4799 145.624 90.466 145.259 91.1052 144.4V145.441H93.2966V136.438H91.1052ZM100.661 136.256C99.6387 136.256 98.6343 136.676 98.0682 137.351V132.713H95.8768V145.441H98.0682V144.547C98.6891 145.314 99.6935 145.624 100.661 145.624C103.108 145.624 104.46 143.633 104.46 140.931C104.46 137.991 102.871 136.256 100.661 136.256ZM100.132 143.597C98.543 143.597 97.8673 142.446 97.8673 140.949C97.8673 139.452 98.543 138.246 100.114 138.246C101.575 138.246 102.268 139.269 102.268 140.949C102.268 142.611 101.593 143.597 100.132 143.597ZM108.354 145.624C108.774 145.624 109.267 145.533 109.76 145.35V143.597C109.505 143.67 109.267 143.707 109.066 143.707C108.665 143.707 108.427 143.542 108.427 143.14V132.713H106.236V143.287C106.236 144.894 107.131 145.624 108.354 145.624ZM111.355 134.74H113.656V132.713H111.355V134.74ZM111.41 145.441H113.601V136.438H111.41V145.441ZM118.984 145.624C120.682 145.624 122.49 144.711 122.49 142.611C122.49 139.324 117.779 140.127 117.779 138.758C117.779 138.338 118.217 137.991 118.929 137.991C119.915 137.991 120.408 138.575 120.719 139.141L122.417 138.21C121.742 136.986 120.555 136.256 119.002 136.256C117.267 136.256 115.697 137.151 115.697 138.885C115.697 142.227 120.335 141.223 120.335 142.739C120.335 143.213 119.897 143.798 118.874 143.798C117.669 143.798 117.194 142.976 116.957 142.319L115.204 143.104C115.642 144.474 117.085 145.624 118.984 145.624ZM129.27 136.256C128.083 136.256 127.151 136.676 126.549 137.461V132.713H124.357V145.441H126.549V141.844C126.549 139.251 127.151 138.173 128.594 138.173C129.726 138.173 130.256 138.812 130.256 140.182V145.441H132.447V139.634C132.447 137.479 131.297 136.256 129.27 136.256ZM149.164 144.747L147.264 142.611C147.812 141.661 148.159 140.565 148.214 139.397L146.077 139.178C146.077 139.78 145.968 140.383 145.767 140.931L143.977 138.922C145.219 138.082 146.26 137.077 146.26 135.543C146.26 133.863 144.726 132.567 142.882 132.567C141.147 132.567 139.357 133.699 139.357 135.562C139.357 136.913 140.325 137.991 140.873 138.557C139.357 139.433 137.914 140.529 137.914 142.465C137.914 144.51 139.759 145.642 142.096 145.642C143.576 145.642 144.909 145.094 145.931 144.2L147.611 146.117L149.164 144.747ZM141.475 135.598C141.475 134.74 142.151 134.283 142.9 134.283C143.776 134.283 144.233 134.886 144.233 135.58C144.233 136.402 143.503 137.004 142.553 137.589C142.151 137.114 141.475 136.256 141.475 135.598ZM142.042 143.78C140.855 143.78 140.051 143.36 140.051 142.501C140.051 141.442 141.055 140.712 142.242 139.981L144.653 142.72C143.977 143.378 143.082 143.78 142.042 143.78ZM158.584 145.679C161.196 145.679 163.004 144.108 163.004 141.734C163.004 139.926 162.109 138.958 159.388 137.918C157.47 137.169 156.849 136.694 156.849 135.854C156.849 135.069 157.543 134.466 158.456 134.466C159.315 134.466 160.063 134.977 160.502 135.927L162.401 134.758C161.597 133.224 160.246 132.439 158.529 132.439C156.155 132.439 154.567 133.845 154.567 135.909C154.567 137.753 155.516 138.721 158.182 139.762C160.063 140.511 160.721 141.059 160.721 141.935C160.721 143.013 159.899 143.652 158.621 143.652C157.142 143.652 156.137 142.793 155.973 141.278L153.708 141.844C154.074 144.163 156.046 145.679 158.584 145.679ZM169.628 136.256C168.441 136.256 167.509 136.676 166.907 137.461V132.713H164.715V145.441H166.907V141.844C166.907 139.251 167.509 138.173 168.952 138.173C170.084 138.173 170.614 138.812 170.614 140.182V145.441H172.805V139.634C172.805 137.479 171.655 136.256 169.628 136.256ZM178.654 136.256C177.01 136.256 175.677 136.895 174.599 138.191L176.188 139.525C176.846 138.648 177.704 138.173 178.617 138.173C179.658 138.173 180.315 138.776 180.315 139.762V140.018H178.069C177.046 140.018 176.279 140.145 175.677 140.419C174.8 140.821 174.325 141.625 174.325 142.684C174.325 144.4 175.677 145.624 177.576 145.624C178.763 145.624 179.786 145.113 180.315 144.273L180.498 145.441H182.507V139.762C182.507 137.589 181.028 136.256 178.654 136.256ZM177.923 143.761C177.046 143.761 176.517 143.36 176.517 142.72C176.517 142.392 176.645 142.136 176.882 141.972C177.174 141.753 177.613 141.661 178.361 141.661H180.315C180.315 142.83 179.238 143.761 177.923 143.761ZM189.434 136.256C188.411 136.256 187.407 136.858 187.023 137.972V136.438H184.814V145.441H187.005V140.912C187.005 139.214 187.662 138.392 188.996 138.392C189.434 138.392 189.781 138.502 190.091 138.703L191.15 136.767C190.566 136.402 190.036 136.256 189.434 136.256ZM199.474 140.821C199.474 138.319 198.123 136.256 195.329 136.256C192.334 136.256 191.056 138.63 191.056 140.986C191.056 143.396 192.371 145.624 195.475 145.624C196.991 145.624 198.178 145.094 199.164 143.999L197.648 142.666C197.027 143.378 196.297 143.633 195.493 143.633C194.069 143.633 193.338 142.848 193.247 141.661H199.42C199.456 141.369 199.474 141.095 199.474 140.821ZM193.229 139.926C193.357 139.032 193.978 138.082 195.311 138.082C196.461 138.082 197.338 138.776 197.374 139.926H193.229Z" fill="white"/>
<path d="M74.5652 161.441H75.4728V152.531H74.5652V161.441ZM81.0569 155.037C80.1493 155.037 79.3823 155.42 78.9732 156.06V155.139H78.0912V161.441H78.9732V158.616C78.9732 156.839 79.6635 155.817 80.8524 155.817C81.7983 155.817 82.233 156.443 82.233 157.798V161.441H83.115V157.581C83.115 155.906 82.4119 155.037 81.0569 155.037ZM86.9561 161.441H87.7103L90.2925 155.139H89.321L87.3268 160.316L85.3454 155.139H84.3867L86.9561 161.441ZM91.6342 153.835H92.6568V152.531H91.6342V153.835ZM91.7109 161.441H92.5929V155.139H91.7109V161.441ZM97.527 160.598C97.2457 160.687 97.0029 160.738 96.7855 160.738C96.287 160.738 96.0058 160.457 96.0058 159.843V155.881H97.527V155.139H96.0058V152.838L95.1237 153.503V155.139H94.0755V155.881H95.1237V159.959C95.1237 161.071 95.7373 161.544 96.581 161.544C96.875 161.544 97.2074 161.48 97.5398 161.377L97.527 160.598ZM104.175 157.977C104.175 156.545 103.37 155.037 101.439 155.037C99.6113 155.037 98.6398 156.545 98.6398 158.322C98.6398 160.112 99.6241 161.544 101.542 161.544C102.513 161.544 103.242 161.262 103.983 160.483L103.37 159.946C102.794 160.559 102.245 160.738 101.554 160.738C100.314 160.738 99.5474 159.907 99.5219 158.527H104.137C104.162 158.373 104.175 158.156 104.175 157.977ZM101.439 155.778C102.603 155.778 103.255 156.558 103.318 157.581C103.318 157.696 103.331 157.76 103.331 157.785H99.5219C99.5986 156.673 100.302 155.778 101.439 155.778ZM112.416 155.024C111.521 155.024 110.805 155.369 110.332 155.983V155.139H109.45V164.049H110.332V160.598C110.792 161.186 111.495 161.544 112.416 161.544C114.257 161.544 115.215 160.163 115.215 158.284C115.215 156.315 114.167 155.024 112.416 155.024ZM112.288 160.764C110.959 160.764 110.256 159.716 110.256 158.284C110.256 156.788 111.023 155.804 112.288 155.804C113.566 155.804 114.333 156.788 114.333 158.284C114.333 159.716 113.63 160.764 112.288 160.764ZM122.064 157.977C122.064 156.545 121.259 155.037 119.328 155.037C117.5 155.037 116.529 156.545 116.529 158.322C116.529 160.112 117.513 161.544 119.431 161.544C120.402 161.544 121.131 161.262 121.872 160.483L121.259 159.946C120.683 160.559 120.134 160.738 119.443 160.738C118.204 160.738 117.437 159.907 117.411 158.527H122.026C122.051 158.373 122.064 158.156 122.064 157.977ZM119.328 155.778C120.492 155.778 121.144 156.558 121.208 157.581C121.208 157.696 121.22 157.76 121.22 157.785H117.411C117.488 156.673 118.191 155.778 119.328 155.778ZM126.311 161.544C128.113 161.544 129.341 160.138 129.341 158.284C129.341 156.418 128.101 155.037 126.311 155.037C124.509 155.037 123.294 156.418 123.294 158.284C123.294 160.15 124.509 161.544 126.311 161.544ZM126.311 160.764C124.969 160.764 124.176 159.716 124.176 158.284C124.176 156.865 124.956 155.817 126.311 155.817C127.653 155.817 128.459 156.852 128.459 158.284C128.459 159.69 127.666 160.764 126.311 160.764ZM134.088 155.024C133.193 155.024 132.477 155.369 132.004 155.983V155.139H131.122V164.049H132.004V160.598C132.464 161.186 133.167 161.544 134.088 161.544C135.928 161.544 136.887 160.163 136.887 158.284C136.887 156.315 135.839 155.024 134.088 155.024ZM133.96 160.764C132.63 160.764 131.927 159.716 131.927 158.284C131.927 156.788 132.694 155.804 133.96 155.804C135.238 155.804 136.005 156.788 136.005 158.284C136.005 159.716 135.302 160.764 133.96 160.764ZM139.862 161.544C140.144 161.544 140.463 161.467 140.732 161.377L140.719 160.623C140.527 160.687 140.31 160.738 140.118 160.738C139.696 160.738 139.543 160.457 139.543 160.022V152.531H138.661V160.074C138.661 161.058 139.134 161.544 139.862 161.544ZM147.181 157.977C147.181 156.545 146.376 155.037 144.446 155.037C142.618 155.037 141.646 156.545 141.646 158.322C141.646 160.112 142.63 161.544 144.548 161.544C145.519 161.544 146.248 161.262 146.989 160.483L146.376 159.946C145.801 160.559 145.251 160.738 144.561 160.738C143.321 160.738 142.554 159.907 142.528 158.527H147.143C147.168 158.373 147.181 158.156 147.181 157.977ZM144.446 155.778C145.609 155.778 146.261 156.558 146.325 157.581C146.325 157.696 146.338 157.76 146.338 157.785H142.528C142.605 156.673 143.308 155.778 144.446 155.778ZM155.064 160.598C154.783 160.687 154.54 160.738 154.323 160.738C153.824 160.738 153.543 160.457 153.543 159.843V155.881H155.064V155.139H153.543V152.838L152.661 153.503V155.139H151.613V155.881H152.661V159.959C152.661 161.071 153.275 161.544 154.118 161.544C154.412 161.544 154.745 161.48 155.077 161.377L155.064 160.598ZM159.156 161.544C160.958 161.544 162.185 160.138 162.185 158.284C162.185 156.418 160.945 155.037 159.156 155.037C157.353 155.037 156.139 156.418 156.139 158.284C156.139 160.15 157.353 161.544 159.156 161.544ZM159.156 160.764C157.813 160.764 157.021 159.716 157.021 158.284C157.021 156.865 157.801 155.817 159.156 155.817C160.498 155.817 161.303 156.852 161.303 158.284C161.303 159.69 160.511 160.764 159.156 160.764ZM169.648 155.037C168.574 155.037 167.756 155.446 167.078 156.328L167.717 156.865C168.229 156.162 168.842 155.817 169.635 155.817C170.696 155.817 171.271 156.418 171.271 157.517V157.811H169.98C168.74 157.811 168.063 157.926 167.577 158.207C167.117 158.488 166.861 158.974 166.861 159.613C166.861 160.828 167.666 161.544 169.034 161.544C170.031 161.544 170.798 161.173 171.297 160.47L171.348 161.441H172.153V157.517C172.153 155.945 171.233 155.037 169.648 155.037ZM169.29 160.815C168.344 160.815 167.743 160.368 167.743 159.665C167.743 159.307 167.858 159.025 168.088 158.846C168.395 158.604 168.894 158.527 170.057 158.527H171.271V158.616C171.271 159.959 170.504 160.815 169.29 160.815ZM177.269 155.037C176.361 155.037 175.594 155.42 175.185 156.06V155.139H174.303V161.441H175.185V158.616C175.185 156.839 175.875 155.817 177.064 155.817C178.01 155.817 178.445 156.443 178.445 157.798V161.441H179.327V157.581C179.327 155.906 178.624 155.037 177.269 155.037ZM183.411 161.544C184.625 161.544 185.673 160.905 185.673 159.626C185.673 157.236 182.03 158.182 182.03 156.686C182.03 156.136 182.529 155.817 183.308 155.817C184.088 155.817 184.587 156.175 184.893 156.737L185.597 156.354C185.162 155.459 184.344 155.037 183.334 155.037C182.068 155.037 181.174 155.714 181.174 156.814C181.174 159.051 184.804 158.003 184.804 159.677C184.804 160.342 184.254 160.764 183.398 160.764C182.414 160.764 181.8 160.214 181.57 159.562L180.828 159.895C181.161 160.905 182.171 161.544 183.411 161.544ZM188.446 161.441H189.265L190.965 156.354L192.639 161.441H193.47L195.311 155.139H194.378L193.01 160.112L191.361 155.139H190.556L188.894 160.112L187.539 155.139H186.593L188.446 161.441ZM201.747 157.977C201.747 156.545 200.942 155.037 199.012 155.037C197.184 155.037 196.212 156.545 196.212 158.322C196.212 160.112 197.196 161.544 199.114 161.544C200.086 161.544 200.814 161.262 201.556 160.483L200.942 159.946C200.367 160.559 199.817 160.738 199.127 160.738C197.887 160.738 197.12 159.907 197.094 158.527H201.709C201.735 158.373 201.747 158.156 201.747 157.977ZM199.012 155.778C200.175 155.778 200.827 156.558 200.891 157.581C200.891 157.696 200.904 157.76 200.904 157.785H197.094C197.171 156.673 197.874 155.778 199.012 155.778ZM206.276 155.037C205.636 155.037 204.869 155.254 204.409 156.085V155.139H203.527V161.441H204.409V157.926C204.409 156.558 205.125 155.83 206.097 155.83C206.365 155.83 206.633 155.893 206.927 156.021L207.362 155.305C207.017 155.114 206.659 155.037 206.276 155.037Z" fill="white"/>
</g>
<g clip-path="url(#clip4_1858_2372)">
<path fill-rule="evenodd" clip-rule="evenodd" d="M43.3489 213.139C52.9304 213.139 60.6976 205.372 60.6976 195.79C60.6976 186.209 52.9304 178.441 43.3489 178.441C33.7675 178.441 26.0001 186.209 26.0001 195.79C26.0001 205.372 33.7675 213.139 43.3489 213.139Z" fill="#ADB8FA"/>
<path d="M49.6432 193.473L45.6882 189.356L37.3144 196.857L40.9845 200.832L45.3162 197.204L49.6432 193.473Z" fill="white"/>
<path d="M53 190.365L49.137 186.441L47.0106 188.346L50.8058 192.031L53 190.365Z" fill="white"/>
<path d="M34 203.441L39.6919 201.741L36.4796 198.032L34 203.441Z" fill="white"/>
</g>
<g clip-path="url(#clip5_1858_2372)">
<path d="M81.0109 195.715C83.7319 195.715 85.7772 194.382 86.6903 191.917L84.5537 191.113C84.0058 192.72 82.764 193.542 81.0109 193.542C78.5638 193.542 77.1211 191.917 77.1211 189.05C77.1211 186.201 78.5455 184.594 81.0109 184.594C82.7458 184.594 83.9876 185.379 84.5537 186.968L86.6538 186.146C85.7224 183.717 83.6954 182.421 81.0109 182.421C77.2489 182.421 74.8384 184.996 74.8384 189.068C74.8384 193.14 77.2489 195.715 81.0109 195.715ZM91.7732 195.624C94.549 195.624 96.2839 193.469 96.2839 190.931C96.2839 188.374 94.549 186.256 91.7732 186.256C88.9792 186.256 87.2626 188.374 87.2626 190.931C87.2626 193.469 88.9792 195.624 91.7732 195.624ZM91.7732 193.707C90.1114 193.707 89.454 192.392 89.454 190.931C89.454 189.452 90.1114 188.173 91.7732 188.173C93.4351 188.173 94.0925 189.452 94.0925 190.931C94.0925 192.392 93.4351 193.707 91.7732 193.707ZM100.062 195.624C100.482 195.624 100.975 195.533 101.468 195.35V193.597C101.213 193.67 100.975 193.707 100.774 193.707C100.373 193.707 100.135 193.542 100.135 193.14V182.713H97.9439V193.287C97.9439 194.894 98.8387 195.624 100.062 195.624ZM105.145 195.624C105.565 195.624 106.058 195.533 106.551 195.35V193.597C106.295 193.67 106.058 193.707 105.857 193.707C105.455 193.707 105.218 193.542 105.218 193.14V182.713H103.027V193.287C103.027 194.894 103.921 195.624 105.145 195.624ZM111.635 186.256C109.991 186.256 108.658 186.895 107.581 188.191L109.17 189.525C109.827 188.648 110.685 188.173 111.598 188.173C112.639 188.173 113.297 188.776 113.297 189.762V190.018H111.051C110.028 190.018 109.261 190.145 108.658 190.419C107.782 190.821 107.307 191.625 107.307 192.684C107.307 194.4 108.658 195.624 110.558 195.624C111.745 195.624 112.767 195.113 113.297 194.273L113.479 195.441H115.488V189.762C115.488 187.589 114.009 186.256 111.635 186.256ZM110.904 193.761C110.028 193.761 109.498 193.36 109.498 192.72C109.498 192.392 109.626 192.136 109.864 191.972C110.156 191.753 110.594 191.661 111.343 191.661H113.297C113.297 192.83 112.219 193.761 110.904 193.761ZM122.598 186.256C121.575 186.256 120.571 186.676 120.005 187.351V182.713H117.813V195.441H120.005V194.547C120.626 195.314 121.63 195.624 122.598 195.624C125.045 195.624 126.396 193.633 126.396 190.931C126.396 187.991 124.808 186.256 122.598 186.256ZM122.068 193.597C120.48 193.597 119.804 192.446 119.804 190.949C119.804 189.452 120.48 188.246 122.05 188.246C123.511 188.246 124.205 189.269 124.205 190.949C124.205 192.611 123.529 193.597 122.068 193.597ZM131.971 195.624C134.746 195.624 136.481 193.469 136.481 190.931C136.481 188.374 134.746 186.256 131.971 186.256C129.177 186.256 127.46 188.374 127.46 190.931C127.46 193.469 129.177 195.624 131.971 195.624ZM131.971 193.707C130.309 193.707 129.651 192.392 129.651 190.931C129.651 189.452 130.309 188.173 131.971 188.173C133.632 188.173 134.29 189.452 134.29 190.931C134.29 192.392 133.632 193.707 131.971 193.707ZM142.853 186.256C141.83 186.256 140.826 186.858 140.442 187.972V186.438H138.233V195.441H140.424V190.912C140.424 189.214 141.081 188.392 142.415 188.392C142.853 188.392 143.2 188.502 143.51 188.703L144.569 186.767C143.985 186.402 143.455 186.256 142.853 186.256ZM149.229 186.256C147.585 186.256 146.252 186.895 145.175 188.191L146.763 189.525C147.421 188.648 148.279 188.173 149.192 188.173C150.233 188.173 150.89 188.776 150.89 189.762V190.018H148.644C147.622 190.018 146.855 190.145 146.252 190.419C145.375 190.821 144.901 191.625 144.901 192.684C144.901 194.4 146.252 195.624 148.151 195.624C149.338 195.624 150.361 195.113 150.89 194.273L151.073 195.441H153.082V189.762C153.082 187.589 151.603 186.256 149.229 186.256ZM148.498 193.761C147.622 193.761 147.092 193.36 147.092 192.72C147.092 192.392 147.22 192.136 147.457 191.972C147.749 191.753 148.188 191.661 148.936 191.661H150.89C150.89 192.83 149.813 193.761 148.498 193.761ZM160.138 188.173V186.438H157.892V183.078L155.7 184.703V186.438H154.24V188.173H155.7V192.921C155.7 194.839 156.979 195.624 158.495 195.624C159.042 195.624 159.59 195.533 160.138 195.35V193.597C159.736 193.725 159.353 193.798 159.042 193.798C158.33 193.798 157.892 193.469 157.892 192.757V188.173H160.138ZM169.639 190.821C169.639 188.319 168.288 186.256 165.494 186.256C162.499 186.256 161.221 188.63 161.221 190.986C161.221 193.396 162.536 195.624 165.64 195.624C167.156 195.624 168.343 195.094 169.329 193.999L167.813 192.666C167.192 193.378 166.462 193.633 165.658 193.633C164.234 193.633 163.503 192.848 163.412 191.661H169.585C169.621 191.369 169.639 191.095 169.639 190.821ZM163.394 189.926C163.522 189.032 164.143 188.082 165.476 188.082C166.626 188.082 167.503 188.776 167.539 189.926H163.394Z" fill="white"/>
<path d="M74.5652 211.441H75.4728V202.531H74.5652V211.441ZM81.0569 205.037C80.1493 205.037 79.3823 205.42 78.9732 206.06V205.139H78.0912V211.441H78.9732V208.616C78.9732 206.839 79.6635 205.817 80.8524 205.817C81.7983 205.817 82.233 206.443 82.233 207.798V211.441H83.115V207.581C83.115 205.906 82.4119 205.037 81.0569 205.037ZM86.9561 211.441H87.7103L90.2925 205.139H89.321L87.3268 210.316L85.3454 205.139H84.3867L86.9561 211.441ZM91.6342 203.835H92.6568V202.531H91.6342V203.835ZM91.7109 211.441H92.5929V205.139H91.7109V211.441ZM97.527 210.598C97.2457 210.687 97.0029 210.738 96.7855 210.738C96.287 210.738 96.0058 210.457 96.0058 209.843V205.881H97.527V205.139H96.0058V202.838L95.1237 203.503V205.139H94.0755V205.881H95.1237V209.959C95.1237 211.071 95.7373 211.544 96.581 211.544C96.875 211.544 97.2074 211.48 97.5398 211.377L97.527 210.598ZM104.175 207.977C104.175 206.545 103.37 205.037 101.439 205.037C99.6113 205.037 98.6398 206.545 98.6398 208.322C98.6398 210.112 99.6241 211.544 101.542 211.544C102.513 211.544 103.242 211.262 103.983 210.483L103.37 209.946C102.794 210.559 102.245 210.738 101.554 210.738C100.314 210.738 99.5474 209.907 99.5219 208.527H104.137C104.162 208.373 104.175 208.156 104.175 207.977ZM101.439 205.778C102.603 205.778 103.255 206.558 103.318 207.581C103.318 207.696 103.331 207.76 103.331 207.785H99.5219C99.5986 206.673 100.302 205.778 101.439 205.778ZM109.834 211.441H110.716V205.881H112.531V205.139H110.716V204.104C110.716 203.516 111.023 203.171 111.521 203.171C111.738 203.171 111.981 203.247 112.25 203.375L112.557 202.672C112.16 202.506 111.777 202.429 111.432 202.429C110.626 202.429 109.846 202.825 109.846 204.168V205.139H108.504V205.881H109.834V211.441ZM116.655 205.037C116.016 205.037 115.249 205.254 114.789 206.085V205.139H113.907V211.441H114.789V207.926C114.789 206.558 115.505 205.83 116.476 205.83C116.745 205.83 117.013 205.893 117.307 206.021L117.742 205.305C117.397 205.114 117.039 205.037 116.655 205.037ZM118.973 203.835H119.996V202.531H118.973V203.835ZM119.05 211.441H119.932V205.139H119.05V211.441ZM127.282 207.977C127.282 206.545 126.477 205.037 124.547 205.037C122.719 205.037 121.747 206.545 121.747 208.322C121.747 210.112 122.731 211.544 124.649 211.544C125.62 211.544 126.349 211.262 127.09 210.483L126.477 209.946C125.902 210.559 125.352 210.738 124.662 210.738C123.422 210.738 122.655 209.907 122.629 208.527H127.244C127.269 208.373 127.282 208.156 127.282 207.977ZM124.547 205.778C125.71 205.778 126.362 206.558 126.426 207.581C126.426 207.696 126.439 207.76 126.439 207.785H122.629C122.706 206.673 123.409 205.778 124.547 205.778ZM132.028 205.037C131.12 205.037 130.353 205.42 129.944 206.06V205.139H129.062V211.441H129.944V208.616C129.944 206.839 130.634 205.817 131.823 205.817C132.769 205.817 133.204 206.443 133.204 207.798V211.441H134.086V207.581C134.086 205.906 133.383 205.037 132.028 205.037ZM140.65 202.531V205.983C140.177 205.369 139.461 205.024 138.566 205.024C136.815 205.024 135.767 206.315 135.767 208.284C135.767 210.163 136.725 211.544 138.566 211.544C139.486 211.544 140.19 211.186 140.65 210.598V211.441H141.532V202.531H140.65ZM138.694 210.764C137.352 210.764 136.649 209.716 136.649 208.284C136.649 206.788 137.416 205.804 138.694 205.804C139.959 205.804 140.726 206.788 140.726 208.284C140.726 209.716 140.023 210.764 138.694 210.764ZM145.76 211.544C146.974 211.544 148.023 210.905 148.023 209.626C148.023 207.236 144.379 208.182 144.379 206.686C144.379 206.136 144.878 205.817 145.658 205.817C146.437 205.817 146.936 206.175 147.243 206.737L147.946 206.354C147.511 205.459 146.693 205.037 145.683 205.037C144.418 205.037 143.523 205.714 143.523 206.814C143.523 209.051 147.153 208.003 147.153 209.677C147.153 210.342 146.604 210.764 145.747 210.764C144.763 210.764 144.149 210.214 143.919 209.562L143.178 209.895C143.51 210.905 144.52 211.544 145.76 211.544ZM155.913 210.598C155.632 210.687 155.389 210.738 155.172 210.738C154.673 210.738 154.392 210.457 154.392 209.843V205.881H155.913V205.139H154.392V202.838L153.51 203.503V205.139H152.462V205.881H153.51V209.959C153.51 211.071 154.123 211.544 154.967 211.544C155.261 211.544 155.594 211.48 155.926 211.377L155.913 210.598ZM160.004 211.544C161.807 211.544 163.034 210.138 163.034 208.284C163.034 206.418 161.794 205.037 160.004 205.037C158.202 205.037 156.988 206.418 156.988 208.284C156.988 210.15 158.202 211.544 160.004 211.544ZM160.004 210.764C158.662 210.764 157.87 209.716 157.87 208.284C157.87 206.865 158.649 205.817 160.004 205.817C161.347 205.817 162.152 206.852 162.152 208.284C162.152 209.69 161.359 210.764 160.004 210.764ZM170.637 211.544C171.775 211.544 172.695 210.943 173.117 209.792L172.299 209.486C172.056 210.291 171.43 210.764 170.637 210.764C169.282 210.764 168.681 209.601 168.681 208.31C168.681 207.018 169.282 205.817 170.624 205.817C171.417 205.817 172.043 206.303 172.337 207.108L173.181 206.776C172.683 205.599 171.749 205.037 170.624 205.037C168.72 205.037 167.787 206.648 167.787 208.31C167.787 210.061 168.809 211.544 170.637 211.544ZM177.207 211.544C179.009 211.544 180.237 210.138 180.237 208.284C180.237 206.418 178.997 205.037 177.207 205.037C175.405 205.037 174.19 206.418 174.19 208.284C174.19 210.15 175.405 211.544 177.207 211.544ZM177.207 210.764C175.865 210.764 175.072 209.716 175.072 208.284C175.072 206.865 175.852 205.817 177.207 205.817C178.549 205.817 179.355 206.852 179.355 208.284C179.355 209.69 178.562 210.764 177.207 210.764ZM183.168 211.544C183.449 211.544 183.769 211.467 184.038 211.377L184.025 210.623C183.833 210.687 183.616 210.738 183.424 210.738C183.002 210.738 182.849 210.457 182.849 210.022V202.531H181.967V210.074C181.967 211.058 182.44 211.544 183.168 211.544ZM186.614 211.544C186.895 211.544 187.215 211.467 187.483 211.377L187.47 210.623C187.278 210.687 187.061 210.738 186.869 210.738C186.448 210.738 186.294 210.457 186.294 210.022V202.531H185.412V210.074C185.412 211.058 185.885 211.544 186.614 211.544ZM191.095 205.037C190.021 205.037 189.203 205.446 188.525 206.328L189.164 206.865C189.676 206.162 190.289 205.817 191.082 205.817C192.143 205.817 192.718 206.418 192.718 207.517V207.811H191.427C190.187 207.811 189.51 207.926 189.024 208.207C188.564 208.488 188.308 208.974 188.308 209.613C188.308 210.828 189.113 211.544 190.481 211.544C191.478 211.544 192.245 211.173 192.744 210.47L192.795 211.441H193.6V207.517C193.6 205.945 192.68 205.037 191.095 205.037ZM190.737 210.815C189.791 210.815 189.19 210.368 189.19 209.665C189.19 209.307 189.305 209.025 189.535 208.846C189.842 208.604 190.34 208.527 191.504 208.527H192.718V208.616C192.718 209.959 191.951 210.815 190.737 210.815ZM198.716 205.024C197.821 205.024 197.105 205.369 196.632 205.983V202.531H195.75V211.441H196.632V210.598C197.092 211.186 197.795 211.544 198.716 211.544C200.556 211.544 201.515 210.163 201.515 208.284C201.515 206.315 200.467 205.024 198.716 205.024ZM198.588 210.764C197.258 210.764 196.555 209.716 196.555 208.284C196.555 206.788 197.322 205.804 198.588 205.804C199.866 205.804 200.633 206.788 200.633 208.284C200.633 209.716 199.93 210.764 198.588 210.764ZM205.807 211.544C207.609 211.544 208.837 210.138 208.837 208.284C208.837 206.418 207.597 205.037 205.807 205.037C204.005 205.037 202.79 206.418 202.79 208.284C202.79 210.15 204.005 211.544 205.807 211.544ZM205.807 210.764C204.465 210.764 203.672 209.716 203.672 208.284C203.672 206.865 204.452 205.817 205.807 205.817C207.149 205.817 207.955 206.852 207.955 208.284C207.955 209.69 207.162 210.764 205.807 210.764ZM213.366 205.037C212.727 205.037 211.96 205.254 211.5 206.085V205.139H210.618V211.441H211.5V207.926C211.5 206.558 212.216 205.83 213.187 205.83C213.456 205.83 213.724 205.893 214.018 206.021L214.453 205.305C214.108 205.114 213.75 205.037 213.366 205.037ZM217.947 205.037C216.873 205.037 216.055 205.446 215.378 206.328L216.017 206.865C216.528 206.162 217.142 205.817 217.934 205.817C218.995 205.817 219.571 206.418 219.571 207.517V207.811H218.279C217.039 207.811 216.362 207.926 215.876 208.207C215.416 208.488 215.16 208.974 215.16 209.613C215.16 210.828 215.966 211.544 217.333 211.544C218.331 211.544 219.098 211.173 219.596 210.47L219.647 211.441H220.453V207.517C220.453 205.945 219.532 205.037 217.947 205.037ZM217.589 210.815C216.643 210.815 216.042 210.368 216.042 209.665C216.042 209.307 216.157 209.025 216.387 208.846C216.694 208.604 217.193 208.527 218.356 208.527H219.571V208.616C219.571 209.959 218.804 210.815 217.589 210.815ZM225.21 210.598C224.929 210.687 224.686 210.738 224.469 210.738C223.97 210.738 223.689 210.457 223.689 209.843V205.881H225.21V205.139H223.689V202.838L222.807 203.503V205.139H221.758V205.881H222.807V209.959C222.807 211.071 223.42 211.544 224.264 211.544C224.558 211.544 224.89 211.48 225.223 211.377L225.21 210.598ZM231.858 207.977C231.858 206.545 231.053 205.037 229.122 205.037C227.294 205.037 226.323 206.545 226.323 208.322C226.323 210.112 227.307 211.544 229.225 211.544C230.196 211.544 230.925 211.262 231.666 210.483L231.053 209.946C230.477 210.559 229.928 210.738 229.237 210.738C227.997 210.738 227.23 209.907 227.205 208.527H231.82C231.845 208.373 231.858 208.156 231.858 207.977ZM229.122 205.778C230.286 205.778 230.938 206.558 231.001 207.581C231.001 207.696 231.014 207.76 231.014 207.785H227.205C227.282 206.673 227.985 205.778 229.122 205.778Z" fill="white"/>
</g>
<g clip-path="url(#clip6_1858_2372)">
<path fill-rule="evenodd" clip-rule="evenodd" d="M43.3489 263.139C52.9304 263.139 60.6976 255.372 60.6976 245.79C60.6976 236.209 52.9304 228.441 43.3489 228.441C33.7675 228.441 26.0001 236.209 26.0001 245.79C26.0001 255.372 33.7675 263.139 43.3489 263.139Z" fill="#ADB8FA"/>
<rect x="38.2469" y="238.667" width="8.78249" height="14.5491" stroke="white" stroke-width="2.45093"/>
<rect x="45" y="243.406" width="4" height="5.29669" fill="#B9C3FB"/>
<path d="M53.8211 245.368C54.1328 245.686 54.1328 246.195 53.8211 246.512L51.187 249.197C50.6746 249.72 49.7868 249.357 49.7868 248.625V243.255C49.7868 242.524 50.6746 242.161 51.187 242.683L53.8211 245.368Z" fill="white"/>
<path d="M50.2764 245.941H44.149" stroke="white" stroke-width="2.45093"/>
</g>
<g clip-path="url(#clip7_1858_2372)">
<path d="M75.5875 245.965H84.061V243.865H77.8702V240.468H83.6227V238.368H77.8702V235.336H84.061V233.236H75.5875V245.965ZM85.1814 245.965H87.8659L89.7286 242.933L91.5913 245.965H94.2758L91.1713 241.436L94.2758 236.962H91.5913L89.7286 239.938L87.8659 236.962H85.1814L88.2676 241.436L85.1814 245.965ZM100.41 236.779C99.4422 236.779 98.4378 237.09 97.8169 237.857V236.962H95.6254V249.69H97.8169V245.052C98.383 245.727 99.3874 246.147 100.41 246.147C102.62 246.147 104.208 244.413 104.208 241.472C104.208 238.77 102.857 236.779 100.41 236.779ZM99.8622 244.23C98.2917 244.23 97.616 243.025 97.616 241.454C97.616 239.847 98.2917 238.697 99.8804 238.697C101.341 238.697 102.017 239.683 102.017 241.454C102.017 243.207 101.323 244.23 99.8622 244.23ZM109.783 246.147C112.559 246.147 114.293 243.993 114.293 241.454C114.293 238.898 112.559 236.779 109.783 236.779C106.989 236.779 105.272 238.898 105.272 241.454C105.272 243.993 106.989 246.147 109.783 246.147ZM109.783 244.23C108.121 244.23 107.464 242.915 107.464 241.454C107.464 239.975 108.121 238.697 109.783 238.697C111.445 238.697 112.102 239.975 112.102 241.454C112.102 242.915 111.445 244.23 109.783 244.23ZM120.665 236.779C119.642 236.779 118.638 237.382 118.254 238.496V236.962H116.045V245.965H118.236V241.436C118.236 239.738 118.894 238.916 120.227 238.916C120.665 238.916 121.012 239.025 121.322 239.226L122.382 237.29C121.797 236.925 121.268 236.779 120.665 236.779ZM128.659 238.697V236.962H126.413V233.602L124.221 235.227V236.962H122.76V238.697H124.221V243.445C124.221 245.362 125.5 246.147 127.015 246.147C127.563 246.147 128.111 246.056 128.659 245.874V244.12C128.257 244.248 127.874 244.321 127.563 244.321C126.851 244.321 126.413 243.993 126.413 243.28V238.697H128.659Z" fill="white"/>
<path d="M74.5652 261.441H80.4072V260.598H75.4728V257.325H79.9086V256.481H75.4728V253.375H80.4072V252.531H74.5652V261.441ZM81.5172 261.441H82.6038L84.4062 258.885L86.2087 261.441H87.2953L84.9815 258.284L87.2825 255.139H86.2087L84.4062 257.67L82.591 255.139H81.5172L83.8182 258.284L81.5172 261.441ZM91.7429 255.024C90.8481 255.024 90.1322 255.369 89.6593 255.983V255.139H88.7772V264.049H89.6593V260.598C90.1195 261.186 90.8225 261.544 91.7429 261.544C93.5837 261.544 94.5425 260.163 94.5425 258.284C94.5425 256.315 93.4942 255.024 91.7429 255.024ZM91.6151 260.764C90.2856 260.764 89.5826 259.716 89.5826 258.284C89.5826 256.788 90.3496 255.804 91.6151 255.804C92.8934 255.804 93.6604 256.788 93.6604 258.284C93.6604 259.716 92.9573 260.764 91.6151 260.764ZM98.8345 261.544C100.637 261.544 101.864 260.138 101.864 258.284C101.864 256.418 100.624 255.037 98.8345 255.037C97.032 255.037 95.8176 256.418 95.8176 258.284C95.8176 260.15 97.032 261.544 98.8345 261.544ZM98.8345 260.764C97.4922 260.764 96.6996 259.716 96.6996 258.284C96.6996 256.865 97.4794 255.817 98.8345 255.817C100.177 255.817 100.982 256.852 100.982 258.284C100.982 259.69 100.189 260.764 98.8345 260.764ZM106.394 255.037C105.755 255.037 104.988 255.254 104.527 256.085V255.139H103.645V261.441H104.527V257.926C104.527 256.558 105.243 255.83 106.215 255.83C106.483 255.83 106.752 255.893 107.046 256.021L107.48 255.305C107.135 255.114 106.777 255.037 106.394 255.037ZM111.721 260.598C111.44 260.687 111.197 260.738 110.979 260.738C110.481 260.738 110.2 260.457 110.2 259.843V255.881H111.721V255.139H110.2V252.838L109.318 253.503V255.139H108.269V255.881H109.318V259.959C109.318 261.071 109.931 261.544 110.775 261.544C111.069 261.544 111.401 261.48 111.734 261.377L111.721 260.598ZM122.604 261.441H123.614L120.278 252.531H119.523L116.2 261.441H117.197L118.053 259.051H121.761L122.604 261.441ZM118.322 258.271L119.907 253.823L121.479 258.271H118.322ZM127.147 261.544C128.361 261.544 129.409 260.905 129.409 259.626C129.409 257.236 125.766 258.182 125.766 256.686C125.766 256.136 126.265 255.817 127.044 255.817C127.824 255.817 128.323 256.175 128.63 256.737L129.333 256.354C128.898 255.459 128.08 255.037 127.07 255.037C125.804 255.037 124.91 255.714 124.91 256.814C124.91 259.051 128.54 258.003 128.54 259.677C128.54 260.342 127.99 260.764 127.134 260.764C126.15 260.764 125.536 260.214 125.306 259.562L124.564 259.895C124.897 260.905 125.907 261.544 127.147 261.544ZM131.197 261.441H132.079V259.588L133.523 258.054L135.722 261.441H136.77L134.124 257.504L136.412 255.139H135.223L132.079 258.476V252.531H131.197V261.441ZM142.862 257.977C142.862 256.545 142.057 255.037 140.126 255.037C138.298 255.037 137.327 256.545 137.327 258.322C137.327 260.112 138.311 261.544 140.229 261.544C141.2 261.544 141.929 261.262 142.67 260.483L142.057 259.946C141.481 260.559 140.932 260.738 140.241 260.738C139.001 260.738 138.234 259.907 138.209 258.527H142.824C142.849 258.373 142.862 258.156 142.862 257.977ZM140.126 255.778C141.29 255.778 141.941 256.558 142.005 257.581C142.005 257.696 142.018 257.76 142.018 257.785H138.209C138.285 256.673 138.989 255.778 140.126 255.778ZM147.39 255.037C146.751 255.037 145.984 255.254 145.524 256.085V255.139H144.642V261.441H145.524V257.926C145.524 256.558 146.24 255.83 147.211 255.83C147.48 255.83 147.748 255.893 148.042 256.021L148.477 255.305C148.131 255.114 147.774 255.037 147.39 255.037ZM155.607 261.544C156.745 261.544 157.665 260.943 158.087 259.792L157.269 259.486C157.026 260.291 156.399 260.764 155.607 260.764C154.252 260.764 153.651 259.601 153.651 258.31C153.651 257.018 154.252 255.817 155.594 255.817C156.387 255.817 157.013 256.303 157.307 257.108L158.151 256.776C157.652 255.599 156.719 255.037 155.594 255.037C153.689 255.037 152.756 256.648 152.756 258.31C152.756 260.061 153.779 261.544 155.607 261.544ZM162.177 261.544C163.979 261.544 165.206 260.138 165.206 258.284C165.206 256.418 163.966 255.037 162.177 255.037C160.374 255.037 159.16 256.418 159.16 258.284C159.16 260.15 160.374 261.544 162.177 261.544ZM162.177 260.764C160.834 260.764 160.042 259.716 160.042 258.284C160.042 256.865 160.822 255.817 162.177 255.817C163.519 255.817 164.324 256.852 164.324 258.284C164.324 259.69 163.532 260.764 162.177 260.764ZM169.953 255.037C169.046 255.037 168.279 255.42 167.869 256.06V255.139H166.987V261.441H167.869V258.616C167.869 256.839 168.56 255.817 169.749 255.817C170.695 255.817 171.129 256.443 171.129 257.798V261.441H172.011V257.581C172.011 255.906 171.308 255.037 169.953 255.037ZM176.798 260.598C176.517 260.687 176.274 260.738 176.057 260.738C175.558 260.738 175.277 260.457 175.277 259.843V255.881H176.798V255.139H175.277V252.838L174.395 253.503V255.139H173.347V255.881H174.395V259.959C174.395 261.071 175.009 261.544 175.852 261.544C176.146 261.544 176.479 261.48 176.811 261.377L176.798 260.598ZM180.671 255.037C179.597 255.037 178.779 255.446 178.101 256.328L178.741 256.865C179.252 256.162 179.865 255.817 180.658 255.817C181.719 255.817 182.294 256.418 182.294 257.517V257.811H181.003C179.763 257.811 179.086 257.926 178.6 258.207C178.14 258.488 177.884 258.974 177.884 259.613C177.884 260.828 178.689 261.544 180.057 261.544C181.054 261.544 181.821 261.173 182.32 260.47L182.371 261.441H183.176V257.517C183.176 255.945 182.256 255.037 180.671 255.037ZM180.313 260.815C179.367 260.815 178.766 260.368 178.766 259.665C178.766 259.307 178.881 259.025 179.111 258.846C179.418 258.604 179.917 258.527 181.08 258.527H182.294V258.616C182.294 259.959 181.527 260.815 180.313 260.815ZM187.652 261.544C188.79 261.544 189.711 260.943 190.132 259.792L189.314 259.486C189.071 260.291 188.445 260.764 187.652 260.764C186.297 260.764 185.697 259.601 185.697 258.31C185.697 257.018 186.297 255.817 187.64 255.817C188.432 255.817 189.059 256.303 189.353 257.108L190.196 256.776C189.698 255.599 188.765 255.037 187.64 255.037C185.735 255.037 184.802 256.648 184.802 258.31C184.802 260.061 185.824 261.544 187.652 261.544ZM194.425 260.598C194.144 260.687 193.901 260.738 193.684 260.738C193.185 260.738 192.904 260.457 192.904 259.843V255.881H194.425V255.139H192.904V252.838L192.022 253.503V255.139H190.974V255.881H192.022V259.959C192.022 261.071 192.636 261.544 193.479 261.544C193.773 261.544 194.106 261.48 194.438 261.377L194.425 260.598ZM198.079 261.544C199.293 261.544 200.342 260.905 200.342 259.626C200.342 257.236 196.698 258.182 196.698 256.686C196.698 256.136 197.197 255.817 197.977 255.817C198.756 255.817 199.255 256.175 199.562 256.737L200.265 256.354C199.83 255.459 199.012 255.037 198.002 255.037C196.737 255.037 195.842 255.714 195.842 256.814C195.842 259.051 199.472 258.003 199.472 259.677C199.472 260.342 198.923 260.764 198.066 260.764C197.082 260.764 196.468 260.214 196.238 259.562L195.497 259.895C195.829 260.905 196.839 261.544 198.079 261.544Z" fill="white"/>
</g>
<g clip-path="url(#clip8_1858_2372)">
<path fill-rule="evenodd" clip-rule="evenodd" d="M43.3489 313.139C52.9304 313.139 60.6976 305.372 60.6976 295.79C60.6976 286.209 52.9304 278.441 43.3489 278.441C33.7675 278.441 26.0001 286.209 26.0001 295.79C26.0001 305.372 33.7675 313.139 43.3489 313.139Z" fill="#ADB8FA"/>
<path fill-rule="evenodd" clip-rule="evenodd" d="M43.67 287.512C39.0766 287.512 35.3401 291.245 35.3401 295.835C35.3401 297.287 35.7201 298.713 36.4404 299.968L35.072 304.069C35.0394 304.167 35.0632 304.275 35.1339 304.351C35.1882 304.409 35.2632 304.44 35.3401 304.44C35.3642 304.44 35.3879 304.437 35.412 304.431L39.8924 303.253C41.0561 303.845 42.3599 304.158 43.67 304.158C48.2635 304.158 52 300.424 52 295.835C52 291.245 48.2635 287.512 43.67 287.512ZM39.8579 297.104C39.2352 297.104 38.7286 296.598 38.7286 295.976C38.7286 295.353 39.2352 294.847 39.8579 294.847C40.481 294.847 40.9875 295.353 40.9875 295.976C40.9875 296.598 40.481 297.104 39.8579 297.104ZM43.5288 297.104C42.9061 297.104 42.3992 296.598 42.3992 295.976C42.3992 295.353 42.9061 294.847 43.5288 294.847C44.1516 294.847 44.6585 295.353 44.6585 295.976C44.6585 296.598 44.1516 297.104 43.5288 297.104ZM47.2002 297.104C46.5771 297.104 46.0705 296.598 46.0705 295.976C46.0705 295.353 46.5771 294.847 47.2002 294.847C47.8232 294.847 48.3295 295.353 48.3295 295.976C48.3295 296.598 47.8232 297.104 47.2002 297.104Z" fill="white"/>
</g>
<g clip-path="url(#clip9_1858_2372)">
<path d="M80.8834 296.239C83.6045 296.239 85.6498 294.906 86.5629 292.44L84.4262 291.637C83.8784 293.244 82.6366 294.066 80.8834 294.066C78.4364 294.066 76.9937 292.44 76.9937 289.573C76.9937 286.724 78.4181 285.117 80.8834 285.117C82.6183 285.117 83.8601 285.903 84.4262 287.491L86.5263 286.67C85.595 284.241 83.5679 282.944 80.8834 282.944C77.1215 282.944 74.7109 285.519 74.7109 289.591C74.7109 293.664 77.1215 296.239 80.8834 296.239ZM91.6458 296.147C94.4216 296.147 96.1565 293.993 96.1565 291.454C96.1565 288.898 94.4216 286.779 91.6458 286.779C88.8517 286.779 87.1351 288.898 87.1351 291.454C87.1351 293.993 88.8517 296.147 91.6458 296.147ZM91.6458 294.23C89.984 294.23 89.3265 292.915 89.3265 291.454C89.3265 289.975 89.984 288.697 91.6458 288.697C93.3076 288.697 93.965 289.975 93.965 291.454C93.965 292.915 93.3076 294.23 91.6458 294.23ZM102.82 286.779C101.724 286.779 100.738 287.144 100.099 288.003V286.962H97.9077V295.965H100.099V292.367C100.099 290.76 100.099 288.697 102.144 288.697C103.806 288.697 103.806 290.085 103.806 290.705V295.965H105.998V290.158C105.998 288.021 104.847 286.779 102.82 286.779ZM113.161 288.697V286.962H110.915V283.602L108.724 285.227V286.962H107.263V288.697H108.724V293.445C108.724 295.362 110.002 296.147 111.518 296.147C112.066 296.147 112.613 296.056 113.161 295.874V294.12C112.759 294.248 112.376 294.321 112.066 294.321C111.353 294.321 110.915 293.993 110.915 293.28V288.697H113.161ZM118.623 286.779C116.98 286.779 115.647 287.418 114.569 288.715L116.158 290.048C116.815 289.171 117.674 288.697 118.587 288.697C119.628 288.697 120.285 289.299 120.285 290.285V290.541H118.039C117.016 290.541 116.249 290.669 115.647 290.943C114.77 291.345 114.295 292.148 114.295 293.207C114.295 294.924 115.647 296.147 117.546 296.147C118.733 296.147 119.755 295.636 120.285 294.796L120.468 295.965H122.476V290.285C122.476 288.112 120.997 286.779 118.623 286.779ZM117.893 294.285C117.016 294.285 116.487 293.883 116.487 293.244C116.487 292.915 116.614 292.659 116.852 292.495C117.144 292.276 117.582 292.185 118.331 292.185H120.285C120.285 293.353 119.208 294.285 117.893 294.285ZM128.327 296.147C130.117 296.147 131.505 295.161 132.107 293.481L130.117 292.714C129.879 293.646 129.185 294.23 128.309 294.23C126.775 294.23 126.209 292.915 126.209 291.491C126.209 290.066 126.793 288.697 128.309 288.697C129.204 288.697 129.879 289.299 130.117 290.249L132.198 289.427C131.505 287.637 130.098 286.779 128.309 286.779C125.369 286.779 123.962 289.117 123.962 291.491C123.962 293.865 125.387 296.147 128.327 296.147ZM138.574 288.697V286.962H136.328V283.602L134.137 285.227V286.962H132.676V288.697H134.137V293.445C134.137 295.362 135.415 296.147 136.931 296.147C137.479 296.147 138.027 296.056 138.574 295.874V294.12C138.173 294.248 137.789 294.321 137.479 294.321C136.766 294.321 136.328 293.993 136.328 293.28V288.697H138.574Z" fill="white"/>
<path d="M80.65 311.441L78.2212 307.376C79.4228 307.057 80.0492 306.251 80.0492 304.999C80.0492 303.388 79.0266 302.531 77.1091 302.531H74.5652V311.441H75.4728V307.491H76.7128H77.3136L79.589 311.441H80.65ZM75.4728 306.648V303.375H77.0196C78.4258 303.375 79.1288 303.925 79.1288 305.011C79.1288 306.098 78.4258 306.648 77.0196 306.648H75.4728ZM87.1348 307.977C87.1348 306.545 86.3294 305.037 84.3991 305.037C82.5711 305.037 81.5996 306.545 81.5996 308.322C81.5996 310.112 82.5839 311.544 84.5014 311.544C85.4729 311.544 86.2016 311.262 86.943 310.483L86.3294 309.946C85.7542 310.559 85.2045 310.738 84.5142 310.738C83.2742 310.738 82.5072 309.907 82.4816 308.527H87.0964C87.122 308.373 87.1348 308.156 87.1348 307.977ZM84.3991 305.778C85.5624 305.778 86.2144 306.558 86.2783 307.581C86.2783 307.696 86.2911 307.76 86.2911 307.785H82.4816C82.5583 306.673 83.2614 305.778 84.3991 305.778ZM90.8192 311.544C92.0337 311.544 93.0819 310.905 93.0819 309.626C93.0819 307.236 89.4386 308.182 89.4386 306.686C89.4386 306.136 89.9372 305.817 90.717 305.817C91.4968 305.817 91.9953 306.175 92.3021 306.737L93.0052 306.354C92.5706 305.459 91.7524 305.037 90.7425 305.037C89.477 305.037 88.5822 305.714 88.5822 306.814C88.5822 309.051 92.2126 308.003 92.2126 309.677C92.2126 310.342 91.6629 310.764 90.8065 310.764C89.8221 310.764 89.2085 310.214 88.9784 309.562L88.237 309.895C88.5694 310.905 89.5793 311.544 90.8192 311.544ZM97.835 305.024C96.9401 305.024 96.2243 305.369 95.7513 305.983V305.139H94.8692V314.049H95.7513V310.598C96.2115 311.186 96.9146 311.544 97.835 311.544C99.6758 311.544 100.635 310.163 100.635 308.284C100.635 306.315 99.5863 305.024 97.835 305.024ZM97.7071 310.764C96.3777 310.764 95.6746 309.716 95.6746 308.284C95.6746 306.788 96.4416 305.804 97.7071 305.804C98.9855 305.804 99.7525 306.788 99.7525 308.284C99.7525 309.716 99.0494 310.764 97.7071 310.764ZM104.926 311.544C106.729 311.544 107.956 310.138 107.956 308.284C107.956 306.418 106.716 305.037 104.926 305.037C103.124 305.037 101.91 306.418 101.91 308.284C101.91 310.15 103.124 311.544 104.926 311.544ZM104.926 310.764C103.584 310.764 102.792 309.716 102.792 308.284C102.792 306.865 103.571 305.817 104.926 305.817C106.269 305.817 107.074 306.852 107.074 308.284C107.074 309.69 106.282 310.764 104.926 310.764ZM112.703 305.037C111.795 305.037 111.028 305.42 110.619 306.06V305.139H109.737V311.441H110.619V308.616C110.619 306.839 111.31 305.817 112.498 305.817C113.444 305.817 113.879 306.443 113.879 307.798V311.441H114.761V307.581C114.761 305.906 114.058 305.037 112.703 305.037ZM121.325 302.531V305.983C120.852 305.369 120.136 305.024 119.241 305.024C117.49 305.024 116.442 306.315 116.442 308.284C116.442 310.163 117.401 311.544 119.241 311.544C120.162 311.544 120.865 311.186 121.325 310.598V311.441H122.207V302.531H121.325ZM119.369 310.764C118.027 310.764 117.324 309.716 117.324 308.284C117.324 306.788 118.091 305.804 119.369 305.804C120.635 305.804 121.402 306.788 121.402 308.284C121.402 309.716 120.699 310.764 119.369 310.764ZM130.634 310.598C130.352 310.687 130.11 310.738 129.892 310.738C129.394 310.738 129.112 310.457 129.112 309.843V305.881H130.634V305.139H129.112V302.838L128.23 303.503V305.139H127.182V305.881H128.23V309.959C128.23 311.071 128.844 311.544 129.688 311.544C129.982 311.544 130.314 311.48 130.646 311.377L130.634 310.598ZM134.725 311.544C136.527 311.544 137.755 310.138 137.755 308.284C137.755 306.418 136.515 305.037 134.725 305.037C132.923 305.037 131.708 306.418 131.708 308.284C131.708 310.15 132.923 311.544 134.725 311.544ZM134.725 310.764C133.383 310.764 132.59 309.716 132.59 308.284C132.59 306.865 133.37 305.817 134.725 305.817C136.067 305.817 136.873 306.852 136.873 308.284C136.873 309.69 136.08 310.764 134.725 310.764ZM143.722 314.049H144.668L148.119 305.139H147.147L145.243 310.329L143.07 305.139H142.098L144.77 311.365L143.722 314.049ZM151.765 311.544C153.568 311.544 154.795 310.138 154.795 308.284C154.795 306.418 153.555 305.037 151.765 305.037C149.963 305.037 148.748 306.418 148.748 308.284C148.748 310.15 149.963 311.544 151.765 311.544ZM151.765 310.764C150.423 310.764 149.63 309.716 149.63 308.284C149.63 306.865 150.41 305.817 151.765 305.817C153.107 305.817 153.913 306.852 153.913 308.284C153.913 309.69 153.12 310.764 151.765 310.764ZM160.502 305.139V308.041C160.502 309.677 159.876 310.764 158.623 310.764C157.421 310.764 157.242 309.805 157.242 308.782V305.139H156.36V309C156.36 310.559 156.987 311.544 158.418 311.544C159.249 311.544 160.055 311.211 160.502 310.534V311.441H161.384V305.139H160.502ZM166.465 305.037C165.826 305.037 165.059 305.254 164.599 306.085V305.139H163.717V311.441H164.599V307.926C164.599 306.558 165.315 305.83 166.286 305.83C166.555 305.83 166.823 305.893 167.117 306.021L167.552 305.305C167.207 305.114 166.849 305.037 166.465 305.037ZM178.057 311.441H179.067L175.73 302.531H174.976L171.652 311.441H172.649L173.506 309.051H177.213L178.057 311.441ZM173.774 308.271L175.359 303.823L176.932 308.271H173.774ZM183.598 305.037C182.69 305.037 181.923 305.42 181.514 306.06V305.139H180.632V311.441H181.514V308.616C181.514 306.839 182.204 305.817 183.393 305.817C184.339 305.817 184.774 306.443 184.774 307.798V311.441H185.656V307.581C185.656 305.906 184.953 305.037 183.598 305.037ZM189.74 311.544C190.954 311.544 192.002 310.905 192.002 309.626C192.002 307.236 188.359 308.182 188.359 306.686C188.359 306.136 188.858 305.817 189.638 305.817C190.417 305.817 190.916 306.175 191.223 306.737L191.926 306.354C191.491 305.459 190.673 305.037 189.663 305.037C188.398 305.037 187.503 305.714 187.503 306.814C187.503 309.051 191.133 308.003 191.133 309.677C191.133 310.342 190.584 310.764 189.727 310.764C188.743 310.764 188.129 310.214 187.899 309.562L187.158 309.895C187.49 310.905 188.5 311.544 189.74 311.544ZM194.776 311.441H195.594L197.294 306.354L198.969 311.441H199.799L201.64 305.139H200.707L199.339 310.112L197.69 305.139H196.885L195.223 310.112L193.868 305.139H192.922L194.776 311.441ZM208.077 307.977C208.077 306.545 207.271 305.037 205.341 305.037C203.513 305.037 202.541 306.545 202.541 308.322C202.541 310.112 203.526 311.544 205.443 311.544C206.415 311.544 207.143 311.262 207.885 310.483L207.271 309.946C206.696 310.559 206.146 310.738 205.456 310.738C204.216 310.738 203.449 309.907 203.423 308.527H208.038C208.064 308.373 208.077 308.156 208.077 307.977ZM205.341 305.778C206.504 305.778 207.156 306.558 207.22 307.581C207.22 307.696 207.233 307.76 207.233 307.785H203.423C203.5 306.673 204.203 305.778 205.341 305.778ZM212.605 305.037C211.966 305.037 211.199 305.254 210.738 306.085V305.139H209.856V311.441H210.738V307.926C210.738 306.558 211.454 305.83 212.426 305.83C212.694 305.83 212.963 305.893 213.257 306.021L213.691 305.305C213.346 305.114 212.988 305.037 212.605 305.037ZM216.517 311.544C217.732 311.544 218.78 310.905 218.78 309.626C218.78 307.236 215.137 308.182 215.137 306.686C215.137 306.136 215.635 305.817 216.415 305.817C217.195 305.817 217.693 306.175 218 306.737L218.703 306.354C218.269 305.459 217.45 305.037 216.441 305.037C215.175 305.037 214.28 305.714 214.28 306.814C214.28 309.051 217.911 308.003 217.911 309.677C217.911 310.342 217.361 310.764 216.505 310.764C215.52 310.764 214.907 310.214 214.677 309.562L213.935 309.895C214.267 310.905 215.277 311.544 216.517 311.544Z" fill="white"/>
</g>
<g clip-path="url(#clip10_1858_2372)">
<path fill-rule="evenodd" clip-rule="evenodd" d="M43.3489 363.139C52.9304 363.139 60.6976 355.372 60.6976 345.79C60.6976 336.209 52.9304 328.441 43.3489 328.441C33.7675 328.441 26.0001 336.209 26.0001 345.79C26.0001 355.372 33.7675 363.139 43.3489 363.139Z" fill="#ADB8FA"/>
<path fill-rule="evenodd" clip-rule="evenodd" d="M43.67 337.512C39.0766 337.512 35.3401 341.245 35.3401 345.835C35.3401 347.287 35.7201 348.713 36.4404 349.968L35.072 354.069C35.0394 354.167 35.0632 354.275 35.1339 354.351C35.1882 354.409 35.2632 354.44 35.3401 354.44C35.3642 354.44 35.3879 354.437 35.412 354.431L39.8924 353.253C41.0561 353.845 42.3599 354.158 43.67 354.158C48.2635 354.158 52 350.424 52 345.835C52 341.245 48.2635 337.512 43.67 337.512ZM39.8579 347.104C39.2352 347.104 38.7286 346.598 38.7286 345.976C38.7286 345.353 39.2352 344.847 39.8579 344.847C40.481 344.847 40.9875 345.353 40.9875 345.976C40.9875 346.598 40.481 347.104 39.8579 347.104ZM43.5288 347.104C42.9061 347.104 42.3992 346.598 42.3992 345.976C42.3992 345.353 42.9061 344.847 43.5288 344.847C44.1516 344.847 44.6585 345.353 44.6585 345.976C44.6585 346.598 44.1516 347.104 43.5288 347.104ZM47.2002 347.104C46.5771 347.104 46.0705 346.598 46.0705 345.976C46.0705 345.353 46.5771 344.847 47.2002 344.847C47.8232 344.847 48.3295 345.353 48.3295 345.976C48.3295 346.598 47.8232 347.104 47.2002 347.104Z" fill="white"/>
</g>
<g clip-path="url(#clip11_1858_2372)">
<path d="M83.2461 333.147V341.912L77.8954 333.147H75.5397V345.875H77.8224V337.073L83.1548 345.875H85.5289V333.147H83.2461ZM92.0616 346.058C94.8374 346.058 96.5723 343.903 96.5723 341.364C96.5723 338.808 94.8374 336.689 92.0616 336.689C89.2676 336.689 87.5509 338.808 87.5509 341.364C87.5509 343.903 89.2676 346.058 92.0616 346.058ZM92.0616 344.14C90.3998 344.14 89.7424 342.825 89.7424 341.364C89.7424 339.885 90.3998 338.607 92.0616 338.607C93.7234 338.607 94.3809 339.885 94.3809 341.364C94.3809 342.825 93.7234 344.14 92.0616 344.14ZM103.091 338.607V336.872H100.845V333.512L98.6531 335.137V336.872H97.1922V338.607H98.6531V343.355C98.6531 345.272 99.9315 346.058 101.447 346.058C101.995 346.058 102.543 345.966 103.091 345.784V344.031C102.689 344.158 102.306 344.231 101.995 344.231C101.283 344.231 100.845 343.903 100.845 343.191V338.607H103.091ZM104.956 335.174H107.257V333.147H104.956V335.174ZM105.011 345.875H107.203V336.872H105.011V345.875ZM117.297 336.872H112.239V336.269C112.239 335.356 112.768 334.735 113.955 334.735C114.905 334.735 115.654 334.991 116.311 335.447L117.334 333.895C116.366 333.293 115.361 332.964 113.846 332.964C111.819 332.964 110.047 334.169 110.047 336.233V336.872H108.568V338.607H110.047V345.875H112.239V338.607H115.106V345.875H117.297V336.872ZM123.41 346.058C125.2 346.058 126.588 345.071 127.191 343.391L125.2 342.624C124.963 343.556 124.269 344.14 123.392 344.14C121.858 344.14 121.292 342.825 121.292 341.401C121.292 339.976 121.876 338.607 123.392 338.607C124.287 338.607 124.963 339.209 125.2 340.159L127.282 339.337C126.588 337.548 125.182 336.689 123.392 336.689C120.452 336.689 119.046 339.027 119.046 341.401C119.046 343.775 120.47 346.058 123.41 346.058ZM132.307 336.689C130.664 336.689 129.331 337.328 128.253 338.625L129.842 339.958C130.499 339.082 131.358 338.607 132.271 338.607C133.312 338.607 133.969 339.209 133.969 340.196V340.451H131.723C130.7 340.451 129.933 340.579 129.331 340.853C128.454 341.255 127.979 342.058 127.979 343.117C127.979 344.834 129.331 346.058 131.23 346.058C132.417 346.058 133.44 345.546 133.969 344.706L134.152 345.875H136.161V340.196C136.161 338.022 134.681 336.689 132.307 336.689ZM131.577 344.195C130.7 344.195 130.171 343.793 130.171 343.154C130.171 342.825 130.299 342.57 130.536 342.405C130.828 342.186 131.266 342.095 132.015 342.095H133.969C133.969 343.264 132.892 344.195 131.577 344.195ZM143.217 338.607V336.872H140.971V333.512L138.779 335.137V336.872H137.318V338.607H138.779V343.355C138.779 345.272 140.058 346.058 141.573 346.058C142.121 346.058 142.669 345.966 143.217 345.784V344.031C142.815 344.158 142.432 344.231 142.121 344.231C141.409 344.231 140.971 343.903 140.971 343.191V338.607H143.217ZM145.083 335.174H147.384V333.147H145.083V335.174ZM145.137 345.875H147.329V336.872H145.137V345.875ZM153.588 346.058C156.364 346.058 158.099 343.903 158.099 341.364C158.099 338.808 156.364 336.689 153.588 336.689C150.794 336.689 149.078 338.808 149.078 341.364C149.078 343.903 150.794 346.058 153.588 346.058ZM153.588 344.14C151.926 344.14 151.269 342.825 151.269 341.364C151.269 339.885 151.926 338.607 153.588 338.607C155.25 338.607 155.908 339.885 155.908 341.364C155.908 342.825 155.25 344.14 153.588 344.14ZM164.763 336.689C163.667 336.689 162.681 337.055 162.042 337.913V336.872H159.85V345.875H162.042V342.277C162.042 340.67 162.042 338.607 164.087 338.607C165.749 338.607 165.749 339.995 165.749 340.616V345.875H167.94V340.068C167.94 337.931 166.79 336.689 164.763 336.689ZM173.131 346.058C174.83 346.058 176.638 345.145 176.638 343.044C176.638 339.757 171.926 340.561 171.926 339.191C171.926 338.771 172.364 338.424 173.077 338.424C174.063 338.424 174.556 339.009 174.866 339.575L176.565 338.643C175.889 337.42 174.702 336.689 173.15 336.689C171.415 336.689 169.844 337.584 169.844 339.319C169.844 342.661 174.483 341.657 174.483 343.172C174.483 343.647 174.045 344.231 173.022 344.231C171.817 344.231 171.342 343.41 171.104 342.752L169.351 343.537C169.79 344.907 171.232 346.058 173.131 346.058Z" fill="white"/>
<path d="M76.6909 362.003C78.5317 362.003 79.5671 361.044 79.5671 359.548C79.5671 358.308 79.0047 357.593 77.0233 356.838C75.6171 356.301 75.0035 355.867 75.0035 355.049C75.0035 354.295 75.6682 353.655 76.6014 353.655C77.3684 353.655 78.0204 354.064 78.4039 354.755L79.1709 354.282C78.634 353.336 77.7519 352.837 76.627 352.837C75.1186 352.837 74.0959 353.732 74.0959 355.087C74.0959 356.25 74.7223 356.89 76.5247 357.567C78.0971 358.168 78.6467 358.666 78.6467 359.625C78.6467 360.507 77.9948 361.185 76.7037 361.185C75.5021 361.185 74.6328 360.456 74.4666 359.306L73.559 359.523C73.8019 361.019 75.0419 362.003 76.6909 362.003ZM83.9192 361.031C83.638 361.121 83.3951 361.172 83.1778 361.172C82.6793 361.172 82.398 360.891 82.398 360.277V356.314H83.9192V355.573H82.398V353.272L81.516 353.937V355.573H80.4678V356.314H81.516V360.392C81.516 361.504 82.1296 361.977 82.9733 361.977C83.2673 361.977 83.5997 361.913 83.932 361.811L83.9192 361.031ZM87.7918 355.471C86.718 355.471 85.8999 355.88 85.2223 356.762L85.8615 357.299C86.3728 356.596 86.9864 356.25 87.779 356.25C88.84 356.25 89.4153 356.851 89.4153 357.951V358.245H88.1241C86.8842 358.245 86.2067 358.36 85.7209 358.641C85.2607 358.922 85.005 359.408 85.005 360.047C85.005 361.261 85.8104 361.977 87.1782 361.977C88.1753 361.977 88.9423 361.607 89.4408 360.903L89.492 361.875H90.2973V357.951C90.2973 356.378 89.3769 355.471 87.7918 355.471ZM87.4338 361.249C86.4879 361.249 85.8871 360.801 85.8871 360.098C85.8871 359.74 86.0021 359.459 86.2322 359.28C86.539 359.037 87.0376 358.96 88.2008 358.96H89.4153V359.05C89.4153 360.392 88.6483 361.249 87.4338 361.249ZM93.0124 364.483H93.9583L97.4098 355.573H96.4383L94.5336 360.763L92.3604 355.573H91.3889L94.0606 361.798L93.0124 364.483ZM106.322 355.573V358.475C106.322 360.111 105.696 361.197 104.443 361.197C103.242 361.197 103.063 360.239 103.063 359.216V355.573H102.181V359.433C102.181 360.993 102.807 361.977 104.239 361.977C105.07 361.977 105.875 361.645 106.322 360.967V361.875H107.204V355.573H106.322ZM112.503 355.458C111.608 355.458 110.892 355.803 110.419 356.417V355.573H109.537V364.483H110.419V361.031C110.879 361.619 111.582 361.977 112.503 361.977C114.344 361.977 115.302 360.597 115.302 358.718C115.302 356.749 114.254 355.458 112.503 355.458ZM112.375 361.197C111.045 361.197 110.342 360.149 110.342 358.718C110.342 357.222 111.109 356.238 112.375 356.238C113.653 356.238 114.42 357.222 114.42 358.718C114.42 360.149 113.717 361.197 112.375 361.197ZM123.23 361.031C122.949 361.121 122.706 361.172 122.489 361.172C121.99 361.172 121.709 360.891 121.709 360.277V356.314H123.23V355.573H121.709V353.272L120.827 353.937V355.573H119.779V356.314H120.827V360.392C120.827 361.504 121.441 361.977 122.284 361.977C122.578 361.977 122.911 361.913 123.243 361.811L123.23 361.031ZM127.322 361.977C129.124 361.977 130.351 360.571 130.351 358.718C130.351 356.851 129.111 355.471 127.322 355.471C125.519 355.471 124.305 356.851 124.305 358.718C124.305 360.584 125.519 361.977 127.322 361.977ZM127.322 361.197C125.979 361.197 125.187 360.149 125.187 358.718C125.187 357.299 125.967 356.25 127.322 356.25C128.664 356.25 129.469 357.286 129.469 358.718C129.469 360.124 128.677 361.197 127.322 361.197ZM140.013 352.965V356.417C139.54 355.803 138.824 355.458 137.929 355.458C136.178 355.458 135.129 356.749 135.129 358.718C135.129 360.597 136.088 361.977 137.929 361.977C138.849 361.977 139.552 361.619 140.013 361.031V361.875H140.895V352.965H140.013ZM138.057 361.197C136.714 361.197 136.011 360.149 136.011 358.718C136.011 357.222 136.778 356.238 138.057 356.238C139.322 356.238 140.089 357.222 140.089 358.718C140.089 360.149 139.386 361.197 138.057 361.197ZM145.404 355.471C144.33 355.471 143.512 355.88 142.834 356.762L143.474 357.299C143.985 356.596 144.599 356.25 145.391 356.25C146.452 356.25 147.027 356.851 147.027 357.951V358.245H145.736C144.496 358.245 143.819 358.36 143.333 358.641C142.873 358.922 142.617 359.408 142.617 360.047C142.617 361.261 143.423 361.977 144.79 361.977C145.787 361.977 146.554 361.607 147.053 360.903L147.104 361.875H147.909V357.951C147.909 356.378 146.989 355.471 145.404 355.471ZM145.046 361.249C144.1 361.249 143.499 360.801 143.499 360.098C143.499 359.74 143.614 359.459 143.844 359.28C144.151 359.037 144.65 358.96 145.813 358.96H147.027V359.05C147.027 360.392 146.26 361.249 145.046 361.249ZM152.667 361.031C152.386 361.121 152.143 361.172 151.925 361.172C151.427 361.172 151.146 360.891 151.146 360.277V356.314H152.667V355.573H151.146V353.272L150.264 353.937V355.573H149.215V356.314H150.264V360.392C150.264 361.504 150.877 361.977 151.721 361.977C152.015 361.977 152.347 361.913 152.68 361.811L152.667 361.031ZM159.315 358.411C159.315 356.979 158.509 355.471 156.579 355.471C154.751 355.471 153.78 356.979 153.78 358.756C153.78 360.546 154.764 361.977 156.681 361.977C157.653 361.977 158.382 361.696 159.123 360.916L158.509 360.379C157.934 360.993 157.385 361.172 156.694 361.172C155.454 361.172 154.687 360.341 154.662 358.96H159.276C159.302 358.807 159.315 358.59 159.315 358.411ZM156.579 356.212C157.742 356.212 158.394 356.992 158.458 358.014C158.458 358.129 158.471 358.193 158.471 358.219H154.662C154.738 357.107 155.441 356.212 156.579 356.212ZM165.638 361.875H166.456L168.157 356.787L169.831 361.875H170.662L172.503 355.573H171.57L170.202 360.546L168.553 355.573H167.747L166.086 360.546L164.731 355.573H163.785L165.638 361.875ZM173.963 354.269H174.986V352.965H173.963V354.269ZM174.04 361.875H174.922V355.573H174.04V361.875ZM179.856 361.031C179.575 361.121 179.332 361.172 179.115 361.172C178.616 361.172 178.335 360.891 178.335 360.277V356.314H179.856V355.573H178.335V353.272L177.453 353.937V355.573H176.405V356.314H177.453V360.392C177.453 361.504 178.067 361.977 178.91 361.977C179.204 361.977 179.537 361.913 179.869 361.811L179.856 361.031ZM184.509 355.471C183.601 355.471 182.834 355.854 182.425 356.493V352.965H181.543V361.875H182.425V358.973C182.425 357.235 183.102 356.25 184.304 356.25C185.25 356.25 185.685 356.864 185.685 358.232V361.875H186.567V358.014C186.567 356.34 185.864 355.471 184.509 355.471ZM194.849 361.031C194.568 361.121 194.325 361.172 194.108 361.172C193.609 361.172 193.328 360.891 193.328 360.277V356.314H194.849V355.573H193.328V353.272L192.446 353.937V355.573H191.398V356.314H192.446V360.392C192.446 361.504 193.059 361.977 193.903 361.977C194.197 361.977 194.53 361.913 194.862 361.811L194.849 361.031ZM199.501 355.471C198.594 355.471 197.827 355.854 197.418 356.493V352.965H196.536V361.875H197.418V358.973C197.418 357.235 198.095 356.25 199.297 356.25C200.243 356.25 200.678 356.864 200.678 358.232V361.875H201.56V358.014C201.56 356.34 200.856 355.471 199.501 355.471ZM203.662 354.269H204.685V352.965H203.662V354.269ZM203.739 361.875H204.621V355.573H203.739V361.875ZM208.852 361.977C210.066 361.977 211.114 361.338 211.114 360.06C211.114 357.669 207.471 358.615 207.471 357.12C207.471 356.57 207.97 356.25 208.75 356.25C209.529 356.25 210.028 356.608 210.335 357.171L211.038 356.787C210.603 355.892 209.785 355.471 208.775 355.471C207.51 355.471 206.615 356.148 206.615 357.247C206.615 359.485 210.245 358.436 210.245 360.111C210.245 360.776 209.696 361.197 208.839 361.197C207.855 361.197 207.241 360.648 207.011 359.996L206.27 360.328C206.602 361.338 207.612 361.977 208.852 361.977ZM222.099 361.875H223.108L219.772 352.965H219.018L215.694 361.875H216.691L217.548 359.485H221.255L222.099 361.875ZM217.816 358.705L219.401 354.256L220.974 358.705H217.816ZM226.641 361.977C227.855 361.977 228.904 361.338 228.904 360.06C228.904 357.669 225.26 358.615 225.26 357.12C225.26 356.57 225.759 356.25 226.539 356.25C227.319 356.25 227.817 356.608 228.124 357.171L228.827 356.787C228.392 355.892 227.574 355.471 226.564 355.471C225.299 355.471 224.404 356.148 224.404 357.247C224.404 359.485 228.034 358.436 228.034 360.111C228.034 360.776 227.485 361.197 226.628 361.197C225.644 361.197 225.03 360.648 224.8 359.996L224.059 360.328C224.391 361.338 225.401 361.977 226.641 361.977ZM230.691 361.875H231.573V360.021L233.018 358.487L235.216 361.875H236.265L233.618 357.938L235.907 355.573H234.718L231.573 358.909V352.965H230.691V361.875ZM242.356 358.411C242.356 356.979 241.551 355.471 239.621 355.471C237.793 355.471 236.821 356.979 236.821 358.756C236.821 360.546 237.805 361.977 239.723 361.977C240.694 361.977 241.423 361.696 242.164 360.916L241.551 360.379C240.976 360.993 240.426 361.172 239.736 361.172C238.496 361.172 237.729 360.341 237.703 358.96H242.318C242.343 358.807 242.356 358.59 242.356 358.411ZM239.621 356.212C240.784 356.212 241.436 356.992 241.5 358.014C241.5 358.129 241.513 358.193 241.513 358.219H237.703C237.78 357.107 238.483 356.212 239.621 356.212ZM246.884 355.471C246.245 355.471 245.478 355.688 245.018 356.519V355.573H244.136V361.875H245.018V358.36C245.018 356.992 245.734 356.263 246.705 356.263C246.974 356.263 247.242 356.327 247.536 356.455L247.971 355.739C247.626 355.547 247.268 355.471 246.884 355.471Z" fill="white"/>
</g>
<g clip-path="url(#clip12_1858_2372)">
<path fill-rule="evenodd" clip-rule="evenodd" d="M43.3489 432.139C52.9304 432.139 60.6976 424.372 60.6976 414.79C60.6976 405.209 52.9304 397.441 43.3489 397.441C33.7675 397.441 26.0001 405.209 26.0001 414.79C26.0001 424.372 33.7675 432.139 43.3489 432.139Z" fill="#ADB8FA"/>
<path fill-rule="evenodd" clip-rule="evenodd" d="M43.67 406.512C39.0766 406.512 35.3401 410.245 35.3401 414.835C35.3401 416.287 35.7201 417.713 36.4404 418.968L35.072 423.069C35.0394 423.167 35.0632 423.275 35.1339 423.351C35.1882 423.409 35.2632 423.44 35.3401 423.44C35.3642 423.44 35.3879 423.437 35.412 423.431L39.8924 422.253C41.0561 422.845 42.3599 423.158 43.67 423.158C48.2635 423.158 52 419.424 52 414.835C52 410.245 48.2635 406.512 43.67 406.512ZM39.8579 416.104C39.2352 416.104 38.7286 415.598 38.7286 414.976C38.7286 414.353 39.2352 413.847 39.8579 413.847C40.481 413.847 40.9875 414.353 40.9875 414.976C40.9875 415.598 40.481 416.104 39.8579 416.104ZM43.5288 416.104C42.9061 416.104 42.3992 415.598 42.3992 414.976C42.3992 414.353 42.9061 413.847 43.5288 413.847C44.1516 413.847 44.6585 414.353 44.6585 414.976C44.6585 415.598 44.1516 416.104 43.5288 416.104ZM47.2002 416.104C46.5771 416.104 46.0705 415.598 46.0705 414.976C46.0705 414.353 46.5771 413.847 47.2002 413.847C47.8232 413.847 48.3295 414.353 48.3295 414.976C48.3295 415.598 47.8232 416.104 47.2002 416.104Z" fill="white"/>
</g>
<g clip-path="url(#clip13_1858_2372)">
<path d="M83.4105 414.875H85.8941L80.8173 402.147H79.1007L74.0057 414.875H76.4893L77.4571 412.245H82.4426L83.4105 414.875ZM78.2424 410.145L79.959 405.507L81.6756 410.145H78.2424ZM91.8333 405.689C90.8107 405.689 89.8063 406.292 89.4228 407.406V405.872H87.2131V414.875H89.4045V410.346C89.4045 408.648 90.0619 407.826 91.3951 407.826C91.8333 407.826 92.1803 407.936 92.4908 408.136L93.55 406.201C92.9656 405.835 92.436 405.689 91.8333 405.689ZM97.7833 415.058C99.5729 415.058 100.961 414.071 101.563 412.391L99.5729 411.624C99.3355 412.556 98.6416 413.14 97.765 413.14C96.231 413.14 95.6649 411.825 95.6649 410.401C95.6649 408.976 96.2493 407.607 97.765 407.607C98.6598 407.607 99.3355 408.209 99.5729 409.159L101.655 408.337C100.961 406.548 99.5547 405.689 97.765 405.689C94.8249 405.689 93.4187 408.027 93.4187 410.401C93.4187 412.775 94.8431 415.058 97.7833 415.058ZM108.159 405.689C106.972 405.689 106.04 406.109 105.438 406.895V402.147H103.246V414.875H105.438V411.277C105.438 408.684 106.04 407.607 107.483 407.607C108.615 407.607 109.145 408.246 109.145 409.616V414.875H111.336V409.068C111.336 406.913 110.186 405.689 108.159 405.689ZM113.642 404.174H115.943V402.147H113.642V404.174ZM113.696 414.875H115.888V405.872H113.696V414.875ZM120.741 414.875H122.549L126.22 405.872H123.846L121.636 412.026L119.463 405.872H117.07L120.741 414.875ZM134.813 410.255C134.813 407.753 133.462 405.689 130.668 405.689C127.673 405.689 126.394 408.063 126.394 410.419C126.394 412.83 127.709 415.058 130.814 415.058C132.329 415.058 133.516 414.528 134.503 413.432L132.987 412.099C132.366 412.811 131.635 413.067 130.832 413.067C129.407 413.067 128.677 412.282 128.586 411.095H134.758C134.795 410.803 134.813 410.529 134.813 410.255ZM128.567 409.36C128.695 408.465 129.316 407.515 130.649 407.515C131.8 407.515 132.676 408.209 132.713 409.36H128.567Z" fill="white"/>
<path d="M76.448 430.875H77.3684V422.809H80.462V421.965H73.3672V422.809H76.448V430.875ZM83.1479 424.471C82.0741 424.471 81.2559 424.88 80.5784 425.762L81.2176 426.299C81.7289 425.596 82.3425 425.25 83.1351 425.25C84.1961 425.25 84.7713 425.851 84.7713 426.951V427.245H83.4802C82.2402 427.245 81.5627 427.36 81.077 427.641C80.6168 427.922 80.3611 428.408 80.3611 429.047C80.3611 430.261 81.1664 430.977 82.5343 430.977C83.5314 430.977 84.2984 430.607 84.7969 429.903L84.848 430.875H85.6534V426.951C85.6534 425.378 84.733 424.471 83.1479 424.471ZM82.7899 430.249C81.844 430.249 81.2431 429.801 81.2431 429.098C81.2431 428.74 81.3582 428.459 81.5883 428.28C81.8951 428.037 82.3936 427.96 83.5569 427.96H84.7713V428.05C84.7713 429.392 84.0043 430.249 82.7899 430.249ZM87.803 430.875H88.685V429.021L90.1295 427.487L92.3282 430.875H93.3765L90.7303 426.938L93.0185 424.573H91.8297L88.685 427.909V421.965H87.803V430.875ZM99.4681 427.411C99.4681 425.979 98.6628 424.471 96.7325 424.471C94.9045 424.471 93.9329 425.979 93.9329 427.756C93.9329 429.546 94.9173 430.977 96.8348 430.977C97.8063 430.977 98.5349 430.696 99.2764 429.916L98.6628 429.379C98.0875 429.993 97.5378 430.172 96.8475 430.172C95.6076 430.172 94.8406 429.341 94.815 427.96H99.4298C99.4553 427.807 99.4681 427.59 99.4681 427.411ZM96.7325 425.212C97.8958 425.212 98.5477 425.992 98.6116 427.014C98.6116 427.129 98.6244 427.193 98.6244 427.219H94.815C94.8917 426.107 95.5948 425.212 96.7325 425.212ZM105.434 433.483H106.38L109.831 424.573H108.86L106.955 429.763L104.782 424.573H103.81L106.482 430.798L105.434 433.483ZM113.477 430.977C115.28 430.977 116.507 429.571 116.507 427.718C116.507 425.851 115.267 424.471 113.477 424.471C111.675 424.471 110.46 425.851 110.46 427.718C110.46 429.584 111.675 430.977 113.477 430.977ZM113.477 430.197C112.135 430.197 111.342 429.149 111.342 427.718C111.342 426.299 112.122 425.25 113.477 425.25C114.82 425.25 115.625 426.286 115.625 427.718C115.625 429.124 114.832 430.197 113.477 430.197ZM122.214 424.573V427.475C122.214 429.111 121.588 430.197 120.335 430.197C119.133 430.197 118.954 429.239 118.954 428.216V424.573H118.072V428.433C118.072 429.993 118.699 430.977 120.13 430.977C120.961 430.977 121.767 430.645 122.214 429.967V430.875H123.096V424.573H122.214ZM128.177 424.471C127.538 424.471 126.771 424.688 126.311 425.519V424.573H125.429V430.875H126.311V427.36C126.311 425.992 127.027 425.263 127.998 425.263C128.267 425.263 128.535 425.327 128.829 425.455L129.264 424.739C128.919 424.547 128.561 424.471 128.177 424.471ZM139.769 430.875H140.779L137.442 421.965H136.688L133.364 430.875H134.361L135.218 428.485H138.925L139.769 430.875ZM135.486 427.705L137.072 423.256L138.644 427.705H135.486ZM144.311 430.977C145.526 430.977 146.574 430.338 146.574 429.06C146.574 426.669 142.931 427.615 142.931 426.12C142.931 425.57 143.429 425.25 144.209 425.25C144.989 425.25 145.487 425.608 145.794 426.171L146.497 425.787C146.063 424.892 145.244 424.471 144.235 424.471C142.969 424.471 142.074 425.148 142.074 426.247C142.074 428.485 145.705 427.436 145.705 429.111C145.705 429.776 145.155 430.197 144.298 430.197C143.314 430.197 142.701 429.648 142.47 428.996L141.729 429.328C142.061 430.338 143.071 430.977 144.311 430.977ZM148.361 430.875H149.243V429.021L150.688 427.487L152.887 430.875H153.935L151.289 426.938L153.577 424.573H152.388L149.243 427.909V421.965H148.361V430.875ZM160.026 427.411C160.026 425.979 159.221 424.471 157.291 424.471C155.463 424.471 154.491 425.979 154.491 427.756C154.491 429.546 155.476 430.977 157.393 430.977C158.365 430.977 159.093 430.696 159.835 429.916L159.221 429.379C158.646 429.993 158.096 430.172 157.406 430.172C156.166 430.172 155.399 429.341 155.373 427.96H159.988C160.014 427.807 160.026 427.59 160.026 427.411ZM157.291 425.212C158.454 425.212 159.106 425.992 159.17 427.014C159.17 427.129 159.183 427.193 159.183 427.219H155.373C155.45 426.107 156.153 425.212 157.291 425.212ZM164.555 424.471C163.915 424.471 163.148 424.688 162.688 425.519V424.573H161.806V430.875H162.688V427.36C162.688 425.992 163.404 425.263 164.376 425.263C164.644 425.263 164.912 425.327 165.207 425.455L165.641 424.739C165.296 424.547 164.938 424.471 164.555 424.471ZM172.912 430.977C174.714 430.977 175.942 429.571 175.942 427.718C175.942 425.851 174.702 424.471 172.912 424.471C171.11 424.471 169.895 425.851 169.895 427.718C169.895 429.584 171.11 430.977 172.912 430.977ZM172.912 430.197C171.57 430.197 170.777 429.149 170.777 427.718C170.777 426.299 171.557 425.25 172.912 425.25C174.254 425.25 175.06 426.286 175.06 427.718C175.06 429.124 174.267 430.197 172.912 430.197ZM185.751 430.977C186.032 430.977 186.364 430.901 186.684 430.811L186.671 430.057C186.441 430.134 186.211 430.172 186.07 430.172C185.7 430.172 185.482 429.955 185.482 429.443V422.489C184.881 422.08 184.268 421.863 183.475 421.863C182.875 421.863 182.338 422.029 181.941 422.349C181.456 422.016 180.829 421.863 180.267 421.863C178.937 421.863 177.863 422.694 177.863 423.998V424.573H176.777V425.314H177.863V430.875H178.746V425.314H181.238V430.875H182.108V425.314H183.539V424.573H182.108V424.074C182.108 423.039 182.606 422.591 183.514 422.591C183.897 422.591 184.293 422.694 184.6 422.873V429.673C184.6 430.581 185.048 430.977 185.751 430.977ZM178.746 424.573V424.01C178.746 423.167 179.308 422.591 180.305 422.591C180.752 422.591 181.187 422.706 181.507 422.911C181.341 423.192 181.238 423.576 181.238 424.062V424.573H178.746ZM188.045 423.269H189.068V421.965H188.045V423.269ZM188.122 430.875H189.004V424.573H188.122V430.875ZM194.296 424.471C193.388 424.471 192.621 424.854 192.212 425.493V424.573H191.33V430.875H192.212V428.05C192.212 426.273 192.902 425.25 194.091 425.25C195.037 425.25 195.472 425.877 195.472 427.232V430.875H196.354V427.014C196.354 425.34 195.651 424.471 194.296 424.471ZM203.557 427.411C203.557 425.979 202.752 424.471 200.821 424.471C198.993 424.471 198.022 425.979 198.022 427.756C198.022 429.546 199.006 430.977 200.924 430.977C201.895 430.977 202.624 430.696 203.365 429.916L202.752 429.379C202.176 429.993 201.627 430.172 200.936 430.172C199.696 430.172 198.929 429.341 198.904 427.96H203.519C203.544 427.807 203.557 427.59 203.557 427.411ZM200.821 425.212C201.985 425.212 202.637 425.992 202.7 427.014C202.7 427.129 202.713 427.193 202.713 427.219H198.904C198.981 426.107 199.684 425.212 200.821 425.212Z" fill="white"/>
</g>
<rect x="276.99" y="413.441" width="35.9091" height="8" rx="4" fill="#D4DCE7"/>
<g filter="url(#filter1_d_1858_2372)">
<ellipse cx="283.473" cy="416.941" rx="10.4735" ry="10.5" fill="#D4DCE7"/>
<path d="M290.947 416.941C290.947 421.091 287.594 424.441 283.473 424.441C279.353 424.441 276 421.091 276 416.941C276 412.792 279.353 409.441 283.473 409.441C287.594 409.441 290.947 412.792 290.947 416.941Z" stroke="white" stroke-width="6"/>
</g>
<rect x="227" y="412.441" width="35.9091" height="8" rx="4" fill="#00D9CD"/>
<g filter="url(#filter2_d_1858_2372)">
<ellipse cx="252.435" cy="416.941" rx="10.4735" ry="10.5" fill="#00D9CD"/>
<path d="M259.909 416.941C259.909 421.091 256.556 424.441 252.435 424.441C248.315 424.441 244.962 421.091 244.962 416.941C244.962 412.792 248.315 409.441 252.435 409.441C256.556 409.441 259.909 412.792 259.909 416.941Z" stroke="white" stroke-width="6"/>
</g>
<path fill-rule="evenodd" clip-rule="evenodd" d="M296.283 32.9297L296.99 32.2227L309.718 44.9504L309.01 45.6575L296.283 32.9297Z" fill="white" stroke="white"/>
<path fill-rule="evenodd" clip-rule="evenodd" d="M296.99 45.6563L296.283 44.9492L309.01 32.2214L309.718 32.9285L296.99 45.6563Z" fill="white" stroke="white"/>
<path d="M126.651 46H129.371L123.811 32.06H121.931L116.351 46H119.071L120.131 43.12H125.591L126.651 46ZM120.991 40.82L122.871 35.74L124.751 40.82H120.991ZM133.955 46.2C135.815 46.2 137.795 45.2 137.795 42.9C137.795 39.3 132.635 40.18 132.635 38.68C132.635 38.22 133.115 37.84 133.895 37.84C134.975 37.84 135.515 38.48 135.855 39.1L137.715 38.08C136.975 36.74 135.675 35.94 133.975 35.94C132.075 35.94 130.355 36.92 130.355 38.82C130.355 42.48 135.435 41.38 135.435 43.04C135.435 43.56 134.955 44.2 133.835 44.2C132.515 44.2 131.995 43.3 131.735 42.58L129.815 43.44C130.295 44.94 131.875 46.2 133.955 46.2ZM139.84 46H142.24V43.12L143.76 41.44L146.64 46H149.5L145.4 39.96L149.08 36.14H145.86L142.24 40.14V32.06H139.84V46ZM158.728 40.94C158.728 38.2 157.248 35.94 154.188 35.94C150.908 35.94 149.508 38.54 149.508 41.12C149.508 43.76 150.948 46.2 154.348 46.2C156.008 46.2 157.308 45.62 158.388 44.42L156.728 42.96C156.048 43.74 155.248 44.02 154.368 44.02C152.808 44.02 152.008 43.16 151.908 41.86H158.668C158.708 41.54 158.728 41.24 158.728 40.94ZM151.888 39.96C152.028 38.98 152.708 37.94 154.168 37.94C155.428 37.94 156.388 38.7 156.428 39.96H151.888ZM165.759 35.94C164.639 35.94 163.539 36.6 163.119 37.82V36.14H160.699V46H163.099V41.04C163.099 39.18 163.819 38.28 165.279 38.28C165.759 38.28 166.139 38.4 166.479 38.62L167.639 36.5C166.999 36.1 166.419 35.94 165.759 35.94ZM178.028 46.26C180.888 46.26 182.868 44.54 182.868 41.94C182.868 39.96 181.888 38.9 178.908 37.76C176.808 36.94 176.128 36.42 176.128 35.5C176.128 34.64 176.888 33.98 177.888 33.98C178.828 33.98 179.648 34.54 180.128 35.58L182.208 34.3C181.328 32.62 179.848 31.76 177.968 31.76C175.368 31.76 173.628 33.3 173.628 35.56C173.628 37.58 174.668 38.64 177.588 39.78C179.648 40.6 180.368 41.2 180.368 42.16C180.368 43.34 179.468 44.04 178.068 44.04C176.448 44.04 175.348 43.1 175.168 41.44L172.688 42.06C173.088 44.6 175.248 46.26 178.028 46.26ZM193.611 40.94C193.611 38.2 192.131 35.94 189.071 35.94C185.791 35.94 184.391 38.54 184.391 41.12C184.391 43.76 185.831 46.2 189.231 46.2C190.891 46.2 192.191 45.62 193.271 44.42L191.611 42.96C190.931 43.74 190.131 44.02 189.251 44.02C187.691 44.02 186.891 43.16 186.791 41.86H193.551C193.591 41.54 193.611 41.24 193.611 40.94ZM186.771 39.96C186.911 38.98 187.591 37.94 189.051 37.94C190.311 37.94 191.271 38.7 191.311 39.96H186.771ZM200.842 38.04V36.14H198.382V32.46L195.982 34.24V36.14H194.382V38.04H195.982V43.24C195.982 45.34 197.382 46.2 199.042 46.2C199.642 46.2 200.242 46.1 200.842 45.9V43.98C200.402 44.12 199.982 44.2 199.642 44.2C198.862 44.2 198.382 43.84 198.382 43.06V38.04H200.842ZM208.146 38.04V36.14H205.686V32.46L203.286 34.24V36.14H201.686V38.04H203.286V43.24C203.286 45.34 204.686 46.2 206.346 46.2C206.946 46.2 207.546 46.1 208.146 45.9V43.98C207.706 44.12 207.286 44.2 206.946 44.2C206.166 44.2 205.686 43.84 205.686 43.06V38.04H208.146ZM210.19 34.28H212.71V32.06H210.19V34.28ZM210.25 46H212.65V36.14H210.25V46ZM220.825 35.94C219.625 35.94 218.545 36.34 217.845 37.28V36.14H215.445V46H217.845V42.06C217.845 40.3 217.845 38.04 220.085 38.04C221.905 38.04 221.905 39.56 221.905 40.24V46H224.305V39.64C224.305 37.3 223.045 35.94 220.825 35.94ZM230.67 44.5C229.43 44.34 228.43 44.14 228.43 43.42C228.43 43.18 228.53 43.02 228.71 42.9C229.29 43.14 229.93 43.28 230.61 43.28C232.77 43.28 234.61 41.88 234.61 39.68C234.61 39.04 234.45 38.46 234.19 37.96L235.61 36.8L234.35 35.28L232.85 36.56C232.19 36.16 231.39 35.94 230.53 35.94C228.33 35.94 226.49 37.42 226.49 39.56C226.49 40.42 226.79 41.2 227.29 41.82C226.71 42.32 226.37 42.94 226.37 43.8C226.37 44.82 226.85 45.44 227.55 45.82L226.13 46.72C226.11 46.82 226.09 46.92 226.09 47.16C226.09 49.2 227.77 50.28 230.71 50.28C233.37 50.28 235.25 49.4 235.25 47.34C235.25 44.98 232.67 44.76 230.67 44.5ZM230.57 37.94C231.59 37.94 232.21 38.6 232.21 39.62C232.21 40.58 231.67 41.32 230.57 41.32C229.45 41.32 228.89 40.56 228.89 39.62C228.89 38.62 229.55 37.94 230.57 37.94ZM230.81 48.48C229.69 48.48 228.47 48.22 228.47 47.38C228.47 47.34 228.47 47.28 228.49 47.22L229.35 46.4L230.17 46.52C231.59 46.72 232.85 46.8 232.85 47.56C232.85 48.24 231.83 48.48 230.81 48.48ZM240.264 46.2C242.124 46.2 244.104 45.2 244.104 42.9C244.104 39.3 238.944 40.18 238.944 38.68C238.944 38.22 239.424 37.84 240.204 37.84C241.284 37.84 241.824 38.48 242.164 39.1L244.024 38.08C243.284 36.74 241.984 35.94 240.284 35.94C238.384 35.94 236.664 36.92 236.664 38.82C236.664 42.48 241.744 41.38 241.744 43.04C241.744 43.56 241.264 44.2 240.144 44.2C238.824 44.2 238.304 43.3 238.044 42.58L236.124 43.44C236.604 44.94 238.184 46.2 240.264 46.2Z" fill="white"/>
<path fill-rule="evenodd" clip-rule="evenodd" d="M105.241 43.6915C104.398 44.6461 104.13 45.9363 104.574 47.1034L104.89 47.9315C104.492 48.3643 104.071 48.778 103.629 49.1714L101.67 47.7995C100.844 47.2216 99.7988 46.9924 98.7852 47.1691C98.1316 47.2837 97.3999 47.385 96.8685 47.385C90.8656 47.385 86 42.822 86 37.1925C85.9991 31.5686 90.8709 27 96.8685 27C102.871 27 107.737 31.563 107.737 37.1925C107.737 39.6624 106.8 41.9275 105.241 43.6915Z" fill="white"/>
<path fill-rule="evenodd" clip-rule="evenodd" d="M98.9015 37.1586C97.8676 37.9166 97.8486 38.4455 97.8486 39.3623C97.8486 39.6973 97.6607 40.0849 96.7394 40.0849C95.9688 40.0849 95.7057 39.8206 95.7057 38.9038C95.7057 37.3877 96.4201 36.6648 96.9651 36.2241C97.5855 35.7305 98.6382 35.184 98.6382 34.2321C98.6382 33.4211 97.8864 33.0332 96.9463 33.0332C95.0289 33.0332 95.4424 34.3907 94.4273 34.3907C93.9197 34.3907 93.2993 34.0734 93.2993 33.3857C93.2993 32.4339 94.4649 31.0234 97.0029 31.0234C99.4091 31.0234 101.007 32.2752 101.007 33.9322C101.007 35.5894 99.4091 36.7884 98.9015 37.1586ZM98.2059 42.6592C98.2059 43.3819 97.5667 44.0167 96.7582 44.0167C95.9502 44.0167 95.3298 43.3819 95.3298 42.6592C95.3298 41.9187 95.969 41.3016 96.7582 41.3016C97.5479 41.3016 98.2059 41.9187 98.2059 42.6592Z" fill="#6375FC"/>
<g filter="url(#filter3_b_1858_2372)">
<path d="M0 31C0 14.4314 13.4315 1 30 1H308C324.569 1 338 14.4315 338 31V443C338 459.569 324.569 473 308 473H30C13.4315 473 0 459.569 0 443V31Z" fill="url(#paint2_linear_1858_2372)" fill-opacity="0.97"/>
<path d="M196.907 473L177.356 494.894C176.899 495.406 176.404 495.887 175.828 496.261C171.793 498.874 166.591 498.87 162.562 496.251C161.986 495.877 161.491 495.394 161.035 494.881L141.573 473H196.907Z" fill="url(#paint2_linear_1858_2372)" fill-opacity="0.97"/>
<path d="M338 413.999C248 377.5 51.9998 210.002 41 1C293 0.994216 292.195 0.999488 304 0.999488C309.554 0.999386 310.723 0.849059 313.5 1.49882C316.5 1.99882 319.392 3.19498 322 4.49882C324 5.49882 327 7.49882 329.5 9.99882C331.279 12.0315 333.5 14.4988 335 17.9988C335.5 18.4988 337 22.4988 337.589 25.7129C337.836 27.5447 338 28.4988 338 32.4995C338 32.4995 338 217.604 338 413.999Z" fill="#5468FF" fill-opacity="0.3"/>
</g>
</g>
<defs>
<filter id="filter0_bd_1858_2372" x="-25" y="-24.0156" width="388" height="547.234" filterUnits="userSpaceOnUse" color-interpolation-filters="sRGB">
<feFlood flood-opacity="0" result="BackgroundImageFix"/>
<feGaussianBlur in="BackgroundImage" stdDeviation="12.5"/>
<feComposite in2="SourceAlpha" operator="in" result="effect1_backgroundBlur_1858_2372"/>
<feColorMatrix in="SourceAlpha" type="matrix" values="0 0 0 0 0 0 0 0 0 0 0 0 0 0 0 0 0 0 127 0" result="hardAlpha"/>
<feMorphology radius="112" operator="erode" in="SourceAlpha" result="effect2_dropShadow_1858_2372"/>
<feOffset dy="21"/>
<feGaussianBlur stdDeviation="22.5"/>
<feColorMatrix type="matrix" values="0 0 0 0 0 0 0 0 0 0 0 0 0 0 0 0 0 0 0.1 0"/>
<feBlend mode="normal" in2="effect1_backgroundBlur_1858_2372" result="effect2_dropShadow_1858_2372"/>
<feBlend mode="normal" in="SourceGraphic" in2="effect2_dropShadow_1858_2372" result="shape"/>
</filter>
<filter id="filter1_d_1858_2372" x="261" y="397.441" width="44.947" height="45" filterUnits="userSpaceOnUse" color-interpolation-filters="sRGB">
<feFlood flood-opacity="0" result="BackgroundImageFix"/>
<feColorMatrix in="SourceAlpha" type="matrix" values="0 0 0 0 0 0 0 0 0 0 0 0 0 0 0 0 0 0 127 0" result="hardAlpha"/>
<feOffset dy="3"/>
<feGaussianBlur stdDeviation="6"/>
<feColorMatrix type="matrix" values="0 0 0 0 0.236882 0 0 0 0 0.50135 0 0 0 0 0.817921 0 0 0 0.240412 0"/>
<feBlend mode="normal" in2="BackgroundImageFix" result="effect1_dropShadow_1858_2372"/>
<feBlend mode="normal" in="SourceGraphic" in2="effect1_dropShadow_1858_2372" result="shape"/>
</filter>
<filter id="filter2_d_1858_2372" x="229.962" y="397.441" width="44.947" height="45" filterUnits="userSpaceOnUse" color-interpolation-filters="sRGB">
<feFlood flood-opacity="0" result="BackgroundImageFix"/>
<feColorMatrix in="SourceAlpha" type="matrix" values="0 0 0 0 0 0 0 0 0 0 0 0 0 0 0 0 0 0 127 0" result="hardAlpha"/>
<feOffset dy="3"/>
<feGaussianBlur stdDeviation="6"/>
<feColorMatrix type="matrix" values="0 0 0 0 0.236882 0 0 0 0 0.50135 0 0 0 0 0.817921 0 0 0 0.240412 0"/>
<feBlend mode="normal" in2="BackgroundImageFix" result="effect1_dropShadow_1858_2372"/>
<feBlend mode="normal" in="SourceGraphic" in2="effect1_dropShadow_1858_2372" result="shape"/>
</filter>
<filter id="filter3_b_1858_2372" x="-25" y="-24.0156" width="388" height="547.234" filterUnits="userSpaceOnUse" color-interpolation-filters="sRGB">
<feFlood flood-opacity="0" result="BackgroundImageFix"/>
<feGaussianBlur in="BackgroundImage" stdDeviation="12.5"/>
<feComposite in2="SourceAlpha" operator="in" result="effect1_backgroundBlur_1858_2372"/>
<feBlend mode="normal" in="SourceGraphic" in2="effect1_backgroundBlur_1858_2372" result="shape"/>
</filter>
<linearGradient id="paint0_linear_1858_2372" x1="206.935" y1="368.525" x2="-7.43347" y2="521.617" gradientUnits="userSpaceOnUse">
<stop stop-color="#6476FF"/>
<stop offset="1" stop-color="#5468FF" stop-opacity="0.79"/>
</linearGradient>
<linearGradient id="paint1_linear_1858_2372" x1="206.935" y1="368.525" x2="-7.43347" y2="521.617" gradientUnits="userSpaceOnUse">
<stop stop-color="#6476FF"/>
<stop offset="1" stop-color="#5468FF" stop-opacity="0.79"/>
</linearGradient>
<linearGradient id="paint2_linear_1858_2372" x1="206.935" y1="368.525" x2="-7.43347" y2="521.617" gradientUnits="userSpaceOnUse">
<stop stop-color="#6476FF"/>
<stop offset="1" stop-color="#5468FF" stop-opacity="0.79"/>
</linearGradient>
<linearGradient id="paint3_linear_1858_2372" x1="206.935" y1="368.525" x2="-7.43347" y2="521.617" gradientUnits="userSpaceOnUse">
<stop stop-color="#6476FF"/>
<stop offset="1" stop-color="#5468FF" stop-opacity="0.79"/>
</linearGradient>
<clipPath id="clip0_1858_2372">
<rect width="37.467" height="34.6975" fill="white" transform="translate(26 78.4414)"/>
</clipPath>
<clipPath id="clip1_1858_2372">
<rect width="177.475" height="30.132" fill="white" transform="translate(67.3667 83.0078)"/>
</clipPath>
<clipPath id="clip2_1858_2372">
<rect width="37.467" height="34.6975" fill="white" transform="translate(26 128.441)"/>
</clipPath>
<clipPath id="clip3_1858_2372">
<rect width="177.475" height="30.132" fill="white" transform="translate(67.3667 133.008)"/>
</clipPath>
<clipPath id="clip4_1858_2372">
<rect width="37.467" height="34.6975" fill="white" transform="translate(26 178.441)"/>
</clipPath>
<clipPath id="clip5_1858_2372">
<rect width="177.475" height="30.132" fill="white" transform="translate(67.3667 183.008)"/>
</clipPath>
<clipPath id="clip6_1858_2372">
<rect width="37.467" height="34.6975" fill="white" transform="translate(26 228.441)"/>
</clipPath>
<clipPath id="clip7_1858_2372">
<rect width="177.475" height="30.132" fill="white" transform="translate(67.3667 233.008)"/>
</clipPath>
<clipPath id="clip8_1858_2372">
<rect width="37.467" height="34.6975" fill="white" transform="translate(26 278.441)"/>
</clipPath>
<clipPath id="clip9_1858_2372">
<rect width="177.475" height="30.132" fill="white" transform="translate(67.3667 283.008)"/>
</clipPath>
<clipPath id="clip10_1858_2372">
<rect width="37.467" height="34.6975" fill="white" transform="translate(26 328.441)"/>
</clipPath>
<clipPath id="clip11_1858_2372">
<rect width="241.693" height="30" fill="white" transform="translate(67.3074 333.441)"/>
</clipPath>
<clipPath id="clip12_1858_2372">
<rect width="37.467" height="34.6975" fill="white" transform="translate(26 397.441)"/>
</clipPath>
<clipPath id="clip13_1858_2372">
<rect width="179" height="30" fill="white" transform="translate(67 402.441)"/>
</clipPath>
</defs>
</svg>
