<svg width="376" height="536" viewBox="0 0 376 536" fill="none" xmlns="http://www.w3.org/2000/svg">
<g filter="url(#filter0_d_1858_4208)">
<path d="M19 32C19 15.4314 32.4315 2 49 2H327C343.569 2 357 15.4315 357 32V444C357 460.569 343.569 474 327 474H49C32.4315 474 19 460.569 19 444V32Z" fill="white"/>
<!--<path d="M215.907 474L196.356 495.894C195.899 496.406 195.404 496.887 194.828 497.261C190.793 499.874 185.591 499.87 181.562 497.251C180.986 496.877 180.491 496.394 180.035 495.881L160.573 474H215.907Z" fill="white"/>-->
<path d="M357 414.999C267 378.5 70.9998 211.002 60 2C312 1.99422 311.195 1.99949 323 1.99949C328.554 1.99939 329.723 1.84906 332.5 2.49882C335.5 2.99882 338.392 4.19498 341 5.49882C343 6.49882 346 8.49882 348.5 10.9988C350.279 13.0315 352.5 15.4988 354 18.9988C354.5 19.4988 356 23.4988 356.589 26.7129C356.836 28.5447 357 29.4988 357 33.4995C357 33.4995 357 218.604 357 414.999Z" fill="black" fill-opacity="0.02"/>
<g filter="url(#filter1_d_1858_4208)">
<rect x="48.0835" y="388" width="283.842" height="58" rx="15" fill="#5468FF"/>
<path fill-rule="evenodd" clip-rule="evenodd" d="M302 432C310.284 432 317 425.284 317 417C317 408.715 310.284 402 302 402C293.716 402 287 408.715 287 417C287 425.284 293.716 432 302 432Z" fill="#3D56F0"/>
<path d="M308.604 416.147C309.242 416.537 309.242 417.463 308.604 417.853L298.772 423.864C298.105 424.271 297.25 423.792 297.25 423.011V410.989C297.25 410.208 298.105 409.729 298.772 410.136L308.604 416.147Z" fill="white"/>
<path d="M132.675 411.848L129.683 419.736L126.675 411.848H124.467L128.931 423H130.435L134.883 411.848H132.675ZM137.358 423H139.358V411.848H137.358V423ZM143.171 423H150.595V421.16H145.171V418.184H150.211V416.344H145.171V413.688H150.595V411.848H143.171V423ZM156.048 423H157.984L160.416 415.656L162.832 423H164.784L168.128 411.848H166.032L163.696 419.944L161.264 412.488H159.552L157.136 419.944L154.784 411.848H152.704L156.048 423ZM182.504 423H184.68L180.232 411.848H178.728L174.264 423H176.44L177.288 420.696H181.656L182.504 423ZM177.976 418.856L179.48 414.792L180.984 418.856H177.976ZM193.907 411.848V419.528L189.219 411.848H187.155V423H189.155V415.288L193.827 423H195.907V411.848H193.907ZM202.917 423.208C205.205 423.208 206.789 421.832 206.789 419.752C206.789 418.168 206.005 417.32 203.621 416.408C201.941 415.752 201.397 415.336 201.397 414.6C201.397 413.912 202.005 413.384 202.805 413.384C203.557 413.384 204.213 413.832 204.597 414.664L206.261 413.64C205.557 412.296 204.373 411.608 202.869 411.608C200.789 411.608 199.397 412.84 199.397 414.648C199.397 416.264 200.229 417.112 202.565 418.024C204.213 418.68 204.789 419.16 204.789 419.928C204.789 420.872 204.069 421.432 202.949 421.432C201.653 421.432 200.773 420.68 200.629 419.352L198.645 419.848C198.965 421.88 200.693 423.208 202.917 423.208ZM211.704 423H213.64L216.072 415.656L218.488 423H220.44L223.784 411.848H221.688L219.352 419.944L216.92 412.488H215.208L212.792 419.944L210.44 411.848H208.36L211.704 423ZM226.374 423H233.798V421.16H228.374V418.184H233.414V416.344H228.374V413.688H233.798V411.848H226.374V423ZM245.523 423L242.515 418.136C243.843 417.688 244.579 416.664 244.579 415.064C244.579 413.064 243.443 411.848 240.787 411.848H237.139V423H239.123V418.376H239.859H240.531L243.203 423H245.523ZM239.123 416.536V413.688H240.579C241.875 413.688 242.579 414.008 242.579 415.096C242.579 416.184 241.875 416.536 240.579 416.536H239.123ZM251.292 423.208C253.58 423.208 255.164 421.832 255.164 419.752C255.164 418.168 254.38 417.32 251.996 416.408C250.316 415.752 249.772 415.336 249.772 414.6C249.772 413.912 250.38 413.384 251.18 413.384C251.932 413.384 252.588 413.832 252.972 414.664L254.636 413.64C253.932 412.296 252.748 411.608 251.244 411.608C249.164 411.608 247.772 412.84 247.772 414.648C247.772 416.264 248.604 417.112 250.94 418.024C252.588 418.68 253.164 419.16 253.164 419.928C253.164 420.872 252.444 421.432 251.324 421.432C250.028 421.432 249.148 420.68 249.004 419.352L247.02 419.848C247.34 421.88 249.068 423.208 251.292 423.208Z" fill="white"/>
</g>
<path opacity="0.8" d="M99.54 156H100.86L103.41 148.23L105.93 156H107.265L110.325 145.545H108.915L106.515 153.99L103.98 146.115H102.81L100.275 153.99L97.86 145.545H96.48L99.54 156ZM115.745 148.47C114.71 148.47 113.855 148.89 113.36 149.61V145.545H112.07V156H113.36V152.745C113.36 150.675 114.065 149.61 115.4 149.61C116.45 149.61 116.93 150.27 116.93 151.71V156H118.22V151.395C118.22 149.49 117.35 148.47 115.745 148.47ZM123.236 148.47C121.946 148.47 120.941 148.965 120.116 150.015L121.046 150.795C121.631 150.015 122.336 149.61 123.206 149.61C124.331 149.61 124.961 150.24 124.961 151.38V151.68H123.326C122.081 151.68 121.346 151.8 120.791 152.1C120.191 152.43 119.861 153.03 119.861 153.81C119.861 155.235 120.866 156.135 122.456 156.135C123.566 156.135 124.451 155.685 124.976 154.89L125.066 156H126.251V151.38C126.251 149.55 125.126 148.47 123.236 148.47ZM122.756 155.055C121.766 155.055 121.151 154.59 121.151 153.87C121.151 153.495 121.286 153.21 121.526 153.015C121.841 152.775 122.351 152.685 123.476 152.685H124.961V152.76C124.961 154.125 124.061 155.055 122.756 155.055ZM131.909 149.655V148.605H130.094V145.89L128.804 146.85V148.605H127.589V149.655H128.804V154.155C128.804 155.55 129.644 156.135 130.709 156.135C131.099 156.135 131.504 156.06 131.909 155.925V154.83C131.579 154.935 131.279 154.995 131.024 154.995C130.439 154.995 130.094 154.695 130.094 154.02V149.655H131.909ZM140.345 148.47C139.055 148.47 138.05 148.965 137.225 150.015L138.155 150.795C138.74 150.015 139.445 149.61 140.315 149.61C141.44 149.61 142.07 150.24 142.07 151.38V151.68H140.435C139.19 151.68 138.455 151.8 137.9 152.1C137.3 152.43 136.97 153.03 136.97 153.81C136.97 155.235 137.975 156.135 139.565 156.135C140.675 156.135 141.56 155.685 142.085 154.89L142.175 156H143.36V151.38C143.36 149.55 142.235 148.47 140.345 148.47ZM139.865 155.055C138.875 155.055 138.26 154.59 138.26 153.87C138.26 153.495 138.395 153.21 138.635 153.015C138.95 152.775 139.46 152.685 140.585 152.685H142.07V152.76C142.07 154.125 141.17 155.055 139.865 155.055ZM149.093 148.47C148.313 148.47 147.428 148.815 146.963 149.76V148.605H145.673V156H146.963V152.01C146.963 150.48 147.698 149.685 148.823 149.685C149.153 149.685 149.468 149.76 149.783 149.91L150.413 148.83C149.978 148.575 149.558 148.47 149.093 148.47ZM157.196 152.025C157.196 150.225 156.191 148.47 153.926 148.47C151.676 148.47 150.566 150.3 150.566 152.34C150.566 154.395 151.691 156.135 154.046 156.135C155.216 156.135 156.116 155.76 156.956 154.86L156.071 154.065C155.441 154.74 154.811 154.95 154.061 154.95C152.696 154.95 151.901 154.095 151.856 152.685H157.151C157.181 152.49 157.196 152.235 157.196 152.025ZM151.856 151.635C151.946 150.525 152.651 149.55 153.911 149.55C155.156 149.55 155.906 150.36 155.951 151.5C155.951 151.56 155.951 151.605 155.966 151.635H151.856ZM163.721 159.06H165.116L169.211 148.605H167.786L165.671 154.38L163.346 148.605H161.921L164.981 155.88L163.721 159.06ZM173.266 156.135C175.441 156.135 176.881 154.44 176.881 152.295C176.881 150.135 175.426 148.47 173.266 148.47C171.091 148.47 169.681 150.135 169.681 152.295C169.681 154.455 171.091 156.135 173.266 156.135ZM173.266 154.995C171.766 154.995 170.971 153.81 170.971 152.295C170.971 150.78 171.751 149.61 173.266 149.61C174.781 149.61 175.591 150.765 175.591 152.295C175.591 153.795 174.781 154.995 173.266 154.995ZM183.356 148.605V151.815C183.356 153.525 182.861 154.995 181.316 154.995C179.921 154.995 179.786 153.81 179.786 152.85V148.605H178.496V153.165C178.496 154.905 179.246 156.135 180.986 156.135C181.916 156.135 182.831 155.775 183.356 154.995V156H184.646V148.605H183.356ZM190.592 148.47C189.812 148.47 188.927 148.815 188.462 149.76V148.605H187.172V156H188.462V152.01C188.462 150.48 189.197 149.685 190.322 149.685C190.652 149.685 190.967 149.76 191.282 149.91L191.912 148.83C191.477 148.575 191.057 148.47 190.592 148.47ZM199.427 156.135C200.837 156.135 202.157 155.385 202.157 153.81C202.157 151.035 198.017 151.995 198.017 150.45C198.017 149.91 198.527 149.565 199.337 149.565C200.207 149.565 200.732 150 201.062 150.6L202.082 150.045C201.557 149.01 200.582 148.47 199.367 148.47C197.912 148.47 196.772 149.25 196.772 150.585C196.772 153.255 200.882 152.16 200.882 153.885C200.882 154.53 200.342 155.025 199.382 155.025C198.287 155.025 197.672 154.365 197.432 153.675L196.367 154.155C196.757 155.31 197.942 156.135 199.427 156.135ZM207.422 149.655V148.605H205.607V145.89L204.317 146.85V148.605H203.102V149.655H204.317V154.155C204.317 155.55 205.157 156.135 206.222 156.135C206.612 156.135 207.017 156.06 207.422 155.925V154.83C207.092 154.935 206.792 154.995 206.537 154.995C205.952 154.995 205.607 154.695 205.607 154.02V149.655H207.422ZM212.55 148.47C211.77 148.47 210.885 148.815 210.42 149.76V148.605H209.13V156H210.42V152.01C210.42 150.48 211.155 149.685 212.28 149.685C212.61 149.685 212.925 149.76 213.24 149.91L213.87 148.83C213.435 148.575 213.015 148.47 212.55 148.47ZM220.653 152.025C220.653 150.225 219.648 148.47 217.383 148.47C215.133 148.47 214.023 150.3 214.023 152.34C214.023 154.395 215.148 156.135 217.503 156.135C218.673 156.135 219.573 155.76 220.413 154.86L219.528 154.065C218.898 154.74 218.268 154.95 217.518 154.95C216.153 154.95 215.358 154.095 215.313 152.685H220.608C220.638 152.49 220.653 152.235 220.653 152.025ZM215.313 151.635C215.403 150.525 216.108 149.55 217.368 149.55C218.613 149.55 219.363 150.36 219.408 151.5C219.408 151.56 219.408 151.605 219.423 151.635H215.313ZM226.208 148.47C225.203 148.47 224.333 148.89 223.838 149.61V148.605H222.548V156H223.838V152.805C223.838 150.975 224.378 149.61 225.863 149.61C227.063 149.61 227.408 150.48 227.408 151.71V156H228.698V151.395C228.698 149.49 227.828 148.47 226.208 148.47ZM233.684 155.025C232.664 154.875 231.794 154.71 231.794 154.02C231.794 153.75 231.929 153.54 232.199 153.39C232.619 153.615 233.129 153.735 233.684 153.735C235.259 153.735 236.549 152.715 236.549 151.155C236.549 150.645 236.414 150.18 236.174 149.79L237.194 148.95L236.519 148.125L235.469 149.025C234.974 148.68 234.359 148.47 233.654 148.47C232.049 148.47 230.759 149.55 230.759 151.095C230.759 151.74 230.984 152.325 231.389 152.775C230.894 153.135 230.624 153.585 230.624 154.215C230.624 154.965 231.014 155.4 231.569 155.67L230.399 156.555C230.384 156.645 230.369 156.735 230.369 156.885C230.369 158.385 231.629 159.195 233.729 159.195C235.634 159.195 236.969 158.535 236.969 157.095C236.969 155.43 235.169 155.235 233.684 155.025ZM233.669 149.55C234.644 149.55 235.259 150.195 235.259 151.125C235.259 152.01 234.674 152.685 233.669 152.685C232.649 152.685 232.049 151.995 232.049 151.125C232.049 150.195 232.724 149.55 233.669 149.55ZM233.789 158.16C232.664 158.16 231.644 157.875 231.644 156.96C231.644 156.93 231.644 156.9 231.659 156.84L232.544 155.985C232.829 156.045 233.129 156.09 233.414 156.135C234.584 156.315 235.679 156.42 235.679 157.215C235.679 157.86 234.914 158.16 233.789 158.16ZM242.183 149.655V148.605H240.368V145.89L239.078 146.85V148.605H237.863V149.655H239.078V154.155C239.078 155.55 239.918 156.135 240.983 156.135C241.373 156.135 241.778 156.06 242.183 155.925V154.83C241.853 154.935 241.553 154.995 241.298 154.995C240.713 154.995 240.368 154.695 240.368 154.02V149.655H242.183ZM247.581 148.47C246.546 148.47 245.691 148.89 245.196 149.61V145.545H243.906V156H245.196V152.745C245.196 150.675 245.901 149.61 247.236 149.61C248.286 149.61 248.766 150.27 248.766 151.71V156H250.056V151.395C250.056 149.49 249.186 148.47 247.581 148.47ZM254.667 156.135C256.077 156.135 257.397 155.385 257.397 153.81C257.397 151.035 253.257 151.995 253.257 150.45C253.257 149.91 253.767 149.565 254.577 149.565C255.447 149.565 255.972 150 256.302 150.6L257.322 150.045C256.797 149.01 255.822 148.47 254.607 148.47C253.152 148.47 252.012 149.25 252.012 150.585C252.012 153.255 256.122 152.16 256.122 153.885C256.122 154.53 255.582 155.025 254.622 155.025C253.527 155.025 252.912 154.365 252.672 153.675L251.607 154.155C251.997 155.31 253.182 156.135 254.667 156.135ZM99.93 173.47C98.64 173.47 97.635 173.965 96.81 175.015L97.74 175.795C98.325 175.015 99.03 174.61 99.9 174.61C101.025 174.61 101.655 175.24 101.655 176.38V176.68H100.02C98.775 176.68 98.04 176.8 97.485 177.1C96.885 177.43 96.555 178.03 96.555 178.81C96.555 180.235 97.56 181.135 99.15 181.135C100.26 181.135 101.145 180.685 101.67 179.89L101.76 181H102.945V176.38C102.945 174.55 101.82 173.47 99.93 173.47ZM99.45 180.055C98.46 180.055 97.845 179.59 97.845 178.87C97.845 178.495 97.98 178.21 98.22 178.015C98.535 177.775 99.045 177.685 100.17 177.685H101.655V177.76C101.655 179.125 100.755 180.055 99.45 180.055ZM108.918 173.47C107.913 173.47 107.043 173.89 106.548 174.61V173.605H105.258V181H106.548V177.805C106.548 175.975 107.088 174.61 108.573 174.61C109.773 174.61 110.118 175.48 110.118 176.71V181H111.408V176.395C111.408 174.49 110.538 173.47 108.918 173.47ZM118.749 170.545V174.535C118.239 173.86 117.384 173.47 116.409 173.47C114.429 173.47 113.169 174.955 113.169 177.295C113.169 179.5 114.294 181.135 116.409 181.135C117.384 181.135 118.224 180.775 118.749 180.085V181H120.039V170.545H118.749ZM116.649 179.965C115.194 179.965 114.459 178.87 114.459 177.295C114.459 175.675 115.254 174.625 116.649 174.625C118.074 174.625 118.854 175.72 118.854 177.295C118.854 178.825 118.119 179.965 116.649 179.965ZM127.743 181H128.928L130.743 175.405L132.543 181H133.728L135.933 173.605H134.553L133.068 179.035L131.313 173.605H130.158L128.403 179.035L126.918 173.605H125.538L127.743 181ZM143.368 177.025C143.368 175.225 142.363 173.47 140.098 173.47C137.848 173.47 136.738 175.3 136.738 177.34C136.738 179.395 137.863 181.135 140.218 181.135C141.388 181.135 142.288 180.76 143.128 179.86L142.243 179.065C141.613 179.74 140.983 179.95 140.233 179.95C138.868 179.95 138.073 179.095 138.028 177.685H143.323C143.353 177.49 143.368 177.235 143.368 177.025ZM138.028 176.635C138.118 175.525 138.823 174.55 140.083 174.55C141.328 174.55 142.078 175.36 142.123 176.5C142.123 176.56 142.123 176.605 142.138 176.635H138.028ZM147.933 173.47C146.643 173.47 145.638 173.965 144.813 175.015L145.743 175.795C146.328 175.015 147.033 174.61 147.903 174.61C149.028 174.61 149.658 175.24 149.658 176.38V176.68H148.023C146.778 176.68 146.043 176.8 145.488 177.1C144.888 177.43 144.558 178.03 144.558 178.81C144.558 180.235 145.563 181.135 147.153 181.135C148.263 181.135 149.148 180.685 149.673 179.89L149.763 181H150.948V176.38C150.948 174.55 149.823 173.47 147.933 173.47ZM147.453 180.055C146.463 180.055 145.848 179.59 145.848 178.87C145.848 178.495 145.983 178.21 146.223 178.015C146.538 177.775 147.048 177.685 148.173 177.685H149.658V177.76C149.658 179.125 148.758 180.055 147.453 180.055ZM153.261 181H154.551V178.825L156.066 177.205L158.511 181H160.041L156.951 176.41L159.651 173.605H157.926L154.551 177.22V170.545H153.261V181ZM165.109 173.47C164.104 173.47 163.234 173.89 162.739 174.61V173.605H161.449V181H162.739V177.805C162.739 175.975 163.279 174.61 164.764 174.61C165.964 174.61 166.309 175.48 166.309 176.71V181H167.599V176.395C167.599 174.49 166.729 173.47 165.109 173.47ZM175.976 177.025C175.976 175.225 174.971 173.47 172.706 173.47C170.456 173.47 169.346 175.3 169.346 177.34C169.346 179.395 170.471 181.135 172.826 181.135C173.996 181.135 174.896 180.76 175.736 179.86L174.851 179.065C174.221 179.74 173.591 179.95 172.841 179.95C171.476 179.95 170.681 179.095 170.636 177.685H175.931C175.961 177.49 175.976 177.235 175.976 177.025ZM170.636 176.635C170.726 175.525 171.431 174.55 172.691 174.55C173.936 174.55 174.686 175.36 174.731 176.5C174.731 176.56 174.731 176.605 174.746 176.635H170.636ZM180.135 181.135C181.545 181.135 182.865 180.385 182.865 178.81C182.865 176.035 178.725 176.995 178.725 175.45C178.725 174.91 179.235 174.565 180.045 174.565C180.915 174.565 181.44 175 181.77 175.6L182.79 175.045C182.265 174.01 181.29 173.47 180.075 173.47C178.62 173.47 177.48 174.25 177.48 175.585C177.48 178.255 181.59 177.16 181.59 178.885C181.59 179.53 181.05 180.025 180.09 180.025C178.995 180.025 178.38 179.365 178.14 178.675L177.075 179.155C177.465 180.31 178.65 181.135 180.135 181.135ZM187.035 181.135C188.445 181.135 189.765 180.385 189.765 178.81C189.765 176.035 185.625 176.995 185.625 175.45C185.625 174.91 186.135 174.565 186.945 174.565C187.815 174.565 188.34 175 188.67 175.6L189.69 175.045C189.165 174.01 188.19 173.47 186.975 173.47C185.52 173.47 184.38 174.25 184.38 175.585C184.38 178.255 188.49 177.16 188.49 178.885C188.49 179.53 187.95 180.025 186.99 180.025C185.895 180.025 185.28 179.365 185.04 178.675L183.975 179.155C184.365 180.31 185.55 181.135 187.035 181.135ZM197.641 177.025C197.641 175.225 196.636 173.47 194.371 173.47C192.121 173.47 191.011 175.3 191.011 177.34C191.011 179.395 192.136 181.135 194.491 181.135C195.661 181.135 196.561 180.76 197.401 179.86L196.516 179.065C195.886 179.74 195.256 179.95 194.506 179.95C193.141 179.95 192.346 179.095 192.301 177.685H197.596C197.626 177.49 197.641 177.235 197.641 177.025ZM192.301 176.635C192.391 175.525 193.096 174.55 194.356 174.55C195.601 174.55 196.351 175.36 196.396 176.5C196.396 176.56 196.396 176.605 196.411 176.635H192.301ZM201.8 181.135C203.21 181.135 204.53 180.385 204.53 178.81C204.53 176.035 200.39 176.995 200.39 175.45C200.39 174.91 200.9 174.565 201.71 174.565C202.58 174.565 203.105 175 203.435 175.6L204.455 175.045C203.93 174.01 202.955 173.47 201.74 173.47C200.285 173.47 199.145 174.25 199.145 175.585C199.145 178.255 203.255 177.16 203.255 178.885C203.255 179.53 202.715 180.025 201.755 180.025C200.66 180.025 200.045 179.365 199.805 178.675L198.74 179.155C199.13 180.31 200.315 181.135 201.8 181.135ZM208.401 178H209.496V176.845C209.496 175.555 212.106 175.9 212.106 173.245C212.106 171.415 210.696 170.41 208.881 170.41C207.021 170.41 205.776 171.55 205.776 173.47H206.916C206.931 172.225 207.606 171.49 208.926 171.49C210.171 171.49 210.981 172.075 210.981 173.23C210.981 175.18 208.401 174.52 208.401 176.83V178ZM208.191 181H209.736V179.245H208.191V181Z" fill="#344356"/>
<path opacity="0.8" d="M99.54 233H100.86L103.41 225.23L105.93 233H107.265L110.325 222.545H108.915L106.515 230.99L103.98 223.115H102.81L100.275 230.99L97.86 222.545H96.48L99.54 233ZM115.745 225.47C114.71 225.47 113.855 225.89 113.36 226.61V222.545H112.07V233H113.36V229.745C113.36 227.675 114.065 226.61 115.4 226.61C116.45 226.61 116.93 227.27 116.93 228.71V233H118.22V228.395C118.22 226.49 117.35 225.47 115.745 225.47ZM123.236 225.47C121.946 225.47 120.941 225.965 120.116 227.015L121.046 227.795C121.631 227.015 122.336 226.61 123.206 226.61C124.331 226.61 124.961 227.24 124.961 228.38V228.68H123.326C122.081 228.68 121.346 228.8 120.791 229.1C120.191 229.43 119.861 230.03 119.861 230.81C119.861 232.235 120.866 233.135 122.456 233.135C123.566 233.135 124.451 232.685 124.976 231.89L125.066 233H126.251V228.38C126.251 226.55 125.126 225.47 123.236 225.47ZM122.756 232.055C121.766 232.055 121.151 231.59 121.151 230.87C121.151 230.495 121.286 230.21 121.526 230.015C121.841 229.775 122.351 229.685 123.476 229.685H124.961V229.76C124.961 231.125 124.061 232.055 122.756 232.055ZM131.909 226.655V225.605H130.094V222.89L128.804 223.85V225.605H127.589V226.655H128.804V231.155C128.804 232.55 129.644 233.135 130.709 233.135C131.099 233.135 131.504 233.06 131.909 232.925V231.83C131.579 231.935 131.279 231.995 131.024 231.995C130.439 231.995 130.094 231.695 130.094 231.02V226.655H131.909ZM133.33 226.775H134.2L136.15 222.545H134.665L133.33 226.775ZM140.306 233.135C141.716 233.135 143.036 232.385 143.036 230.81C143.036 228.035 138.896 228.995 138.896 227.45C138.896 226.91 139.406 226.565 140.216 226.565C141.086 226.565 141.611 227 141.941 227.6L142.961 227.045C142.436 226.01 141.461 225.47 140.246 225.47C138.791 225.47 137.651 226.25 137.651 227.585C137.651 230.255 141.761 229.16 141.761 230.885C141.761 231.53 141.221 232.025 140.261 232.025C139.166 232.025 138.551 231.365 138.311 230.675L137.246 231.155C137.636 232.31 138.821 233.135 140.306 233.135ZM149.571 236.06H150.966L155.061 225.605H153.636L151.521 231.38L149.196 225.605H147.771L150.831 232.88L149.571 236.06ZM159.116 233.135C161.291 233.135 162.731 231.44 162.731 229.295C162.731 227.135 161.276 225.47 159.116 225.47C156.941 225.47 155.531 227.135 155.531 229.295C155.531 231.455 156.941 233.135 159.116 233.135ZM159.116 231.995C157.616 231.995 156.821 230.81 156.821 229.295C156.821 227.78 157.601 226.61 159.116 226.61C160.631 226.61 161.441 227.765 161.441 229.295C161.441 230.795 160.631 231.995 159.116 231.995ZM169.206 225.605V228.815C169.206 230.525 168.711 231.995 167.166 231.995C165.771 231.995 165.636 230.81 165.636 229.85V225.605H164.346V230.165C164.346 231.905 165.096 233.135 166.836 233.135C167.766 233.135 168.681 232.775 169.206 231.995V233H170.496V225.605H169.206ZM176.442 225.47C175.662 225.47 174.777 225.815 174.312 226.76V225.605H173.022V233H174.312V229.01C174.312 227.48 175.047 226.685 176.172 226.685C176.502 226.685 176.817 226.76 177.132 226.91L177.762 225.83C177.327 225.575 176.907 225.47 176.442 225.47ZM182.937 224.12H184.377V222.545H182.937V224.12ZM183.012 233H184.302V225.605H183.012V233ZM191.816 222.545V226.535C191.306 225.86 190.451 225.47 189.476 225.47C187.496 225.47 186.236 226.955 186.236 229.295C186.236 231.5 187.361 233.135 189.476 233.135C190.451 233.135 191.291 232.775 191.816 232.085V233H193.106V222.545H191.816ZM189.716 231.965C188.261 231.965 187.526 230.87 187.526 229.295C187.526 227.675 188.321 226.625 189.716 226.625C191.141 226.625 191.921 227.72 191.921 229.295C191.921 230.825 191.186 231.965 189.716 231.965ZM201.654 229.025C201.654 227.225 200.649 225.47 198.384 225.47C196.134 225.47 195.024 227.3 195.024 229.34C195.024 231.395 196.149 233.135 198.504 233.135C199.674 233.135 200.574 232.76 201.414 231.86L200.529 231.065C199.899 231.74 199.269 231.95 198.519 231.95C197.154 231.95 196.359 231.095 196.314 229.685H201.609C201.639 229.49 201.654 229.235 201.654 229.025ZM196.314 228.635C196.404 227.525 197.109 226.55 198.369 226.55C199.614 226.55 200.364 227.36 200.409 228.5C200.409 228.56 200.409 228.605 200.424 228.635H196.314ZM206.219 225.47C204.929 225.47 203.924 225.965 203.099 227.015L204.029 227.795C204.614 227.015 205.319 226.61 206.189 226.61C207.314 226.61 207.944 227.24 207.944 228.38V228.68H206.309C205.064 228.68 204.329 228.8 203.774 229.1C203.174 229.43 202.844 230.03 202.844 230.81C202.844 232.235 203.849 233.135 205.439 233.135C206.549 233.135 207.434 232.685 207.959 231.89L208.049 233H209.234V228.38C209.234 226.55 208.109 225.47 206.219 225.47ZM205.739 232.055C204.749 232.055 204.134 231.59 204.134 230.87C204.134 230.495 204.269 230.21 204.509 230.015C204.824 229.775 205.334 229.685 206.459 229.685H207.944V229.76C207.944 231.125 207.044 232.055 205.739 232.055ZM218.428 233.135C220.603 233.135 222.043 231.44 222.043 229.295C222.043 227.135 220.588 225.47 218.428 225.47C216.253 225.47 214.843 227.135 214.843 229.295C214.843 231.455 216.253 233.135 218.428 233.135ZM218.428 231.995C216.928 231.995 216.133 230.81 216.133 229.295C216.133 227.78 216.913 226.61 218.428 226.61C219.943 226.61 220.753 227.765 220.753 229.295C220.753 230.795 219.943 231.995 218.428 231.995ZM224.346 233H225.636V226.655H227.631V225.605H225.636V224.51C225.636 223.955 225.876 223.49 226.476 223.49C226.731 223.49 226.986 223.58 227.256 223.715L227.691 222.71C227.241 222.515 226.806 222.41 226.341 222.41C225.321 222.41 224.361 222.89 224.361 224.57V225.605H222.831V226.655H224.346V233ZM236.338 226.655V225.605H234.523V222.89L233.233 223.85V225.605H232.018V226.655H233.233V231.155C233.233 232.55 234.073 233.135 235.138 233.135C235.528 233.135 235.933 233.06 236.338 232.925V231.83C236.008 231.935 235.708 231.995 235.453 231.995C234.868 231.995 234.523 231.695 234.523 231.02V226.655H236.338ZM241.736 225.47C240.701 225.47 239.846 225.89 239.351 226.61V222.545H238.061V233H239.351V229.745C239.351 227.675 240.056 226.61 241.391 226.61C242.441 226.61 242.921 227.27 242.921 228.71V233H244.211V228.395C244.211 226.49 243.341 225.47 241.736 225.47ZM252.587 229.025C252.587 227.225 251.582 225.47 249.317 225.47C247.067 225.47 245.957 227.3 245.957 229.34C245.957 231.395 247.082 233.135 249.437 233.135C250.607 233.135 251.507 232.76 252.347 231.86L251.462 231.065C250.832 231.74 250.202 231.95 249.452 231.95C248.087 231.95 247.292 231.095 247.247 229.685H252.542C252.572 229.49 252.587 229.235 252.587 229.025ZM247.247 228.635C247.337 227.525 248.042 226.55 249.302 226.55C250.547 226.55 251.297 227.36 251.342 228.5C251.342 228.56 251.342 228.605 251.357 228.635H247.247ZM100.89 250.47C99.93 250.47 99.09 250.815 98.55 251.52V250.605H97.26V261.06H98.55V257.07C99.045 257.73 99.9 258.135 100.89 258.135C102.945 258.135 104.13 256.575 104.13 254.295C104.13 252.015 102.93 250.47 100.89 250.47ZM100.65 256.995C99.18 256.995 98.445 255.84 98.445 254.295C98.445 252.69 99.225 251.595 100.65 251.595C102.045 251.595 102.84 252.645 102.84 254.295C102.84 255.9 102.09 256.995 100.65 256.995ZM112.094 254.025C112.094 252.225 111.089 250.47 108.824 250.47C106.574 250.47 105.464 252.3 105.464 254.34C105.464 256.395 106.589 258.135 108.944 258.135C110.114 258.135 111.014 257.76 111.854 256.86L110.969 256.065C110.339 256.74 109.709 256.95 108.959 256.95C107.594 256.95 106.799 256.095 106.754 254.685H112.049C112.079 254.49 112.094 254.235 112.094 254.025ZM106.754 253.635C106.844 252.525 107.549 251.55 108.809 251.55C110.054 251.55 110.804 252.36 110.849 253.5C110.849 253.56 110.849 253.605 110.864 253.635H106.754ZM117.409 250.47C116.629 250.47 115.744 250.815 115.279 251.76V250.605H113.989V258H115.279V254.01C115.279 252.48 116.014 251.685 117.139 251.685C117.469 251.685 117.784 251.76 118.099 251.91L118.729 250.83C118.294 250.575 117.874 250.47 117.409 250.47ZM120.855 258H122.145V251.655H124.14V250.605H122.145V249.51C122.145 248.955 122.385 248.49 122.985 248.49C123.24 248.49 123.495 248.58 123.765 248.715L124.2 247.71C123.75 247.515 123.315 247.41 122.85 247.41C121.83 247.41 120.87 247.89 120.87 249.57V250.605H119.34V251.655H120.855V258ZM131.327 254.025C131.327 252.225 130.322 250.47 128.057 250.47C125.807 250.47 124.697 252.3 124.697 254.34C124.697 256.395 125.822 258.135 128.177 258.135C129.347 258.135 130.247 257.76 131.087 256.86L130.202 256.065C129.572 256.74 128.942 256.95 128.192 256.95C126.827 256.95 126.032 256.095 125.987 254.685H131.282C131.312 254.49 131.327 254.235 131.327 254.025ZM125.987 253.635C126.077 252.525 126.782 251.55 128.042 251.55C129.287 251.55 130.037 252.36 130.082 253.5C130.082 253.56 130.082 253.605 130.097 253.635H125.987ZM136.027 258.135C137.407 258.135 138.502 257.385 138.997 256.035L137.812 255.585C137.557 256.47 136.882 256.995 136.012 256.995C134.542 256.995 133.912 255.72 133.912 254.325C133.912 252.93 134.542 251.61 136.012 251.61C136.867 251.61 137.542 252.15 137.842 253.05L139.072 252.555C138.487 251.145 137.377 250.47 136.012 250.47C133.717 250.47 132.592 252.375 132.592 254.325C132.592 256.35 133.792 258.135 136.027 258.135ZM144.126 251.655V250.605H142.311V247.89L141.021 248.85V250.605H139.806V251.655H141.021V256.155C141.021 257.55 141.861 258.135 142.926 258.135C143.316 258.135 143.721 258.06 144.126 257.925V256.83C143.796 256.935 143.496 256.995 143.241 256.995C142.656 256.995 142.311 256.695 142.311 256.02V251.655H144.126ZM155.697 258.135C156.027 258.135 156.402 258.045 156.792 257.925V256.83C156.552 256.905 156.312 256.95 156.132 256.95C155.742 256.95 155.487 256.815 155.487 256.23V248.16C154.437 247.575 153.822 247.41 152.787 247.41C151.302 247.41 150.057 248.295 150.057 250.035V250.605H148.827V251.655H150.057V258H151.347V251.655H152.922L152.937 250.605H151.347V250.05C151.347 248.985 151.857 248.475 152.847 248.475C153.372 248.475 153.822 248.595 154.212 248.82V256.365C154.212 257.655 154.827 258.135 155.697 258.135ZM161.029 250.47C159.739 250.47 158.734 250.965 157.909 252.015L158.839 252.795C159.424 252.015 160.129 251.61 160.999 251.61C162.124 251.61 162.754 252.24 162.754 253.38V253.68H161.119C159.874 253.68 159.139 253.8 158.584 254.1C157.984 254.43 157.654 255.03 157.654 255.81C157.654 257.235 158.659 258.135 160.249 258.135C161.359 258.135 162.244 257.685 162.769 256.89L162.859 258H164.044V253.38C164.044 251.55 162.919 250.47 161.029 250.47ZM160.549 257.055C159.559 257.055 158.944 256.59 158.944 255.87C158.944 255.495 159.079 255.21 159.319 255.015C159.634 254.775 160.144 254.685 161.269 254.685H162.754V254.76C162.754 256.125 161.854 257.055 160.549 257.055ZM169.702 251.655V250.605H167.887V247.89L166.597 248.85V250.605H165.382V251.655H166.597V256.155C166.597 257.55 167.437 258.135 168.502 258.135C168.892 258.135 169.297 258.06 169.702 257.925V256.83C169.372 256.935 169.072 256.995 168.817 256.995C168.232 256.995 167.887 256.695 167.887 256.02V251.655H169.702ZM179.255 250.47C178.19 250.47 177.35 250.905 176.84 251.91C176.435 250.875 175.625 250.47 174.665 250.47C173.87 250.47 173.12 250.755 172.655 251.52V250.605H171.395L171.41 258H172.7V254.685C172.7 253.08 172.955 251.61 174.425 251.61C175.67 251.61 175.955 252.75 175.955 253.755V258H177.245V254.685C177.245 253.08 177.485 251.61 179 251.61C180.47 251.61 180.5 253.11 180.5 253.725V258H181.79V253.35C181.79 251.7 181.025 250.47 179.255 250.47ZM186.795 250.47C185.505 250.47 184.5 250.965 183.675 252.015L184.605 252.795C185.19 252.015 185.895 251.61 186.765 251.61C187.89 251.61 188.52 252.24 188.52 253.38V253.68H186.885C185.64 253.68 184.905 253.8 184.35 254.1C183.75 254.43 183.42 255.03 183.42 255.81C183.42 257.235 184.425 258.135 186.015 258.135C187.125 258.135 188.01 257.685 188.535 256.89L188.625 258H189.81V253.38C189.81 251.55 188.685 250.47 186.795 250.47ZM186.315 257.055C185.325 257.055 184.71 256.59 184.71 255.87C184.71 255.495 184.845 255.21 185.085 255.015C185.4 254.775 185.91 254.685 187.035 254.685H188.52V254.76C188.52 256.125 187.62 257.055 186.315 257.055ZM195.469 251.655V250.605H193.654V247.89L192.364 248.85V250.605H191.149V251.655H192.364V256.155C192.364 257.55 193.204 258.135 194.269 258.135C194.659 258.135 195.064 258.06 195.469 257.925V256.83C195.139 256.935 194.839 256.995 194.584 256.995C193.999 256.995 193.654 256.695 193.654 256.02V251.655H195.469ZM203.266 254.025C203.266 252.225 202.261 250.47 199.996 250.47C197.746 250.47 196.636 252.3 196.636 254.34C196.636 256.395 197.761 258.135 200.116 258.135C201.286 258.135 202.186 257.76 203.026 256.86L202.141 256.065C201.511 256.74 200.881 256.95 200.131 256.95C198.766 256.95 197.971 256.095 197.926 254.685H203.221C203.251 254.49 203.266 254.235 203.266 254.025ZM197.926 253.635C198.016 252.525 198.721 251.55 199.981 251.55C201.226 251.55 201.976 252.36 202.021 253.5C202.021 253.56 202.021 253.605 202.036 253.635H197.926ZM207.155 255H208.25V253.845C208.25 252.555 210.86 252.9 210.86 250.245C210.86 248.415 209.45 247.41 207.635 247.41C205.775 247.41 204.53 248.55 204.53 250.47H205.67C205.685 249.225 206.36 248.49 207.68 248.49C208.925 248.49 209.735 249.075 209.735 250.23C209.735 252.18 207.155 251.52 207.155 253.83V255ZM206.945 258H208.49V256.245H206.945V258Z" fill="#344356"/>
<path opacity="0.8" d="M99.885 313H101.235V303.775H104.745V302.545H96.375V303.775H99.885V313ZM110.98 309.025C110.98 307.225 109.975 305.47 107.71 305.47C105.46 305.47 104.35 307.3 104.35 309.34C104.35 311.395 105.475 313.135 107.83 313.135C109 313.135 109.9 312.76 110.74 311.86L109.855 311.065C109.225 311.74 108.595 311.95 107.845 311.95C106.48 311.95 105.685 311.095 105.64 309.685H110.935C110.965 309.49 110.98 309.235 110.98 309.025ZM105.64 308.635C105.73 307.525 106.435 306.55 107.695 306.55C108.94 306.55 109.69 307.36 109.735 308.5C109.735 308.56 109.735 308.605 109.75 308.635H105.64ZM114.33 313.135C114.66 313.135 115.05 313.045 115.395 312.925L115.38 311.86C115.17 311.92 114.93 311.98 114.72 311.98C114.285 311.98 114.105 311.71 114.105 311.26V302.545H112.815V311.335C112.815 312.55 113.43 313.135 114.33 313.135ZM118.432 313.135C118.762 313.135 119.152 313.045 119.497 312.925L119.482 311.86C119.272 311.92 119.032 311.98 118.822 311.98C118.387 311.98 118.207 311.71 118.207 311.26V302.545H116.917V311.335C116.917 312.55 117.532 313.135 118.432 313.135ZM132.864 305.47C131.799 305.47 130.959 305.905 130.449 306.91C130.044 305.875 129.234 305.47 128.274 305.47C127.479 305.47 126.729 305.755 126.264 306.52V305.605H125.004L125.019 313H126.309V309.685C126.309 308.08 126.564 306.61 128.034 306.61C129.279 306.61 129.564 307.75 129.564 308.755V313H130.854V309.685C130.854 308.08 131.094 306.61 132.609 306.61C134.079 306.61 134.109 308.11 134.109 308.725V313H135.399V308.35C135.399 306.7 134.634 305.47 132.864 305.47ZM143.764 309.025C143.764 307.225 142.759 305.47 140.494 305.47C138.244 305.47 137.134 307.3 137.134 309.34C137.134 311.395 138.259 313.135 140.614 313.135C141.784 313.135 142.684 312.76 143.524 311.86L142.639 311.065C142.009 311.74 141.379 311.95 140.629 311.95C139.264 311.95 138.469 311.095 138.424 309.685H143.719C143.749 309.49 143.764 309.235 143.764 309.025ZM138.424 308.635C138.514 307.525 139.219 306.55 140.479 306.55C141.724 306.55 142.474 307.36 142.519 308.5C142.519 308.56 142.519 308.605 142.534 308.635H138.424ZM150.844 313H152.029L153.844 307.405L155.644 313H156.829L159.034 305.605H157.654L156.169 311.035L154.414 305.605H153.259L151.504 311.035L150.019 305.605H148.639L150.844 313ZM164.275 305.47C163.24 305.47 162.385 305.89 161.89 306.61V302.545H160.6V313H161.89V309.745C161.89 307.675 162.595 306.61 163.93 306.61C164.98 306.61 165.46 307.27 165.46 308.71V313H166.75V308.395C166.75 306.49 165.88 305.47 164.275 305.47ZM171.766 305.47C170.476 305.47 169.471 305.965 168.646 307.015L169.576 307.795C170.161 307.015 170.866 306.61 171.736 306.61C172.861 306.61 173.491 307.24 173.491 308.38V308.68H171.856C170.611 308.68 169.876 308.8 169.321 309.1C168.721 309.43 168.391 310.03 168.391 310.81C168.391 312.235 169.396 313.135 170.986 313.135C172.096 313.135 172.981 312.685 173.506 311.89L173.596 313H174.781V308.38C174.781 306.55 173.656 305.47 171.766 305.47ZM171.286 312.055C170.296 312.055 169.681 311.59 169.681 310.87C169.681 310.495 169.816 310.21 170.056 310.015C170.371 309.775 170.881 309.685 172.006 309.685H173.491V309.76C173.491 311.125 172.591 312.055 171.286 312.055ZM180.439 306.655V305.605H178.624V302.89L177.334 303.85V305.605H176.119V306.655H177.334V311.155C177.334 312.55 178.174 313.135 179.239 313.135C179.629 313.135 180.034 313.06 180.439 312.925V311.83C180.109 311.935 179.809 311.995 179.554 311.995C178.969 311.995 178.624 311.695 178.624 311.02V306.655H180.439ZM194.05 305.47C192.985 305.47 192.145 305.905 191.635 306.91C191.23 305.875 190.42 305.47 189.46 305.47C188.665 305.47 187.915 305.755 187.45 306.52V305.605H186.19L186.205 313H187.495V309.685C187.495 308.08 187.75 306.61 189.22 306.61C190.465 306.61 190.75 307.75 190.75 308.755V313H192.04V309.685C192.04 308.08 192.28 306.61 193.795 306.61C195.265 306.61 195.295 308.11 195.295 308.725V313H196.585V308.35C196.585 306.7 195.82 305.47 194.05 305.47ZM201.59 305.47C200.3 305.47 199.295 305.965 198.47 307.015L199.4 307.795C199.985 307.015 200.69 306.61 201.56 306.61C202.685 306.61 203.315 307.24 203.315 308.38V308.68H201.68C200.435 308.68 199.7 308.8 199.145 309.1C198.545 309.43 198.215 310.03 198.215 310.81C198.215 312.235 199.22 313.135 200.81 313.135C201.92 313.135 202.805 312.685 203.33 311.89L203.42 313H204.605V308.38C204.605 306.55 203.48 305.47 201.59 305.47ZM201.11 312.055C200.12 312.055 199.505 311.59 199.505 310.87C199.505 310.495 199.64 310.21 199.88 310.015C200.195 309.775 200.705 309.685 201.83 309.685H203.315V309.76C203.315 311.125 202.415 312.055 201.11 312.055ZM206.918 313H208.208V310.825L209.723 309.205L212.168 313H213.698L210.608 308.41L213.308 305.605H211.583L208.208 309.22V302.545H206.918V313ZM220.77 309.025C220.77 307.225 219.765 305.47 217.5 305.47C215.25 305.47 214.14 307.3 214.14 309.34C214.14 311.395 215.265 313.135 217.62 313.135C218.79 313.135 219.69 312.76 220.53 311.86L219.645 311.065C219.015 311.74 218.385 311.95 217.635 311.95C216.27 311.95 215.475 311.095 215.43 309.685H220.725C220.755 309.49 220.77 309.235 220.77 309.025ZM215.43 308.635C215.52 307.525 216.225 306.55 217.485 306.55C218.73 306.55 219.48 307.36 219.525 308.5C219.525 308.56 219.525 308.605 219.54 308.635H215.43ZM224.93 313.135C226.34 313.135 227.66 312.385 227.66 310.81C227.66 308.035 223.52 308.995 223.52 307.45C223.52 306.91 224.03 306.565 224.84 306.565C225.71 306.565 226.235 307 226.565 307.6L227.585 307.045C227.06 306.01 226.085 305.47 224.87 305.47C223.415 305.47 222.275 306.25 222.275 307.585C222.275 310.255 226.385 309.16 226.385 310.885C226.385 311.53 225.845 312.025 224.885 312.025C223.79 312.025 223.175 311.365 222.935 310.675L221.87 311.155C222.26 312.31 223.445 313.135 224.93 313.135ZM234.195 316.06H235.59L239.685 305.605H238.26L236.145 311.38L233.82 305.605H232.395L235.455 312.88L234.195 316.06ZM243.74 313.135C245.915 313.135 247.355 311.44 247.355 309.295C247.355 307.135 245.9 305.47 243.74 305.47C241.565 305.47 240.155 307.135 240.155 309.295C240.155 311.455 241.565 313.135 243.74 313.135ZM243.74 311.995C242.24 311.995 241.445 310.81 241.445 309.295C241.445 307.78 242.225 306.61 243.74 306.61C245.255 306.61 246.065 307.765 246.065 309.295C246.065 310.795 245.255 311.995 243.74 311.995ZM253.83 305.605V308.815C253.83 310.525 253.335 311.995 251.79 311.995C250.395 311.995 250.26 310.81 250.26 309.85V305.605H248.97V310.165C248.97 311.905 249.72 313.135 251.46 313.135C252.39 313.135 253.305 312.775 253.83 311.995V313H255.12V305.605H253.83ZM100.89 330.47C99.93 330.47 99.09 330.815 98.55 331.52V330.605H97.26V341.06H98.55V337.07C99.045 337.73 99.9 338.135 100.89 338.135C102.945 338.135 104.13 336.575 104.13 334.295C104.13 332.015 102.93 330.47 100.89 330.47ZM100.65 336.995C99.18 336.995 98.445 335.84 98.445 334.295C98.445 332.69 99.225 331.595 100.65 331.595C102.045 331.595 102.84 332.645 102.84 334.295C102.84 335.9 102.09 336.995 100.65 336.995ZM112.094 334.025C112.094 332.225 111.089 330.47 108.824 330.47C106.574 330.47 105.464 332.3 105.464 334.34C105.464 336.395 106.589 338.135 108.944 338.135C110.114 338.135 111.014 337.76 111.854 336.86L110.969 336.065C110.339 336.74 109.709 336.95 108.959 336.95C107.594 336.95 106.799 336.095 106.754 334.685H112.049C112.079 334.49 112.094 334.235 112.094 334.025ZM106.754 333.635C106.844 332.525 107.549 331.55 108.809 331.55C110.054 331.55 110.804 332.36 110.849 333.5C110.849 333.56 110.849 333.605 110.864 333.635H106.754ZM117.409 330.47C116.629 330.47 115.744 330.815 115.279 331.76V330.605H113.989V338H115.279V334.01C115.279 332.48 116.014 331.685 117.139 331.685C117.469 331.685 117.784 331.76 118.099 331.91L118.729 330.83C118.294 330.575 117.874 330.47 117.409 330.47ZM120.855 338H122.145V331.655H124.14V330.605H122.145V329.51C122.145 328.955 122.385 328.49 122.985 328.49C123.24 328.49 123.495 328.58 123.765 328.715L124.2 327.71C123.75 327.515 123.315 327.41 122.85 327.41C121.83 327.41 120.87 327.89 120.87 329.57V330.605H119.34V331.655H120.855V338ZM131.327 334.025C131.327 332.225 130.322 330.47 128.057 330.47C125.807 330.47 124.697 332.3 124.697 334.34C124.697 336.395 125.822 338.135 128.177 338.135C129.347 338.135 130.247 337.76 131.087 336.86L130.202 336.065C129.572 336.74 128.942 336.95 128.192 336.95C126.827 336.95 126.032 336.095 125.987 334.685H131.282C131.312 334.49 131.327 334.235 131.327 334.025ZM125.987 333.635C126.077 332.525 126.782 331.55 128.042 331.55C129.287 331.55 130.037 332.36 130.082 333.5C130.082 333.56 130.082 333.605 130.097 333.635H125.987ZM136.027 338.135C137.407 338.135 138.502 337.385 138.997 336.035L137.812 335.585C137.557 336.47 136.882 336.995 136.012 336.995C134.542 336.995 133.912 335.72 133.912 334.325C133.912 332.93 134.542 331.61 136.012 331.61C136.867 331.61 137.542 332.15 137.842 333.05L139.072 332.555C138.487 331.145 137.377 330.47 136.012 330.47C133.717 330.47 132.592 332.375 132.592 334.325C132.592 336.35 133.792 338.135 136.027 338.135ZM144.126 331.655V330.605H142.311V327.89L141.021 328.85V330.605H139.806V331.655H141.021V336.155C141.021 337.55 141.861 338.135 142.926 338.135C143.316 338.135 143.721 338.06 144.126 337.925V336.83C143.796 336.935 143.496 336.995 143.241 336.995C142.656 336.995 142.311 336.695 142.311 336.02V331.655H144.126ZM150.342 338H151.632V331.655H153.627V330.605H151.632V329.51C151.632 328.955 151.872 328.49 152.472 328.49C152.727 328.49 152.982 328.58 153.252 328.715L153.687 327.71C153.237 327.515 152.802 327.41 152.337 327.41C151.317 327.41 150.357 327.89 150.357 329.57V330.605H148.827V331.655H150.342V338ZM157.724 338.135C159.899 338.135 161.339 336.44 161.339 334.295C161.339 332.135 159.884 330.47 157.724 330.47C155.549 330.47 154.139 332.135 154.139 334.295C154.139 336.455 155.549 338.135 157.724 338.135ZM157.724 336.995C156.224 336.995 155.429 335.81 155.429 334.295C155.429 332.78 156.209 331.61 157.724 331.61C159.239 331.61 160.049 332.765 160.049 334.295C160.049 335.795 159.239 336.995 157.724 336.995ZM166.613 330.47C165.833 330.47 164.948 330.815 164.483 331.76V330.605H163.193V338H164.483V334.01C164.483 332.48 165.218 331.685 166.343 331.685C166.673 331.685 166.988 331.76 167.303 331.91L167.933 330.83C167.498 330.575 167.078 330.47 166.613 330.47ZM176.543 331.655V330.605H174.728V327.89L173.438 328.85V330.605H172.223V331.655H173.438V336.155C173.438 337.55 174.278 338.135 175.343 338.135C175.733 338.135 176.138 338.06 176.543 337.925V336.83C176.213 336.935 175.913 336.995 175.658 336.995C175.073 336.995 174.728 336.695 174.728 336.02V331.655H176.543ZM181.941 330.47C180.906 330.47 180.051 330.89 179.556 331.61V327.545H178.266V338H179.556V334.745C179.556 332.675 180.261 331.61 181.596 331.61C182.646 331.61 183.126 332.27 183.126 333.71V338H184.416V333.395C184.416 331.49 183.546 330.47 181.941 330.47ZM186.687 329.12H188.127V327.545H186.687V329.12ZM186.762 338H188.052V330.605H186.762V338ZM192.836 338.135C194.246 338.135 195.566 337.385 195.566 335.81C195.566 333.035 191.426 333.995 191.426 332.45C191.426 331.91 191.936 331.565 192.746 331.565C193.616 331.565 194.141 332 194.471 332.6L195.491 332.045C194.966 331.01 193.991 330.47 192.776 330.47C191.321 330.47 190.181 331.25 190.181 332.585C190.181 335.255 194.291 334.16 194.291 335.885C194.291 336.53 193.751 337.025 192.791 337.025C191.696 337.025 191.081 336.365 190.841 335.675L189.776 336.155C190.166 337.31 191.351 338.135 192.836 338.135ZM204.83 330.47C204.05 330.47 203.165 330.815 202.7 331.76V330.605H201.41V338H202.7V334.01C202.7 332.48 203.435 331.685 204.56 331.685C204.89 331.685 205.205 331.76 205.52 331.91L206.15 330.83C205.715 330.575 205.295 330.47 204.83 330.47ZM209.844 338.135C212.019 338.135 213.459 336.44 213.459 334.295C213.459 332.135 212.004 330.47 209.844 330.47C207.669 330.47 206.259 332.135 206.259 334.295C206.259 336.455 207.669 338.135 209.844 338.135ZM209.844 336.995C208.344 336.995 207.549 335.81 207.549 334.295C207.549 332.78 208.329 331.61 209.844 331.61C211.359 331.61 212.169 332.765 212.169 334.295C212.169 335.795 211.359 336.995 209.844 336.995ZM216.767 338.135C217.097 338.135 217.487 338.045 217.832 337.925L217.817 336.86C217.607 336.92 217.367 336.98 217.157 336.98C216.722 336.98 216.542 336.71 216.542 336.26V327.545H215.252V336.335C215.252 337.55 215.867 338.135 216.767 338.135ZM225.443 334.025C225.443 332.225 224.438 330.47 222.173 330.47C219.923 330.47 218.813 332.3 218.813 334.34C218.813 336.395 219.938 338.135 222.293 338.135C223.463 338.135 224.363 337.76 225.203 336.86L224.318 336.065C223.688 336.74 223.058 336.95 222.308 336.95C220.943 336.95 220.148 336.095 220.103 334.685H225.398C225.428 334.49 225.443 334.235 225.443 334.025ZM220.103 333.635C220.193 332.525 220.898 331.55 222.158 331.55C223.403 331.55 224.153 332.36 224.198 333.5C224.198 333.56 224.198 333.605 224.213 333.635H220.103Z" fill="#344356"/>
<path d="M159.432 66.2637C159.321 67.7936 158.755 68.998 157.732 69.877C156.717 70.7559 155.376 71.1953 153.709 71.1953C151.886 71.1953 150.451 70.5833 149.402 69.3594C148.361 68.1289 147.84 66.4427 147.84 64.3008V63.4316C147.84 62.0645 148.081 60.86 148.562 59.8184C149.044 58.7767 149.731 57.9792 150.623 57.4258C151.521 56.8659 152.563 56.5859 153.748 56.5859C155.389 56.5859 156.71 57.0254 157.713 57.9043C158.715 58.7832 159.295 60.0169 159.451 61.6055H156.521C156.45 60.6875 156.193 60.0234 155.75 59.6133C155.314 59.1966 154.646 58.9883 153.748 58.9883C152.771 58.9883 152.039 59.3398 151.551 60.043C151.069 60.7396 150.822 61.8236 150.809 63.2949V64.3691C150.809 65.9056 151.04 67.0286 151.502 67.7383C151.971 68.4479 152.706 68.8027 153.709 68.8027C154.614 68.8027 155.288 68.5977 155.73 68.1875C156.18 67.7708 156.437 67.1296 156.502 66.2637H159.432ZM164.148 71H161.316V56H164.148V71ZM171.346 71.1953C169.796 71.1953 168.533 70.7201 167.557 69.7695C166.587 68.819 166.102 67.5527 166.102 65.9707V65.6973C166.102 64.6361 166.307 63.6888 166.717 62.8555C167.127 62.0156 167.706 61.3711 168.455 60.9219C169.21 60.4661 170.07 60.2383 171.033 60.2383C172.479 60.2383 173.615 60.694 174.441 61.6055C175.275 62.5169 175.691 63.8092 175.691 65.4824V66.6348H168.963C169.054 67.3249 169.327 67.8783 169.783 68.2949C170.245 68.7116 170.828 68.9199 171.531 68.9199C172.618 68.9199 173.468 68.526 174.08 67.7383L175.467 69.291C175.044 69.89 174.471 70.3587 173.748 70.6973C173.025 71.0293 172.225 71.1953 171.346 71.1953ZM171.023 62.5234C170.464 62.5234 170.008 62.7122 169.656 63.0898C169.311 63.4674 169.09 64.0078 168.992 64.7109H172.918V64.4863C172.905 63.8613 172.736 63.3796 172.41 63.041C172.085 62.696 171.622 62.5234 171.023 62.5234ZM183.426 71C183.296 70.7461 183.201 70.4303 183.143 70.0527C182.459 70.8145 181.57 71.1953 180.477 71.1953C179.441 71.1953 178.582 70.8958 177.898 70.2969C177.221 69.6979 176.883 68.9427 176.883 68.0312C176.883 66.9115 177.296 66.0521 178.123 65.4531C178.956 64.8542 180.158 64.5514 181.727 64.5449H183.025V63.9395C183.025 63.4512 182.898 63.0605 182.645 62.7676C182.397 62.4746 182.003 62.3281 181.463 62.3281C180.988 62.3281 180.613 62.4421 180.34 62.6699C180.073 62.8978 179.939 63.2103 179.939 63.6074H177.117C177.117 62.9954 177.306 62.429 177.684 61.9082C178.061 61.3874 178.595 60.9805 179.285 60.6875C179.975 60.388 180.75 60.2383 181.609 60.2383C182.911 60.2383 183.943 60.5671 184.705 61.2246C185.473 61.8757 185.857 62.7936 185.857 63.9785V68.5586C185.864 69.5612 186.004 70.3197 186.277 70.834V71H183.426ZM181.092 69.0371C181.508 69.0371 181.893 68.946 182.244 68.7637C182.596 68.5749 182.856 68.3242 183.025 68.0117V66.1953H181.971C180.558 66.1953 179.806 66.6836 179.715 67.6602L179.705 67.8262C179.705 68.1777 179.829 68.4674 180.076 68.6953C180.324 68.9232 180.662 69.0371 181.092 69.0371ZM190.623 60.4336L190.711 61.6543C191.466 60.7103 192.479 60.2383 193.748 60.2383C194.868 60.2383 195.701 60.5671 196.248 61.2246C196.795 61.8822 197.075 62.8652 197.088 64.1738V71H194.266V64.2422C194.266 63.6432 194.135 63.2103 193.875 62.9434C193.615 62.6699 193.182 62.5332 192.576 62.5332C191.782 62.5332 191.186 62.8717 190.789 63.5488V71H187.967V60.4336H190.623ZM204.1 71.1953C202.55 71.1953 201.287 70.7201 200.311 69.7695C199.34 68.819 198.855 67.5527 198.855 65.9707V65.6973C198.855 64.6361 199.061 63.6888 199.471 62.8555C199.881 62.0156 200.46 61.3711 201.209 60.9219C201.964 60.4661 202.824 60.2383 203.787 60.2383C205.232 60.2383 206.368 60.694 207.195 61.6055C208.029 62.5169 208.445 63.8092 208.445 65.4824V66.6348H201.717C201.808 67.3249 202.081 67.8783 202.537 68.2949C202.999 68.7116 203.582 68.9199 204.285 68.9199C205.372 68.9199 206.222 68.526 206.834 67.7383L208.221 69.291C207.798 69.89 207.225 70.3587 206.502 70.6973C205.779 71.0293 204.979 71.1953 204.1 71.1953ZM203.777 62.5234C203.217 62.5234 202.762 62.7122 202.41 63.0898C202.065 63.4674 201.844 64.0078 201.746 64.7109H205.672V64.4863C205.659 63.8613 205.49 63.3796 205.164 63.041C204.839 62.696 204.376 62.5234 203.777 62.5234ZM215.994 63.0801C215.61 63.028 215.271 63.002 214.979 63.002C213.911 63.002 213.211 63.3633 212.879 64.0859V71H210.057V60.4336H212.723L212.801 61.6934C213.367 60.7233 214.152 60.2383 215.154 60.2383C215.467 60.2383 215.76 60.2806 216.033 60.3652L215.994 63.0801ZM225.33 60.4336V71.5762C225.33 72.7415 225.021 73.6465 224.402 74.291C223.784 74.9421 222.892 75.2676 221.727 75.2676C221.238 75.2676 220.773 75.2122 220.33 75.1016V72.8652C220.669 72.9238 220.965 72.9531 221.219 72.9531C222.072 72.9531 222.498 72.5007 222.498 71.5957V60.4336H225.33ZM222.273 57.6992C222.273 57.276 222.413 56.9277 222.693 56.6543C222.98 56.3809 223.367 56.2441 223.855 56.2441C224.344 56.2441 224.728 56.3809 225.008 56.6543C225.294 56.9277 225.438 57.276 225.438 57.6992C225.438 58.1289 225.291 58.4805 224.998 58.7539C224.712 59.0273 224.331 59.1641 223.855 59.1641C223.38 59.1641 222.996 59.0273 222.703 58.7539C222.417 58.4805 222.273 58.1289 222.273 57.6992ZM227.098 65.6191C227.098 64.571 227.299 63.6367 227.703 62.8164C228.107 61.9961 228.686 61.3613 229.441 60.9121C230.203 60.4629 231.085 60.2383 232.088 60.2383C233.514 60.2383 234.676 60.6745 235.574 61.5469C236.479 62.4193 236.984 63.6042 237.088 65.1016L237.107 65.8242C237.107 67.4453 236.655 68.7474 235.75 69.7305C234.845 70.707 233.631 71.1953 232.107 71.1953C230.584 71.1953 229.367 70.707 228.455 69.7305C227.55 68.7539 227.098 67.4258 227.098 65.7461V65.6191ZM229.92 65.8242C229.92 66.8268 230.109 67.5951 230.486 68.1289C230.864 68.6562 231.404 68.9199 232.107 68.9199C232.791 68.9199 233.325 68.6595 233.709 68.1387C234.093 67.6113 234.285 66.7715 234.285 65.6191C234.285 64.6361 234.093 63.8743 233.709 63.334C233.325 62.7936 232.785 62.5234 232.088 62.5234C231.398 62.5234 230.864 62.7936 230.486 63.334C230.109 63.8678 229.92 64.6979 229.92 65.8242ZM248.367 65.8145C248.367 67.5072 248.006 68.8288 247.283 69.7793C246.561 70.7233 245.551 71.1953 244.256 71.1953C243.11 71.1953 242.195 70.7559 241.512 69.877L241.385 71H238.846V56H241.668V61.3809C242.319 60.6191 243.175 60.2383 244.236 60.2383C245.525 60.2383 246.535 60.7135 247.264 61.6641C247.999 62.6081 248.367 63.9395 248.367 65.6582V65.8145ZM245.545 65.6094C245.545 64.5417 245.376 63.7637 245.037 63.2754C244.699 62.7806 244.194 62.5332 243.523 62.5332C242.625 62.5332 242.007 62.901 241.668 63.6367V67.8066C242.013 68.5488 242.638 68.9199 243.543 68.9199C244.454 68.9199 245.053 68.4707 245.34 67.5723C245.477 67.1426 245.545 66.4883 245.545 65.6094ZM258.074 71H255.242V60.4336H258.074V71ZM255.076 57.6992C255.076 57.276 255.216 56.9277 255.496 56.6543C255.783 56.3809 256.17 56.2441 256.658 56.2441C257.14 56.2441 257.524 56.3809 257.811 56.6543C258.097 56.9277 258.24 57.276 258.24 57.6992C258.24 58.1289 258.094 58.4805 257.801 58.7539C257.514 59.0273 257.133 59.1641 256.658 59.1641C256.183 59.1641 255.799 59.0273 255.506 58.7539C255.219 58.4805 255.076 58.1289 255.076 57.6992ZM263.006 60.4336L263.094 61.6543C263.849 60.7103 264.861 60.2383 266.131 60.2383C267.251 60.2383 268.084 60.5671 268.631 61.2246C269.178 61.8822 269.458 62.8652 269.471 64.1738V71H266.648V64.2422C266.648 63.6432 266.518 63.2103 266.258 62.9434C265.997 62.6699 265.564 62.5332 264.959 62.5332C264.165 62.5332 263.569 62.8717 263.172 63.5488V71H260.35V60.4336H263.006ZM148.27 96V81.7812H153.25C154.975 81.7812 156.284 82.1133 157.176 82.7773C158.068 83.4349 158.514 84.4017 158.514 85.6777C158.514 86.3743 158.335 86.9896 157.977 87.5234C157.618 88.0508 157.12 88.4382 156.482 88.6855C157.212 88.8678 157.785 89.2357 158.201 89.7891C158.624 90.3424 158.836 91.0195 158.836 91.8203C158.836 93.1875 158.4 94.2227 157.527 94.9258C156.655 95.6289 155.411 95.987 153.797 96H148.27ZM151.199 89.8086V93.6465H153.709C154.399 93.6465 154.936 93.4837 155.32 93.1582C155.711 92.8262 155.906 92.3704 155.906 91.791C155.906 90.4889 155.232 89.8281 153.885 89.8086H151.199ZM151.199 87.7383H153.367C154.845 87.7122 155.584 87.123 155.584 85.9707C155.584 85.3262 155.395 84.8639 155.018 84.584C154.646 84.2975 154.057 84.1543 153.25 84.1543H151.199V87.7383ZM166.795 88.0801C166.411 88.028 166.072 88.002 165.779 88.002C164.712 88.002 164.012 88.3633 163.68 89.0859V96H160.857V85.4336H163.523L163.602 86.6934C164.168 85.7233 164.952 85.2383 165.955 85.2383C166.268 85.2383 166.561 85.2806 166.834 85.3652L166.795 88.0801ZM171.141 96H168.309V85.4336H171.141V96ZM168.143 82.6992C168.143 82.276 168.283 81.9277 168.562 81.6543C168.849 81.3809 169.236 81.2441 169.725 81.2441C170.206 81.2441 170.59 81.3809 170.877 81.6543C171.163 81.9277 171.307 82.276 171.307 82.6992C171.307 83.1289 171.16 83.4805 170.867 83.7539C170.581 84.0273 170.2 84.1641 169.725 84.1641C169.249 84.1641 168.865 84.0273 168.572 83.7539C168.286 83.4805 168.143 83.1289 168.143 82.6992ZM173.064 90.6387C173.064 89.0176 173.449 87.7122 174.217 86.7227C174.992 85.7331 176.033 85.2383 177.342 85.2383C178.501 85.2383 179.402 85.6354 180.047 86.4297L180.164 85.4336H182.723V95.6484C182.723 96.5729 182.511 97.377 182.088 98.0605C181.671 98.7441 181.082 99.265 180.32 99.623C179.559 99.9811 178.667 100.16 177.645 100.16C176.87 100.16 176.115 100.004 175.379 99.6914C174.643 99.3854 174.087 98.9883 173.709 98.5L174.959 96.7812C175.662 97.569 176.515 97.9629 177.518 97.9629C178.266 97.9629 178.849 97.7611 179.266 97.3574C179.682 96.9603 179.891 96.3939 179.891 95.6582V95.0918C179.24 95.8275 178.383 96.1953 177.322 96.1953C176.053 96.1953 175.024 95.7005 174.236 94.7109C173.455 93.7148 173.064 92.3965 173.064 90.7559V90.6387ZM175.887 90.8438C175.887 91.8008 176.079 92.5527 176.463 93.0996C176.847 93.64 177.374 93.9102 178.045 93.9102C178.904 93.9102 179.52 93.5879 179.891 92.9434V88.5C179.513 87.8555 178.904 87.5332 178.064 87.5332C177.387 87.5332 176.854 87.8099 176.463 88.3633C176.079 88.9167 175.887 89.7435 175.887 90.8438ZM187.654 86.5859C188.403 85.6875 189.344 85.2383 190.477 85.2383C192.768 85.2383 193.93 86.5697 193.963 89.2324V96H191.141V89.3105C191.141 88.7051 191.01 88.2591 190.75 87.9727C190.49 87.6797 190.057 87.5332 189.451 87.5332C188.624 87.5332 188.025 87.8522 187.654 88.4902V96H184.832V81H187.654V86.5859ZM199.471 82.8359V85.4336H201.277V87.5039H199.471V92.7773C199.471 93.168 199.546 93.4479 199.695 93.6172C199.845 93.7865 200.132 93.8711 200.555 93.8711C200.867 93.8711 201.144 93.8483 201.385 93.8027V95.9414C200.831 96.1107 200.262 96.1953 199.676 96.1953C197.697 96.1953 196.688 95.196 196.648 93.1973V87.5039H195.105V85.4336H196.648V82.8359H199.471ZM202.117 90.6191C202.117 89.571 202.319 88.6367 202.723 87.8164C203.126 86.9961 203.706 86.3613 204.461 85.9121C205.223 85.4629 206.105 85.2383 207.107 85.2383C208.533 85.2383 209.695 85.6745 210.594 86.5469C211.499 87.4193 212.003 88.6042 212.107 90.1016L212.127 90.8242C212.127 92.4453 211.674 93.7474 210.77 94.7305C209.865 95.707 208.65 96.1953 207.127 96.1953C205.604 96.1953 204.386 95.707 203.475 94.7305C202.57 93.7539 202.117 92.4258 202.117 90.7461V90.6191ZM204.939 90.8242C204.939 91.8268 205.128 92.5951 205.506 93.1289C205.883 93.6562 206.424 93.9199 207.127 93.9199C207.811 93.9199 208.344 93.6595 208.729 93.1387C209.113 92.6113 209.305 91.7715 209.305 90.6191C209.305 89.6361 209.113 88.8743 208.729 88.334C208.344 87.7936 207.804 87.5234 207.107 87.5234C206.417 87.5234 205.883 87.7936 205.506 88.334C205.128 88.8678 204.939 89.6979 204.939 90.8242ZM216.463 85.4336L216.551 86.6543C217.306 85.7103 218.318 85.2383 219.588 85.2383C220.708 85.2383 221.541 85.5671 222.088 86.2246C222.635 86.8822 222.915 87.8652 222.928 89.1738V96H220.105V89.2422C220.105 88.6432 219.975 88.2103 219.715 87.9434C219.454 87.6699 219.021 87.5332 218.416 87.5332C217.622 87.5332 217.026 87.8717 216.629 88.5488V96H213.807V85.4336H216.463Z" fill="#344356"/>
<path opacity="0.6" d="M148.596 45H151.886C153.888 45 155.008 44.02 155.008 42.27C155.008 40.968 154.378 40.1 153.216 39.806C154.042 39.456 154.504 38.686 154.504 37.678C154.504 36.138 153.426 35.242 151.592 35.242H148.596V45ZM149.59 39.498V36.166H151.592C152.81 36.166 153.51 36.782 153.51 37.846C153.51 38.868 152.866 39.498 151.788 39.498H149.59ZM149.59 44.076V40.366H152.082C153.3 40.366 154 41.038 154 42.186C154 43.404 153.216 44.076 151.816 44.076H149.59ZM160.143 37.986C159.443 37.986 158.603 38.224 158.099 39.134V38.098H157.133V45H158.099V41.15C158.099 39.652 158.883 38.854 159.947 38.854C160.241 38.854 160.535 38.924 160.857 39.064L161.333 38.28C160.955 38.07 160.563 37.986 160.143 37.986ZM162.682 36.67H163.802V35.242H162.682V36.67ZM162.766 45H163.732V38.098H162.766V45ZM168.66 44.16C167.666 44.006 166.798 43.838 166.798 43.138C166.798 42.844 166.966 42.592 167.246 42.438C167.652 42.662 168.142 42.788 168.674 42.788C170.13 42.788 171.278 41.85 171.278 40.436C171.278 39.946 171.138 39.512 170.9 39.134L171.838 38.35L171.334 37.72L170.382 38.546C169.934 38.196 169.332 37.986 168.66 37.986C167.176 37.986 166.028 38.98 166.028 40.38C166.028 40.996 166.252 41.528 166.616 41.948C166.126 42.284 165.874 42.704 165.874 43.264C165.874 43.95 166.238 44.342 166.77 44.58L165.65 45.532C165.636 45.616 165.622 45.7 165.622 45.84C165.622 47.212 166.784 47.968 168.702 47.968C170.438 47.968 171.656 47.366 171.656 46.064C171.656 44.566 170.032 44.37 168.66 44.16ZM168.674 38.798C169.668 38.798 170.312 39.456 170.312 40.408C170.312 41.318 169.696 41.99 168.66 41.99C167.624 41.99 166.98 41.304 166.98 40.408C166.98 39.456 167.694 38.798 168.674 38.798ZM168.744 47.156C167.568 47.156 166.574 46.848 166.574 45.868C166.574 45.84 166.574 45.812 166.588 45.742L167.526 44.832C167.82 44.902 168.142 44.958 168.45 45C169.598 45.182 170.69 45.308 170.69 46.148C170.69 46.82 169.962 47.156 168.744 47.156ZM176.829 37.986C175.835 37.986 174.995 38.406 174.547 39.106V35.242H173.581V45H174.547V41.822C174.547 39.918 175.289 38.84 176.605 38.84C177.641 38.84 178.117 39.512 178.117 41.01V45H179.083V40.772C179.083 38.938 178.313 37.986 176.829 37.986ZM184.325 44.076C184.017 44.174 183.751 44.23 183.513 44.23C182.967 44.23 182.659 43.922 182.659 43.25V38.91H184.325V38.098H182.659V35.578L181.693 36.306V38.098H180.545V38.91H181.693V43.376C181.693 44.594 182.365 45.112 183.289 45.112C183.611 45.112 183.975 45.042 184.339 44.93L184.325 44.076ZM188.806 45.112C190.78 45.112 192.124 43.572 192.124 41.542C192.124 39.498 190.766 37.986 188.806 37.986C186.832 37.986 185.502 39.498 185.502 41.542C185.502 43.586 186.832 45.112 188.806 45.112ZM188.806 44.258C187.336 44.258 186.468 43.11 186.468 41.542C186.468 39.988 187.322 38.84 188.806 38.84C190.276 38.84 191.158 39.974 191.158 41.542C191.158 43.082 190.29 44.258 188.806 44.258ZM197.323 37.986C196.329 37.986 195.489 38.406 195.041 39.106V38.098H194.075V45H195.041V41.906C195.041 39.96 195.797 38.84 197.099 38.84C198.135 38.84 198.611 39.526 198.611 41.01V45H199.577V40.772C199.577 38.938 198.807 37.986 197.323 37.986ZM212.036 45H213.142L209.488 35.242H208.662L205.022 45H206.114L207.052 42.382H211.112L212.036 45ZM207.346 41.528L209.082 36.656L210.804 41.528H207.346ZM217.866 37.986C217.166 37.986 216.326 38.224 215.822 39.134V38.098H214.856V45H215.822V41.15C215.822 39.652 216.606 38.854 217.67 38.854C217.964 38.854 218.258 38.924 218.58 39.064L219.056 38.28C218.678 38.07 218.286 37.986 217.866 37.986ZM223.7 44.076C223.392 44.174 223.126 44.23 222.888 44.23C222.342 44.23 222.034 43.922 222.034 43.25V38.91H223.7V38.098H222.034V35.578L221.068 36.306V38.098H219.92V38.91H221.068V43.376C221.068 44.594 221.74 45.112 222.664 45.112C222.986 45.112 223.35 45.042 223.714 44.93L223.7 44.076ZM234.29 40.772H236.642V41.08C236.642 43.306 235.172 44.188 233.492 44.188C231.07 44.188 230.048 42.382 230.048 40.058C230.048 37.65 231.21 36.054 233.562 36.054C235.186 36.054 236.166 36.796 236.656 38.126L237.58 37.776C236.936 36.096 235.62 35.102 233.562 35.102C230.566 35.102 229.054 37.202 229.054 40.1C229.054 43.012 230.58 45.14 233.422 45.14C234.92 45.14 236.11 44.552 236.642 43.474L236.782 45H237.58V39.96H234.29V40.772ZM242.488 37.986C241.312 37.986 240.416 38.434 239.674 39.4L240.374 39.988C240.934 39.218 241.606 38.84 242.474 38.84C243.636 38.84 244.266 39.498 244.266 40.702V41.024H242.852C241.494 41.024 240.752 41.15 240.22 41.458C239.716 41.766 239.436 42.298 239.436 42.998C239.436 44.328 240.318 45.112 241.816 45.112C242.908 45.112 243.748 44.706 244.294 43.936L244.35 45H245.232V40.702C245.232 38.98 244.224 37.986 242.488 37.986ZM242.096 44.314C241.06 44.314 240.402 43.824 240.402 43.054C240.402 42.662 240.528 42.354 240.78 42.158C241.116 41.892 241.662 41.808 242.936 41.808H244.266V41.906C244.266 43.376 243.426 44.314 242.096 44.314ZM248.847 45.112C249.155 45.112 249.505 45.028 249.799 44.93L249.785 44.104C249.575 44.174 249.337 44.23 249.127 44.23C248.665 44.23 248.497 43.922 248.497 43.446V35.242H247.531V43.502C247.531 44.58 248.049 45.112 248.847 45.112ZM252.62 45.112C252.928 45.112 253.278 45.028 253.572 44.93L253.558 44.104C253.348 44.174 253.11 44.23 252.9 44.23C252.438 44.23 252.27 43.922 252.27 43.446V35.242H251.304V43.502C251.304 44.58 251.822 45.112 252.62 45.112ZM260.635 41.206C260.635 39.638 259.753 37.986 257.639 37.986C255.637 37.986 254.573 39.638 254.573 41.584C254.573 43.544 255.651 45.112 257.751 45.112C258.815 45.112 259.613 44.804 260.425 43.95L259.753 43.362C259.123 44.034 258.521 44.23 257.765 44.23C256.407 44.23 255.567 43.32 255.539 41.808H260.593C260.621 41.64 260.635 41.402 260.635 41.206ZM257.639 38.798C258.913 38.798 259.627 39.652 259.697 40.772C259.697 40.898 259.711 40.968 259.711 40.996H255.539C255.623 39.778 256.393 38.798 257.639 38.798ZM265.595 37.986C264.895 37.986 264.055 38.224 263.551 39.134V38.098H262.585V45H263.551V41.15C263.551 39.652 264.335 38.854 265.399 38.854C265.693 38.854 265.987 38.924 266.309 39.064L266.785 38.28C266.407 38.07 266.015 37.986 265.595 37.986ZM269.178 47.856H270.214L273.994 38.098H272.93L270.844 43.782L268.464 38.098H267.4L270.326 44.916L269.178 47.856Z" fill="#344356"/>
<circle cx="65.5" cy="164.5" r="12.5" fill="white"/>
<circle cx="66" cy="164" r="4" fill="#E8EEF4"/>
<circle cx="66" cy="244" r="4" fill="#E8EEF4"/>
<circle cx="65.5" cy="321.5" r="12.5" fill="white"/>
<circle cx="66" cy="321" r="4" fill="#E8EEF4"/>
<circle cx="65.5" cy="241.5" r="12.5" fill="white"/>
<circle cx="66" cy="241" r="4" fill="#E8EEF4"/>
<path d="M310.456 182.12C312.088 182.12 313.552 181.232 313.552 179.54C313.552 178.628 313.132 177.776 312.136 177.464C312.844 177.08 313.108 176.456 313.108 175.808C313.108 174.368 311.824 173.516 310.432 173.516C308.992 173.516 307.756 174.428 307.756 176L309.172 176.096C309.184 175.34 309.688 174.896 310.456 174.896C311.128 174.896 311.668 175.244 311.668 175.988C311.668 176.636 311.248 177.056 310.084 177.056V178.196C310.984 178.196 312.112 178.232 312.112 179.384C312.112 180.344 311.344 180.74 310.492 180.74C309.508 180.74 308.776 180.224 308.776 179.276L307.348 179.36C307.348 181.208 308.788 182.12 310.456 182.12ZM317.607 182.12C319.851 182.12 320.415 179.9 320.415 177.836C320.415 175.748 319.827 173.504 317.523 173.504C314.991 173.504 314.703 176.036 314.703 177.824C314.703 179.588 315.015 182.12 317.607 182.12ZM317.571 180.74C316.215 180.74 316.179 179.192 316.179 177.824C316.179 176.408 316.215 174.884 317.523 174.884C318.831 174.884 318.867 176.396 318.867 177.812C318.867 179.156 318.843 180.74 317.571 180.74ZM323.763 182.12C324.879 182.12 326.067 181.52 326.067 180.14C326.067 177.98 322.971 178.508 322.971 177.608C322.971 177.332 323.259 177.104 323.727 177.104C324.375 177.104 324.699 177.488 324.903 177.86L326.019 177.248C325.575 176.444 324.795 175.964 323.775 175.964C322.635 175.964 321.603 176.552 321.603 177.692C321.603 179.888 324.651 179.228 324.651 180.224C324.651 180.536 324.363 180.92 323.691 180.92C322.899 180.92 322.587 180.38 322.431 179.948L321.279 180.464C321.567 181.364 322.515 182.12 323.763 182.12Z" fill="#ADB8FA"/>
<path fill-rule="evenodd" clip-rule="evenodd" d="M316 151.844C319.952 151.844 323.156 155.048 323.156 159C323.156 162.952 319.952 166.156 316 166.156C312.048 166.156 308.844 162.952 308.844 159C308.844 155.048 312.048 151.844 316 151.844Z" fill="black" fill-opacity="0.01" stroke="#ADB8FA" stroke-width="1.41935"/>
<path fill-rule="evenodd" clip-rule="evenodd" d="M316 158.998H315.349V154.444H316V158.998Z" fill="black" fill-opacity="0.01" stroke="#ADB8FA" stroke-width="0.709677"/>
<path fill-rule="evenodd" clip-rule="evenodd" d="M319.398 160.663L319.107 161.244L315.204 159.293L315.495 158.711L319.398 160.663Z" fill="black" fill-opacity="0.01" stroke="#ADB8FA" stroke-width="0.709677"/>
<path d="M310.456 339.12C312.088 339.12 313.552 338.232 313.552 336.54C313.552 335.628 313.132 334.776 312.136 334.464C312.844 334.08 313.108 333.456 313.108 332.808C313.108 331.368 311.824 330.516 310.432 330.516C308.992 330.516 307.756 331.428 307.756 333L309.172 333.096C309.184 332.34 309.688 331.896 310.456 331.896C311.128 331.896 311.668 332.244 311.668 332.988C311.668 333.636 311.248 334.056 310.084 334.056V335.196C310.984 335.196 312.112 335.232 312.112 336.384C312.112 337.344 311.344 337.74 310.492 337.74C309.508 337.74 308.776 337.224 308.776 336.276L307.348 336.36C307.348 338.208 308.788 339.12 310.456 339.12ZM317.607 339.12C319.851 339.12 320.415 336.9 320.415 334.836C320.415 332.748 319.827 330.504 317.523 330.504C314.991 330.504 314.703 333.036 314.703 334.824C314.703 336.588 315.015 339.12 317.607 339.12ZM317.571 337.74C316.215 337.74 316.179 336.192 316.179 334.824C316.179 333.408 316.215 331.884 317.523 331.884C318.831 331.884 318.867 333.396 318.867 334.812C318.867 336.156 318.843 337.74 317.571 337.74ZM323.763 339.12C324.879 339.12 326.067 338.52 326.067 337.14C326.067 334.98 322.971 335.508 322.971 334.608C322.971 334.332 323.259 334.104 323.727 334.104C324.375 334.104 324.699 334.488 324.903 334.86L326.019 334.248C325.575 333.444 324.795 332.964 323.775 332.964C322.635 332.964 321.603 333.552 321.603 334.692C321.603 336.888 324.651 336.228 324.651 337.224C324.651 337.536 324.363 337.92 323.691 337.92C322.899 337.92 322.587 337.38 322.431 336.948L321.279 337.464C321.567 338.364 322.515 339.12 323.763 339.12Z" fill="#ADB8FA"/>
<path fill-rule="evenodd" clip-rule="evenodd" d="M316 308.844C319.952 308.844 323.156 312.048 323.156 316C323.156 319.952 319.952 323.156 316 323.156C312.048 323.156 308.844 319.952 308.844 316C308.844 312.048 312.048 308.844 316 308.844Z" fill="black" fill-opacity="0.01" stroke="#ADB8FA" stroke-width="1.41935"/>
<path fill-rule="evenodd" clip-rule="evenodd" d="M316 315.998H315.349V311.444H316V315.998Z" fill="black" fill-opacity="0.01" stroke="#ADB8FA" stroke-width="0.709677"/>
<path fill-rule="evenodd" clip-rule="evenodd" d="M319.398 317.663L319.107 318.244L315.204 316.293L315.495 315.711L319.398 317.663Z" fill="black" fill-opacity="0.01" stroke="#ADB8FA" stroke-width="0.709677"/>
<path d="M310.456 259.12C312.088 259.12 313.552 258.232 313.552 256.54C313.552 255.628 313.132 254.776 312.136 254.464C312.844 254.08 313.108 253.456 313.108 252.808C313.108 251.368 311.824 250.516 310.432 250.516C308.992 250.516 307.756 251.428 307.756 253L309.172 253.096C309.184 252.34 309.688 251.896 310.456 251.896C311.128 251.896 311.668 252.244 311.668 252.988C311.668 253.636 311.248 254.056 310.084 254.056V255.196C310.984 255.196 312.112 255.232 312.112 256.384C312.112 257.344 311.344 257.74 310.492 257.74C309.508 257.74 308.776 257.224 308.776 256.276L307.348 256.36C307.348 258.208 308.788 259.12 310.456 259.12ZM317.607 259.12C319.851 259.12 320.415 256.9 320.415 254.836C320.415 252.748 319.827 250.504 317.523 250.504C314.991 250.504 314.703 253.036 314.703 254.824C314.703 256.588 315.015 259.12 317.607 259.12ZM317.571 257.74C316.215 257.74 316.179 256.192 316.179 254.824C316.179 253.408 316.215 251.884 317.523 251.884C318.831 251.884 318.867 253.396 318.867 254.812C318.867 256.156 318.843 257.74 317.571 257.74ZM323.763 259.12C324.879 259.12 326.067 258.52 326.067 257.14C326.067 254.98 322.971 255.508 322.971 254.608C322.971 254.332 323.259 254.104 323.727 254.104C324.375 254.104 324.699 254.488 324.903 254.86L326.019 254.248C325.575 253.444 324.795 252.964 323.775 252.964C322.635 252.964 321.603 253.552 321.603 254.692C321.603 256.888 324.651 256.228 324.651 257.224C324.651 257.536 324.363 257.92 323.691 257.92C322.899 257.92 322.587 257.38 322.431 256.948L321.279 257.464C321.567 258.364 322.515 259.12 323.763 259.12Z" fill="#ADB8FA"/>
<path fill-rule="evenodd" clip-rule="evenodd" d="M316 228.844C319.952 228.844 323.156 232.048 323.156 236C323.156 239.952 319.952 243.156 316 243.156C312.048 243.156 308.844 239.952 308.844 236C308.844 232.048 312.048 228.844 316 228.844Z" fill="black" fill-opacity="0.01" stroke="#ADB8FA" stroke-width="1.41935"/>
<path fill-rule="evenodd" clip-rule="evenodd" d="M316 235.998H315.349V231.444H316V235.998Z" fill="black" fill-opacity="0.01" stroke="#ADB8FA" stroke-width="0.709677"/>
<path fill-rule="evenodd" clip-rule="evenodd" d="M319.398 237.663L319.107 238.244L315.204 236.293L315.495 235.711L319.398 237.663Z" fill="black" fill-opacity="0.01" stroke="#ADB8FA" stroke-width="0.709677"/>
<g clip-path="url(#clip0_1858_4208)">
<g filter="url(#filter2_d_1858_4208)">
<path fill-rule="evenodd" clip-rule="evenodd" d="M85.1816 112.966C110.474 112.966 130.977 92.4625 130.977 67.1704C130.977 41.8782 110.474 21.375 85.1816 21.375C59.8896 21.375 39.3862 41.8782 39.3862 67.1704C39.3862 92.4625 59.8896 112.966 85.1816 112.966Z" fill="white"/>
</g>
<path fill-rule="evenodd" clip-rule="evenodd" d="M85.5336 106.622C107.129 106.622 124.636 89.1153 124.636 67.5199C124.636 45.9246 107.129 28.418 85.5336 28.418C63.9383 28.418 46.4316 45.9246 46.4316 67.5199C46.4316 89.1153 63.9383 106.622 85.5336 106.622Z" fill="#AEB8FF"/>
<g filter="url(#filter3_d_1858_4208)">
<path fill-rule="evenodd" clip-rule="evenodd" d="M71.5387 40.4188C60.2586 40.6601 51.0261 49.7928 50.6697 61.0696C50.4925 66.6719 52.4751 71.8087 55.8473 75.7115C57.3659 77.4688 57.7995 79.9178 57.0182 82.1051L55.6138 86.0371C55.1571 87.3161 56.6381 88.4093 57.7258 87.5958L62.7065 83.8708C64.1888 82.7623 66.0707 82.3501 67.8863 82.7078C69.7773 83.0804 71.7571 83.2033 73.7934 83.0351C84.5063 82.1484 92.9549 73.2888 93.34 62.5461C93.7811 50.2417 83.8043 40.1562 71.5387 40.4188Z" fill="#5468FF"/>
</g>
<path fill-rule="evenodd" clip-rule="evenodd" d="M68.9348 75.4766C68.5612 77.1977 66.764 78.3898 65.0431 78.0162C63.1958 77.6153 62.1385 75.8035 62.5122 74.0825C62.8948 72.3192 64.5992 71.1508 66.446 71.5518C68.1673 71.9253 69.3175 73.7134 68.9348 75.4766ZM69.8686 67.3275C69.5859 68.6289 68.0401 68.8649 67.0328 68.6462C65.6892 68.3546 64.6744 67.5628 64.9571 66.2615C66.0413 61.2659 67.0117 53.9601 68.0962 48.9644C68.4515 47.3273 69.9954 46.6953 71.7163 47.069C73.3535 47.4242 74.5384 48.6484 74.1829 50.2856C73.0985 55.2812 70.9528 62.3319 69.8686 67.3275Z" fill="white"/>
<g filter="url(#filter4_d_1858_4208)">
<path fill-rule="evenodd" clip-rule="evenodd" d="M115.901 83.3742C114.094 85.5542 113.522 88.5006 114.473 91.1659L115.148 93.0572C114.296 94.0451 113.394 94.99 112.447 95.8885L108.253 92.7555C106.483 91.4357 104.245 90.9124 102.075 91.3158C100.675 91.5777 99.1077 91.8093 97.9698 91.8093C85.1141 91.8093 74.6938 81.389 74.6938 68.5331C74.6921 55.6901 85.1251 45.2569 97.9698 45.2569C110.824 45.2569 121.246 55.6772 121.246 68.5331C121.246 74.1732 119.239 79.3461 115.901 83.3742Z" fill="white"/>
</g>
<path fill-rule="evenodd" clip-rule="evenodd" d="M102.443 69.3824C100.277 71.0761 100.237 72.2583 100.237 74.3069C100.237 75.0556 99.843 75.922 97.9125 75.922C96.2977 75.922 95.746 75.3312 95.746 73.2825C95.746 69.8942 97.2431 68.279 98.3855 67.2941C99.6858 66.1912 101.892 64.9696 101.892 62.8424C101.892 61.0301 100.316 60.1632 98.3461 60.1632C94.3278 60.1632 95.1942 63.1969 93.0669 63.1969C92.0032 63.1969 90.7031 62.4879 90.7031 60.951C90.7031 58.824 93.1458 55.6719 98.4644 55.6719C103.507 55.6719 106.856 58.4692 106.856 62.1725C106.856 65.8756 103.507 68.5549 102.443 69.3824ZM100.986 81.6741C100.986 83.2892 99.6459 84.7077 97.9522 84.7077C96.2582 84.7077 94.9579 83.2892 94.9579 81.6741C94.9579 80.0195 96.2977 78.6406 97.9522 78.6406C99.6067 78.6406 100.986 80.0195 100.986 81.6741Z" fill="#00D9CD"/>
<path fill-rule="evenodd" clip-rule="evenodd" d="M87.8955 59.4291C87.8955 58.4391 87.0929 57.6367 86.1028 57.6367C85.1128 57.6367 84.3105 58.4391 84.3105 59.4291V66.5994H77.1404C76.1492 66.5994 75.3477 67.4004 75.3477 68.3918C75.3477 69.3831 76.1492 70.1842 77.1404 70.1842H84.3105V77.3544C84.3105 78.3444 85.1128 79.1468 86.1028 79.1468C87.0929 79.1468 87.8955 78.3444 87.8955 77.3544V70.1842H95.0657C96.0565 70.1842 96.858 69.3831 96.858 68.3918C96.858 67.4004 96.0565 66.5994 95.0657 66.5994H87.8955V59.4291Z" fill="white"/>
<g filter="url(#filter5_d_1858_4208)">
<path fill-rule="evenodd" clip-rule="evenodd" d="M85.4697 93.0654C99.4459 93.0654 110.775 81.7358 110.775 67.7594C110.775 53.7827 99.4459 42.4531 85.4697 42.4531C71.494 42.4531 60.1631 53.7827 60.1631 67.7594C60.1631 81.7358 71.494 93.0654 85.4697 93.0654Z" fill="#61E4DF"/>
</g>
<path fill-rule="evenodd" clip-rule="evenodd" d="M87.8955 59.4291C87.8955 58.4391 87.0929 57.6367 86.1028 57.6367C85.1128 57.6367 84.3105 58.4391 84.3105 59.4291V66.5994H77.1404C76.1492 66.5994 75.3477 67.4004 75.3477 68.3918C75.3477 69.3831 76.1492 70.1842 77.1404 70.1842H84.3105V77.3544C84.3105 78.3444 85.1128 79.1468 86.1028 79.1468C87.0929 79.1468 87.8955 78.3444 87.8955 77.3544V70.1842H95.0657C96.0565 70.1842 96.858 69.3831 96.858 68.3918C96.858 67.4004 96.0565 66.5994 95.0657 66.5994H87.8955V59.4291Z" fill="white"/>
</g>
<rect x="316" y="24" width="20" height="1.625" fill="#ADB8FA"/>
<rect x="316" y="29.6875" width="20" height="1.625" fill="#ADB8FA"/>
<rect x="316" y="35.375" width="20" height="1.625" fill="#ADB8FA"/>
</g>
<defs>
<filter id="filter0_d_1858_4208" x="0.09091" y="0.802557" width="375.818" height="535.053" filterUnits="userSpaceOnUse" color-interpolation-filters="sRGB">
<feFlood flood-opacity="0" result="BackgroundImageFix"/>
<feColorMatrix in="SourceAlpha" type="matrix" values="0 0 0 0 0 0 0 0 0 0 0 0 0 0 0 0 0 0 127 0" result="hardAlpha"/>
<feOffset dy="17.7273"/>
<feGaussianBlur stdDeviation="9.45455"/>
<feComposite in2="hardAlpha" operator="out"/>
<feColorMatrix type="matrix" values="0 0 0 0 0 0 0 0 0 0.0779727 0 0 0 0 0.666667 0 0 0 0.03 0"/>
<feBlend mode="normal" in2="BackgroundImageFix" result="effect1_dropShadow_1858_4208"/>
<feBlend mode="normal" in="SourceGraphic" in2="effect1_dropShadow_1858_4208" result="shape"/>
</filter>
<filter id="filter1_d_1858_4208" x="-6" y="344" width="388" height="165" filterUnits="userSpaceOnUse" color-interpolation-filters="sRGB">
<feFlood flood-opacity="0" result="BackgroundImageFix"/>
<feColorMatrix in="SourceAlpha" type="matrix" values="0 0 0 0 0 0 0 0 0 0 0 0 0 0 0 0 0 0 127 0" result="hardAlpha"/>
<feOffset dy="10"/>
<feGaussianBlur stdDeviation="12.5"/>
<feColorMatrix type="matrix" values="0 0 0 0 0.330297 0 0 0 0 0.409583 0 0 0 0 1 0 0 0 0.3 0"/>
<feBlend mode="normal" in2="BackgroundImageFix" result="effect1_dropShadow_1858_4208"/>
<feBlend mode="normal" in="SourceGraphic" in2="effect1_dropShadow_1858_4208" result="shape"/>
</filter>
<filter id="filter2_d_1858_4208" x="25.9999" y="16.4432" width="118.364" height="118.363" filterUnits="userSpaceOnUse" color-interpolation-filters="sRGB">
<feFlood flood-opacity="0" result="BackgroundImageFix"/>
<feColorMatrix in="SourceAlpha" type="matrix" values="0 0 0 0 0 0 0 0 0 0 0 0 0 0 0 0 0 0 127 0" result="hardAlpha"/>
<feOffset dy="8.45455"/>
<feGaussianBlur stdDeviation="6.69318"/>
<feColorMatrix type="matrix" values="0 0 0 0 0.235294 0 0 0 0 0.501961 0 0 0 0 0.819608 0 0 0 0.09 0"/>
<feBlend mode="normal" in2="BackgroundImageFix" result="effect1_dropShadow_1858_4208"/>
<feBlend mode="normal" in="SourceGraphic" in2="effect1_dropShadow_1858_4208" result="shape"/>
</filter>
<filter id="filter3_d_1858_4208" x="41.4996" y="36.1868" width="61.0135" height="65.7791" filterUnits="userSpaceOnUse" color-interpolation-filters="sRGB">
<feFlood flood-opacity="0" result="BackgroundImageFix"/>
<feColorMatrix in="SourceAlpha" type="matrix" values="0 0 0 0 0 0 0 0 0 0 0 0 0 0 0 0 0 0 127 0" result="hardAlpha"/>
<feOffset dy="4.93182"/>
<feGaussianBlur stdDeviation="4.57955"/>
<feColorMatrix type="matrix" values="0 0 0 0 0.239216 0 0 0 0 0.337255 0 0 0 0 0.941176 0 0 0 0.53 0"/>
<feBlend mode="normal" in2="BackgroundImageFix" result="effect1_dropShadow_1858_4208"/>
<feBlend mode="normal" in="SourceGraphic" in2="effect1_dropShadow_1858_4208" result="shape"/>
</filter>
<filter id="filter4_d_1858_4208" x="65.5348" y="41.0305" width="64.8699" height="68.9471" filterUnits="userSpaceOnUse" color-interpolation-filters="sRGB">
<feFlood flood-opacity="0" result="BackgroundImageFix"/>
<feColorMatrix in="SourceAlpha" type="matrix" values="0 0 0 0 0 0 0 0 0 0 0 0 0 0 0 0 0 0 127 0" result="hardAlpha"/>
<feOffset dy="4.93182"/>
<feGaussianBlur stdDeviation="4.57955"/>
<feColorMatrix type="matrix" values="0 0 0 0 0.239216 0 0 0 0 0.337255 0 0 0 0 0.941176 0 0 0 0.53 0"/>
<feBlend mode="normal" in2="BackgroundImageFix" result="effect1_dropShadow_1858_4208"/>
<feBlend mode="normal" in="SourceGraphic" in2="effect1_dropShadow_1858_4208" result="shape"/>
</filter>
<filter id="filter5_d_1858_4208" x="55.1019" y="38.6572" width="60.7348" height="60.7357" filterUnits="userSpaceOnUse" color-interpolation-filters="sRGB">
<feFlood flood-opacity="0" result="BackgroundImageFix"/>
<feColorMatrix in="SourceAlpha" type="matrix" values="0 0 0 0 0 0 0 0 0 0 0 0 0 0 0 0 0 0 127 0" result="hardAlpha"/>
<feOffset dy="1.26531"/>
<feGaussianBlur stdDeviation="2.53061"/>
<feComposite in2="hardAlpha" operator="out"/>
<feColorMatrix type="matrix" values="0 0 0 0 0 0 0 0 0 0 0 0 0 0 0 0 0 0 0.3 0"/>
<feBlend mode="normal" in2="BackgroundImageFix" result="effect1_dropShadow_1858_4208"/>
<feBlend mode="normal" in="SourceGraphic" in2="effect1_dropShadow_1858_4208" result="shape"/>
</filter>
<clipPath id="clip0_1858_4208">
<rect width="124" height="123.295" fill="white" transform="translate(26 17.1484)"/>
</clipPath>
</defs>
</svg>
