<svg width="338" height="626" viewBox="0 0 338 626" fill="none" xmlns="http://www.w3.org/2000/svg">
<path d="M0 30.0031C0 13.4329 13.4315 0 30 0H308C324.569 0 338 13.4329 338 30.0031V565.059C338 581.63 324.569 595.062 308 595.062H169H30C13.4315 595.062 0 581.63 0 565.059V30.0031Z" fill="url(#paint0_linear_15_333)" fill-opacity="0.85"/>
<path d="M338 560C248 523.5 51.9998 210.002 41 1C293 0.994216 292.195 0.999488 304 0.999488C309.554 0.999386 310.723 0.849059 313.5 1.49882C316.5 1.99882 319.392 3.19498 322 4.49882C324 5.49882 327 7.49882 329.5 9.99882C331.279 12.0315 333.5 14.4988 335 17.9988C335.5 18.4988 337 22.4988 337.589 25.7129C337.836 27.5447 338 28.4988 338 32.4995C338 32.4995 338 363.604 338 560Z" fill="white" fill-opacity="0.03"/>
<!--<path d="M177.163 616.962C172.795 621.798 165.205 621.798 160.837 616.962L141 595H197L177.163 616.962Z" fill="#6C7DFB"/>-->
<defs>
<linearGradient id="paint0_linear_15_333" x1="-31" y1="550.558" x2="224.106" y2="-45.5184" gradientUnits="userSpaceOnUse">
<stop stop-color="#5468FF"/>
<stop offset="1" stop-color="#7B8BFF"/>
</linearGradient>
</defs>
</svg>
